<svg id="Слой_1" data-name="Слой 1" xmlns="http://www.w3.org/2000/svg" viewBox="0 0 100 100"><defs><style>.cls-1{fill:#ff5714;}.cls-2{fill:#f2f4f3;}</style></defs><circle class="cls-1" cx="50" cy="50" r="50"/><path class="cls-2" d="M81.9,55.3a1.08,1.08,0,0,0,.6-1V50a1.08,1.08,0,0,0-1.08-1.08H76V29.42a1.09,1.09,0,0,0-1.08-1.09H56.5a1.1,1.1,0,0,0-1,.69l-9,23L41.33,50.3V30.5a1.08,1.08,0,0,0-1.08-1.08H35.92a1.08,1.08,0,0,0-1.09,1.08V50H31.58a1.08,1.08,0,0,0-1.08,1.08V65.17H18.58a1.08,1.08,0,1,0,0,2.16h21a6.48,6.48,0,0,0,11.74,1.09H69.65a4.31,4.31,0,0,0,8.36,0h3.41a1.09,1.09,0,0,0,1.08-1.09V59.75a1.08,1.08,0,0,0-1.08-1.08H80.33V56.09ZM34.83,65.17H32.67v-13h2.16Zm4.34,0H37V31.58h2.17ZM57.24,30.5H73.83V52.17H71.67V42.42a1.09,1.09,0,0,0-1.09-1.09H66.25a1.08,1.08,0,0,0-1.08,1.09v5.41H60.83a1.09,1.09,0,0,0-1.08,1.09V53L58,56.5H53.73l2.7-7.2a1.08,1.08,0,0,0-.61-1.39l-.26-.1L57,45l1.19.6a1.08,1.08,0,1,0,1-1.93L57,42.53a1.09,1.09,0,0,0-1.46.49l-2,4-2.4-1Zm16.59,26V54.33M69.5,43.5l-7.58,8.67m-20.59.42L45.67,54,43.73,59a6.47,6.47,0,0,0-2.4,1.38V52.59ZM45.67,69.5A4.34,4.34,0,1,1,50,65.17,4.34,4.34,0,0,1,45.67,69.5Zm28.16,0A2.17,2.17,0,1,1,76,67.33,2.17,2.17,0,0,1,73.83,69.5Z"/></svg>