<svg id="Слой_1" data-name="Слой 1" xmlns="http://www.w3.org/2000/svg" viewBox="0 0 80 80">
    <defs>
        <style>.cls-1{fill:#f2f4f3;}</style>
    </defs>
    <path class="cls-1"
          d="M52.08,26.67a4.44,4.44,0,0,0-1.19.6L27,42.31a.7.7,0,0,0-.36,1c.59,1.69,1.12,3.39,1.67,5.09l2.2,6.77.13,0a2.27,2.27,0,0,1,.06-.3c.23-2.45.47-4.92.67-7.38A1.87,1.87,0,0,1,32,46.17c3.27-2.92,6.53-5.87,9.78-8.81q5.41-4.87,10.81-9.77a3,3,0,0,0,.47-.82A3,3,0,0,0,52.08,26.67Z"/>
    <path class="cls-1"
          d="M40,0A40,40,0,1,0,80,40,40,40,0,0,0,40,0ZM61.84,21.78a41.9,41.9,0,0,1-.78,4.14q-3.44,16.28-6.9,32.55c-.55,2.58-2.36,3.25-4.47,1.69q-5.32-3.91-10.64-7.86c-.17-.14-.35-.27-.55-.41l-5.7,5.55a3,3,0,0,1-2.35,1,1.18,1.18,0,0,1-1.2-.92c-1.44-4.47-2.91-8.94-4.34-13.42a1,1,0,0,0-.79-.78c-3.39-1-6.79-2.1-10.17-3.18a6.13,6.13,0,0,1-1.5-.68,1.07,1.07,0,0,1-.17-1.8,6.62,6.62,0,0,1,2-1.23c4.15-1.65,8.32-3.24,12.5-4.85L58.5,19.28C60.52,18.5,62.06,19.59,61.84,21.78Z"/>
</svg>