<svg id="Слой_1" data-name="Слой 1" xmlns="http://www.w3.org/2000/svg" viewBox="0 0 80 80">
    <defs>
        <style>.cls-1{fill:#f2f4f3;}</style>
    </defs>
    <path class="cls-1"
          d="M40,0A40,40,0,1,0,80,40,40,40,0,0,0,40,0ZM59.22,30.15c0,.42,0,.86,0,1.29,0,13.1-10,28.2-28.22,28.2A28.17,28.17,0,0,1,15.79,55.2a21.31,21.31,0,0,0,2.4.12A19.89,19.89,0,0,0,30.5,51.09a9.92,9.92,0,0,1-9.27-6.88A10.79,10.79,0,0,0,25.71,44a9.92,9.92,0,0,1-7.94-9.74v-.12a9.87,9.87,0,0,0,4.47,1.26,9.92,9.92,0,0,1-4.42-8.25,9.67,9.67,0,0,1,1.35-5A28.12,28.12,0,0,0,39.62,32.55a9.94,9.94,0,0,1,16.92-9.07,19.65,19.65,0,0,0,6.3-2.38,9.87,9.87,0,0,1-4.36,5.45A19.45,19.45,0,0,0,64.2,25,20.79,20.79,0,0,1,59.22,30.15Z"/>
</svg>