<svg xmlns="http://www.w3.org/2000/svg" viewBox="0 0 750 400">
    <defs>
        <style>.cls-1{fill:#22333b;}.cls-2{fill:#ff5714;}.cls-3{fill:#e6ede5;}.cls-4{fill:#0a0908;}</style>
    </defs>
    <g id="Слой_3" data-name="Слой 3">
        <rect class="cls-1" width="750" height="400"/>
        <path class="cls-2" d="M0,60.29H553.68a139.71,139.71,0,0,1,0,279.42H0Z"/>
        <path class="cls-3" d="M97,112.94v4.75H85.62v22.38H79.87V112.94Z"/>
        <path class="cls-3"
              d="M109.24,118.9c2.79,0,4.92.6,6.41,1.81a6.75,6.75,0,0,1,2.22,5.53v13.83h-4l-1.1-2.82h-.14a10.69,10.69,0,0,1-1.82,1.81,6,6,0,0,1-2.14,1,10.77,10.77,0,0,1-2.93.34,7.46,7.46,0,0,1-3.29-.71,5.19,5.19,0,0,1-2.29-2.16,7.32,7.32,0,0,1-.84-3.7,5.48,5.48,0,0,1,2.32-4.87c1.55-1,3.87-1.62,7-1.74l3.6-.11v-.91a3.08,3.08,0,0,0-.85-2.39,3.44,3.44,0,0,0-2.38-.76,10.22,10.22,0,0,0-3,.43,22.53,22.53,0,0,0-2.89,1.07l-1.88-3.82a16,16,0,0,1,3.7-1.37A17.51,17.51,0,0,1,109.24,118.9Zm3,11.56-2.19.07a6.31,6.31,0,0,0-3.81,1,3,3,0,0,0-1.07,2.4,2.1,2.1,0,0,0,.76,1.84,3.3,3.3,0,0,0,2,.55,4.55,4.55,0,0,0,3.07-1.08,3.81,3.81,0,0,0,1.25-3.06Z"/>
        <path class="cls-3"
              d="M135.24,118.93a6.88,6.88,0,0,1,5.67,2.73c1.44,1.82,2.16,4.48,2.16,8a15.23,15.23,0,0,1-1,5.93,8,8,0,0,1-2.82,3.62,7.16,7.16,0,0,1-4.14,1.23,7.88,7.88,0,0,1-2.58-.38,6.32,6.32,0,0,1-1.84-1,8.43,8.43,0,0,1-1.31-1.29h-.3a15.23,15.23,0,0,1,.22,1.53c.05.52.08,1,.08,1.52v8.37H123.7V119.32h4.6l.8,2.69h.26a8.11,8.11,0,0,1,1.35-1.54,6,6,0,0,1,1.92-1.12A7.44,7.44,0,0,1,135.24,118.93Zm-1.82,4.53a4,4,0,0,0-2.36.61,3.5,3.5,0,0,0-1.27,1.84,11,11,0,0,0-.43,3.1v.61a12.81,12.81,0,0,0,.38,3.4,3.94,3.94,0,0,0,1.28,2.11,3.84,3.84,0,0,0,2.47.72,3.17,3.17,0,0,0,2.14-.72,4.36,4.36,0,0,0,1.25-2.12,12.13,12.13,0,0,0,.42-3.43,8.89,8.89,0,0,0-1-4.58A3.19,3.19,0,0,0,133.42,123.46Z"/>
        <path class="cls-3"
              d="M156.24,118.9q4.19,0,6.4,1.81a6.72,6.72,0,0,1,2.23,5.53v13.83h-4l-1.1-2.82h-.14a10.69,10.69,0,0,1-1.82,1.81,6,6,0,0,1-2.14,1,10.77,10.77,0,0,1-2.93.34,7.46,7.46,0,0,1-3.29-.71,5.19,5.19,0,0,1-2.29-2.16,7.32,7.32,0,0,1-.84-3.7,5.45,5.45,0,0,1,2.32-4.87c1.55-1,3.87-1.62,7-1.74l3.6-.11v-.91a3.08,3.08,0,0,0-.85-2.39,3.45,3.45,0,0,0-2.38-.76,10.17,10.17,0,0,0-3,.43,22,22,0,0,0-2.89,1.07l-1.88-3.82a16,16,0,0,1,3.7-1.37A17.51,17.51,0,0,1,156.24,118.9Zm3,11.56-2.19.07a6.31,6.31,0,0,0-3.81,1,3,3,0,0,0-1.07,2.4,2.1,2.1,0,0,0,.76,1.84,3.3,3.3,0,0,0,2,.55,4.55,4.55,0,0,0,3.07-1.08,3.81,3.81,0,0,0,1.25-3.06Z"/>
        <path class="cls-3" d="M176.36,119.32v8h7.9v-8h5.66v20.75h-5.66v-8.56h-7.9v8.56H170.7V119.32Z"/>
        <path class="cls-3" d="M213,123.57h-6.79v16.5h-5.66v-16.5h-6.81v-4.25H213Z"/>
        <path class="cls-3"
              d="M222.35,119.32v8.2c0,.42,0,1,0,1.59s-.07,1.28-.12,1.94-.1,1.24-.15,1.76-.09.87-.11,1.06l9.57-14.55h6.81v20.75h-5.47v-8.28c0-.68,0-1.43.07-2.25s.11-1.6.17-2.33.1-1.28.13-1.65l-9.54,14.51h-6.79V119.32Z"/>
        <path class="cls-3"
              d="M247.4,140.07h-6.12l5.58-8.2a7.71,7.71,0,0,1-2-1.24,5.81,5.81,0,0,1-1.5-2,6.61,6.61,0,0,1-.58-2.9,5.48,5.48,0,0,1,2.35-4.76,10.29,10.29,0,0,1,6.06-1.66h9.64v20.75h-5.66v-7.72h-3.11Zm.95-14.29a2.34,2.34,0,0,0,1,2,4.45,4.45,0,0,0,2.66.73h3.15v-5.23h-3.87a3.07,3.07,0,0,0-2.25.73A2.4,2.4,0,0,0,248.35,125.78Z"/>
        <path class="cls-3" d="M282.3,119.32v8h7.91v-8h5.66v20.75h-5.66v-8.56H282.3v8.56h-5.66V119.32Z"/>
        <path class="cls-3"
              d="M310.3,118.9q4.18,0,6.4,1.81a6.72,6.72,0,0,1,2.23,5.53v13.83H315l-1.1-2.82h-.15a10.66,10.66,0,0,1-1.81,1.81,6,6,0,0,1-2.14,1,10.77,10.77,0,0,1-2.93.34,7.46,7.46,0,0,1-3.29-.71,5.19,5.19,0,0,1-2.29-2.16,7.32,7.32,0,0,1-.84-3.7,5.45,5.45,0,0,1,2.32-4.87c1.55-1,3.87-1.62,7-1.74l3.6-.11v-.91a3,3,0,0,0-.86-2.39,3.41,3.41,0,0,0-2.37-.76,10.17,10.17,0,0,0-2.95.43,22.66,22.66,0,0,0-2.9,1.07l-1.87-3.82a16,16,0,0,1,3.7-1.37A17.51,17.51,0,0,1,310.3,118.9Zm3,11.56-2.19.07a6.31,6.31,0,0,0-3.81,1,3,3,0,0,0-1.07,2.4,2.1,2.1,0,0,0,.76,1.84,3.29,3.29,0,0,0,2,.55,4.56,4.56,0,0,0,3.08-1.08,3.81,3.81,0,0,0,1.25-3.06Z"/>
        <path class="cls-3" d="M345.54,140.07h-5.75V117.73h-7.37v-4.79H352.9v4.79h-7.36Z"/>
        <path class="cls-3"
              d="M368.6,117.34a6.37,6.37,0,0,0-2.92.64,5.81,5.81,0,0,0-2.14,1.84,8.79,8.79,0,0,0-1.3,2.92,15,15,0,0,0-.45,3.84,14.72,14.72,0,0,0,.72,4.9,6.11,6.11,0,0,0,2.21,3.1,6.59,6.59,0,0,0,3.88,1.07,14.93,14.93,0,0,0,3.31-.37,31.84,31.84,0,0,0,3.61-1.06v4.83a17.77,17.77,0,0,1-3.54,1.06,21.25,21.25,0,0,1-3.92.33,12.51,12.51,0,0,1-6.89-1.74,10.28,10.28,0,0,1-4-4.86,19,19,0,0,1-1.3-7.3,18,18,0,0,1,.84-5.64,12.61,12.61,0,0,1,2.45-4.44,10.81,10.81,0,0,1,4-2.89,13.69,13.69,0,0,1,5.45-1,16.67,16.67,0,0,1,4.06.51,20.61,20.61,0,0,1,3.88,1.4l-1.85,4.68a28.22,28.22,0,0,0-3.06-1.26A9.15,9.15,0,0,0,368.6,117.34Z"/>
        <path class="cls-3"
              d="M402.54,112.94v22.34h3.62V148h-5.55v-7.9h-17V148h-5.55V135.28h2.1q1.06-2.11,2-4.47t1.84-5.07q.85-2.7,1.54-5.88t1.15-6.92Zm-5.74,4.79h-5.51c-.18,1.31-.44,2.71-.76,4.19s-.7,3-1.14,4.54-.93,3.06-1.46,4.55-1.11,2.92-1.72,4.27H396.8Z"/>
        <path class="cls-3"
              d="M436.81,140.07l-2-6.46H425l-2,6.46h-6.19l9.57-27.24h7L443,140.07Zm-3.34-11.28-2-6.31c-.12-.42-.29-1-.49-1.63s-.41-1.33-.61-2-.37-1.28-.49-1.79c-.13.51-.3,1.14-.51,1.88l-.63,2.13c-.19.67-.34,1.14-.42,1.43l-2,6.31Z"/>
        <path class="cls-3" d="M456.88,140.07h-5.75V117.73h-7.36v-4.79h20.48v4.79h-7.37Z"/>
        <path class="cls-3"
              d="M493.05,126.47a19.54,19.54,0,0,1-.78,5.7,12.18,12.18,0,0,1-2.37,4.43,10.47,10.47,0,0,1-4,2.85,17.22,17.22,0,0,1-11.51,0,10.51,10.51,0,0,1-4-2.85,12.28,12.28,0,0,1-2.36-4.44,19.75,19.75,0,0,1-.78-5.73,18,18,0,0,1,1.38-7.34,10.43,10.43,0,0,1,4.26-4.85,14,14,0,0,1,7.31-1.73,13.81,13.81,0,0,1,7.26,1.73,10.53,10.53,0,0,1,4.24,4.86A18.18,18.18,0,0,1,493.05,126.47Zm-19.8,0a15.11,15.11,0,0,0,.71,4.89,6,6,0,0,0,6.17,4.25,6.55,6.55,0,0,0,4-1.1,6.22,6.22,0,0,0,2.22-3.15,15.12,15.12,0,0,0,.7-4.89,12.23,12.23,0,0,0-1.6-6.72q-1.59-2.44-5.25-2.45a6.65,6.65,0,0,0-4,1.1,6.37,6.37,0,0,0-2.25,3.16A15.15,15.15,0,0,0,473.25,126.47Z"/>
        <path class="cls-3"
              d="M520.14,140.07H514.4V117.73h-6.64c-.15,1.16-.31,2.43-.48,3.8s-.35,2.76-.54,4.16-.38,2.72-.58,4-.41,2.36-.61,3.32a16.31,16.31,0,0,1-1.3,4,6.14,6.14,0,0,1-2.25,2.54,7,7,0,0,1-3.7.87,9.83,9.83,0,0,1-1.46-.11,11.13,11.13,0,0,1-1.29-.3v-4.71a8.78,8.78,0,0,0,1,.27,5.67,5.67,0,0,0,1.05.1,1.71,1.71,0,0,0,1.24-.49,4.37,4.37,0,0,0,.88-1.69,27.11,27.11,0,0,0,.78-3.31c.11-.62.26-1.5.44-2.63s.4-2.46.64-4,.47-3.19.73-5,.5-3.69.73-5.64h17.13Z"/>
        <path class="cls-3" d="M96.59,169.17H89.8v16.5H84.14v-16.5H77.33v-4.25H96.59Z"/>
        <path class="cls-3"
              d="M109,164.53a10.41,10.41,0,0,1,5,1.11,7.68,7.68,0,0,1,3.21,3.2A10.7,10.7,0,0,1,118.3,174v2.75H104.92a5.41,5.41,0,0,0,1.44,3.75,5,5,0,0,0,3.74,1.37,15.22,15.22,0,0,0,3.63-.41,18,18,0,0,0,3.4-1.23v4.38a13.67,13.67,0,0,1-3.22,1.12,20.56,20.56,0,0,1-4.07.35,12.72,12.72,0,0,1-5.52-1.15,8.58,8.58,0,0,1-3.77-3.51,11.71,11.71,0,0,1-1.36-5.94,13.35,13.35,0,0,1,1.23-6.06,8.35,8.35,0,0,1,3.44-3.63A10.5,10.5,0,0,1,109,164.53Zm0,4a3.76,3.76,0,0,0-2.74,1.06,5,5,0,0,0-1.25,3.32H113a5.71,5.71,0,0,0-.45-2.25,3.67,3.67,0,0,0-1.3-1.56A3.93,3.93,0,0,0,109,168.56Z"/>
        <path class="cls-3" d="M141.75,164.92v20.75h-5.68v-16.5h-7.51v16.5H122.9V164.92Z"/>
        <path class="cls-3"
              d="M156.22,164.53a10.41,10.41,0,0,1,5,1.11,7.68,7.68,0,0,1,3.21,3.2,10.7,10.7,0,0,1,1.13,5.12v2.75H152.14a5.41,5.41,0,0,0,1.44,3.75,5,5,0,0,0,3.74,1.37,15.36,15.36,0,0,0,3.64-.41,17.89,17.89,0,0,0,3.39-1.23v4.38a13.67,13.67,0,0,1-3.22,1.12,20.56,20.56,0,0,1-4.07.35,12.72,12.72,0,0,1-5.52-1.15,8.58,8.58,0,0,1-3.77-3.51,11.71,11.71,0,0,1-1.36-5.94,13.35,13.35,0,0,1,1.23-6.06,8.35,8.35,0,0,1,3.44-3.63A10.53,10.53,0,0,1,156.22,164.53Zm0,4a3.76,3.76,0,0,0-2.74,1.06,5,5,0,0,0-1.25,3.32h7.94a5.71,5.71,0,0,0-.45-2.25,3.6,3.6,0,0,0-1.3-1.56A3.93,3.93,0,0,0,156.26,168.56Z"/>
        <path class="cls-3"
              d="M181.66,164.53a6.88,6.88,0,0,1,5.67,2.73c1.44,1.82,2.16,4.48,2.16,8a15.23,15.23,0,0,1-1,5.93,8,8,0,0,1-2.82,3.62,7.16,7.16,0,0,1-4.14,1.23,7.78,7.78,0,0,1-2.57-.38,6.19,6.19,0,0,1-1.84-1,8.09,8.09,0,0,1-1.32-1.29h-.3a15.23,15.23,0,0,1,.23,1.53c0,.52.07,1,.07,1.52v8.36h-5.66V164.92h4.6l.8,2.69h.26a7.83,7.83,0,0,1,1.36-1.54,6,6,0,0,1,1.92-1.12A7.35,7.35,0,0,1,181.66,164.53Zm-1.82,4.53a4,4,0,0,0-2.35.61,3.44,3.44,0,0,0-1.27,1.84,10.92,10.92,0,0,0-.44,3.1v.61a13.23,13.23,0,0,0,.38,3.4,3.94,3.94,0,0,0,1.28,2.11,3.88,3.88,0,0,0,2.48.73,3.15,3.15,0,0,0,2.13-.73,4.29,4.29,0,0,0,1.25-2.12,12.13,12.13,0,0,0,.42-3.43,8.9,8.9,0,0,0-.94-4.58A3.2,3.2,0,0,0,179.84,169.06Z"/>
        <path class="cls-3"
              d="M199.83,172.94h4a17.42,17.42,0,0,1,5.27.67,6.06,6.06,0,0,1,3.1,2,5.55,5.55,0,0,1,1,3.42,6.43,6.43,0,0,1-.93,3.49,5.93,5.93,0,0,1-2.95,2.3,14.43,14.43,0,0,1-5.29.82h-9.87V164.92h5.66Zm7.72,6.19a1.85,1.85,0,0,0-1-1.74,6,6,0,0,0-2.87-.54h-3.88v4.9h3.95a5.46,5.46,0,0,0,2.71-.6A2.14,2.14,0,0,0,207.55,179.13Z"/>
        <path class="cls-3"
              d="M243.82,164.61a6.3,6.3,0,0,1-2.88,5.49,9.6,9.6,0,0,1-3,1.28v.11a8.64,8.64,0,0,1,5,2,5.6,5.6,0,0,1,1.7,4.27,7.93,7.93,0,0,1-1.16,4.25,7.73,7.73,0,0,1-3.57,3,15.33,15.33,0,0,1-6.22,1.08,22.84,22.84,0,0,1-4.18-.36,17,17,0,0,1-3.65-1.11v-4.88A16.23,16.23,0,0,0,229.5,181a15.56,15.56,0,0,0,3.56.45c2.05,0,3.49-.35,4.31-1.07a3.72,3.72,0,0,0,1.24-3,3.08,3.08,0,0,0-.58-1.91,3.62,3.62,0,0,0-2-1.19,15.12,15.12,0,0,0-4-.41H230v-4.4h2.09a11.75,11.75,0,0,0,3.82-.47,3.19,3.19,0,0,0,1.78-1.3,3.77,3.77,0,0,0,.47-1.88,2.91,2.91,0,0,0-.89-2.26,4.31,4.31,0,0,0-3-.82,8.26,8.26,0,0,0-2.36.32,11.09,11.09,0,0,0-1.93.78c-.56.31-1.07.6-1.5.88l-2.65-4a14.76,14.76,0,0,1,3.74-1.91,15.24,15.24,0,0,1,5.11-.76,11.5,11.5,0,0,1,6.64,1.69A5.45,5.45,0,0,1,243.82,164.61Z"/>
        <path class="cls-3"
              d="M247.46,174.14a31.16,31.16,0,0,1,.34-4.63,18.16,18.16,0,0,1,1.2-4.32,11.44,11.44,0,0,1,2.39-3.6,10.78,10.78,0,0,1,3.92-2.47,16.26,16.26,0,0,1,5.75-.9c.53,0,1.15,0,1.86.07a12,12,0,0,1,1.77.21v4.59a12.08,12.08,0,0,0-1.58-.27,13.54,13.54,0,0,0-1.68-.11,10.41,10.41,0,0,0-5.22,1.08,5.89,5.89,0,0,0-2.6,3,13.82,13.82,0,0,0-.88,4.42H253a6.3,6.3,0,0,1,1.31-1.61,5.82,5.82,0,0,1,1.92-1.12,7.6,7.6,0,0,1,2.65-.42,8.12,8.12,0,0,1,4.12,1,6.75,6.75,0,0,1,2.69,2.92,11.83,11.83,0,0,1-.19,9.71,7.75,7.75,0,0,1-3.2,3.24,10.22,10.22,0,0,1-4.9,1.12,10.34,10.34,0,0,1-3.88-.72,8.51,8.51,0,0,1-3.16-2.18,10.23,10.23,0,0,1-2.11-3.7A16.39,16.39,0,0,1,247.46,174.14Zm9.79,7.32A3.55,3.55,0,0,0,260,180.3a5.13,5.13,0,0,0,1.06-3.59,4.86,4.86,0,0,0-.92-3.13,3.35,3.35,0,0,0-2.77-1.14,4.33,4.33,0,0,0-2.22.56,4.24,4.24,0,0,0-1.48,1.43,3.48,3.48,0,0,0-.52,1.77,7.1,7.1,0,0,0,.26,1.88,6.07,6.07,0,0,0,.78,1.69,4.28,4.28,0,0,0,1.29,1.22A3.39,3.39,0,0,0,257.25,181.46Z"/>
        <path class="cls-3"
              d="M306.83,164.92v20.75h-5.29V175.48c0-1,0-2,.06-2.95s.09-1.86.17-2.67h-.11l-5.74,15.81h-4.25l-5.82-15.85h-.15c.1.83.17,1.72.2,2.67s.06,2,.06,3.14v10h-5.27V164.92h8L293.86,179l5.25-14.07Z"/>
        <path class="cls-3"
              d="M321.32,164.53a10.41,10.41,0,0,1,5,1.11,7.68,7.68,0,0,1,3.21,3.2,10.7,10.7,0,0,1,1.13,5.12v2.75H317.24a5.41,5.41,0,0,0,1.44,3.75,5,5,0,0,0,3.74,1.37,15.36,15.36,0,0,0,3.64-.41,17.89,17.89,0,0,0,3.39-1.23v4.38a13.67,13.67,0,0,1-3.22,1.12,20.56,20.56,0,0,1-4.07.35,12.72,12.72,0,0,1-5.52-1.15,8.58,8.58,0,0,1-3.77-3.51,11.71,11.71,0,0,1-1.36-5.94,13.35,13.35,0,0,1,1.23-6.06,8.35,8.35,0,0,1,3.44-3.63A10.53,10.53,0,0,1,321.32,164.53Zm0,4a3.76,3.76,0,0,0-2.74,1.06,5,5,0,0,0-1.25,3.32h7.94a5.71,5.71,0,0,0-.45-2.25,3.67,3.67,0,0,0-1.3-1.56A3.93,3.93,0,0,0,321.36,168.56Z"/>
        <path class="cls-3"
              d="M343.65,186a11.45,11.45,0,0,1-5.26-1.12,7.44,7.44,0,0,1-3.3-3.48,14,14,0,0,1-1.13-6,13.07,13.07,0,0,1,1.29-6.21,8.11,8.11,0,0,1,3.58-3.54,11.94,11.94,0,0,1,5.32-1.13,14.55,14.55,0,0,1,3.72.42,15.38,15.38,0,0,1,2.73,1l-1.67,4.38c-.89-.36-1.72-.65-2.48-.88a8,8,0,0,0-2.3-.34,4.19,4.19,0,0,0-2.47.69,4.1,4.1,0,0,0-1.47,2.09,10.84,10.84,0,0,0-.48,3.49,9.52,9.52,0,0,0,.52,3.41,4.13,4.13,0,0,0,1.5,2,4.23,4.23,0,0,0,2.4.66,9.44,9.44,0,0,0,3.13-.48,11.48,11.48,0,0,0,2.67-1.33v4.85a9.83,9.83,0,0,1-2.71,1.18A15,15,0,0,1,343.65,186Z"/>
        <path class="cls-3"
              d="M357.91,185.67h-6.12l5.59-8.21a7.3,7.3,0,0,1-2-1.23,5.81,5.81,0,0,1-1.5-2,6.61,6.61,0,0,1-.58-2.9,5.48,5.48,0,0,1,2.35-4.76,10.29,10.29,0,0,1,6.06-1.66h9.65v20.75h-5.66V178h-3.12Zm.95-14.29a2.34,2.34,0,0,0,1,2,4.47,4.47,0,0,0,2.66.73h3.16v-5.23h-3.88a3.09,3.09,0,0,0-2.25.73A2.4,2.4,0,0,0,358.86,171.38Z"/>
        <path class="cls-3" d="M399.92,193.11h-5.08v-7.44H377.28V164.92h5.66v16.5h8.28v-16.5h5.68v16.61h3Z"/>
        <path class="cls-3"
              d="M412,164.53a10.41,10.41,0,0,1,5,1.11,7.68,7.68,0,0,1,3.21,3.2,10.7,10.7,0,0,1,1.13,5.12v2.75H407.9a5.41,5.41,0,0,0,1.44,3.75,5,5,0,0,0,3.74,1.37,15.22,15.22,0,0,0,3.63-.41,18,18,0,0,0,3.4-1.23v4.38a13.67,13.67,0,0,1-3.22,1.12,20.56,20.56,0,0,1-4.07.35,12.72,12.72,0,0,1-5.52-1.15,8.52,8.52,0,0,1-3.77-3.51,11.71,11.71,0,0,1-1.36-5.94,13.35,13.35,0,0,1,1.23-6.06,8.35,8.35,0,0,1,3.44-3.63A10.5,10.5,0,0,1,412,164.53Zm0,4a3.76,3.76,0,0,0-2.74,1.06,5,5,0,0,0-1.25,3.32H416a5.71,5.71,0,0,0-.45-2.25,3.67,3.67,0,0,0-1.3-1.56A3.93,3.93,0,0,0,412,168.56Z"/>
        <path class="cls-3"
              d="M444.27,170.36a4.15,4.15,0,0,1-1,2.85,5.09,5.09,0,0,1-3.09,1.51v.15a6,6,0,0,1,3.47,1.49,4.07,4.07,0,0,1,1.32,3.11,5.6,5.6,0,0,1-.93,3.18,6.09,6.09,0,0,1-2.95,2.21,14.45,14.45,0,0,1-5.29.81h-9.87V164.92h9.87a17.11,17.11,0,0,1,4.36.51,6.22,6.22,0,0,1,3,1.7A4.5,4.5,0,0,1,444.27,170.36Zm-5.74.44a1.54,1.54,0,0,0-.76-1.42,4.32,4.32,0,0,0-2.24-.47h-4V173h3.34a5.67,5.67,0,0,0,2.73-.52A1.79,1.79,0,0,0,438.53,170.8Zm.52,8.37a1.9,1.9,0,0,0-.95-1.77,5.88,5.88,0,0,0-2.83-.55h-3.73v4.9h3.84a5.3,5.3,0,0,0,2.63-.59A2.1,2.1,0,0,0,439.05,179.17Z"/>
        <path class="cls-3"
              d="M100.38,245.32l-4-10.74h-.07c0,.23,0,.5.06.83s0,.68,0,1.07,0,.77,0,1.17v7.67H95.1V233.18h2.07l3.8,10.1H101l3.86-10.1h2v12.14h-1.38v-7.77c0-.36,0-.72,0-1.08s0-.71,0-1,0-.61,0-.84h-.07l-4.08,10.72Z"/>
        <path class="cls-3"
              d="M110,245.32v-9.1h1.37V240h2.46a5.15,5.15,0,0,1,1.9.3,2.19,2.19,0,0,1,1.1.86,2.6,2.6,0,0,1,.36,1.42,2.91,2.91,0,0,1-.36,1.47,2.35,2.35,0,0,1-1.11,1,4.86,4.86,0,0,1-2,.34Zm1.37-1.12h2.24a3.1,3.1,0,0,0,1.63-.37,1.32,1.32,0,0,0,.61-1.22,1.23,1.23,0,0,0-.57-1.16,3.28,3.28,0,0,0-1.63-.33h-2.28Zm7.31,1.12v-9.1h1.36v9.1Z"/>
        <path class="cls-3"
              d="M125.88,236.22h1.47l2,5.28c.12.31.22.61.32.89s.19.56.27.82.13.51.18.76h.05c.08-.28.19-.64.33-1.09s.3-.92.46-1.39l1.88-5.27h1.47l-3.91,10.44a7.64,7.64,0,0,1-.73,1.46,3.08,3.08,0,0,1-1,1,2.88,2.88,0,0,1-1.43.33,4.7,4.7,0,0,1-.68,0,5,5,0,0,1-.51-.11v-1.1a3.71,3.71,0,0,0,.44.07,3.12,3.12,0,0,0,.54,0,1.87,1.87,0,0,0,.88-.2,1.85,1.85,0,0,0,.65-.57,4.28,4.28,0,0,0,.47-.88l.49-1.28Z"/>
        <path class="cls-3"
              d="M142.88,238.51a1.76,1.76,0,0,1-.49,1.33,2.52,2.52,0,0,1-1.27.64v.07a2.79,2.79,0,0,1,1.45.61,1.81,1.81,0,0,1,.62,1.5,2.64,2.64,0,0,1-.37,1.38,2.51,2.51,0,0,1-1.16.94,5.21,5.21,0,0,1-2.06.34h-3.87v-9.1h3.84a6.23,6.23,0,0,1,1.71.22,2.39,2.39,0,0,1,1.17.72A2,2,0,0,1,142.88,238.51Zm-1.39.15a1.08,1.08,0,0,0-.46-1,2.78,2.78,0,0,0-1.54-.32H137.1V240h2.15a3.55,3.55,0,0,0,1.68-.32A1.09,1.09,0,0,0,141.49,238.66Zm.27,4a1.25,1.25,0,0,0-.6-1.16,3.47,3.47,0,0,0-1.75-.35H137.1v3h2.34a3.5,3.5,0,0,0,1.73-.35A1.26,1.26,0,0,0,141.76,242.66Z"/>
        <path class="cls-3"
              d="M148.85,236.06a3.66,3.66,0,0,1,2,.51,3.34,3.34,0,0,1,1.26,1.44,5,5,0,0,1,.43,2.16V241H146.3a3.6,3.6,0,0,0,.78,2.44,2.77,2.77,0,0,0,2.16.84,6.79,6.79,0,0,0,1.51-.16,9.09,9.09,0,0,0,1.36-.46v1.21a7.13,7.13,0,0,1-1.35.45,8.06,8.06,0,0,1-1.58.14,4.53,4.53,0,0,1-2.26-.54,3.62,3.62,0,0,1-1.5-1.57,5.45,5.45,0,0,1-.54-2.54,6.24,6.24,0,0,1,.49-2.55,3.88,3.88,0,0,1,1.38-1.65A3.76,3.76,0,0,1,148.85,236.06Zm0,1.13a2.25,2.25,0,0,0-1.74.72,3.4,3.4,0,0,0-.77,2h4.76a4,4,0,0,0-.25-1.43,2,2,0,0,0-.73-1A2.16,2.16,0,0,0,148.83,237.19Z"/>
        <path class="cls-3"
              d="M159.06,236.06a3.35,3.35,0,0,1,2.68,1.17,5.28,5.28,0,0,1,1,3.52,6.44,6.44,0,0,1-.46,2.6A3.41,3.41,0,0,1,161,245a3.52,3.52,0,0,1-2,.54,4,4,0,0,1-1.25-.19,3,3,0,0,1-.93-.52,3.23,3.23,0,0,1-.64-.7h-.1q0,.31.06.78c0,.3,0,.57,0,.79v3.74h-1.37V236.22H156l.18,1.35h.07a3.54,3.54,0,0,1,.64-.76,2.89,2.89,0,0,1,.92-.55A3.66,3.66,0,0,1,159.06,236.06Zm-.24,1.16a2.79,2.79,0,0,0-1.51.36,2.08,2.08,0,0,0-.83,1.1,5.48,5.48,0,0,0-.28,1.82v.26a6.46,6.46,0,0,0,.25,2,2.27,2.27,0,0,0,.83,1.22,2.66,2.66,0,0,0,1.55.41,2.11,2.11,0,0,0,1.4-.46,2.64,2.64,0,0,0,.83-1.27,5.68,5.68,0,0,0,.28-1.88,4.66,4.66,0,0,0-.62-2.56A2.12,2.12,0,0,0,158.82,237.22Z"/>
        <path class="cls-3"
              d="M168.58,236.06a3.66,3.66,0,0,1,2,.51,3.34,3.34,0,0,1,1.26,1.44,5,5,0,0,1,.43,2.16V241H166a3.55,3.55,0,0,0,.79,2.44,2.75,2.75,0,0,0,2.15.84,6.79,6.79,0,0,0,1.51-.16,9.09,9.09,0,0,0,1.36-.46v1.21a7.13,7.13,0,0,1-1.35.45,8.06,8.06,0,0,1-1.58.14,4.55,4.55,0,0,1-2.26-.54,3.67,3.67,0,0,1-1.5-1.57,5.45,5.45,0,0,1-.53-2.54,6.24,6.24,0,0,1,.48-2.55,3.88,3.88,0,0,1,1.38-1.65A3.76,3.76,0,0,1,168.58,236.06Zm0,1.13a2.26,2.26,0,0,0-1.75.72,3.4,3.4,0,0,0-.77,2h4.77a4,4,0,0,0-.26-1.43,2,2,0,0,0-.73-1A2.15,2.15,0,0,0,168.57,237.19Z"/>
        <path class="cls-3" d="M175.93,236.22V240h5v-3.82h1.36v9.1H181v-4.11h-5v4.11h-1.37v-9.1Z"/>
        <path class="cls-3"
              d="M185.2,245.32v-9.1h1.37V240H189a5.13,5.13,0,0,1,1.89.3,2.19,2.19,0,0,1,1.1.86,2.6,2.6,0,0,1,.36,1.42A2.91,2.91,0,0,1,192,244a2.38,2.38,0,0,1-1.12,1,4.81,4.81,0,0,1-2,.34Zm1.37-1.12h2.24a3.1,3.1,0,0,0,1.63-.37,1.3,1.3,0,0,0,.61-1.22,1.23,1.23,0,0,0-.57-1.16,3.28,3.28,0,0,0-1.63-.33h-2.28Zm7.31,1.12v-9.1h1.36v9.1Z"/>
        <path class="cls-3"
              d="M209.64,238.51a1.8,1.8,0,0,1-.49,1.33,2.55,2.55,0,0,1-1.28.64v.07a2.82,2.82,0,0,1,1.46.61,1.81,1.81,0,0,1,.61,1.5,2.55,2.55,0,0,1-.37,1.38,2.41,2.41,0,0,1-1.16.94,5.16,5.16,0,0,1-2,.34h-3.87v-9.1h3.84a6.28,6.28,0,0,1,1.71.22,2.39,2.39,0,0,1,1.17.72A2,2,0,0,1,209.64,238.51Zm-1.39.15a1.08,1.08,0,0,0-.47-1,2.72,2.72,0,0,0-1.53-.32h-2.39V240H206a3.48,3.48,0,0,0,1.67-.32A1.08,1.08,0,0,0,208.25,238.66Zm.27,4a1.25,1.25,0,0,0-.6-1.16,3.49,3.49,0,0,0-1.76-.35h-2.3v3h2.34a3.52,3.52,0,0,0,1.73-.35A1.28,1.28,0,0,0,208.52,242.66Z"/>
        <path class="cls-3" d="M217.88,236.22V240h5v-3.82h1.36v9.1H222.9v-4.11h-5v4.11h-1.37v-9.1Z"/>
        <path class="cls-3"
              d="M230.52,236.07a3.43,3.43,0,0,1,2.39.73,3.09,3.09,0,0,1,.78,2.34v6.18h-1l-.26-1.34h-.06a5.27,5.27,0,0,1-.79.83,3.1,3.1,0,0,1-1,.51,4.55,4.55,0,0,1-1.32.17,3.56,3.56,0,0,1-1.46-.29,2.37,2.37,0,0,1-1-.88,2.87,2.87,0,0,1-.36-1.5,2.38,2.38,0,0,1,1.06-2.09,6.22,6.22,0,0,1,3.26-.8l1.55-.06v-.56a2.23,2.23,0,0,0-.5-1.65,2,2,0,0,0-1.42-.47,4.22,4.22,0,0,0-1.34.2,11.08,11.08,0,0,0-1.22.49l-.42-1a7.57,7.57,0,0,1,1.4-.54A6.05,6.05,0,0,1,230.52,236.07Zm1.82,4.77-1.37.06a4.61,4.61,0,0,0-2.37.55,1.61,1.61,0,0,0-.69,1.39,1.36,1.36,0,0,0,.47,1.15,1.91,1.91,0,0,0,1.24.38,2.87,2.87,0,0,0,2-.68,2.52,2.52,0,0,0,.76-2Z"/>
        <path class="cls-3"
              d="M243.09,236.22v7.93h1.29v4.32h-1.32v-3.15h-6.37v3.15h-1.31v-4.32h.71a11.23,11.23,0,0,0,1.28-2.37,14.53,14.53,0,0,0,.77-2.7,17,17,0,0,0,.28-2.86Zm-1.32,1.1h-2.14a15.18,15.18,0,0,1-.35,2.46,14.77,14.77,0,0,1-.72,2.39,9.21,9.21,0,0,1-1.05,2h4.26Z"/>
        <path class="cls-3"
              d="M249.63,236.06a3.68,3.68,0,0,1,2,.51,3.38,3.38,0,0,1,1.25,1.44,5,5,0,0,1,.44,2.16V241h-6.22a3.6,3.6,0,0,0,.79,2.44,2.77,2.77,0,0,0,2.15.84,6.79,6.79,0,0,0,1.51-.16,9.19,9.19,0,0,0,1.37-.46v1.21a7.47,7.47,0,0,1-1.36.45,8,8,0,0,1-1.58.14,4.55,4.55,0,0,1-2.26-.54,3.73,3.73,0,0,1-1.5-1.57,5.58,5.58,0,0,1-.53-2.54,6.08,6.08,0,0,1,.49-2.55,3.63,3.63,0,0,1,3.48-2.23Zm0,1.13a2.22,2.22,0,0,0-1.74.72,3.4,3.4,0,0,0-.77,2h4.76a4.19,4.19,0,0,0-.25-1.43,2,2,0,0,0-.74-1A2.13,2.13,0,0,0,249.61,237.19Z"/>
        <path class="cls-3"
              d="M266.15,236.22l-3.75,4.43,4.07,4.67h-1.56L261,240.71v4.61h-1.28v-4.61l-3.93,4.61H254.2l4.06-4.67-3.75-4.43H256l3.68,4.42v-4.42H261v4.42l3.69-4.42Z"/>
        <path class="cls-3" d="M269.33,236.22V240h5v-3.82h1.36v9.1h-1.36v-4.11h-5v4.11H268v-9.1Z"/>
        <path class="cls-3"
              d="M286.36,240.75a6.55,6.55,0,0,1-.28,2,4.25,4.25,0,0,1-.83,1.48,3.69,3.69,0,0,1-1.31.93,4.57,4.57,0,0,1-1.74.32,4.31,4.31,0,0,1-1.66-.32,3.62,3.62,0,0,1-1.29-.93,4.14,4.14,0,0,1-.85-1.48,6.25,6.25,0,0,1-.3-2,5.93,5.93,0,0,1,.5-2.54,3.62,3.62,0,0,1,1.44-1.6,4.25,4.25,0,0,1,2.22-.55,4.07,4.07,0,0,1,2.15.55,3.71,3.71,0,0,1,1.44,1.61A5.74,5.74,0,0,1,286.36,240.75Zm-6.85,0a5.73,5.73,0,0,0,.29,1.91,2.56,2.56,0,0,0,4.86,0,5.73,5.73,0,0,0,.29-1.91,5.48,5.48,0,0,0-.29-1.87,2.51,2.51,0,0,0-.88-1.23,2.59,2.59,0,0,0-1.56-.43,2.31,2.31,0,0,0-2.05.94A4.43,4.43,0,0,0,279.51,240.75Z"/>
        <path class="cls-3"
              d="M292.32,245.49a4.37,4.37,0,0,1-2.14-.51,3.42,3.42,0,0,1-1.44-1.54,5.82,5.82,0,0,1-.52-2.62,5.89,5.89,0,0,1,.54-2.7,3.62,3.62,0,0,1,1.51-1.56,4.71,4.71,0,0,1,2.19-.5,6.23,6.23,0,0,1,1.3.13,4.56,4.56,0,0,1,1,.35l-.41,1.15a7.65,7.65,0,0,0-.95-.3,4.18,4.18,0,0,0-1-.13,2.77,2.77,0,0,0-1.55.41,2.38,2.38,0,0,0-.93,1.19,6.16,6.16,0,0,0,0,3.83,2.45,2.45,0,0,0,.9,1.19,2.57,2.57,0,0,0,1.49.41,5.05,5.05,0,0,0,1.28-.15,6.44,6.44,0,0,0,1-.36V245a3.89,3.89,0,0,1-1,.36A5.67,5.67,0,0,1,292.32,245.49Z"/>
        <path class="cls-3" d="M302.91,237.39h-3v7.93H298.6v-7.93h-2.93v-1.17h7.24Z"/>
        <path class="cls-3"
              d="M306,236.22v5.72c0,.11,0,.26,0,.43s0,.36,0,.56,0,.38,0,.56,0,.33,0,.44l4.91-7.71h1.67v9.1h-1.27v-5.58c0-.17,0-.4,0-.68s0-.55,0-.82,0-.47,0-.62l-4.9,7.7h-1.68v-9.1Z"/>
        <path class="cls-3"
              d="M323.35,245.49a4.37,4.37,0,0,1-2.14-.51,3.42,3.42,0,0,1-1.44-1.54,5.82,5.82,0,0,1-.52-2.62,5.89,5.89,0,0,1,.54-2.7,3.62,3.62,0,0,1,1.51-1.56,4.71,4.71,0,0,1,2.19-.5,6.23,6.23,0,0,1,1.3.13,4.56,4.56,0,0,1,1,.35l-.41,1.15a7.65,7.65,0,0,0-1-.3,4.18,4.18,0,0,0-1-.13,2.77,2.77,0,0,0-1.55.41,2.38,2.38,0,0,0-.93,1.19,6.16,6.16,0,0,0,0,3.83,2.45,2.45,0,0,0,.9,1.19,2.57,2.57,0,0,0,1.49.41,5.19,5.19,0,0,0,1.29-.15,6.65,6.65,0,0,0,1-.36V245a3.89,3.89,0,0,1-1,.36A5.67,5.67,0,0,1,323.35,245.49Z"/>
        <path class="cls-3"
              d="M335,238.51a1.76,1.76,0,0,1-.5,1.33,2.48,2.48,0,0,1-1.27.64v.07a2.86,2.86,0,0,1,1.46.61,1.81,1.81,0,0,1,.61,1.5,2.55,2.55,0,0,1-.37,1.38,2.46,2.46,0,0,1-1.16.94,5.16,5.16,0,0,1-2.05.34H327.8v-9.1h3.85a6.33,6.33,0,0,1,1.71.22,2.43,2.43,0,0,1,1.17.72A2,2,0,0,1,335,238.51Zm-1.39.15a1.08,1.08,0,0,0-.47-1,2.72,2.72,0,0,0-1.53-.32h-2.39V240h2.15a3.5,3.5,0,0,0,1.67-.32A1.08,1.08,0,0,0,333.57,238.66Zm.27,4a1.25,1.25,0,0,0-.6-1.16,3.51,3.51,0,0,0-1.76-.35h-2.3v3h2.34a3.45,3.45,0,0,0,1.72-.35A1.27,1.27,0,0,0,333.84,242.66Z"/>
        <path class="cls-3"
              d="M345.22,240.75a6.54,6.54,0,0,1-.29,2,4,4,0,0,1-.83,1.48,3.52,3.52,0,0,1-1.31.93,4.52,4.52,0,0,1-1.73.32,4.27,4.27,0,0,1-1.66-.32,3.62,3.62,0,0,1-1.29-.93,4.14,4.14,0,0,1-.85-1.48,6.25,6.25,0,0,1-.3-2,5.93,5.93,0,0,1,.5-2.54,3.6,3.6,0,0,1,1.43-1.6,4.3,4.3,0,0,1,2.22-.55,4.11,4.11,0,0,1,2.16.55,3.71,3.71,0,0,1,1.44,1.61A5.74,5.74,0,0,1,345.22,240.75Zm-6.85,0a5.73,5.73,0,0,0,.29,1.91,2.56,2.56,0,0,0,4.86,0,5.73,5.73,0,0,0,.29-1.91,5.48,5.48,0,0,0-.29-1.87,2.53,2.53,0,0,0-.89-1.23,2.56,2.56,0,0,0-1.55-.43,2.31,2.31,0,0,0-2.05.94A4.43,4.43,0,0,0,338.37,240.75Z"/>
        <path class="cls-3"
              d="M348.87,236.22v6.15c0,.17,0,.36,0,.56l0,.56c0,.18,0,.33,0,.44l4.91-7.71h1.68v9.1H354.1v-6.26l0-.82c0-.26,0-.47,0-.62l-4.89,7.7h-1.68v-9.1Z"/>
        <path class="cls-3"
              d="M360.41,240.66l-3.11-4.44h1.56l2.37,3.51,2.37-3.51h1.54L362,240.66l3.28,4.66h-1.56l-2.52-3.71-2.54,3.71h-1.54Z"/>
        <path class="cls-3" d="M101,257.79h-3v7.93H96.72v-7.93H93.79v-1.17H101Z"/>
        <path class="cls-3"
              d="M106.27,256.46a3.69,3.69,0,0,1,2,.51,3.32,3.32,0,0,1,1.25,1.44,5,5,0,0,1,.44,2.16v.86h-6.22a3.6,3.6,0,0,0,.79,2.44,2.77,2.77,0,0,0,2.15.84,6.25,6.25,0,0,0,1.51-.16,7.34,7.34,0,0,0,1.36-.47v1.22a7.13,7.13,0,0,1-1.35.45,8,8,0,0,1-1.58.14,4.55,4.55,0,0,1-2.26-.54,3.73,3.73,0,0,1-1.5-1.57,5.58,5.58,0,0,1-.53-2.54,6.08,6.08,0,0,1,.49-2.55,3.63,3.63,0,0,1,3.47-2.23Zm0,1.13a2.22,2.22,0,0,0-1.74.72,3.35,3.35,0,0,0-.77,2h4.76a4.21,4.21,0,0,0-.25-1.44,2,2,0,0,0-.74-1A2.15,2.15,0,0,0,106.26,257.59Z"/>
        <path class="cls-3"
              d="M116.48,256.46a3.37,3.37,0,0,1,2.69,1.17,5.34,5.34,0,0,1,1,3.52,6.61,6.61,0,0,1-.46,2.6,3.53,3.53,0,0,1-1.29,1.6,3.57,3.57,0,0,1-2,.54,4,4,0,0,1-1.26-.19,3,3,0,0,1-.93-.52,3.79,3.79,0,0,1-.64-.7h-.09q0,.31.06.78c0,.3,0,.57,0,.79v3.74h-1.37V256.62h1.13l.18,1.35h.06a3.85,3.85,0,0,1,.64-.76,2.94,2.94,0,0,1,.93-.55A3.57,3.57,0,0,1,116.48,256.46Zm-.24,1.16a2.78,2.78,0,0,0-1.5.36,2.15,2.15,0,0,0-.84,1.1,5.75,5.75,0,0,0-.28,1.82v.26a6.8,6.8,0,0,0,.25,1.95,2.32,2.32,0,0,0,.83,1.22,2.69,2.69,0,0,0,1.56.41,2.13,2.13,0,0,0,1.4-.46,2.64,2.64,0,0,0,.83-1.27,6,6,0,0,0,.27-1.88,4.58,4.58,0,0,0-.62-2.56A2.11,2.11,0,0,0,116.24,257.62Z"/>
        <path class="cls-3"
              d="M132,256.62v9.1h-1.23v-5.93c0-.24,0-.49,0-.74s0-.5,0-.76h0l-3,7.43h-1.16l-2.92-7.43h0c0,.26,0,.51,0,.76s0,.52,0,.79v5.88h-1.24v-9.1h1.83l2.91,7.44,3-7.44Z"/>
        <path class="cls-3"
              d="M136.17,256.62v5.72c0,.11,0,.26,0,.43s0,.36,0,.56l0,.56c0,.18,0,.33,0,.44l4.91-7.71h1.68v9.1h-1.28v-5.58c0-.18,0-.4,0-.68l0-.82c0-.26,0-.47,0-.62l-4.89,7.7h-1.69v-9.1Z"/>
        <path class="cls-3" d="M146.94,256.62v3.82h5v-3.82h1.37v9.1H152v-4.11h-5v4.11h-1.37v-9.1Z"/>
        <path class="cls-3"
              d="M159.57,256.47a3.42,3.42,0,0,1,2.39.73,3.09,3.09,0,0,1,.78,2.34v6.18h-1l-.26-1.34h-.07a4.5,4.5,0,0,1-.79.83,3,3,0,0,1-.95.51,4.43,4.43,0,0,1-1.31.17,3.52,3.52,0,0,1-1.46-.29,2.26,2.26,0,0,1-1-.88,2.76,2.76,0,0,1-.37-1.5,2.39,2.39,0,0,1,1.07-2.09,6.15,6.15,0,0,1,3.25-.8l1.55-.06v-.56a2.17,2.17,0,0,0-.5-1.65,1.94,1.94,0,0,0-1.41-.47,4.64,4.64,0,0,0-1.35.2,9.27,9.27,0,0,0-1.21.49l-.42-1a7.3,7.3,0,0,1,1.4-.54A5.93,5.93,0,0,1,159.57,256.47Zm1.83,4.77-1.37.06a4.63,4.63,0,0,0-2.38.55,1.61,1.61,0,0,0-.69,1.39,1.39,1.39,0,0,0,.47,1.15,1.93,1.93,0,0,0,1.24.38,2.85,2.85,0,0,0,2-.68,2.53,2.53,0,0,0,.77-2Z"/>
        <path class="cls-3"
              d="M172.3,265.72h-1.39v-7.94h-2.73c-.11,1.43-.25,2.66-.42,3.68a12.45,12.45,0,0,1-.62,2.5,3.62,3.62,0,0,1-.9,1.42,1.91,1.91,0,0,1-1.26.45,2.77,2.77,0,0,1-.42,0,1.06,1.06,0,0,1-.34-.08v-1.05a.86.86,0,0,0,.23.05,1,1,0,0,0,.25,0,.91.91,0,0,0,.67-.31,2.65,2.65,0,0,0,.56-.94,9.33,9.33,0,0,0,.45-1.6c.13-.64.25-1.41.35-2.28s.19-1.87.27-3h5.3Z"/>
        <path class="cls-3"
              d="M182.93,261.16a6.53,6.53,0,0,1-.28,2,4.1,4.1,0,0,1-.83,1.48,3.73,3.73,0,0,1-1.31.93,4.54,4.54,0,0,1-1.74.32,4.22,4.22,0,0,1-1.65-.32,3.78,3.78,0,0,1-1.3-.93,4.29,4.29,0,0,1-.85-1.48,6.23,6.23,0,0,1-.3-2,6,6,0,0,1,.5-2.55,3.68,3.68,0,0,1,1.44-1.6,4.25,4.25,0,0,1,2.22-.55A4.07,4.07,0,0,1,181,257a3.71,3.71,0,0,1,1.44,1.61A5.75,5.75,0,0,1,182.93,261.16Zm-6.84,0a5.72,5.72,0,0,0,.28,1.9,2.69,2.69,0,0,0,4,1.24,2.49,2.49,0,0,0,.89-1.24,5.46,5.46,0,0,0,.29-1.9,5.27,5.27,0,0,0-.29-1.88,2.51,2.51,0,0,0-.88-1.23,2.58,2.58,0,0,0-1.55-.43,2.32,2.32,0,0,0-2.06.94A4.45,4.45,0,0,0,176.09,261.16Z"/>
        <path class="cls-3"
              d="M192.44,258.91a1.76,1.76,0,0,1-.49,1.33,2.52,2.52,0,0,1-1.27.64V261a3,3,0,0,1,1.46.61,1.84,1.84,0,0,1,.61,1.5,2.64,2.64,0,0,1-.37,1.38,2.46,2.46,0,0,1-1.16.94,5.19,5.19,0,0,1-2.05.34h-3.88v-9.1h3.84a6.36,6.36,0,0,1,1.72.22,2.48,2.48,0,0,1,1.17.72A2,2,0,0,1,192.44,258.91Zm-1.38.15a1.08,1.08,0,0,0-.47-1,2.76,2.76,0,0,0-1.54-.32h-2.39v2.61h2.15a3.55,3.55,0,0,0,1.68-.32A1.08,1.08,0,0,0,191.06,259.06Zm.27,4a1.26,1.26,0,0,0-.61-1.16,3.44,3.44,0,0,0-1.75-.36h-2.31v3.06H189a3.5,3.5,0,0,0,1.73-.35A1.27,1.27,0,0,0,191.33,263.06Z"/>
        <path class="cls-3" d="M200.69,256.62v3.82h5v-3.82h1.37v9.1H205.7v-4.11h-5v4.11h-1.37v-9.1Z"/>
        <path class="cls-3"
              d="M213.32,256.47a3.42,3.42,0,0,1,2.39.73,3.09,3.09,0,0,1,.78,2.34v6.18h-1l-.26-1.34h-.07a4.5,4.5,0,0,1-.79.83,3,3,0,0,1-.94.51,4.55,4.55,0,0,1-1.32.17,3.52,3.52,0,0,1-1.46-.29,2.31,2.31,0,0,1-1-.88,2.76,2.76,0,0,1-.37-1.5,2.39,2.39,0,0,1,1.07-2.09,6.18,6.18,0,0,1,3.25-.8l1.55-.06v-.56a2.17,2.17,0,0,0-.5-1.65,1.94,1.94,0,0,0-1.41-.47,4.64,4.64,0,0,0-1.35.2,9.27,9.27,0,0,0-1.21.49l-.42-1a7.3,7.3,0,0,1,1.4-.54A5.93,5.93,0,0,1,213.32,256.47Zm1.83,4.77-1.37.06a4.63,4.63,0,0,0-2.38.55,1.61,1.61,0,0,0-.69,1.39,1.39,1.39,0,0,0,.47,1.15,1.93,1.93,0,0,0,1.24.38,2.85,2.85,0,0,0,2-.68,2.53,2.53,0,0,0,.77-2Z"/>
        <path class="cls-3"
              d="M228.14,265.72h-1.33v-9.44c0-.24,0-.45,0-.65l0-.6a4.77,4.77,0,0,1-.47.45l-.55.46-1.37,1.11-.72-.93,3.25-2.54h1.14Z"/>
        <path class="cls-3"
              d="M240.61,259.64a14.08,14.08,0,0,1-.22,2.64,6,6,0,0,1-.7,2,3.3,3.3,0,0,1-1.23,1.23,3.68,3.68,0,0,1-1.82.42,3.32,3.32,0,0,1-2.21-.74,4.38,4.38,0,0,1-1.3-2.14,11.43,11.43,0,0,1-.44-3.37,12.63,12.63,0,0,1,.39-3.35,4.24,4.24,0,0,1,1.26-2.14,3.79,3.79,0,0,1,4.54,0,4.38,4.38,0,0,1,1.3,2.14A11.39,11.39,0,0,1,240.61,259.64Zm-6.54,0a13.15,13.15,0,0,0,.25,2.82,3.4,3.4,0,0,0,.83,1.69,2.28,2.28,0,0,0,3,0,3.32,3.32,0,0,0,.83-1.68,13.18,13.18,0,0,0,.26-2.83,13,13,0,0,0-.25-2.8,3.4,3.4,0,0,0-.83-1.69,2.29,2.29,0,0,0-3,0,3.39,3.39,0,0,0-.81,1.69A13,13,0,0,0,234.07,259.64Z"/>
        <path class="cls-3"
              d="M250.23,259.64a14,14,0,0,1-.23,2.64,6,6,0,0,1-.69,2,3.25,3.25,0,0,1-1.24,1.23,3.64,3.64,0,0,1-1.81.42,3.32,3.32,0,0,1-2.21-.74,4.4,4.4,0,0,1-1.31-2.14,11.46,11.46,0,0,1-.43-3.37,12.63,12.63,0,0,1,.39-3.35,4.24,4.24,0,0,1,1.26-2.14,3.36,3.36,0,0,1,2.3-.76,3.31,3.31,0,0,1,2.23.75,4.4,4.4,0,0,1,1.31,2.14A11.73,11.73,0,0,1,250.23,259.64Zm-6.55,0a13.08,13.08,0,0,0,.26,2.82,3.31,3.31,0,0,0,.82,1.69,2.29,2.29,0,0,0,3,0,3.4,3.4,0,0,0,.83-1.68,13.18,13.18,0,0,0,.26-2.83,12.88,12.88,0,0,0-.26-2.8,3.39,3.39,0,0,0-.82-1.69,2.29,2.29,0,0,0-3,0,3.39,3.39,0,0,0-.82,1.69A13,13,0,0,0,243.68,259.64Z"/>
        <path class="cls-3"
              d="M254.36,253.41a2.06,2.06,0,0,1,1.86,1,5.14,5.14,0,0,1,.64,2.8,5.41,5.41,0,0,1-.62,2.82,2.06,2.06,0,0,1-1.88,1,2,2,0,0,1-1.82-1,6.78,6.78,0,0,1,0-5.62A2,2,0,0,1,254.36,253.41Zm0,1a1,1,0,0,0-1,.7,5.39,5.39,0,0,0-.31,2.1,5.51,5.51,0,0,0,.31,2.12,1,1,0,0,0,1,.71,1.07,1.07,0,0,0,1-.71,5.07,5.07,0,0,0,.34-2.12,5.16,5.16,0,0,0-.33-2.1A1.09,1.09,0,0,0,254.36,254.4Zm7.6-.82-6.66,12.14h-1.2l6.66-12.14Zm-.32,4.69a2.08,2.08,0,0,1,1.86,1,5.11,5.11,0,0,1,.64,2.8,5.4,5.4,0,0,1-.61,2.81,2.07,2.07,0,0,1-1.89,1,2,2,0,0,1-1.82-1,6.75,6.75,0,0,1,0-5.61A2,2,0,0,1,261.64,258.27Zm0,1a1,1,0,0,0-1,.7,5.33,5.33,0,0,0-.31,2.1,5.45,5.45,0,0,0,.31,2.11,1,1,0,0,0,1,.71,1.09,1.09,0,0,0,1-.7,5.23,5.23,0,0,0,.33-2.12,5.16,5.16,0,0,0-.33-2.1A1.08,1.08,0,0,0,261.64,259.27Z"/>
        <rect class="cls-3" x="94.73" y="321.69" width="130.88" height="36.04" rx="12"/>
        <path class="cls-4" d="M125.89,344.65v-9.28h6.91v9.28h-1.06v-8.33H127v8.33Z"/>
        <path class="cls-4"
              d="M141.2,341.16a4.82,4.82,0,0,1-.23,1.53,3.06,3.06,0,0,1-.64,1.13,2.69,2.69,0,0,1-1,.71,3.56,3.56,0,0,1-1.34.24,3.32,3.32,0,0,1-1.28-.24,2.73,2.73,0,0,1-1-.71,3.24,3.24,0,0,1-.66-1.13,4.82,4.82,0,0,1-.23-1.53,4.43,4.43,0,0,1,.39-2,2.83,2.83,0,0,1,1.11-1.23,3.33,3.33,0,0,1,1.71-.42,3.24,3.24,0,0,1,1.67.43,2.77,2.77,0,0,1,1.11,1.23A4.38,4.38,0,0,1,141.2,341.16Zm-5.3,0a4.51,4.51,0,0,0,.22,1.45,2,2,0,0,0,3.76,0,4.25,4.25,0,0,0,.22-1.45,4.11,4.11,0,0,0-.22-1.44,1.9,1.9,0,0,0-.68-.94,2,2,0,0,0-1.2-.33,1.79,1.79,0,0,0-1.59.72A3.39,3.39,0,0,0,135.9,341.16Z"/>
        <path class="cls-4"
              d="M148.12,337.69v6.06h1v3.3h-1v-2.4h-4.93v2.4h-1v-3.3h.55a8.11,8.11,0,0,0,1-1.81,11.41,11.41,0,0,0,.6-2.06,12.31,12.31,0,0,0,.21-2.19Zm-1,.84h-1.65a12.52,12.52,0,0,1-.27,1.88,11.8,11.8,0,0,1-.56,1.83,6.94,6.94,0,0,1-.81,1.51h3.29Z"/>
        <path class="cls-4"
              d="M153.76,337.56a2.58,2.58,0,0,1,2.07.9,4,4,0,0,1,.78,2.69,4.85,4.85,0,0,1-.36,2,2.6,2.6,0,0,1-1,1.22,2.7,2.7,0,0,1-1.52.41,3.15,3.15,0,0,1-1-.14,2.28,2.28,0,0,1-.72-.4,2.71,2.71,0,0,1-.49-.53h-.08c0,.16,0,.36.05.59s0,.44,0,.61v2.86h-1.06V337.69h.87l.14,1h.05a2.7,2.7,0,0,1,.49-.58,2.14,2.14,0,0,1,.72-.42A3,3,0,0,1,153.76,337.56Zm-.19.89a2.1,2.1,0,0,0-1.16.28,1.62,1.62,0,0,0-.64.84,4.17,4.17,0,0,0-.22,1.39v.2a4.91,4.91,0,0,0,.19,1.49,1.77,1.77,0,0,0,.64.93,2.07,2.07,0,0,0,1.21.32,1.69,1.69,0,0,0,1.08-.35,2.1,2.1,0,0,0,.64-1,4.44,4.44,0,0,0,.21-1.43,3.51,3.51,0,0,0-.48-2A1.63,1.63,0,0,0,153.57,338.45Z"/>
        <path class="cls-4"
              d="M164.44,341.16a4.83,4.83,0,0,1-.22,1.53,3.2,3.2,0,0,1-.64,1.13,2.77,2.77,0,0,1-1,.71,3.61,3.61,0,0,1-1.35.24,3.35,3.35,0,0,1-1.28-.24,2.82,2.82,0,0,1-1-.71,3.22,3.22,0,0,1-.65-1.13,4.56,4.56,0,0,1-.23-1.53,4.43,4.43,0,0,1,.38-2,2.83,2.83,0,0,1,1.11-1.23,3.35,3.35,0,0,1,1.72-.42,3.2,3.2,0,0,1,1.66.43,2.77,2.77,0,0,1,1.11,1.23A4.25,4.25,0,0,1,164.44,341.16Zm-5.29,0a4.25,4.25,0,0,0,.22,1.45,2,2,0,0,0,.69.95,1.91,1.91,0,0,0,1.19.34,1.85,1.85,0,0,0,1.88-1.29,4.25,4.25,0,0,0,.22-1.45,4.11,4.11,0,0,0-.22-1.44,1.92,1.92,0,0,0-.69-.94,2,2,0,0,0-1.2-.33,1.81,1.81,0,0,0-1.59.72A3.46,3.46,0,0,0,159.15,341.16Z"/>
        <path class="cls-4"
              d="M165.9,340.47a9.81,9.81,0,0,1,.29-2.54,3.84,3.84,0,0,1,.88-1.68,3.1,3.1,0,0,1,1.55-.88c.54-.15,1.09-.27,1.65-.38s1.1-.2,1.63-.28l.18.92-.83.13-.88.16-.83.16-.68.18a2.1,2.1,0,0,0-.93.5,2.48,2.48,0,0,0-.62,1,5.65,5.65,0,0,0-.27,1.6h.08a2.93,2.93,0,0,1,1.31-1,2.78,2.78,0,0,1,1-.18,2.7,2.7,0,0,1,1.5.39,2.41,2.41,0,0,1,.91,1.1,4.79,4.79,0,0,1-.09,3.56,2.66,2.66,0,0,1-1.09,1.16,3.37,3.37,0,0,1-1.66.39,3,3,0,0,1-1.32-.28,2.7,2.7,0,0,1-1-.84,4.21,4.21,0,0,1-.62-1.35A7.19,7.19,0,0,1,165.9,340.47Zm3.21,3.43a2,2,0,0,0,1-.26,1.58,1.58,0,0,0,.67-.8,3.61,3.61,0,0,0,.24-1.43,3.07,3.07,0,0,0-.42-1.73,1.5,1.5,0,0,0-1.35-.63,2.32,2.32,0,0,0-1,.25,3.17,3.17,0,0,0-.79.58,2.76,2.76,0,0,0-.47.6,7.48,7.48,0,0,0,.1,1.26,3.72,3.72,0,0,0,.33,1.1,1.88,1.88,0,0,0,.65.77A1.81,1.81,0,0,0,169.11,343.9Z"/>
        <path class="cls-4" d="M175.05,337.69v2.92h3.88v-2.92H180v7h-1.06V341.5h-3.88v3.15H174v-7Z"/>
        <path class="cls-4"
              d="M184.9,337.56a2.76,2.76,0,0,1,1.52.4,2.47,2.47,0,0,1,1,1.1,3.71,3.71,0,0,1,.34,1.65v.66h-4.8a2.68,2.68,0,0,0,.61,1.86,2.12,2.12,0,0,0,1.66.64,5.14,5.14,0,0,0,1.17-.12,7.18,7.18,0,0,0,1-.35v.92a5.54,5.54,0,0,1-1,.35,6.37,6.37,0,0,1-1.23.1,3.58,3.58,0,0,1-1.74-.4,2.83,2.83,0,0,1-1.16-1.21,4.09,4.09,0,0,1-.42-1.94,4.68,4.68,0,0,1,.38-2,2.84,2.84,0,0,1,2.69-1.71Zm0,.87a1.73,1.73,0,0,0-1.35.55,2.67,2.67,0,0,0-.6,1.54h3.69a3,3,0,0,0-.2-1.09,1.52,1.52,0,0,0-.57-.74A1.61,1.61,0,0,0,184.89,338.43Z"/>
        <path class="cls-4"
              d="M192.2,337.56a2.76,2.76,0,0,1,1.52.4,2.47,2.47,0,0,1,1,1.1,3.71,3.71,0,0,1,.34,1.65v.66h-4.8a2.73,2.73,0,0,0,.6,1.86,2.16,2.16,0,0,0,1.67.64,5.14,5.14,0,0,0,1.17-.12,7.18,7.18,0,0,0,1.05-.35v.92a5.54,5.54,0,0,1-1,.35,6.37,6.37,0,0,1-1.23.1,3.58,3.58,0,0,1-1.74-.4,2.83,2.83,0,0,1-1.16-1.21,4.09,4.09,0,0,1-.42-1.94,4.68,4.68,0,0,1,.38-2,2.84,2.84,0,0,1,2.69-1.71Zm0,.87a1.73,1.73,0,0,0-1.35.55,2.67,2.67,0,0,0-.6,1.54h3.69a3,3,0,0,0-.2-1.09,1.52,1.52,0,0,0-.57-.74A1.63,1.63,0,0,0,192.19,338.43Z"/>
        <circle class="cls-3" cx="49.87" cy="50.13" r="7.49"/>
        <path class="cls-3"
              d="M49.87,78.5A28.37,28.37,0,1,1,68,28.28a5.52,5.52,0,1,1-7,8.5,17.34,17.34,0,1,0,0,26.7A5.52,5.52,0,0,1,68,72a28.21,28.21,0,0,1-18.1,6.52Z"/>
    </g>
</svg>