<svg xmlns="http://www.w3.org/2000/svg" viewBox="0 0 750 400">
    <defs>
        <style>
            .cls-1{fill:#f2f4f3;}.cls-2{fill:#0a0908;}.cls-3{fill:#e6ede5;}.cls-4{fill:#ff5714;}.cls-5{fill:#22333b;}
        </style>
    </defs>
    <g id="Слой_4" data-name="Слой 4">
        <rect class="cls-1" width="750" height="400"/>
        <path class="cls-2" d="M0,60.29H553.68a139.71,139.71,0,0,1,0,279.42H0Z"/>
        <path class="cls-3"
              d="M95.38,112.55v3.34a15.67,15.67,0,0,1,7.07,1.54,8.87,8.87,0,0,1,3.81,3.68,10.5,10.5,0,0,1,1.17,4.89,11,11,0,0,1-.6,3.51,8.94,8.94,0,0,1-2,3.28,10.22,10.22,0,0,1-3.71,2.45,16.29,16.29,0,0,1-5.77,1v4.18H90.21v-4.18a16.34,16.34,0,0,1-5.84-1,10,10,0,0,1-3.69-2.46,9,9,0,0,1-1.94-3.3,11.35,11.35,0,0,1-.57-3.47,11.16,11.16,0,0,1,.63-3.76,8.53,8.53,0,0,1,2.07-3.19,10,10,0,0,1,3.71-2.23,18,18,0,0,1,5.63-.93v-3.34Zm-5.17,7.83a9.72,9.72,0,0,0-3.93.85,4.62,4.62,0,0,0-2.08,2,5.83,5.83,0,0,0-.64,2.77,6.2,6.2,0,0,0,.7,3,4.8,4.8,0,0,0,2.17,2,9.41,9.41,0,0,0,3.78.86Zm5.17,0v11.45a9.42,9.42,0,0,0,3.79-.86,4.77,4.77,0,0,0,2.16-2,6.2,6.2,0,0,0,.7-3,6,6,0,0,0-.63-2.77,4.7,4.7,0,0,0-2.09-2A9.72,9.72,0,0,0,95.38,120.38Z"/>
        <path class="cls-3"
              d="M117.58,119.32v8.2c0,.42,0,1,0,1.59s-.07,1.28-.12,1.94-.1,1.24-.15,1.76-.09.87-.11,1.06l9.57-14.55h6.81v20.75h-5.47v-8.28c0-.68,0-1.43.07-2.25s.11-1.6.17-2.33.1-1.28.13-1.65l-9.54,14.51H112.1V119.32Z"/>
        <path class="cls-3"
              d="M147.89,140.44a11.31,11.31,0,0,1-5.25-1.13,7.33,7.33,0,0,1-3.3-3.47,13.9,13.9,0,0,1-1.13-6,13.07,13.07,0,0,1,1.29-6.21,8.11,8.11,0,0,1,3.58-3.54,11.92,11.92,0,0,1,5.31-1.13,14.58,14.58,0,0,1,3.73.42,15.38,15.38,0,0,1,2.73,1l-1.67,4.38c-.89-.36-1.72-.65-2.48-.88a8,8,0,0,0-2.31-.34,4.16,4.16,0,0,0-2.46.69,4.1,4.1,0,0,0-1.47,2.09,10.84,10.84,0,0,0-.48,3.49,9.52,9.52,0,0,0,.52,3.41,4.07,4.07,0,0,0,1.5,2,4.27,4.27,0,0,0,2.39.65,9.47,9.47,0,0,0,3.14-.47,11.48,11.48,0,0,0,2.67-1.33v4.85a9.76,9.76,0,0,1-2.72,1.18A14.88,14.88,0,0,1,147.89,140.44Z"/>
        <path class="cls-3" d="M172.61,119.32h6.23l-8.22,10,8.95,10.8h-6.42l-8.48-10.52v10.52H159V119.32h5.66V129.4Z"/>
        <path class="cls-3"
              d="M191,118.9q4.18,0,6.4,1.81a6.72,6.72,0,0,1,2.23,5.53v13.83h-3.95l-1.1-2.82h-.14a10.69,10.69,0,0,1-1.82,1.81,6,6,0,0,1-2.14,1,10.77,10.77,0,0,1-2.93.34,7.46,7.46,0,0,1-3.29-.71,5.19,5.19,0,0,1-2.29-2.16,7.32,7.32,0,0,1-.84-3.7,5.48,5.48,0,0,1,2.32-4.87c1.55-1,3.87-1.62,7-1.74l3.6-.11v-.91a3.08,3.08,0,0,0-.85-2.39,3.45,3.45,0,0,0-2.38-.76,10.22,10.22,0,0,0-2.95.43,22.53,22.53,0,0,0-2.89,1.07l-1.88-3.82a16,16,0,0,1,3.7-1.37A17.51,17.51,0,0,1,191,118.9Zm3,11.56-2.19.07a6.31,6.31,0,0,0-3.81,1,3,3,0,0,0-1.07,2.4,2.1,2.1,0,0,0,.76,1.84,3.3,3.3,0,0,0,2,.55,4.55,4.55,0,0,0,3.07-1.08,3.81,3.81,0,0,0,1.25-3.06Z"/>
        <path class="cls-3"
              d="M224.06,140.07H218.4v-16.5h-5.21c-.26,3-.57,5.64-.93,7.78a24.91,24.91,0,0,1-1.37,5.22,6.86,6.86,0,0,1-2.08,2.94,5,5,0,0,1-3.06.93,9.58,9.58,0,0,1-1.79-.15,6.07,6.07,0,0,1-1.44-.45v-4.52a5.53,5.53,0,0,0,.87.27,5,5,0,0,0,1,.1,1.54,1.54,0,0,0,1-.43,4.09,4.09,0,0,0,.91-1.47,17.39,17.39,0,0,0,.8-2.91c.26-1.24.49-2.8.7-4.69s.41-4.18.59-6.87h15.7Z"/>
        <path class="cls-3"
              d="M235.66,127.34h4a17.42,17.42,0,0,1,5.27.67,6,6,0,0,1,3.09,2,5.5,5.5,0,0,1,1,3.42,6.43,6.43,0,0,1-.93,3.49,5.93,5.93,0,0,1-3,2.3,14.43,14.43,0,0,1-5.29.82H230V119.32h5.66Zm7.72,6.2a1.86,1.86,0,0,0-1-1.75,6,6,0,0,0-2.87-.54h-3.88v4.9h4a5.46,5.46,0,0,0,2.71-.6A2.14,2.14,0,0,0,243.38,133.54Z"/>
        <path class="cls-3" d="M259,119.32v8h7.9v-8h5.66v20.75h-5.66v-8.56H259v8.56h-5.66V119.32Z"/>
        <path class="cls-3"
              d="M278.48,140.07V119.32h5.66v8h2.73a17.21,17.21,0,0,1,5.24.67,5.88,5.88,0,0,1,3.07,2,5.61,5.61,0,0,1,1,3.42,6.43,6.43,0,0,1-.93,3.49,5.88,5.88,0,0,1-2.93,2.3,14.16,14.16,0,0,1-5.25.82Zm5.66-3.92h2.62a5.46,5.46,0,0,0,2.71-.6,2.13,2.13,0,0,0,1-2,1.85,1.85,0,0,0-1-1.75,6,6,0,0,0-2.88-.54h-2.54Zm15.05,3.92V119.32h5.66v20.75Z"/>
        <path class="cls-3"
              d="M316.26,119.32v8.2c0,.42,0,1-.05,1.59s-.07,1.28-.12,1.94-.1,1.24-.15,1.76-.08.87-.11,1.06l9.58-14.55h6.81v20.75h-5.48v-8.28c0-.68,0-1.43.08-2.25s.1-1.6.16-2.33.11-1.28.13-1.65l-9.53,14.51h-6.79V119.32Zm14.4-8.92a8.26,8.26,0,0,1-1.12,3.47,6,6,0,0,1-2.83,2.34,17,17,0,0,1-10.43,0,5.15,5.15,0,0,1-2.67-2.3,8.79,8.79,0,0,1-1-3.53h5.07a3.78,3.78,0,0,0,1.05,2.77,4.8,4.8,0,0,0,2.86.68,4.51,4.51,0,0,0,2.67-.74,3.61,3.61,0,0,0,1.25-2.71Z"/>
        <path class="cls-3"
              d="M359.57,118.93a6.88,6.88,0,0,1,5.66,2.73c1.44,1.82,2.17,4.48,2.17,8a15.42,15.42,0,0,1-1,5.93,8.07,8.07,0,0,1-2.83,3.62,7.13,7.13,0,0,1-4.13,1.23,7.84,7.84,0,0,1-2.58-.38,6.32,6.32,0,0,1-1.84-1,8.09,8.09,0,0,1-1.32-1.29h-.29a15.23,15.23,0,0,1,.22,1.53c.05.52.07,1,.07,1.52v8.37H348V119.32h4.61l.79,2.69h.26a8.17,8.17,0,0,1,1.36-1.54,6,6,0,0,1,1.92-1.12A7.44,7.44,0,0,1,359.57,118.93Zm-1.82,4.53a4,4,0,0,0-2.36.61,3.44,3.44,0,0,0-1.27,1.84,10.92,10.92,0,0,0-.44,3.1v.61a13.23,13.23,0,0,0,.38,3.4,4,4,0,0,0,1.28,2.11,3.87,3.87,0,0,0,2.48.72,3.17,3.17,0,0,0,2.14-.72,4.44,4.44,0,0,0,1.25-2.12,12.16,12.16,0,0,0,.41-3.43,8.9,8.9,0,0,0-.94-4.58A3.19,3.19,0,0,0,357.75,123.46Z"/>
        <path class="cls-3"
              d="M380.62,118.93a10.41,10.41,0,0,1,5,1.11,7.68,7.68,0,0,1,3.21,3.2,10.68,10.68,0,0,1,1.13,5.12v2.74H376.54a5.41,5.41,0,0,0,1.44,3.76,5,5,0,0,0,3.74,1.37,15.3,15.3,0,0,0,3.64-.41,18.6,18.6,0,0,0,3.39-1.23V139a13.21,13.21,0,0,1-3.22,1.11,19.69,19.69,0,0,1-4.07.36,12.72,12.72,0,0,1-5.52-1.15,8.58,8.58,0,0,1-3.77-3.51,11.71,11.71,0,0,1-1.36-5.94,13.27,13.27,0,0,1,1.23-6,8.34,8.34,0,0,1,3.45-3.64A10.46,10.46,0,0,1,380.62,118.93Zm0,4a3.72,3.72,0,0,0-2.73,1.06,5,5,0,0,0-1.26,3.32h7.94a5.71,5.71,0,0,0-.45-2.25,3.6,3.6,0,0,0-1.3-1.56A3.91,3.91,0,0,0,380.66,123Z"/>
        <path class="cls-3" d="M408.85,119.32v4.25h-8.67v16.5h-5.66V119.32Z"/>
        <path class="cls-3"
              d="M418.16,119.32v8.2c0,.42,0,1,0,1.59s-.08,1.28-.13,1.94-.1,1.24-.14,1.76-.09.87-.12,1.06l9.58-14.55h6.81v20.75h-5.48v-8.28c0-.68,0-1.43.08-2.25s.1-1.6.17-2.33.1-1.28.13-1.65l-9.54,14.51h-6.79V119.32Z"/>
        <path class="cls-3"
              d="M448.48,140.44a11.31,11.31,0,0,1-5.25-1.13,7.28,7.28,0,0,1-3.3-3.47,13.89,13.89,0,0,1-1.14-6,13.07,13.07,0,0,1,1.29-6.21,8.16,8.16,0,0,1,3.58-3.54,11.94,11.94,0,0,1,5.32-1.13,14.44,14.44,0,0,1,3.72.42,15.21,15.21,0,0,1,2.74,1l-1.67,4.38c-.89-.36-1.72-.65-2.49-.88a8,8,0,0,0-2.3-.34,4.21,4.21,0,0,0-2.47.69,4.15,4.15,0,0,0-1.46,2.09,10.55,10.55,0,0,0-.49,3.49,9.74,9.74,0,0,0,.52,3.41,4.09,4.09,0,0,0,1.51,2,4.25,4.25,0,0,0,2.39.65,9.51,9.51,0,0,0,3.14-.47,11.88,11.88,0,0,0,2.67-1.33v4.85a9.89,9.89,0,0,1-2.72,1.18A14.94,14.94,0,0,1,448.48,140.44Z"/>
        <path class="cls-3" d="M476.76,123.57H470v16.5h-5.66v-16.5H457.5v-4.25h19.26Z"/>
        <path class="cls-3"
              d="M492.16,118.93a6.9,6.9,0,0,1,5.67,2.73c1.44,1.82,2.16,4.48,2.16,8a15.23,15.23,0,0,1-1,5.93,8,8,0,0,1-2.82,3.62,7.16,7.16,0,0,1-4.14,1.23,7.88,7.88,0,0,1-2.58-.38,6.32,6.32,0,0,1-1.84-1,8.43,8.43,0,0,1-1.31-1.29H486a15.23,15.23,0,0,1,.22,1.53c.05.52.08,1,.08,1.52v8.37h-5.66V119.32h4.6L486,122h.26a8.11,8.11,0,0,1,1.35-1.54,6,6,0,0,1,1.92-1.12A7.44,7.44,0,0,1,492.16,118.93Zm-1.82,4.53a4,4,0,0,0-2.36.61,3.5,3.5,0,0,0-1.27,1.84,11,11,0,0,0-.43,3.1v.61a12.81,12.81,0,0,0,.38,3.4,3.94,3.94,0,0,0,1.28,2.11,3.84,3.84,0,0,0,2.47.72,3.17,3.17,0,0,0,2.14-.72A4.44,4.44,0,0,0,493.8,133a12.13,12.13,0,0,0,.42-3.43,8.89,8.89,0,0,0-1-4.58A3.19,3.19,0,0,0,490.34,123.46Z"/>
        <path class="cls-3"
              d="M513.16,118.9c2.78,0,4.92.6,6.4,1.81a6.72,6.72,0,0,1,2.23,5.53v13.83h-3.95l-1.1-2.82h-.15a10.66,10.66,0,0,1-1.81,1.81,6,6,0,0,1-2.14,1,10.77,10.77,0,0,1-2.93.34,7.46,7.46,0,0,1-3.29-.71,5.26,5.26,0,0,1-2.3-2.16,7.42,7.42,0,0,1-.83-3.7,5.45,5.45,0,0,1,2.32-4.87c1.55-1,3.86-1.62,7-1.74l3.6-.11v-.91a3,3,0,0,0-.86-2.39,3.43,3.43,0,0,0-2.37-.76,10.17,10.17,0,0,0-3,.43,22.66,22.66,0,0,0-2.9,1.07l-1.87-3.82a15.86,15.86,0,0,1,3.7-1.37A17.51,17.51,0,0,1,513.16,118.9Zm3,11.56-2.19.07a6.37,6.37,0,0,0-3.82,1,3,3,0,0,0-1.06,2.4,2.1,2.1,0,0,0,.76,1.84,3.29,3.29,0,0,0,2,.55,4.51,4.51,0,0,0,3.07-1.08,3.78,3.78,0,0,0,1.26-3.06Z"/>
        <path class="cls-3" d="M544.78,123.57H538v16.5h-5.66v-16.5h-6.81v-4.25h19.26Z"/>
        <path class="cls-3"
              d="M567.49,129.66a13.85,13.85,0,0,1-.7,4.6,9,9,0,0,1-2,3.38,8.44,8.44,0,0,1-3.19,2.09,11.78,11.78,0,0,1-4.2.71,11.09,11.09,0,0,1-4-.71,8.6,8.6,0,0,1-3.17-2.09,9.41,9.41,0,0,1-2.08-3.38,13.34,13.34,0,0,1-.73-4.6,12.71,12.71,0,0,1,1.22-5.85,8.39,8.39,0,0,1,3.49-3.63,11,11,0,0,1,5.4-1.25,10.55,10.55,0,0,1,5.17,1.25,8.79,8.79,0,0,1,3.54,3.63A12.22,12.22,0,0,1,567.49,129.66Zm-14.34,0a11.3,11.3,0,0,0,.44,3.43,4.08,4.08,0,0,0,1.39,2.1,4,4,0,0,0,2.47.7,4,4,0,0,0,2.44-.7,4,4,0,0,0,1.37-2.1,11.63,11.63,0,0,0,.44-3.43,11.44,11.44,0,0,0-.44-3.43,3.91,3.91,0,0,0-1.38-2,4.15,4.15,0,0,0-2.47-.68,3.59,3.59,0,0,0-3.25,1.54A8.42,8.42,0,0,0,553.15,129.66Z"/>
        <path class="cls-3"
              d="M583.71,118.93a6.91,6.91,0,0,1,5.67,2.73c1.44,1.82,2.16,4.48,2.16,8a15.23,15.23,0,0,1-1,5.93,8.12,8.12,0,0,1-2.82,3.62,7.16,7.16,0,0,1-4.14,1.23,7.88,7.88,0,0,1-2.58-.38,6.32,6.32,0,0,1-1.84-1,8.51,8.51,0,0,1-1.32-1.29h-.29a15.23,15.23,0,0,1,.22,1.53c0,.52.07,1,.07,1.52v8.37h-5.65V119.32h4.6l.79,2.69h.26a8.54,8.54,0,0,1,1.36-1.54,6,6,0,0,1,1.92-1.12A7.44,7.44,0,0,1,583.71,118.93Zm-1.82,4.53a4,4,0,0,0-2.36.61,3.5,3.5,0,0,0-1.27,1.84,10.92,10.92,0,0,0-.44,3.1v.61a12.77,12.77,0,0,0,.39,3.4,3.92,3.92,0,0,0,1.27,2.11,3.87,3.87,0,0,0,2.48.72,3.17,3.17,0,0,0,2.14-.72,4.44,4.44,0,0,0,1.25-2.12,12.13,12.13,0,0,0,.42-3.43,8.89,8.89,0,0,0-.95-4.58A3.19,3.19,0,0,0,581.89,123.46Z"/>
        <path class="cls-3"
              d="M96.48,185.67l-2-6.46H84.62l-2,6.46h-6.2L86,158.43h7l9.62,27.24Zm-3.34-11.29-2-6.3c-.12-.42-.29-1-.49-1.63s-.41-1.33-.61-2-.37-1.28-.49-1.79c-.13.51-.3,1.14-.51,1.88l-.63,2.13c-.19.67-.34,1.14-.42,1.43l-2,6.3Z"/>
        <path class="cls-3" d="M116.55,185.67H110.8V163.33h-7.36v-4.79h20.48v4.79h-7.37Z"/>
        <path class="cls-3"
              d="M152.72,172.07a19.54,19.54,0,0,1-.78,5.7,12.18,12.18,0,0,1-2.37,4.43,10.27,10.27,0,0,1-4,2.84,17.06,17.06,0,0,1-11.51,0,10.27,10.27,0,0,1-4-2.84,12.14,12.14,0,0,1-2.37-4.44,19.75,19.75,0,0,1-.78-5.73,18.07,18.07,0,0,1,1.38-7.34,10.43,10.43,0,0,1,4.26-4.85,14,14,0,0,1,7.31-1.73,13.85,13.85,0,0,1,7.27,1.73,10.57,10.57,0,0,1,4.23,4.86A18.18,18.18,0,0,1,152.72,172.07Zm-19.8,0a15.11,15.11,0,0,0,.71,4.89,6.43,6.43,0,0,0,2.24,3.15,7.64,7.64,0,0,0,7.9,0A6.22,6.22,0,0,0,146,177a15.12,15.12,0,0,0,.7-4.89,12.15,12.15,0,0,0-1.6-6.72q-1.59-2.44-5.25-2.45a6.65,6.65,0,0,0-4,1.1,6.37,6.37,0,0,0-2.25,3.16A15.15,15.15,0,0,0,132.92,172.07Z"/>
        <path class="cls-3"
              d="M179.81,185.67h-5.74V163.33h-6.64c-.15,1.16-.31,2.43-.48,3.8s-.35,2.76-.54,4.16-.38,2.72-.58,4-.41,2.36-.61,3.32a16.31,16.31,0,0,1-1.3,4,6.07,6.07,0,0,1-2.25,2.54,7,7,0,0,1-3.7.87,9.83,9.83,0,0,1-1.46-.11,11.13,11.13,0,0,1-1.29-.3v-4.71a8.78,8.78,0,0,0,1,.27,5.7,5.7,0,0,0,1.06.1,1.71,1.71,0,0,0,1.23-.49,4.29,4.29,0,0,0,.88-1.69,26.89,26.89,0,0,0,.78-3.32c.11-.61.26-1.49.44-2.62s.4-2.46.64-4,.48-3.19.73-5,.5-3.69.73-5.64h17.13Z"/>
        <path class="cls-3"
              d="M213.6,185.67h-19v-4l6.81-6.89c1.38-1.41,2.48-2.58,3.31-3.53a11.59,11.59,0,0,0,1.82-2.59,5.62,5.62,0,0,0,.57-2.5,3.1,3.1,0,0,0-.9-2.43,3.5,3.5,0,0,0-2.4-.8,7,7,0,0,0-3.07.72,15.78,15.78,0,0,0-3.09,2.06L194.56,162a28,28,0,0,1,2.48-1.9,11.39,11.39,0,0,1,3-1.43,13.71,13.71,0,0,1,4.16-.55,10,10,0,0,1,4.6,1,7.21,7.21,0,0,1,3,2.62,7,7,0,0,1,1,3.76,9.29,9.29,0,0,1-.89,4.1,14.67,14.67,0,0,1-2.58,3.67c-1.14,1.21-2.5,2.56-4.1,4l-3.48,3.28v.26H213.6Z"/>
        <path class="cls-3"
              d="M235.32,185.67h-19v-4l6.81-6.89c1.37-1.41,2.48-2.58,3.31-3.53a11.93,11.93,0,0,0,1.82-2.59,5.62,5.62,0,0,0,.57-2.5,3.1,3.1,0,0,0-.9-2.43,3.5,3.5,0,0,0-2.41-.8,6.94,6.94,0,0,0-3.06.72,15.83,15.83,0,0,0-3.1,2.06L216.29,162a29.35,29.35,0,0,1,2.47-1.9,11.46,11.46,0,0,1,3.05-1.43,13.71,13.71,0,0,1,4.16-.55,10,10,0,0,1,4.59,1,7.15,7.15,0,0,1,3,2.62,6.89,6.89,0,0,1,1,3.76,9.29,9.29,0,0,1-.89,4.1,14.72,14.72,0,0,1-2.59,3.67c-1.13,1.21-2.49,2.56-4.09,4l-3.49,3.28v.26h11.82Z"/>
        <path class="cls-3"
              d="M254.34,185.67l-7.9-20.75h5.92l4,11.82a14.6,14.6,0,0,1,.53,2.19c.13.77.22,1.45.27,2.06h.15a17.28,17.28,0,0,1,.27-2.1,15.08,15.08,0,0,1,.57-2.15l4-11.82h5.92l-7.9,20.75Z"/>
        <path class="cls-3"
              d="M288.54,185.67h-19v-4l6.8-6.89c1.38-1.41,2.48-2.58,3.32-3.53a12.29,12.29,0,0,0,1.82-2.59,5.75,5.75,0,0,0,.56-2.5,3.1,3.1,0,0,0-.9-2.43,3.5,3.5,0,0,0-2.4-.8,6.94,6.94,0,0,0-3.06.72,15.54,15.54,0,0,0-3.1,2.06L269.5,162a29.52,29.52,0,0,1,2.48-1.9,11.39,11.39,0,0,1,3-1.43,13.82,13.82,0,0,1,4.17-.55,10,10,0,0,1,4.59,1,7.21,7.21,0,0,1,3,2.62,7,7,0,0,1,1,3.76,9.43,9.43,0,0,1-.89,4.1,15,15,0,0,1-2.59,3.67c-1.13,1.21-2.5,2.56-4.09,4l-3.49,3.28v.26h11.82Z"/>
        <path class="cls-3"
              d="M318.58,158.15v3.34a15.73,15.73,0,0,1,7.07,1.54,8.9,8.9,0,0,1,3.8,3.68,10.5,10.5,0,0,1,1.17,4.89,11.24,11.24,0,0,1-.59,3.51,9.1,9.1,0,0,1-2,3.28,10.18,10.18,0,0,1-3.7,2.45,16.33,16.33,0,0,1-5.77,1V186H313.4v-4.18a16.28,16.28,0,0,1-5.83-1,10,10,0,0,1-3.7-2.46,9.15,9.15,0,0,1-1.94-3.3,11.35,11.35,0,0,1-.57-3.47,10.92,10.92,0,0,1,.64-3.76,8.5,8.5,0,0,1,2.06-3.19,10.14,10.14,0,0,1,3.72-2.23,17.91,17.91,0,0,1,5.62-.93v-3.34ZM313.4,166a9.7,9.7,0,0,0-3.92.85,4.65,4.65,0,0,0-2.09,2,6,6,0,0,0-.63,2.77,6.09,6.09,0,0,0,.7,3,4.77,4.77,0,0,0,2.16,2,9.5,9.5,0,0,0,3.78.86Zm5.18,0v11.45a9.37,9.37,0,0,0,3.78-.86,4.85,4.85,0,0,0,2.17-2,6.2,6.2,0,0,0,.69-3,6,6,0,0,0-.63-2.77,4.65,4.65,0,0,0-2.09-2A9.7,9.7,0,0,0,318.58,166Z"/>
        <path class="cls-3" d="M104.83,246.08h-1.48V240H96.67v6.06H95.2V233.23h1.47v5.48h6.68v-5.48h1.48Z"/>
        <path class="cls-3"
              d="M111.67,236.29a3.61,3.61,0,0,1,2.53.77,3.26,3.26,0,0,1,.83,2.47v6.55h-1l-.28-1.42h-.07a5.46,5.46,0,0,1-.84.88,2.93,2.93,0,0,1-1,.54,4.67,4.67,0,0,1-1.4.18,3.75,3.75,0,0,1-1.54-.31,2.46,2.46,0,0,1-1.06-.93,3,3,0,0,1-.39-1.59,2.53,2.53,0,0,1,1.13-2.21,6.44,6.44,0,0,1,3.45-.84l1.64-.07v-.59a2.35,2.35,0,0,0-.53-1.75,2.06,2.06,0,0,0-1.5-.5,4.49,4.49,0,0,0-1.42.22,9.15,9.15,0,0,0-1.29.52l-.44-1.11a7.49,7.49,0,0,1,1.48-.57A6.27,6.27,0,0,1,111.67,236.29Zm1.93,5-1.45.07a4.82,4.82,0,0,0-2.51.58,1.7,1.7,0,0,0-.73,1.47,1.46,1.46,0,0,0,.49,1.22,2,2,0,0,0,1.32.4,3,3,0,0,0,2.07-.71,2.71,2.71,0,0,0,.81-2.14Z"/>
        <path class="cls-3"
              d="M130.86,246.08h-9.22v-2.29l3.1-3.17c.64-.68,1.14-1.22,1.5-1.63a5,5,0,0,0,.75-1.05,1.9,1.9,0,0,0,.22-.9.91.91,0,0,0-.37-.82A1.46,1.46,0,0,0,126,236a2.46,2.46,0,0,0-1.21.35,8.77,8.77,0,0,0-1.39,1l-1.88-2.23c.38-.34.79-.67,1.21-1a5.77,5.77,0,0,1,1.53-.77,6.89,6.89,0,0,1,2.13-.29,5.19,5.19,0,0,1,2.25.45,3.59,3.59,0,0,1,1.48,1.25,3.33,3.33,0,0,1,.52,1.81,4.65,4.65,0,0,1-.41,2A6.82,6.82,0,0,1,129,240.3c-.54.58-1.21,1.24-2,2l-.93.85v.08h4.81Z"/>
        <path class="cls-3"
              d="M137.31,237.66a3.92,3.92,0,0,1,1.93.48,3.56,3.56,0,0,1,1.39,1.41,4.51,4.51,0,0,1,.52,2.25,4.85,4.85,0,0,1-.57,2.43,3.57,3.57,0,0,1-1.71,1.51,7.06,7.06,0,0,1-2.88.52,10.28,10.28,0,0,1-2-.18,5.81,5.81,0,0,1-1.62-.52v-2.85a9.63,9.63,0,0,0,1.61.56,6.68,6.68,0,0,0,1.73.25,2.83,2.83,0,0,0,1.08-.18,1.5,1.5,0,0,0,.68-.55,1.62,1.62,0,0,0,.23-.88,1.39,1.39,0,0,0-.53-1.15,2.47,2.47,0,0,0-1.58-.42,4.23,4.23,0,0,0-.94.1,6.31,6.31,0,0,0-.81.21l-1.26-.63.48-6.79h7.25v2.89H136l-.15,1.7.57-.11A6.45,6.45,0,0,1,137.31,237.66Z"/>
        <path class="cls-3"
              d="M145.54,233.05a3,3,0,0,1,2.4,1,4.37,4.37,0,0,1,.91,3,4.66,4.66,0,0,1-.85,3,3,3,0,0,1-2.46,1.07,2.91,2.91,0,0,1-2.36-1.07,4.55,4.55,0,0,1-.89-3,4.64,4.64,0,0,1,.84-3A2.9,2.9,0,0,1,145.54,233.05Zm0,2.14c-.25,0-.42.17-.52.51a5.75,5.75,0,0,0-.14,1.4,5.69,5.69,0,0,0,.14,1.38c.1.35.27.52.52.52s.42-.17.51-.51a5.21,5.21,0,0,0,.14-1.39,5.29,5.29,0,0,0-.14-1.4Q145.95,235.19,145.57,235.19Zm9.62-2-7.05,12.85h-2.59l7.06-12.85Zm0,4.93a3,3,0,0,1,2.4,1.06,4.42,4.42,0,0,1,.91,3,4.73,4.73,0,0,1-.85,3,3,3,0,0,1-2.46,1.07,2.94,2.94,0,0,1-2.36-1.07,4.55,4.55,0,0,1-.89-3,4.64,4.64,0,0,1,.84-3A2.88,2.88,0,0,1,155.21,238.16Zm0,2.15c-.25,0-.42.17-.52.51a5.66,5.66,0,0,0-.14,1.39,5.72,5.72,0,0,0,.14,1.39c.1.35.27.52.52.52s.42-.17.52-.51a5.75,5.75,0,0,0,.14-1.4,5.62,5.62,0,0,0-.14-1.41C155.66,240.47,155.49,240.31,155.24,240.31Z"/>
        <path class="cls-3"
              d="M172.58,238.86a1.85,1.85,0,0,1-.53,1.41,2.65,2.65,0,0,1-1.34.69V241a3,3,0,0,1,1.54.64,1.94,1.94,0,0,1,.65,1.6,2.75,2.75,0,0,1-.39,1.46,2.58,2.58,0,0,1-1.23,1,5.55,5.55,0,0,1-2.17.36H165v-9.63h4.07a6.17,6.17,0,0,1,1.81.23,2.47,2.47,0,0,1,1.24.76A2.12,2.12,0,0,1,172.58,238.86Zm-1.47.17a1.14,1.14,0,0,0-.5-1,2.92,2.92,0,0,0-1.62-.34h-2.53v2.77h2.27a3.63,3.63,0,0,0,1.78-.35A1.13,1.13,0,0,0,171.11,239Zm.28,4.24a1.31,1.31,0,0,0-.64-1.23,3.68,3.68,0,0,0-1.85-.38h-2.44v3.23h2.47a3.63,3.63,0,0,0,1.83-.37A1.34,1.34,0,0,0,171.39,243.27Z"/>
        <path class="cls-3"
              d="M175.23,246.08v-9.63h1.45v4h2.61a5.42,5.42,0,0,1,2,.31,2.28,2.28,0,0,1,1.17.91,2.74,2.74,0,0,1,.38,1.5,3.1,3.1,0,0,1-.37,1.56,2.51,2.51,0,0,1-1.19,1,5.13,5.13,0,0,1-2.09.36Zm1.45-1.19h2.37a3.37,3.37,0,0,0,1.72-.38,1.4,1.4,0,0,0,.65-1.3,1.3,1.3,0,0,0-.6-1.23,3.51,3.51,0,0,0-1.72-.35h-2.42Zm7.74,1.19v-9.63h1.44v9.63Z"/>
        <path class="cls-3" d="M201.68,236.45v9.63H188.9v-9.63h1.45v8.39h4.21v-8.39H196v8.39h4.22v-8.39Z"/>
        <path class="cls-3"
              d="M208.41,236.27a3.79,3.79,0,0,1,2.09.55,3.52,3.52,0,0,1,1.33,1.52,5.29,5.29,0,0,1,.46,2.29v.91h-6.58a3.85,3.85,0,0,0,.83,2.58,2.94,2.94,0,0,0,2.28.89,7,7,0,0,0,1.6-.17,8.26,8.26,0,0,0,1.45-.49v1.28a7.08,7.08,0,0,1-1.43.48,8.25,8.25,0,0,1-1.68.15,4.83,4.83,0,0,1-2.39-.57,3.89,3.89,0,0,1-1.59-1.67,5.78,5.78,0,0,1-.57-2.69,6.55,6.55,0,0,1,.52-2.69,3.86,3.86,0,0,1,3.68-2.37Zm0,1.2a2.37,2.37,0,0,0-1.85.76,3.62,3.62,0,0,0-.81,2.14h5a4.39,4.39,0,0,0-.27-1.52,2.17,2.17,0,0,0-.77-1A2.33,2.33,0,0,0,208.4,237.47Z"/>
        <path class="cls-3"
              d="M223.19,246.26a4.62,4.62,0,0,1-2.27-.54,3.59,3.59,0,0,1-1.53-1.64,7.27,7.27,0,0,1,0-5.62,3.69,3.69,0,0,1,1.59-1.65,4.87,4.87,0,0,1,2.32-.54,6.19,6.19,0,0,1,1.37.15,4,4,0,0,1,1.09.36l-.43,1.22a8.52,8.52,0,0,0-1-.31,4.2,4.2,0,0,0-1.07-.14,2.94,2.94,0,0,0-1.65.43,2.62,2.62,0,0,0-1,1.26,5.63,5.63,0,0,0-.33,2.06,5.57,5.57,0,0,0,.32,2,2.62,2.62,0,0,0,.95,1.26,2.7,2.7,0,0,0,1.58.44,5.18,5.18,0,0,0,1.36-.16,8.45,8.45,0,0,0,1.11-.38v1.3a4.35,4.35,0,0,1-1.07.37A6.27,6.27,0,0,1,223.19,246.26Z"/>
        <path class="cls-3" d="M233.45,236.45H235l-4.11,4.65,4.45,5h-1.7l-4.33-4.89v4.89H227.9v-9.63h1.45v4.67Z"/>
        <path class="cls-3"
              d="M245.31,241.25a6.85,6.85,0,0,1-.3,2.11,4.33,4.33,0,0,1-.88,1.58,3.74,3.74,0,0,1-1.39,1,4.81,4.81,0,0,1-1.83.34,4.56,4.56,0,0,1-1.76-.34,3.92,3.92,0,0,1-1.37-1,4.51,4.51,0,0,1-.9-1.58,6.55,6.55,0,0,1-.31-2.11,6.13,6.13,0,0,1,.53-2.7,3.83,3.83,0,0,1,1.51-1.69,4.57,4.57,0,0,1,2.36-.59,4.37,4.37,0,0,1,2.28.59,3.94,3.94,0,0,1,1.52,1.7A6.12,6.12,0,0,1,245.31,241.25Zm-7.25,0a5.82,5.82,0,0,0,.31,2,2.5,2.5,0,0,0,2.57,1.78,2.71,2.71,0,0,0,1.63-.46,2.65,2.65,0,0,0,.94-1.32,5.82,5.82,0,0,0,.31-2,5.72,5.72,0,0,0-.31-2,2.61,2.61,0,0,0-.94-1.29,2.7,2.7,0,0,0-1.64-.46,2.46,2.46,0,0,0-2.18,1A4.74,4.74,0,0,0,238.06,241.25Z"/>
        <path class="cls-3"
              d="M252.29,236.27a3.55,3.55,0,0,1,2.84,1.24,5.61,5.61,0,0,1,1.06,3.73,6.85,6.85,0,0,1-.49,2.76,3.58,3.58,0,0,1-3.45,2.26,3.87,3.87,0,0,1-1.33-.21,3,3,0,0,1-1-.54,3.67,3.67,0,0,1-.68-.75h-.1c0,.23,0,.51.06.83s0,.6,0,.84v4h-1.45V236.45H249l.19,1.42h.07a4,4,0,0,1,.68-.8,2.8,2.8,0,0,1,1-.58A3.75,3.75,0,0,1,252.29,236.27ZM252,237.5a2.88,2.88,0,0,0-1.59.39,2.2,2.2,0,0,0-.88,1.15,5.88,5.88,0,0,0-.3,1.93v.28a6.84,6.84,0,0,0,.27,2.07,2.39,2.39,0,0,0,.87,1.28,2.73,2.73,0,0,0,1.65.44,2.29,2.29,0,0,0,1.48-.48,2.85,2.85,0,0,0,.88-1.35,6.09,6.09,0,0,0,.29-2,5,5,0,0,0-.65-2.71A2.25,2.25,0,0,0,252,237.5Z"/>
        <path class="cls-3"
              d="M266.92,241.25a6.55,6.55,0,0,1-.31,2.11,4.31,4.31,0,0,1-.87,1.58,3.91,3.91,0,0,1-1.39,1,4.87,4.87,0,0,1-1.84.34,4.51,4.51,0,0,1-1.75-.34,4,4,0,0,1-1.38-1,4.49,4.49,0,0,1-.89-1.58,6.54,6.54,0,0,1-.32-2.11,6.28,6.28,0,0,1,.53-2.7,3.85,3.85,0,0,1,1.52-1.69,4.53,4.53,0,0,1,2.35-.59,4.35,4.35,0,0,1,2.28.59,4,4,0,0,1,1.53,1.7A6.12,6.12,0,0,1,266.92,241.25Zm-7.25,0a6.08,6.08,0,0,0,.3,2,2.71,2.71,0,0,0,5.15,0,6.08,6.08,0,0,0,.3-2,6,6,0,0,0-.3-2,2.67,2.67,0,0,0-.94-1.29,2.7,2.7,0,0,0-1.64-.46,2.46,2.46,0,0,0-2.18,1A4.74,4.74,0,0,0,259.67,241.25Z"/>
        <path class="cls-3"
              d="M273.23,246.26a4.65,4.65,0,0,1-2.27-.54,3.7,3.7,0,0,1-1.53-1.64,7.27,7.27,0,0,1,0-5.62,3.76,3.76,0,0,1,1.6-1.65,4.86,4.86,0,0,1,2.31-.54,6.34,6.34,0,0,1,1.38.15,4.21,4.21,0,0,1,1.09.36L275.4,238a8,8,0,0,0-1-.31,4.14,4.14,0,0,0-1.07-.14,2.88,2.88,0,0,0-1.64.43,2.51,2.51,0,0,0-1,1.26,5.63,5.63,0,0,0-.33,2.06,5.36,5.36,0,0,0,.32,2,2.6,2.6,0,0,0,.94,1.26,2.73,2.73,0,0,0,1.58.44,5.26,5.26,0,0,0,1.37-.16,8.81,8.81,0,0,0,1.1-.38v1.3a4.28,4.28,0,0,1-1.06.37A6.37,6.37,0,0,1,273.23,246.26Z"/>
        <path class="cls-3" d="M284.44,237.69H281.3v8.39h-1.43v-8.39h-3.09v-1.24h7.66Z"/>
        <path class="cls-3"
              d="M287.78,240.42h2.92a5.61,5.61,0,0,1,2,.31,2.46,2.46,0,0,1,1.22.91,2.67,2.67,0,0,1,.4,1.5,3,3,0,0,1-.39,1.56,2.59,2.59,0,0,1-1.22,1,5.35,5.35,0,0,1-2.12.36h-4.29v-9.63h1.46Zm5.11,2.79a1.29,1.29,0,0,0-.62-1.23,3.65,3.65,0,0,0-1.74-.35h-2.75v3.26h2.76a3.29,3.29,0,0,0,1.7-.39A1.39,1.39,0,0,0,292.89,243.21Z"/>
        <path class="cls-3" d="M309.43,236.45v9.63H308V237.7h-5.07v8.38h-1.46v-9.63Z"/>
        <path class="cls-3"
              d="M316.16,236.27a3.79,3.79,0,0,1,2.09.55,3.52,3.52,0,0,1,1.33,1.52,5.29,5.29,0,0,1,.46,2.29v.91h-6.58a3.85,3.85,0,0,0,.83,2.58,2.94,2.94,0,0,0,2.28.89,7,7,0,0,0,1.6-.17,8.26,8.26,0,0,0,1.45-.49v1.28a7.08,7.08,0,0,1-1.43.48,8.25,8.25,0,0,1-1.68.15,4.83,4.83,0,0,1-2.39-.57,3.89,3.89,0,0,1-1.59-1.67,5.78,5.78,0,0,1-.57-2.69,6.55,6.55,0,0,1,.52-2.69,3.86,3.86,0,0,1,3.68-2.37Zm0,1.2a2.37,2.37,0,0,0-1.85.76,3.62,3.62,0,0,0-.81,2.14h5a4.39,4.39,0,0,0-.27-1.52,2.17,2.17,0,0,0-.77-1A2.33,2.33,0,0,0,316.15,237.47Z"/>
        <path class="cls-3"
              d="M323.75,236.45v3.46a1.7,1.7,0,0,0,.5,1.34,2.12,2.12,0,0,0,1.43.43,4.74,4.74,0,0,0,1.64-.28,8.47,8.47,0,0,0,1.49-.77v-4.18h1.45v9.63h-1.45v-4.32a8.16,8.16,0,0,1-1.57.82,5.12,5.12,0,0,1-1.85.3,3.15,3.15,0,0,1-2.27-.77,2.77,2.77,0,0,1-.81-2.09v-3.57Z"/>
        <path class="cls-3"
              d="M336.87,236.29a3.65,3.65,0,0,1,2.53.77,3.26,3.26,0,0,1,.82,2.47v6.55h-1.05l-.28-1.42h-.07a5.43,5.43,0,0,1-.83.88,3,3,0,0,1-1,.54,4.65,4.65,0,0,1-1.39.18A3.79,3.79,0,0,1,334,246,2.46,2.46,0,0,1,333,245a3.07,3.07,0,0,1-.38-1.59,2.51,2.51,0,0,1,1.13-2.21,6.4,6.4,0,0,1,3.44-.84l1.64-.07v-.59a2.3,2.3,0,0,0-.53-1.75,2.05,2.05,0,0,0-1.49-.5,4.51,4.51,0,0,0-1.43.22,9.15,9.15,0,0,0-1.29.52l-.44-1.11a7.49,7.49,0,0,1,1.48-.57A6.34,6.34,0,0,1,336.87,236.29Zm1.92,5-1.45.07a4.88,4.88,0,0,0-2.51.58,1.7,1.7,0,0,0-.73,1.47,1.46,1.46,0,0,0,.5,1.22,2,2,0,0,0,1.31.4,3.07,3.07,0,0,0,2.08-.71,2.71,2.71,0,0,0,.8-2.14Z"/>
        <path class="cls-3" d="M349.69,237.69h-3.14v8.39h-1.43v-8.39H342v-1.24h7.66Z"/>
        <path class="cls-3"
              d="M353,236.45v6.05c0,.12,0,.27,0,.46s0,.38,0,.58,0,.41,0,.6a3,3,0,0,1,0,.47l5.2-8.16h1.78v9.63h-1.35v-5.91c0-.18,0-.42,0-.72s0-.58,0-.86,0-.51,0-.67l-5.18,8.16h-1.78v-9.63Z"/>
        <circle class="cls-3" cx="78.96" cy="242.47" r="2.5"/>
        <path class="cls-3"
              d="M95.2,269.23h3.6a7.11,7.11,0,0,1,3.58.72,2.63,2.63,0,0,1,1.2,2.45,3,3,0,0,1-.29,1.34,2.37,2.37,0,0,1-.82,1,3.27,3.27,0,0,1-1.33.54v.09a4.68,4.68,0,0,1,1.48.48,2.53,2.53,0,0,1,1,1,3.18,3.18,0,0,1,.37,1.6,3.59,3.59,0,0,1-.55,2,3.36,3.36,0,0,1-1.53,1.23,6,6,0,0,1-2.35.42H95.2Zm1.47,5.51h2.44a3.58,3.58,0,0,0,2.3-.55,2,2,0,0,0,.64-1.62,1.74,1.74,0,0,0-.76-1.58,4.69,4.69,0,0,0-2.42-.49h-2.2Zm0,1.26v4.81h2.65a3.42,3.42,0,0,0,2.4-.68,2.38,2.38,0,0,0,.7-1.81,2.28,2.28,0,0,0-.32-1.25,2,2,0,0,0-1-.8,5.41,5.41,0,0,0-1.89-.27Z"/>
        <path class="cls-3"
              d="M117.78,282.08h-3.49v-7c0-.31,0-.66,0-1s0-.73,0-1c-.15.18-.29.34-.42.47l-.38.36L112.1,275l-1.78-2.21,4.36-3.6h3.1Z"/>
        <path class="cls-3"
              d="M124.35,279.45l.12.2c-.1.43-.24,1-.4,1.55s-.35,1.2-.54,1.81a16.6,16.6,0,0,1-.59,1.57h-2.43c.12-.55.23-1.13.34-1.74s.22-1.2.31-1.79.16-1.12.22-1.6Z"/>
        <path class="cls-3"
              d="M131.29,273.66a4,4,0,0,1,1.94.48,3.69,3.69,0,0,1,1.39,1.41,4.62,4.62,0,0,1,.52,2.25,4.85,4.85,0,0,1-.57,2.43,3.62,3.62,0,0,1-1.71,1.51,7.15,7.15,0,0,1-2.89.52,10.43,10.43,0,0,1-2-.18,5.92,5.92,0,0,1-1.62-.52v-2.85a10,10,0,0,0,1.61.56,6.7,6.7,0,0,0,1.74.25,2.82,2.82,0,0,0,1.07-.18,1.45,1.45,0,0,0,.68-.55,1.62,1.62,0,0,0,.23-.88,1.38,1.38,0,0,0-.52-1.15,2.5,2.5,0,0,0-1.58-.42,4.17,4.17,0,0,0-.94.1,5.9,5.9,0,0,0-.81.21l-1.26-.63.48-6.79h7.25v2.89H130l-.16,1.7.57-.11A6.45,6.45,0,0,1,131.29,273.66Z"/>
        <path class="cls-3"
              d="M147.77,272a3,3,0,0,1,2.57,1.32,6.58,6.58,0,0,1,.93,3.81,7.65,7.65,0,0,1-.47,2.85,3.87,3.87,0,0,1-1.29,1.74,3.06,3.06,0,0,1-1.84.59,3.37,3.37,0,0,1-1.18-.18,2.64,2.64,0,0,1-.8-.44,3.93,3.93,0,0,1-.54-.54h-.1c0,.23,0,.48.07.74s0,.57,0,.93v3.63h-3.4V272.12h2.77l.48,1.27h.15a3.7,3.7,0,0,1,.6-.72,2.74,2.74,0,0,1,.84-.53A3.28,3.28,0,0,1,147.77,272Zm-1.28,2.69a1.17,1.17,0,0,0-.78.24,1.33,1.33,0,0,0-.41.72,5.33,5.33,0,0,0-.15,1.19v.27a5.58,5.58,0,0,0,.13,1.33,1.59,1.59,0,0,0,.41.82,1.18,1.18,0,0,0,.82.28,1,1,0,0,0,.71-.25,1.53,1.53,0,0,0,.44-.78,5.45,5.45,0,0,0,.15-1.42,3.75,3.75,0,0,0-.34-1.85A1.09,1.09,0,0,0,146.49,274.64Z"/>
        <path class="cls-3"
              d="M158,272a4.25,4.25,0,0,1,2.92.93,3.41,3.41,0,0,1,1.06,2.67v6.53h-2.36l-.65-1.32h-.07a5,5,0,0,1-.86.86,2.9,2.9,0,0,1-1,.48,5.45,5.45,0,0,1-1.38.16,3.27,3.27,0,0,1-1.54-.36,2.46,2.46,0,0,1-1.06-1.06,3.58,3.58,0,0,1-.4-1.8,2.7,2.7,0,0,1,1.1-2.37,5.89,5.89,0,0,1,3.17-.87l1.65-.06v-.14a1.2,1.2,0,0,0-.33-1,1.33,1.33,0,0,0-.87-.28,4.67,4.67,0,0,0-1.3.21,10.47,10.47,0,0,0-1.44.53l-1-2.27a8,8,0,0,1,1.93-.67A11.78,11.78,0,0,1,158,272Zm.59,5.68-.78,0a2.34,2.34,0,0,0-1.32.33,1,1,0,0,0-.37.84,1,1,0,0,0,.27.75,1,1,0,0,0,.71.24,1.52,1.52,0,0,0,1.06-.4,1.3,1.3,0,0,0,.43-1Z"/>
        <path class="cls-3"
              d="M167.49,272a8.85,8.85,0,0,1,2.2.26,3.49,3.49,0,0,1,1.58.86,2.13,2.13,0,0,1,.58,1.57,2.07,2.07,0,0,1-.49,1.39,2.48,2.48,0,0,1-1.29.79v.09a2.85,2.85,0,0,1,1.27.45,2,2,0,0,1,.7.82,2.53,2.53,0,0,1,.22,1.07,2.59,2.59,0,0,1-.52,1.64,3.16,3.16,0,0,1-1.61,1,9.49,9.49,0,0,1-2.81.35c-.59,0-1.1,0-1.51-.07a8.76,8.76,0,0,1-1.1-.2c-.32-.09-.64-.18-1-.29v-2.63a14.78,14.78,0,0,0,1.44.42,8,8,0,0,0,1.94.22,3.19,3.19,0,0,0,1.13-.15.9.9,0,0,0,.48-.35.68.68,0,0,0,.11-.36.73.73,0,0,0-.13-.45,1,1,0,0,0-.54-.28A6.16,6.16,0,0,0,167,278h-1.28V275.8h1.07a4.18,4.18,0,0,0,1.48-.18.61.61,0,0,0,.43-.56.56.56,0,0,0-.31-.49,2.22,2.22,0,0,0-1-.17,5.08,5.08,0,0,0-1.32.16,7.93,7.93,0,0,0-1.31.46l-1-2.32a10,10,0,0,1,1.76-.57A9.83,9.83,0,0,1,167.49,272Z"/>
        <path class="cls-3"
              d="M178.79,272a4.25,4.25,0,0,1,2.92.93,3.41,3.41,0,0,1,1.06,2.67v6.53h-2.36l-.65-1.32h-.07a5,5,0,0,1-.86.86,2.9,2.9,0,0,1-1,.48,5.48,5.48,0,0,1-1.39.16,3.26,3.26,0,0,1-1.53-.36,2.54,2.54,0,0,1-1.07-1.06,3.69,3.69,0,0,1-.39-1.8,2.7,2.7,0,0,1,1.1-2.37,5.89,5.89,0,0,1,3.17-.87l1.65-.06v-.14a1.2,1.2,0,0,0-.33-1,1.33,1.33,0,0,0-.87-.28,4.62,4.62,0,0,0-1.3.21,10.47,10.47,0,0,0-1.44.53l-1-2.27a8,8,0,0,1,1.93-.67A11.78,11.78,0,0,1,178.79,272Zm.59,5.68-.78,0a2.32,2.32,0,0,0-1.32.33,1.17,1.17,0,0,0-.11,1.59,1,1,0,0,0,.72.24,1.48,1.48,0,0,0,1.05-.4,1.28,1.28,0,0,0,.44-1Z"/>
        <path class="cls-3"
              d="M189.56,276.3a13.66,13.66,0,0,1,.39-3.51,5.42,5.42,0,0,1,1.21-2.34,4.22,4.22,0,0,1,2.12-1.21c.74-.21,1.49-.38,2.26-.53s1.51-.28,2.23-.39l.25,1.28-1.14.18-1.2.21c-.4.07-.78.15-1.13.23s-.67.16-.94.24a3.08,3.08,0,0,0-1.28.7,3.59,3.59,0,0,0-.84,1.38,7.76,7.76,0,0,0-.37,2.22h.1a4.23,4.23,0,0,1,.72-.77,3.77,3.77,0,0,1,1.08-.62,3.64,3.64,0,0,1,1.4-.25,3.59,3.59,0,0,1,2.06.54,3.27,3.27,0,0,1,1.25,1.51,6.6,6.6,0,0,1-.12,4.93,3.67,3.67,0,0,1-1.5,1.61,4.46,4.46,0,0,1-2.27.55,4,4,0,0,1-1.8-.4,3.65,3.65,0,0,1-1.35-1.16,5.46,5.46,0,0,1-.84-1.87A9.72,9.72,0,0,1,189.56,276.3ZM194,281a2.7,2.7,0,0,0,1.42-.35,2.29,2.29,0,0,0,.92-1.11,5.06,5.06,0,0,0,.32-2,4.35,4.35,0,0,0-.57-2.4,2.07,2.07,0,0,0-1.85-.86,3.12,3.12,0,0,0-1.44.33,4.13,4.13,0,0,0-1.08.81,4.44,4.44,0,0,0-.65.83,12.28,12.28,0,0,0,.13,1.74,5.47,5.47,0,0,0,.46,1.53,2.67,2.67,0,0,0,.89,1.07A2.51,2.51,0,0,0,194,281Z"/>
        <path class="cls-3"
              d="M208.86,277.25a6.55,6.55,0,0,1-.31,2.11,4.19,4.19,0,0,1-.88,1.58,3.78,3.78,0,0,1-1.38,1,4.87,4.87,0,0,1-1.84.34,4.51,4.51,0,0,1-1.75-.34,4,4,0,0,1-1.38-1,4.49,4.49,0,0,1-.89-1.58,6.54,6.54,0,0,1-.32-2.11,6.28,6.28,0,0,1,.53-2.7,3.79,3.79,0,0,1,1.52-1.69,4.53,4.53,0,0,1,2.35-.59,4.35,4.35,0,0,1,2.28.59,3.94,3.94,0,0,1,1.52,1.7A6,6,0,0,1,208.86,277.25Zm-7.25,0a6.08,6.08,0,0,0,.3,2,2.71,2.71,0,0,0,5.15,0,6.08,6.08,0,0,0,.3-2,6,6,0,0,0-.3-2,2.52,2.52,0,0,0-2.59-1.75,2.44,2.44,0,0,0-2.17,1A4.74,4.74,0,0,0,201.61,277.25Z"/>
        <path class="cls-3"
              d="M218.5,282.08H217v-8.41h-2.9c-.11,1.52-.26,2.82-.43,3.9a13.22,13.22,0,0,1-.67,2.64,3.63,3.63,0,0,1-.95,1.5,2,2,0,0,1-1.34.48,3.17,3.17,0,0,1-.44,0,1.58,1.58,0,0,1-.36-.09V281l.24.06h.27a1,1,0,0,0,.72-.33,3.18,3.18,0,0,0,.59-1,11.08,11.08,0,0,0,.47-1.7c.14-.68.26-1.48.37-2.41s.2-2,.28-3.16h5.62Z"/>
        <path class="cls-3"
              d="M223,276.42h2.93a5.61,5.61,0,0,1,2,.31,2.43,2.43,0,0,1,1.21.91,2.67,2.67,0,0,1,.41,1.5,2.92,2.92,0,0,1-.4,1.56,2.56,2.56,0,0,1-1.21,1,5.35,5.35,0,0,1-2.12.36h-4.29v-9.63H223Zm5.12,2.79a1.28,1.28,0,0,0-.63-1.23,3.58,3.58,0,0,0-1.73-.35H223v3.26h2.77a3.25,3.25,0,0,0,1.69-.39A1.38,1.38,0,0,0,228.11,279.21Z"/>
        <path class="cls-3" d="M244.83,272.45v9.63H232v-9.63h1.45v8.39h4.22v-8.39h1.45v8.39h4.22v-8.39Z"/>
        <path class="cls-3"
              d="M251.55,272.27a3.79,3.79,0,0,1,2.09.55,3.46,3.46,0,0,1,1.33,1.52,5.29,5.29,0,0,1,.46,2.29v.91h-6.58a3.8,3.8,0,0,0,.84,2.58A2.9,2.9,0,0,0,252,281a6.89,6.89,0,0,0,1.6-.17,8.26,8.26,0,0,0,1.45-.49v1.28a6.88,6.88,0,0,1-1.43.48,8.25,8.25,0,0,1-1.68.15,4.83,4.83,0,0,1-2.39-.57,3.89,3.89,0,0,1-1.59-1.67,5.79,5.79,0,0,1-.56-2.69,6.55,6.55,0,0,1,.51-2.69,4.09,4.09,0,0,1,1.46-1.75A4,4,0,0,1,251.55,272.27Zm0,1.2a2.37,2.37,0,0,0-1.85.76,3.62,3.62,0,0,0-.81,2.14h5a4.17,4.17,0,0,0-.27-1.52,2.17,2.17,0,0,0-.77-1A2.33,2.33,0,0,0,251.54,273.47Z"/>
        <path class="cls-3"
              d="M267,272.27a3.54,3.54,0,0,1,2.84,1.24,5.61,5.61,0,0,1,1.06,3.73,6.85,6.85,0,0,1-.49,2.76,3.55,3.55,0,0,1-3.45,2.26,3.87,3.87,0,0,1-1.33-.21,3,3,0,0,1-1-.54,3.67,3.67,0,0,1-.68-.75h-.1c0,.23,0,.51.06.83s0,.6,0,.84v4h-1.45V272.45h1.19l.19,1.42H264a4,4,0,0,1,.68-.8,2.8,2.8,0,0,1,1-.58A3.75,3.75,0,0,1,267,272.27Zm-.25,1.23a2.89,2.89,0,0,0-1.6.39,2.2,2.2,0,0,0-.88,1.15A5.88,5.88,0,0,0,264,277v.28a6.84,6.84,0,0,0,.27,2.07,2.36,2.36,0,0,0,.88,1.28,2.68,2.68,0,0,0,1.64.44,2.27,2.27,0,0,0,1.48-.48,2.85,2.85,0,0,0,.88-1.35,6.09,6.09,0,0,0,.29-2,4.88,4.88,0,0,0-.65-2.71A2.24,2.24,0,0,0,266.74,273.5Z"/>
        <path class="cls-3"
              d="M277.07,272.27a3.81,3.81,0,0,1,2.09.55,3.52,3.52,0,0,1,1.33,1.52,5.29,5.29,0,0,1,.46,2.29v.91h-6.58a3.85,3.85,0,0,0,.83,2.58,2.94,2.94,0,0,0,2.28.89,7,7,0,0,0,1.6-.17,8.17,8.17,0,0,0,1.44-.49v1.28a6.69,6.69,0,0,1-1.43.48,8.14,8.14,0,0,1-1.67.15,4.8,4.8,0,0,1-2.39-.57,3.84,3.84,0,0,1-1.59-1.67,5.78,5.78,0,0,1-.57-2.69,6.55,6.55,0,0,1,.52-2.69,3.86,3.86,0,0,1,3.68-2.37Zm0,1.2a2.37,2.37,0,0,0-1.85.76,3.56,3.56,0,0,0-.81,2.14h5a4.39,4.39,0,0,0-.27-1.52,2.13,2.13,0,0,0-.78-1A2.27,2.27,0,0,0,277.06,273.47Z"/>
        <path class="cls-3"
              d="M287.22,282.26a4.65,4.65,0,0,1-2.27-.54,3.64,3.64,0,0,1-1.53-1.64,7.27,7.27,0,0,1,0-5.62,3.76,3.76,0,0,1,1.6-1.65,4.83,4.83,0,0,1,2.31-.54,6.34,6.34,0,0,1,1.38.15,4.21,4.21,0,0,1,1.09.36l-.44,1.22a8,8,0,0,0-1-.31,4.2,4.2,0,0,0-1.07-.14,2.88,2.88,0,0,0-1.64.43,2.58,2.58,0,0,0-1,1.26,5.86,5.86,0,0,0-.32,2.06,5.58,5.58,0,0,0,.31,2,2.68,2.68,0,0,0,.95,1.26,2.73,2.73,0,0,0,1.58.44,5.31,5.31,0,0,0,1.37-.16,8.81,8.81,0,0,0,1.1-.38v1.3a4.28,4.28,0,0,1-1.06.37A6.37,6.37,0,0,1,287.22,282.26Z"/>
        <path class="cls-3"
              d="M290.43,272.45H292l2.1,5.59.34.94c.1.3.2.59.28.87s.14.54.19.8H295c.08-.3.2-.68.35-1.16s.31-1,.48-1.46l2-5.58h1.56l-4.15,11.05a7.14,7.14,0,0,1-.77,1.54,2.84,2.84,0,0,1-2.57,1.37,4,4,0,0,1-.73-.05,3.28,3.28,0,0,1-.53-.11v-1.16l.46.08a5.17,5.17,0,0,0,.57,0,1.94,1.94,0,0,0,.93-.21,1.79,1.79,0,0,0,.69-.6,4.14,4.14,0,0,0,.49-.94l.52-1.35Z"/>
        <path class="cls-3"
              d="M305.33,272.27a3.52,3.52,0,0,1,2.84,1.24,5.61,5.61,0,0,1,1.06,3.73,7,7,0,0,1-.48,2.76,3.58,3.58,0,0,1-3.46,2.26,3.91,3.91,0,0,1-1.33-.21,3,3,0,0,1-1-.54,3.67,3.67,0,0,1-.68-.75h-.1c0,.23,0,.51.07.83s0,.6,0,.84v4h-1.45V272.45H302l.19,1.42h.07a4.3,4.3,0,0,1,.68-.8,2.9,2.9,0,0,1,1-.58A3.79,3.79,0,0,1,305.33,272.27Zm-.25,1.23a2.92,2.92,0,0,0-1.6.39,2.25,2.25,0,0,0-.88,1.15,6.16,6.16,0,0,0-.3,1.93v.28a6.84,6.84,0,0,0,.27,2.07,2.41,2.41,0,0,0,.88,1.28,2.72,2.72,0,0,0,1.64.44,2.25,2.25,0,0,0,1.48-.48,2.86,2.86,0,0,0,.89-1.35,6.37,6.37,0,0,0,.29-2,4.87,4.87,0,0,0-.66-2.71A2.24,2.24,0,0,0,305.08,273.5Z"/>
        <path class="cls-3"
              d="M315.56,282.26a4.67,4.67,0,0,1-2.27-.54,3.7,3.7,0,0,1-1.53-1.64,7.39,7.39,0,0,1,0-5.62,3.76,3.76,0,0,1,1.6-1.65,4.86,4.86,0,0,1,2.31-.54,6.21,6.21,0,0,1,1.38.15,4.09,4.09,0,0,1,1.09.36l-.43,1.22a8.15,8.15,0,0,0-1-.31,4.13,4.13,0,0,0-1.06-.14A2.94,2.94,0,0,0,314,274a2.51,2.51,0,0,0-1,1.26,5.63,5.63,0,0,0-.33,2.06,5.57,5.57,0,0,0,.32,2,2.62,2.62,0,0,0,1,1.26,2.69,2.69,0,0,0,1.57.44,5.26,5.26,0,0,0,1.37-.16,8.28,8.28,0,0,0,1.1-.38v1.3a4.14,4.14,0,0,1-1.06.37A6.3,6.3,0,0,1,315.56,282.26Z"/>
        <path class="cls-3"
              d="M328.47,272.29a3.63,3.63,0,0,1,2.53.77,3.26,3.26,0,0,1,.82,2.47v6.55h-1.05l-.28-1.42h-.07a5,5,0,0,1-.83.88,3,3,0,0,1-1,.54,4.65,4.65,0,0,1-1.39.18,3.79,3.79,0,0,1-1.55-.31,2.51,2.51,0,0,1-1.06-.93,3.07,3.07,0,0,1-.38-1.59,2.51,2.51,0,0,1,1.13-2.21,6.4,6.4,0,0,1,3.44-.84l1.64-.07v-.59a2.3,2.3,0,0,0-.53-1.75,2.05,2.05,0,0,0-1.49-.5,4.51,4.51,0,0,0-1.43.22,9.15,9.15,0,0,0-1.29.52l-.44-1.11a7.49,7.49,0,0,1,1.48-.57A6.34,6.34,0,0,1,328.47,272.29Zm1.93,5-1.46.07a4.88,4.88,0,0,0-2.51.58,1.7,1.7,0,0,0-.73,1.47,1.46,1.46,0,0,0,.5,1.22,2,2,0,0,0,1.31.4,3.05,3.05,0,0,0,2.08-.71,2.71,2.71,0,0,0,.81-2.14Z"/>
        <path class="cls-3"
              d="M342.37,274.86a1.88,1.88,0,0,1-.52,1.41,2.72,2.72,0,0,1-1.35.69V277a3,3,0,0,1,1.54.64,1.94,1.94,0,0,1,.65,1.6,2.75,2.75,0,0,1-.39,1.46,2.58,2.58,0,0,1-1.23,1,5.52,5.52,0,0,1-2.17.36h-4.11v-9.63h4.07a6.29,6.29,0,0,1,1.82.23,2.56,2.56,0,0,1,1.24.76A2.12,2.12,0,0,1,342.37,274.86Zm-1.47.17a1.14,1.14,0,0,0-.5-1,2.92,2.92,0,0,0-1.62-.34h-2.53v2.77h2.28a3.62,3.62,0,0,0,1.77-.35A1.13,1.13,0,0,0,340.9,275Zm.29,4.24a1.33,1.33,0,0,0-.64-1.23,3.74,3.74,0,0,0-1.86-.38h-2.44v3.23h2.47a3.63,3.63,0,0,0,1.83-.37A1.33,1.33,0,0,0,341.19,279.27Z"/>
        <path class="cls-3" d="M351.51,273.69h-3.13v8.39H347v-8.39h-3.1v-1.24h7.66Z"/>
        <path class="cls-3"
              d="M361.62,277.25a6.55,6.55,0,0,1-.31,2.11,4.19,4.19,0,0,1-.88,1.58,3.78,3.78,0,0,1-1.38,1,4.87,4.87,0,0,1-1.84.34,4.51,4.51,0,0,1-1.75-.34,4,4,0,0,1-1.38-1,4.49,4.49,0,0,1-.89-1.58,6.54,6.54,0,0,1-.32-2.11,6.28,6.28,0,0,1,.53-2.7,3.79,3.79,0,0,1,1.52-1.69,4.53,4.53,0,0,1,2.35-.59,4.35,4.35,0,0,1,2.28.59,3.94,3.94,0,0,1,1.52,1.7A6,6,0,0,1,361.62,277.25Zm-7.25,0a6.08,6.08,0,0,0,.3,2,2.5,2.5,0,0,0,2.57,1.78,2.67,2.67,0,0,0,1.63-.46,2.73,2.73,0,0,0,.95-1.32,6.08,6.08,0,0,0,.3-2,6,6,0,0,0-.3-2,2.74,2.74,0,0,0-.94-1.29,2.7,2.7,0,0,0-1.64-.46,2.45,2.45,0,0,0-2.18,1A4.74,4.74,0,0,0,354.37,277.25Z"/>
        <path class="cls-3"
              d="M372.33,277.25a6.55,6.55,0,0,1-.31,2.11,4.31,4.31,0,0,1-.87,1.58,3.91,3.91,0,0,1-1.39,1,4.87,4.87,0,0,1-1.84.34,4.51,4.51,0,0,1-1.75-.34,4,4,0,0,1-1.38-1,4.49,4.49,0,0,1-.89-1.58,6.54,6.54,0,0,1-.32-2.11,6.28,6.28,0,0,1,.53-2.7,3.85,3.85,0,0,1,1.52-1.69,4.53,4.53,0,0,1,2.35-.59,4.35,4.35,0,0,1,2.28.59,4,4,0,0,1,1.53,1.7A6.12,6.12,0,0,1,372.33,277.25Zm-7.25,0a6.08,6.08,0,0,0,.3,2,2.71,2.71,0,0,0,5.15,0,6.08,6.08,0,0,0,.3-2,6,6,0,0,0-.3-2,2.67,2.67,0,0,0-.94-1.29,2.7,2.7,0,0,0-1.64-.46,2.46,2.46,0,0,0-2.18,1A4.74,4.74,0,0,0,365.08,277.25Z"/>
        <path class="cls-3" d="M381.32,273.69h-3.14v8.39h-1.43v-8.39h-3.09v-1.24h7.66Z"/>
        <path class="cls-3"
              d="M387.68,272.27a3.56,3.56,0,0,1,2.85,1.24,5.66,5.66,0,0,1,1.06,3.73,7,7,0,0,1-.49,2.76,3.58,3.58,0,0,1-3.45,2.26,3.83,3.83,0,0,1-1.33-.21,3,3,0,0,1-1-.54,3.4,3.4,0,0,1-.68-.75h-.11c0,.23,0,.51.07.83s0,.6,0,.84v4h-1.45V272.45h1.19l.19,1.42h.07a3.66,3.66,0,0,1,.68-.8,2.76,2.76,0,0,1,1-.58A3.82,3.82,0,0,1,387.68,272.27Zm-.25,1.23a2.94,2.94,0,0,0-1.6.39A2.25,2.25,0,0,0,385,275a6.18,6.18,0,0,0-.29,1.93v.28a7.2,7.2,0,0,0,.26,2.07,2.41,2.41,0,0,0,.88,1.28,2.73,2.73,0,0,0,1.65.44,2.29,2.29,0,0,0,1.48-.48,2.92,2.92,0,0,0,.88-1.35,6.37,6.37,0,0,0,.29-2,4.87,4.87,0,0,0-.66-2.71A2.23,2.23,0,0,0,387.43,273.5Z"/>
        <path class="cls-3"
              d="M397.77,272.27a3.81,3.81,0,0,1,2.09.55,3.59,3.59,0,0,1,1.33,1.52,5.44,5.44,0,0,1,.46,2.29v.91h-6.59a3.8,3.8,0,0,0,.84,2.58,2.94,2.94,0,0,0,2.28.89,7,7,0,0,0,1.6-.17,8.46,8.46,0,0,0,1.44-.49v1.28a6.88,6.88,0,0,1-1.43.48,8.14,8.14,0,0,1-1.67.15,4.84,4.84,0,0,1-2.4-.57,3.89,3.89,0,0,1-1.59-1.67,5.91,5.91,0,0,1-.56-2.69,6.39,6.39,0,0,1,.52-2.69,3.86,3.86,0,0,1,3.68-2.37Zm0,1.2a2.35,2.35,0,0,0-1.84.76,3.63,3.63,0,0,0-.82,2.14h5a4.17,4.17,0,0,0-.26-1.52,2.13,2.13,0,0,0-.78-1A2.3,2.3,0,0,0,397.75,273.47Z"/>
        <path class="cls-3"
              d="M406.55,272.27a5.16,5.16,0,0,1,1.85.3,2.6,2.6,0,0,1,1.21.85,2.24,2.24,0,0,1,.43,1.37,2,2,0,0,1-.47,1.39,2.65,2.65,0,0,1-1.3.75V277a4.39,4.39,0,0,1,1.06.45,2.22,2.22,0,0,1,1,2,2.53,2.53,0,0,1-.44,1.45,2.9,2.9,0,0,1-1.32,1,6,6,0,0,1-2.24.37,10.18,10.18,0,0,1-1.27-.08A7.82,7.82,0,0,1,404,282a4.85,4.85,0,0,1-.85-.34V280.3a8,8,0,0,0,1.42.53,6.7,6.7,0,0,0,1.77.23,4.78,4.78,0,0,0,1.31-.17,2,2,0,0,0,.93-.56,1.41,1.41,0,0,0,.34-1,1.48,1.48,0,0,0-.3-.95,1.83,1.83,0,0,0-.91-.55,5.43,5.43,0,0,0-1.53-.18h-1.27v-1.19H406a4.44,4.44,0,0,0,1.95-.36,1.32,1.32,0,0,0,.17-2.26,3,3,0,0,0-1.62-.36,5.21,5.21,0,0,0-1.38.17,8.92,8.92,0,0,0-1.3.46l-.51-1.17a7.56,7.56,0,0,1,1.57-.5A8.52,8.52,0,0,1,406.55,272.27Z"/>
        <path class="cls-3"
              d="M416.27,272.29a3.61,3.61,0,0,1,2.53.77,3.26,3.26,0,0,1,.83,2.47v6.55h-1.06l-.27-1.42h-.07a5.46,5.46,0,0,1-.84.88,2.93,2.93,0,0,1-1,.54,4.72,4.72,0,0,1-1.4.18,3.75,3.75,0,0,1-1.54-.31,2.46,2.46,0,0,1-1.06-.93,3,3,0,0,1-.39-1.59,2.53,2.53,0,0,1,1.13-2.21,6.4,6.4,0,0,1,3.44-.84l1.65-.07v-.59a2.35,2.35,0,0,0-.53-1.75,2.09,2.09,0,0,0-1.5-.5,4.44,4.44,0,0,0-1.42.22,8.27,8.27,0,0,0-1.29.52L413,273.1a7.39,7.39,0,0,1,1.47-.57A6.39,6.39,0,0,1,416.27,272.29Zm1.93,5-1.45.07a4.82,4.82,0,0,0-2.51.58,1.71,1.71,0,0,0-.74,1.47,1.46,1.46,0,0,0,.5,1.22,2,2,0,0,0,1.31.4,3.05,3.05,0,0,0,2.08-.71,2.71,2.71,0,0,0,.81-2.14Z"/>
        <circle class="cls-3" cx="78.96" cy="277.47" r="2.5"/>
        <rect class="cls-4" x="94.73" y="321.69" width="130.88" height="36.04" rx="12"/>
        <path class="cls-3" d="M125.89,344.65v-9.28h6.91v9.28h-1.06v-8.33H127v8.33Z"/>
        <path class="cls-3"
              d="M141.2,341.16a4.82,4.82,0,0,1-.23,1.53,3.06,3.06,0,0,1-.64,1.13,2.69,2.69,0,0,1-1,.71,3.56,3.56,0,0,1-1.34.24,3.32,3.32,0,0,1-1.28-.24,2.73,2.73,0,0,1-1-.71,3.24,3.24,0,0,1-.66-1.13,4.82,4.82,0,0,1-.23-1.53,4.43,4.43,0,0,1,.39-2,2.83,2.83,0,0,1,1.11-1.23,3.33,3.33,0,0,1,1.71-.42,3.24,3.24,0,0,1,1.67.43,2.77,2.77,0,0,1,1.11,1.23A4.38,4.38,0,0,1,141.2,341.16Zm-5.3,0a4.51,4.51,0,0,0,.22,1.45,2,2,0,0,0,3.76,0,4.25,4.25,0,0,0,.22-1.45,4.11,4.11,0,0,0-.22-1.44,1.9,1.9,0,0,0-.68-.94,2,2,0,0,0-1.2-.33,1.79,1.79,0,0,0-1.59.72A3.39,3.39,0,0,0,135.9,341.16Z"/>
        <path class="cls-3"
              d="M148.12,337.69v6.06h1v3.3h-1v-2.4h-4.93v2.4h-1v-3.3h.55a8.11,8.11,0,0,0,1-1.81,11.41,11.41,0,0,0,.6-2.06,12.31,12.31,0,0,0,.21-2.19Zm-1,.84h-1.65a12.52,12.52,0,0,1-.27,1.88,11.8,11.8,0,0,1-.56,1.83,6.94,6.94,0,0,1-.81,1.51h3.29Z"/>
        <path class="cls-3"
              d="M153.76,337.56a2.58,2.58,0,0,1,2.07.9,4,4,0,0,1,.78,2.69,4.85,4.85,0,0,1-.36,2,2.6,2.6,0,0,1-1,1.22,2.7,2.7,0,0,1-1.52.41,3.2,3.2,0,0,1-1-.14,2.28,2.28,0,0,1-.72-.4,2.71,2.71,0,0,1-.49-.53h-.08c0,.16,0,.36.05.59s0,.44,0,.61v2.86h-1.06V337.69h.87l.14,1h.05a2.7,2.7,0,0,1,.49-.58,2.14,2.14,0,0,1,.72-.42A3,3,0,0,1,153.76,337.56Zm-.19.89a2.1,2.1,0,0,0-1.16.28,1.62,1.62,0,0,0-.64.84,4.17,4.17,0,0,0-.22,1.39v.2a4.91,4.91,0,0,0,.19,1.49,1.77,1.77,0,0,0,.64.93,2.07,2.07,0,0,0,1.21.32,1.69,1.69,0,0,0,1.08-.35,2.1,2.1,0,0,0,.64-1,4.44,4.44,0,0,0,.21-1.43,3.51,3.51,0,0,0-.48-2A1.63,1.63,0,0,0,153.57,338.45Z"/>
        <path class="cls-3"
              d="M164.44,341.16a4.83,4.83,0,0,1-.22,1.53,3.2,3.2,0,0,1-.64,1.13,2.77,2.77,0,0,1-1,.71,3.61,3.61,0,0,1-1.35.24,3.35,3.35,0,0,1-1.28-.24,2.82,2.82,0,0,1-1-.71,3.22,3.22,0,0,1-.65-1.13,4.56,4.56,0,0,1-.23-1.53,4.43,4.43,0,0,1,.38-2,2.83,2.83,0,0,1,1.11-1.23,3.35,3.35,0,0,1,1.72-.42,3.2,3.2,0,0,1,1.66.43,2.77,2.77,0,0,1,1.11,1.23A4.25,4.25,0,0,1,164.44,341.16Zm-5.29,0a4.25,4.25,0,0,0,.22,1.45,2,2,0,0,0,.68.95,2,2,0,0,0,3.08-.95,4.25,4.25,0,0,0,.22-1.45,4.11,4.11,0,0,0-.22-1.44,1.92,1.92,0,0,0-.69-.94,2,2,0,0,0-1.2-.33,1.81,1.81,0,0,0-1.59.72A3.46,3.46,0,0,0,159.15,341.16Z"/>
        <path class="cls-3"
              d="M165.9,340.47a9.81,9.81,0,0,1,.29-2.54,3.84,3.84,0,0,1,.88-1.68,3.1,3.1,0,0,1,1.55-.88c.54-.15,1.09-.27,1.65-.38s1.1-.2,1.63-.28l.18.92-.83.13-.88.16-.83.16-.68.18a2.1,2.1,0,0,0-.93.5,2.48,2.48,0,0,0-.62,1,5.65,5.65,0,0,0-.27,1.6h.08a2.93,2.93,0,0,1,1.31-1,2.78,2.78,0,0,1,1-.18,2.7,2.7,0,0,1,1.5.39,2.41,2.41,0,0,1,.91,1.1,4.79,4.79,0,0,1-.09,3.56,2.66,2.66,0,0,1-1.09,1.16,3.37,3.37,0,0,1-1.66.39,3,3,0,0,1-1.32-.28,2.7,2.7,0,0,1-1-.84,4.21,4.21,0,0,1-.62-1.35A7.19,7.19,0,0,1,165.9,340.47Zm3.21,3.43a2,2,0,0,0,1-.26,1.58,1.58,0,0,0,.67-.8,3.61,3.61,0,0,0,.24-1.43,3.07,3.07,0,0,0-.42-1.73,1.5,1.5,0,0,0-1.35-.63,2.32,2.32,0,0,0-1,.25,3.17,3.17,0,0,0-.79.58,2.76,2.76,0,0,0-.47.6,7.48,7.48,0,0,0,.1,1.26,3.72,3.72,0,0,0,.33,1.1,1.88,1.88,0,0,0,.65.77A1.81,1.81,0,0,0,169.11,343.9Z"/>
        <path class="cls-3" d="M175.05,337.69v2.92h3.88v-2.92H180v7h-1.06V341.5h-3.88v3.15H174v-7Z"/>
        <path class="cls-3"
              d="M184.9,337.56a2.76,2.76,0,0,1,1.52.4,2.47,2.47,0,0,1,1,1.1,3.71,3.71,0,0,1,.34,1.65v.66h-4.8a2.68,2.68,0,0,0,.61,1.86,2.12,2.12,0,0,0,1.66.64,5.14,5.14,0,0,0,1.17-.12,6.8,6.8,0,0,0,1-.35v.92a5.54,5.54,0,0,1-1,.35,6.37,6.37,0,0,1-1.23.1,3.58,3.58,0,0,1-1.74-.4,2.83,2.83,0,0,1-1.16-1.21,4.09,4.09,0,0,1-.42-1.94,4.68,4.68,0,0,1,.38-2,2.84,2.84,0,0,1,2.69-1.71Zm0,.87a1.73,1.73,0,0,0-1.35.55,2.6,2.6,0,0,0-.59,1.54h3.68a3,3,0,0,0-.2-1.09,1.56,1.56,0,0,0-.56-.74A1.67,1.67,0,0,0,184.89,338.43Z"/>
        <path class="cls-3"
              d="M192.2,337.56a2.76,2.76,0,0,1,1.52.4,2.47,2.47,0,0,1,1,1.1,3.71,3.71,0,0,1,.34,1.65v.66h-4.8a2.73,2.73,0,0,0,.6,1.86,2.16,2.16,0,0,0,1.67.64,5.14,5.14,0,0,0,1.17-.12,7.18,7.18,0,0,0,1.05-.35v.92a5.54,5.54,0,0,1-1,.35,6.37,6.37,0,0,1-1.23.1,3.58,3.58,0,0,1-1.74-.4,2.83,2.83,0,0,1-1.16-1.21,4.09,4.09,0,0,1-.42-1.94,4.68,4.68,0,0,1,.38-2,2.84,2.84,0,0,1,2.69-1.71Zm0,.87a1.73,1.73,0,0,0-1.35.55,2.67,2.67,0,0,0-.6,1.54h3.69a3,3,0,0,0-.2-1.09,1.52,1.52,0,0,0-.57-.74A1.63,1.63,0,0,0,192.19,338.43Z"/>
        <circle class="cls-5" cx="49.87" cy="50.13" r="7.49"/>
        <path class="cls-4"
              d="M49.87,78.5A28.37,28.37,0,1,1,68,28.28a5.52,5.52,0,1,1-7,8.5,17.34,17.34,0,1,0,0,26.7A5.52,5.52,0,0,1,68,72a28.21,28.21,0,0,1-18.1,6.52Z"/>
    </g>
</svg>