<svg xmlns="http://www.w3.org/2000/svg" viewBox="0 0 600 85"><defs><style>.cls-1{fill:#e6ede5;}.cls-2{fill:#f2f4f3;}.cls-3{fill:#0a0908;}.cls-4{fill:#22333b;}</style></defs><g id="Слой_2" data-name="Слой 2"><rect class="cls-1" width="600" height="85"/><rect class="cls-2" x="20" y="23" width="400" height="40"/><path class="cls-3" d="M40,42.81a6.92,6.92,0,0,1-.3,2.1,4.81,4.81,0,0,1-.87,1.63,4,4,0,0,1-1.43,1.05,5.07,5.07,0,0,1-2,.37,5.22,5.22,0,0,1-2-.37A3.84,3.84,0,0,1,32,46.54a4.57,4.57,0,0,1-.85-1.64,7.25,7.25,0,0,1-.29-2.1,6.59,6.59,0,0,1,.51-2.69,4,4,0,0,1,1.53-1.8,4.81,4.81,0,0,1,2.59-.64A4.63,4.63,0,0,1,38,38.3a4,4,0,0,1,1.54,1.79A6.53,6.53,0,0,1,40,42.81Zm-8,0a6.07,6.07,0,0,0,.36,2.2,3,3,0,0,0,1.11,1.44,3.41,3.41,0,0,0,1.91.5,3.38,3.38,0,0,0,1.9-.5A3,3,0,0,0,38.46,45a6.31,6.31,0,0,0,.35-2.2,5,5,0,0,0-.81-3,3,3,0,0,0-2.52-1.09,3.42,3.42,0,0,0-1.92.5,3.07,3.07,0,0,0-1.12,1.42A6,6,0,0,0,32.08,42.81Z"/><path class="cls-3" d="M41.7,43.32a10.84,10.84,0,0,1,.3-2.73,4.33,4.33,0,0,1,1-1.82,3.3,3.3,0,0,1,1.66-.94c.59-.16,1.18-.29,1.78-.41s1.19-.22,1.76-.3l.19,1-.9.14-.94.17c-.32,0-.61.11-.89.18l-.74.18a2.39,2.39,0,0,0-1,.55,2.64,2.64,0,0,0-.66,1.07,6.09,6.09,0,0,0-.29,1.73H43a3.07,3.07,0,0,1,.56-.6,3.32,3.32,0,0,1,.85-.49,3,3,0,0,1,1.1-.19,2.91,2.91,0,0,1,1.62.42,2.54,2.54,0,0,1,1,1.18,4.37,4.37,0,0,1,.33,1.77A4.53,4.53,0,0,1,48,46.28a2.83,2.83,0,0,1-1.18,1.26,3.63,3.63,0,0,1-1.78.42,3.22,3.22,0,0,1-1.42-.31,3,3,0,0,1-1.06-.9,4.27,4.27,0,0,1-.66-1.46A7.35,7.35,0,0,1,41.7,43.32ZM45.16,47a2.17,2.17,0,0,0,1.11-.27,1.79,1.79,0,0,0,.73-.86,4,4,0,0,0,.25-1.55,3.32,3.32,0,0,0-.45-1.86,1.62,1.62,0,0,0-1.45-.67,2.47,2.47,0,0,0-1.13.26,3.3,3.3,0,0,0-.86.63,2.84,2.84,0,0,0-.5.65,8.58,8.58,0,0,0,.1,1.35,4.18,4.18,0,0,0,.36,1.18,2.06,2.06,0,0,0,.7.84A2,2,0,0,0,45.16,47Z"/><path class="cls-3" d="M53.41,48a3.66,3.66,0,0,1-1.78-.42,2.79,2.79,0,0,1-1.2-1.27A4.73,4.73,0,0,1,50,44.12a4.83,4.83,0,0,1,.45-2.23,2.92,2.92,0,0,1,1.25-1.28,3.88,3.88,0,0,1,1.82-.42,5.52,5.52,0,0,1,1.09.11,3.35,3.35,0,0,1,.85.29l-.34.95a5.69,5.69,0,0,0-.79-.25,3.72,3.72,0,0,0-.83-.11,2.29,2.29,0,0,0-1.3.34,2,2,0,0,0-.77,1,4.43,4.43,0,0,0-.26,1.6,4.2,4.2,0,0,0,.25,1.55,2,2,0,0,0,.75,1,2.11,2.11,0,0,0,1.24.34,4.43,4.43,0,0,0,1.07-.12,7.33,7.33,0,0,0,.87-.3v1a3.08,3.08,0,0,1-.84.29A5,5,0,0,1,53.41,48Z"/><path class="cls-3" d="M62.74,47.82H61.58V41.28H59.31c-.1,1.18-.21,2.19-.35,3a10.39,10.39,0,0,1-.52,2.06,3,3,0,0,1-.75,1.17,1.59,1.59,0,0,1-1,.37l-.35,0a1,1,0,0,1-.28-.07V47l.19,0h.21a.78.78,0,0,0,.56-.25,2.32,2.32,0,0,0,.47-.78,7.89,7.89,0,0,0,.37-1.31c.11-.54.2-1.16.29-1.88s.16-1.55.22-2.46h4.42Z"/><path class="cls-3" d="M64,40.33h1.21l1.66,4.35.26.73c.09.24.16.46.22.67a4.08,4.08,0,0,1,.15.63h0c.07-.23.16-.53.28-.9s.24-.75.38-1.14l1.56-4.34H71l-3.26,8.59a6.11,6.11,0,0,1-.61,1.2,2.34,2.34,0,0,1-.84.79,2.3,2.3,0,0,1-1.19.28,3.13,3.13,0,0,1-.56,0,3.34,3.34,0,0,1-.43-.08v-.91l.37.06a3.19,3.19,0,0,0,.45,0,1.67,1.67,0,0,0,.73-.16,1.61,1.61,0,0,0,.54-.47,3.35,3.35,0,0,0,.39-.73L67,47.83Z"/><path class="cls-3" d="M80.92,40.33,77.8,44l3.39,3.85h-1.3L76.61,44v3.8H75.55V44l-3.28,3.8H71L74.36,44l-3.13-3.64h1.26L75.55,44V40.33h1.06V44l3.07-3.63Z"/><path class="cls-3" d="M83.51,40.33V45c0,.09,0,.21,0,.35s0,.3,0,.46,0,.32,0,.46,0,.27,0,.37l4.08-6.35h1.4v7.49H87.86V43.23c0-.15,0-.34,0-.56s0-.46,0-.68,0-.39,0-.51l-4.08,6.34h-1.4V40.33Z"/><path class="cls-3" d="M97.29,42.21a1.44,1.44,0,0,1-.41,1.09,2.09,2.09,0,0,1-1.06.53v.06a2.39,2.39,0,0,1,1.21.5,1.5,1.5,0,0,1,.51,1.24,2.07,2.07,0,0,1-.31,1.14,2,2,0,0,1-1,.77,4.36,4.36,0,0,1-1.71.28H91.33V40.33h3.2a5.18,5.18,0,0,1,1.43.18,2,2,0,0,1,1,.59A1.61,1.61,0,0,1,97.29,42.21Zm-1.16.13a.9.9,0,0,0-.39-.8,2.43,2.43,0,0,0-1.28-.26h-2v2.15h1.79a3,3,0,0,0,1.4-.26A.9.9,0,0,0,96.13,42.34Zm.23,3.29a1,1,0,0,0-.51-1,2.87,2.87,0,0,0-1.46-.3H92.47V46.9h2a2.93,2.93,0,0,0,1.44-.29A1.05,1.05,0,0,0,96.36,45.63Z"/><path class="cls-3" d="M102.17,40.21a2.84,2.84,0,0,1,2,.6,2.48,2.48,0,0,1,.65,1.92v5.09H104l-.22-1.11h-.06a4.35,4.35,0,0,1-.65.69,2.72,2.72,0,0,1-.79.42,3.87,3.87,0,0,1-1.1.14,2.87,2.87,0,0,1-1.21-.24,1.81,1.81,0,0,1-.84-.73,2.29,2.29,0,0,1-.3-1.23A1.94,1.94,0,0,1,99.71,44a5.18,5.18,0,0,1,2.7-.66l1.3-.05v-.46a1.8,1.8,0,0,0-.42-1.36,1.66,1.66,0,0,0-1.18-.39,3.8,3.8,0,0,0-1.12.17,8.2,8.2,0,0,0-1,.41l-.35-.87a6.53,6.53,0,0,1,1.16-.44A5.22,5.22,0,0,1,102.17,40.21Zm1.52,3.92-1.14,0a3.94,3.94,0,0,0-2,.45,1.32,1.32,0,0,0-.57,1.15,1.14,1.14,0,0,0,.39.95,1.64,1.64,0,0,0,1,.3,2.41,2.41,0,0,0,1.64-.55,2.09,2.09,0,0,0,.63-1.66Z"/><path class="cls-3" d="M108.29,40.33v3.14h4.18V40.33h1.13v7.49h-1.13V44.44h-4.18v3.38h-1.14V40.33Z"/><path class="cls-3" d="M117.09,40.33V45c0,.09,0,.21,0,.35s0,.3,0,.46,0,.32,0,.46,0,.27,0,.37l4.09-6.35h1.4v7.49h-1.06V42.67c0-.23,0-.46,0-.68s0-.39,0-.51l-4.08,6.34H116V40.33Z"/><path class="cls-3" d="M127.79,40.19a3,3,0,0,1,1.65.43,2.72,2.72,0,0,1,1,1.18,4.13,4.13,0,0,1,.36,1.78v.71h-5.17a2.89,2.89,0,0,0,.66,2,2.31,2.31,0,0,0,1.79.69,5.78,5.78,0,0,0,1.25-.13,7,7,0,0,0,1.14-.39v1a5.52,5.52,0,0,1-1.13.37,6.29,6.29,0,0,1-1.31.12,3.87,3.87,0,0,1-1.88-.44,3,3,0,0,1-1.25-1.3,4.45,4.45,0,0,1-.45-2.09,5,5,0,0,1,.41-2.1,3,3,0,0,1,2.89-1.84Zm0,.93a1.86,1.86,0,0,0-1.45.6,2.79,2.79,0,0,0-.64,1.66h4a3.28,3.28,0,0,0-.2-1.18,1.72,1.72,0,0,0-.62-.8A1.86,1.86,0,0,0,127.78,41.12Z"/><path class="cls-3" d="M143.74,47.82h-1.41l-4.59-5.07v5.07h-1.16v-10h1.16v4.84l4.48-4.84h1.33l-4.42,4.85Z"/><path class="cls-3" d="M152.28,47.82h-1.41l-4.59-5.07v5.07h-1.16v-10h1.16v4.84l4.48-4.84h1.33l-4.42,4.85Z"/><path class="cls-3" d="M156.72,47.82h-1.16v-9h-3.15v-1h7.45v1h-3.14Z"/><path class="cls-3" d="M171.29,44.06a5.26,5.26,0,0,1-.24,1.65,3.38,3.38,0,0,1-.69,1.22,2.9,2.9,0,0,1-1.09.76,3.66,3.66,0,0,1-1.44.27,3.43,3.43,0,0,1-1.38-.27,3,3,0,0,1-1.08-.76,3.57,3.57,0,0,1-.71-1.22,5.26,5.26,0,0,1-.24-1.65,4.72,4.72,0,0,1,.41-2.09,3,3,0,0,1,1.2-1.32,3.49,3.49,0,0,1,1.84-.46,3.4,3.4,0,0,1,1.8.46,3.14,3.14,0,0,1,1.2,1.32A4.75,4.75,0,0,1,171.29,44.06Zm-5.7,0a4.67,4.67,0,0,0,.24,1.57,2.25,2.25,0,0,0,3.3,1,2.08,2.08,0,0,0,.75-1,4.67,4.67,0,0,0,.24-1.57,4.51,4.51,0,0,0-.24-1.55,2.14,2.14,0,0,0-.74-1,2.21,2.21,0,0,0-1.29-.35,2,2,0,0,0-1.72.77A3.7,3.7,0,0,0,165.59,44.06Z"/><path class="cls-3" d="M178.36,41.29h-2.47v6.53h-1.12V41.29h-2.43v-1h6Z"/><path class="cls-3" d="M189.52,47.82H183v-1l2.68-2.71c.49-.51.91-.95,1.25-1.34a5.36,5.36,0,0,0,.78-1.16,2.9,2.9,0,0,0,.26-1.26,1.62,1.62,0,0,0-.5-1.29,1.89,1.89,0,0,0-1.32-.45,3,3,0,0,0-1.27.25,5.42,5.42,0,0,0-1.14.69l-.61-.76a5.84,5.84,0,0,1,.87-.6,4.89,4.89,0,0,1,1-.41,4.26,4.26,0,0,1,1.15-.15,3.7,3.7,0,0,1,1.59.32,2.45,2.45,0,0,1,1,.92,2.69,2.69,0,0,1,.36,1.41,3.51,3.51,0,0,1-.31,1.48,6.17,6.17,0,0,1-.88,1.34c-.38.45-.82.92-1.33,1.42l-2.17,2.16v.05h5.1Z"/><path class="cls-3" d="M197.58,42.81A11.74,11.74,0,0,1,197.4,45a5,5,0,0,1-.58,1.62,2.69,2.69,0,0,1-1,1,3.09,3.09,0,0,1-1.51.35,2.8,2.8,0,0,1-1.84-.61,3.61,3.61,0,0,1-1.09-1.76,9.43,9.43,0,0,1-.36-2.78,10.05,10.05,0,0,1,.33-2.75,3.39,3.39,0,0,1,1.05-1.77,2.85,2.85,0,0,1,1.91-.62,2.8,2.8,0,0,1,1.86.61A3.66,3.66,0,0,1,197.23,40,9.73,9.73,0,0,1,197.58,42.81Zm-5.45,0a10.67,10.67,0,0,0,.22,2.32,2.83,2.83,0,0,0,.68,1.4,1.93,1.93,0,0,0,2.5,0,2.72,2.72,0,0,0,.69-1.39,10.84,10.84,0,0,0,.21-2.33,10.61,10.61,0,0,0-.21-2.3,2.87,2.87,0,0,0-.68-1.4,2,2,0,0,0-2.52,0,2.87,2.87,0,0,0-.68,1.4A10.61,10.61,0,0,0,192.13,42.81Z"/><path class="cls-3" d="M205.59,42.81A10.88,10.88,0,0,1,205.4,45a4.75,4.75,0,0,1-.58,1.62,2.6,2.6,0,0,1-1,1,3.12,3.12,0,0,1-1.51.35,2.82,2.82,0,0,1-1.85-.61,3.68,3.68,0,0,1-1.08-1.76,9.43,9.43,0,0,1-.36-2.78,10.49,10.49,0,0,1,.32-2.75,3.53,3.53,0,0,1,1.05-1.77,2.88,2.88,0,0,1,1.92-.62,2.8,2.8,0,0,1,1.86.61A3.65,3.65,0,0,1,205.23,40,9.36,9.36,0,0,1,205.59,42.81Zm-5.45,0a10.74,10.74,0,0,0,.21,2.32,2.75,2.75,0,0,0,.69,1.4,1.75,1.75,0,0,0,1.25.46,1.72,1.72,0,0,0,1.24-.46,2.72,2.72,0,0,0,.69-1.39,10.17,10.17,0,0,0,.22-2.33,10.61,10.61,0,0,0-.21-2.3,2.79,2.79,0,0,0-.69-1.4,1.94,1.94,0,0,0-2.51,0,2.79,2.79,0,0,0-.68,1.4A10.61,10.61,0,0,0,200.14,42.81Z"/><path class="cls-3" d="M213.59,42.81a11.74,11.74,0,0,1-.18,2.17,5,5,0,0,1-.58,1.62,2.69,2.69,0,0,1-1,1,3.09,3.09,0,0,1-1.51.35,2.8,2.8,0,0,1-1.84-.61,3.61,3.61,0,0,1-1.09-1.76,9.43,9.43,0,0,1-.36-2.78,10.05,10.05,0,0,1,.33-2.75,3.39,3.39,0,0,1,1-1.77,2.85,2.85,0,0,1,1.91-.62,2.8,2.8,0,0,1,1.86.61A3.66,3.66,0,0,1,213.24,40,9.73,9.73,0,0,1,213.59,42.81Zm-5.45,0a10.08,10.08,0,0,0,.22,2.32,2.83,2.83,0,0,0,.68,1.4,1.93,1.93,0,0,0,2.5,0,2.72,2.72,0,0,0,.69-1.39,10.84,10.84,0,0,0,.21-2.33,10.61,10.61,0,0,0-.21-2.3,2.87,2.87,0,0,0-.68-1.4,2,2,0,0,0-2.52,0,2.87,2.87,0,0,0-.68,1.4A10.61,10.61,0,0,0,208.14,42.81Z"/><path class="cls-3" d="M219,40.19a2.8,2.8,0,0,1,2.24,1,4.33,4.33,0,0,1,.83,2.89,5.41,5.41,0,0,1-.38,2.15,2.89,2.89,0,0,1-1.08,1.31A2.94,2.94,0,0,1,219,48a3.29,3.29,0,0,1-1-.16,2.64,2.64,0,0,1-.78-.42,2.92,2.92,0,0,1-.53-.59h-.08c0,.18,0,.4.05.65s0,.47,0,.65v3.08H215.5V40.33h.94l.15,1.11h0a3.17,3.17,0,0,1,.53-.63,2.34,2.34,0,0,1,.77-.45A3.22,3.22,0,0,1,219,40.19Zm-.2,1a2.29,2.29,0,0,0-1.25.3,1.73,1.73,0,0,0-.7.9,4.83,4.83,0,0,0-.23,1.5v.22a5.26,5.26,0,0,0,.21,1.6,1.89,1.89,0,0,0,.69,1,2.18,2.18,0,0,0,1.3.34,1.79,1.79,0,0,0,1.16-.37,2.2,2.2,0,0,0,.69-1,4.91,4.91,0,0,0,.23-1.55,3.75,3.75,0,0,0-.52-2.11A1.76,1.76,0,0,0,218.82,41.15Z"/><path class="cls-3" d="M223.89,47.11a.84.84,0,0,1,.24-.68.79.79,0,0,1,.56-.2.85.85,0,0,1,.59.2.84.84,0,0,1,.24.68.9.9,0,0,1-.24.69.85.85,0,0,1-.59.21.79.79,0,0,1-.56-.21A.9.9,0,0,1,223.89,47.11Z"/><path class="cls-4" d="M541.81,57.78,529,45a8.11,8.11,0,0,0-9.34-1.52L508,31.79V25L494,14.5l-7,7,10.5,14h6.79L516,47.16a8.13,8.13,0,0,0,1.52,9.34l12.8,12.8a4.07,4.07,0,0,0,5.77,0l5.76-5.76a4.09,4.09,0,0,0,0-5.76ZM523.28,39.11a11.47,11.47,0,0,1,8.19,3.39l2.13,2.12a15.58,15.58,0,0,0,8.93-18.18,1.31,1.31,0,0,0-2.2-.6L532.2,34l-7.43-1.24-1.24-7.42,8.14-8.14a1.32,1.32,0,0,0-.62-2.21,15.74,15.74,0,0,0-14.94,4.15,15.49,15.49,0,0,0-4.51,11.33l9,9a12.43,12.43,0,0,1,2.7-.31Zm-11.36,9-6.2-6.2L489.05,58.55a7,7,0,0,0,9.9,9.9l13.52-13.52a11.72,11.72,0,0,1-.55-6.86ZM494,66.12a2.63,2.63,0,1,1,2.62-2.62A2.63,2.63,0,0,1,494,66.12Z"/></g></svg>