<svg xmlns="http://www.w3.org/2000/svg" viewBox="0 0 600 85"><defs><style>.cls-1{fill:#e6ede5;}.cls-2{fill:#f2f4f3;}.cls-3{fill:#0a0908;}.cls-4{fill:#22333b;}</style></defs><g id="Слой_3" data-name="Слой 3"><rect class="cls-1" width="600" height="85"/><rect class="cls-2" x="20" y="23" width="400" height="40"/><path class="cls-3" d="M31.38,37.83h1.09V43.6c0,.22,0,.46,0,.72s0,.51,0,.75,0,.47,0,.67,0,.36,0,.47h0L38,37.83h1.28v10H38.19V42.11c0-.24,0-.5,0-.77l0-.79c0-.25,0-.48,0-.68s0-.36,0-.47h-.06l-5.57,8.42H31.38Z"/><path class="cls-3" d="M43,40.33v3.14h4.18V40.33h1.14v7.49H47.15V44.44H43v3.38H41.83V40.33Z"/><path class="cls-3" d="M55.05,37.18v3A4.42,4.42,0,0,1,57,40.8a3.29,3.29,0,0,1,1.28,1.31,3.92,3.92,0,0,1,.46,2,4.2,4.2,0,0,1-.44,2A3.26,3.26,0,0,1,57,47.35a4.6,4.6,0,0,1-2,.58v3.25H53.94V47.93A4.41,4.41,0,0,1,52,47.37a3.38,3.38,0,0,1-1.28-1.32,4,4,0,0,1-.46-2,4.21,4.21,0,0,1,.44-2A3.33,3.33,0,0,1,52,40.79a4.65,4.65,0,0,1,2-.57v-3Zm-1.08,4a3.17,3.17,0,0,0-1.43.44,2.2,2.2,0,0,0-.83,1,4.2,4.2,0,0,0,0,3,2.29,2.29,0,0,0,.83,1A3.13,3.13,0,0,0,54,47Zm1.08,0V47a3.14,3.14,0,0,0,1.42-.46,2.16,2.16,0,0,0,.82-1,3.69,3.69,0,0,0,.27-1.48,3.08,3.08,0,0,0-.62-2A2.7,2.7,0,0,0,55.05,41.18Z"/><path class="cls-3" d="M67.17,44.06a5.26,5.26,0,0,1-.24,1.65,3.38,3.38,0,0,1-.69,1.22,3,3,0,0,1-1.09.76A3.71,3.71,0,0,1,63.7,48a3.47,3.47,0,0,1-1.38-.27,3.12,3.12,0,0,1-1.08-.76,3.55,3.55,0,0,1-.7-1.22,5,5,0,0,1-.25-1.65,4.8,4.8,0,0,1,.42-2.1,2.92,2.92,0,0,1,1.19-1.31,3.53,3.53,0,0,1,1.85-.46,3.38,3.38,0,0,1,1.79.46A3.08,3.08,0,0,1,66.74,42,4.75,4.75,0,0,1,67.17,44.06Zm-5.7,0a4.67,4.67,0,0,0,.24,1.57,2,2,0,0,0,.73,1,2.16,2.16,0,0,0,1.29.36A2.13,2.13,0,0,0,65,46.65a2.06,2.06,0,0,0,.74-1A4.67,4.67,0,0,0,66,44.06a4.51,4.51,0,0,0-.24-1.55,2.08,2.08,0,0,0-.74-1,2.21,2.21,0,0,0-1.29-.35,2,2,0,0,0-1.71.77A3.7,3.7,0,0,0,61.47,44.06Z"/><path class="cls-3" d="M72.65,40.19a2.78,2.78,0,0,1,2.23,1,4.28,4.28,0,0,1,.84,2.89,5.41,5.41,0,0,1-.38,2.15,2.89,2.89,0,0,1-1.08,1.31,2.94,2.94,0,0,1-1.64.45,3.29,3.29,0,0,1-1-.16,2.64,2.64,0,0,1-.78-.42,2.92,2.92,0,0,1-.53-.59h-.08c0,.18,0,.4,0,.65s0,.47,0,.65v3.08H69.13V40.33h.94l.15,1.11h0a3.17,3.17,0,0,1,.53-.63,2.34,2.34,0,0,1,.77-.45A3.18,3.18,0,0,1,72.65,40.19Zm-.2,1a2.29,2.29,0,0,0-1.25.3,1.73,1.73,0,0,0-.7.9,4.83,4.83,0,0,0-.23,1.5v.22a5.26,5.26,0,0,0,.21,1.6,1.89,1.89,0,0,0,.69,1,2.17,2.17,0,0,0,1.29.34,1.8,1.8,0,0,0,1.17-.37,2.2,2.2,0,0,0,.69-1A4.91,4.91,0,0,0,74.55,44,3.75,3.75,0,0,0,74,41.93,1.76,1.76,0,0,0,72.45,41.15Z"/><path class="cls-3" d="M85.6,40.33v7.49h-1V42.94c0-.2,0-.4,0-.61s0-.42,0-.63h0l-2.49,6.12h-1L78.72,41.7h0l0,.63c0,.21,0,.42,0,.65v4.84h-1V40.33h1.52l2.42,6.12,2.46-6.12Z"/><path class="cls-3" d="M90.76,40.21a2.84,2.84,0,0,1,2,.6,2.48,2.48,0,0,1,.65,1.92v5.09h-.82l-.22-1.11H92.3a4.35,4.35,0,0,1-.65.69,2.6,2.6,0,0,1-.79.42,3.87,3.87,0,0,1-1.1.14,2.87,2.87,0,0,1-1.21-.24,1.86,1.86,0,0,1-.84-.73,2.29,2.29,0,0,1-.3-1.23A1.94,1.94,0,0,1,88.3,44a5.18,5.18,0,0,1,2.7-.66l1.3-.05v-.46a1.8,1.8,0,0,0-.42-1.36,1.66,1.66,0,0,0-1.18-.39,3.8,3.8,0,0,0-1.12.17,8.2,8.2,0,0,0-1,.41l-.35-.87a6.53,6.53,0,0,1,1.16-.44A5.22,5.22,0,0,1,90.76,40.21Zm1.52,3.92-1.14,0a3.87,3.87,0,0,0-2,.45,1.31,1.31,0,0,0-.58,1.15,1.14,1.14,0,0,0,.39.95,1.64,1.64,0,0,0,1,.3,2.41,2.41,0,0,0,1.64-.55,2.09,2.09,0,0,0,.63-1.66Z"/><path class="cls-3" d="M103,50.41h-1.11V47.82H95.74V40.33h1.14v6.53h4V40.33H102v6.54H103Z"/><path class="cls-3" d="M105.58,40.33v5.06c0,.14,0,.3,0,.46s0,.32,0,.46a3.57,3.57,0,0,1,0,.37l4.09-6.35H111v7.49h-1.06V43.23c0-.15,0-.34,0-.56s0-.46,0-.68,0-.39,0-.51l-4.07,6.34H104.5V40.33Z"/><path class="cls-3" d="M113.77,47.82h-1.33l2.16-3.16a2.74,2.74,0,0,1-.87-.35,1.9,1.9,0,0,1-.66-.69,2.21,2.21,0,0,1-.25-1.08,2,2,0,0,1,.73-1.65,3,3,0,0,1,1.9-.56h3.31v7.49h-1.13v-3h-1.9Zm.15-5.28a1.13,1.13,0,0,0,.48,1,2.5,2.5,0,0,0,1.37.32h1.86V41.28h-2.06a1.88,1.88,0,0,0-1.26.35A1.18,1.18,0,0,0,113.92,42.54Z"/><path class="cls-3" d="M131.25,44.06a5.26,5.26,0,0,1-.24,1.65,3.38,3.38,0,0,1-.69,1.22,2.9,2.9,0,0,1-1.09.76,3.63,3.63,0,0,1-1.44.27,3.47,3.47,0,0,1-1.38-.27,3,3,0,0,1-1.08-.76,3.4,3.4,0,0,1-.7-1.22,5.58,5.58,0,0,1,.16-3.75,3,3,0,0,1,1.2-1.31,3.5,3.5,0,0,1,1.85-.46,3.38,3.38,0,0,1,1.79.46,3.2,3.2,0,0,1,1.2,1.32A4.75,4.75,0,0,1,131.25,44.06Zm-5.7,0a4.67,4.67,0,0,0,.24,1.57,2,2,0,0,0,2,1.38,2.17,2.17,0,0,0,1.28-.36,2.12,2.12,0,0,0,.74-1,4.67,4.67,0,0,0,.24-1.57,4.51,4.51,0,0,0-.24-1.55,2.14,2.14,0,0,0-.74-1,2.21,2.21,0,0,0-1.29-.35,2,2,0,0,0-1.71.77A3.63,3.63,0,0,0,125.55,44.06Z"/><path class="cls-3" d="M143.13,40.33v7.49H142V41.31h-4v6.51h-1.14V40.33Z"/><path class="cls-3" d="M148.42,40.19a3,3,0,0,1,1.64.43,2.74,2.74,0,0,1,1.05,1.18,4.13,4.13,0,0,1,.36,1.78v.71h-5.18a3,3,0,0,0,.66,2,2.31,2.31,0,0,0,1.79.69,6,6,0,0,0,1.26-.13,7.24,7.24,0,0,0,1.13-.39v1a5.65,5.65,0,0,1-1.12.37,6.32,6.32,0,0,1-1.32.12,3.87,3.87,0,0,1-1.88-.44,3.08,3.08,0,0,1-1.25-1.3,4.58,4.58,0,0,1-.44-2.09,5,5,0,0,1,.4-2.1,3,3,0,0,1,2.9-1.84Zm0,.93a1.85,1.85,0,0,0-1.45.6,2.79,2.79,0,0,0-.65,1.66h4a3.5,3.5,0,0,0-.21-1.18,1.7,1.7,0,0,0-.61-.8A1.91,1.91,0,0,0,148.41,41.12Z"/><path class="cls-3" d="M156.92,40.19a2.78,2.78,0,0,1,2.23,1,4.28,4.28,0,0,1,.84,2.89,5.23,5.23,0,0,1-.39,2.15,2.82,2.82,0,0,1-1.07,1.31,3,3,0,0,1-1.64.45,3.31,3.31,0,0,1-1-.16,2.47,2.47,0,0,1-.77-.42,2.92,2.92,0,0,1-.53-.59h-.08c0,.18,0,.4,0,.65s0,.47,0,.65v3.08H153.4V40.33h.93l.15,1.11h.06a2.86,2.86,0,0,1,.53-.63,2.34,2.34,0,0,1,.77-.45A3.14,3.14,0,0,1,156.92,40.19Zm-.2,1a2.35,2.35,0,0,0-1.26.3,1.77,1.77,0,0,0-.69.9,4.55,4.55,0,0,0-.23,1.5v.22a5.26,5.26,0,0,0,.21,1.6,1.78,1.78,0,0,0,.69,1,2.17,2.17,0,0,0,1.29.34,1.77,1.77,0,0,0,1.16-.37,2.29,2.29,0,0,0,.7-1,4.91,4.91,0,0,0,.23-1.55,3.83,3.83,0,0,0-.52-2.11A1.76,1.76,0,0,0,156.72,41.15Z"/><path class="cls-3" d="M164.85,40.19a3,3,0,0,1,1.64.43,2.72,2.72,0,0,1,1,1.18,4.13,4.13,0,0,1,.36,1.78v.71h-5.17a2.89,2.89,0,0,0,.66,2,2.31,2.31,0,0,0,1.79.69,5.78,5.78,0,0,0,1.25-.13,7,7,0,0,0,1.14-.39v1a5.65,5.65,0,0,1-1.12.37,6.46,6.46,0,0,1-1.32.12,3.87,3.87,0,0,1-1.88-.44,3,3,0,0,1-1.25-1.3,4.45,4.45,0,0,1-.45-2.09A5,5,0,0,1,162,42a3.09,3.09,0,0,1,1.15-1.36A3.14,3.14,0,0,1,164.85,40.19Zm0,.93a1.86,1.86,0,0,0-1.45.6,2.79,2.79,0,0,0-.64,1.66h4a3.5,3.5,0,0,0-.21-1.18,1.72,1.72,0,0,0-.62-.8A1.86,1.86,0,0,0,164.83,41.12Z"/><path class="cls-3" d="M171.61,44,169,40.33h1.29l2,2.88,2-2.88h1.28L173,44l2.74,3.83h-1.3l-2.1-3.06-2.11,3.06h-1.29Z"/><path class="cls-3" d="M183.61,44.06a5.26,5.26,0,0,1-.24,1.65,3.38,3.38,0,0,1-.69,1.22,2.9,2.9,0,0,1-1.09.76,3.71,3.71,0,0,1-1.45.27,3.38,3.38,0,0,1-1.37-.27,3,3,0,0,1-1.08-.76,3.41,3.41,0,0,1-.71-1.22,5.25,5.25,0,0,1-.25-1.65,4.8,4.8,0,0,1,.42-2.1,3,3,0,0,1,1.19-1.31,3.55,3.55,0,0,1,1.85-.46,3.42,3.42,0,0,1,1.8.46A3.12,3.12,0,0,1,183.18,42,4.61,4.61,0,0,1,183.61,44.06Zm-5.7,0a4.67,4.67,0,0,0,.24,1.57,2.06,2.06,0,0,0,.74,1,2.46,2.46,0,0,0,2.56,0,2.08,2.08,0,0,0,.75-1,5,5,0,0,0,.23-1.57,4.77,4.77,0,0,0-.23-1.55,2.14,2.14,0,0,0-.74-1,2.25,2.25,0,0,0-1.29-.35,2,2,0,0,0-1.72.77A3.7,3.7,0,0,0,177.91,44.06Z"/><path class="cls-3" d="M191.06,40.33v6.53h1.07v3.55H191V47.82h-5.3v2.59h-1.09V46.86h.59a9.68,9.68,0,0,0,1.07-2,12.46,12.46,0,0,0,.64-2.23,13.18,13.18,0,0,0,.23-2.35Zm-1.1.9h-1.78a12.11,12.11,0,0,1-.29,2,12.51,12.51,0,0,1-.6,2,7.62,7.62,0,0,1-.88,1.63H190Z"/><path class="cls-3" d="M196.5,40.19a3,3,0,0,1,1.64.43,2.68,2.68,0,0,1,1.05,1.18,4.13,4.13,0,0,1,.36,1.78v.71h-5.17a2.94,2.94,0,0,0,.65,2,2.32,2.32,0,0,0,1.79.69,5.81,5.81,0,0,0,1.26-.13,7.34,7.34,0,0,0,1.14-.39v1a5.73,5.73,0,0,1-1.13.37,6.29,6.29,0,0,1-1.31.12,3.94,3.94,0,0,1-1.89-.44,3.06,3.06,0,0,1-1.24-1.3,4.45,4.45,0,0,1-.45-2.09,5,5,0,0,1,.41-2.1,3,3,0,0,1,2.89-1.84Zm0,.93a1.85,1.85,0,0,0-1.45.6,2.79,2.79,0,0,0-.64,1.66h4a3.07,3.07,0,0,0-.21-1.18,1.64,1.64,0,0,0-.61-.8A1.86,1.86,0,0,0,196.49,41.12Z"/><path class="cls-3" d="M206.26,40.33v3.14h4.17V40.33h1.14v7.49h-1.14V44.44h-4.17v3.38h-1.14V40.33Z"/><path class="cls-3" d="M216.78,40.21a2.87,2.87,0,0,1,2,.6,2.52,2.52,0,0,1,.65,1.92v5.09h-.83l-.22-1.11h-.05a4,4,0,0,1-.66.69,2.6,2.6,0,0,1-.79.42,3.82,3.82,0,0,1-1.1.14,2.9,2.9,0,0,1-1.21-.24,1.84,1.84,0,0,1-.83-.73,2.2,2.2,0,0,1-.31-1.23,2,2,0,0,1,.89-1.72,5.22,5.22,0,0,1,2.71-.66l1.29-.05v-.46a1.8,1.8,0,0,0-.42-1.36,1.65,1.65,0,0,0-1.17-.39,3.7,3.7,0,0,0-1.12.17,7.75,7.75,0,0,0-1,.41l-.34-.87a6,6,0,0,1,1.16-.44A5.17,5.17,0,0,1,216.78,40.21Zm1.52,3.92-1.15,0a3.87,3.87,0,0,0-2,.45,1.33,1.33,0,0,0-.58,1.15,1.14,1.14,0,0,0,.39.95,1.67,1.67,0,0,0,1,.3,2.38,2.38,0,0,0,1.63-.55,2.1,2.1,0,0,0,.64-1.66Z"/><path class="cls-3" d="M230.34,37.68v1.23a5.63,5.63,0,0,1,2.52.52,3,3,0,0,1,1.35,1.32,4.21,4.21,0,0,1,.41,1.87A4.35,4.35,0,0,1,234.4,44a3.21,3.21,0,0,1-.71,1.2,3.4,3.4,0,0,1-1.32.86,5.6,5.6,0,0,1-2,.35V48h-1.15V46.42a5.55,5.55,0,0,1-2.06-.36,3.42,3.42,0,0,1-1.31-.87,3.18,3.18,0,0,1-.7-1.2,4.52,4.52,0,0,1-.21-1.35,4.46,4.46,0,0,1,.23-1.43,3,3,0,0,1,.73-1.17,3.44,3.44,0,0,1,1.32-.81,6.34,6.34,0,0,1,2-.32V37.68Zm-1.15,2.22a4.46,4.46,0,0,0-1.81.36,2.08,2.08,0,0,0-1,.94,3.16,3.16,0,0,0-.3,1.42,3.12,3.12,0,0,0,.33,1.49,2.23,2.23,0,0,0,1,1,4.11,4.11,0,0,0,1.74.38Zm1.15,0v5.56a4.08,4.08,0,0,0,1.78-.39,2.26,2.26,0,0,0,1-1,3.14,3.14,0,0,0,.32-1.48,3.1,3.1,0,0,0-.3-1.42,2,2,0,0,0-1-.93A4.47,4.47,0,0,0,230.34,39.9Z"/><path class="cls-3" d="M241.5,37.68v1.23a5.66,5.66,0,0,1,2.52.52,3.08,3.08,0,0,1,1.35,1.32,4.21,4.21,0,0,1,.41,1.87,4.64,4.64,0,0,1-.22,1.39,3.5,3.5,0,0,1-.71,1.2,3.4,3.4,0,0,1-1.32.86,5.68,5.68,0,0,1-2,.35V48h-1.15V46.42a5.61,5.61,0,0,1-2.07-.36,3.49,3.49,0,0,1-1.31-.87,3.3,3.3,0,0,1-.69-1.2,4.52,4.52,0,0,1-.21-1.35,4.46,4.46,0,0,1,.22-1.43A3.25,3.25,0,0,1,237,40a3.57,3.57,0,0,1,1.33-.81,6.29,6.29,0,0,1,2-.32V37.68Zm-1.15,2.22a4.51,4.51,0,0,0-1.82.36,2.13,2.13,0,0,0-1,.94,3.16,3.16,0,0,0-.3,1.42,3.12,3.12,0,0,0,.33,1.49,2.23,2.23,0,0,0,1,1,4.16,4.16,0,0,0,1.75.38Zm1.15,0v5.56a4,4,0,0,0,1.77-.39,2.28,2.28,0,0,0,1-1,3.26,3.26,0,0,0,.32-1.48,3.1,3.1,0,0,0-.3-1.42,2.07,2.07,0,0,0-1-.93A4.47,4.47,0,0,0,241.5,39.9Z"/><path class="cls-3" d="M254.53,37.83v9h1.23v3.65h-1.11V47.82h-7v2.61h-1.11V46.78h.77a16.28,16.28,0,0,0,1-2c.29-.73.56-1.49.8-2.29s.42-1.59.57-2.39a18.13,18.13,0,0,0,.28-2.31Zm-1.15,1H251a14.79,14.79,0,0,1-.27,1.89c-.15.7-.33,1.41-.55,2.14s-.47,1.43-.74,2.1a14.13,14.13,0,0,1-.85,1.78h4.79Z"/><path class="cls-3" d="M264.64,47.82h-1.11V40c0-.19,0-.37,0-.53a4,4,0,0,1,0-.49c-.14.14-.28.27-.4.37l-.46.38-1.14.91-.59-.77,2.7-2.08h.95Z"/><path class="cls-3" d="M268.75,47.11a.87.87,0,0,1,.23-.68.83.83,0,0,1,.57-.2.86.86,0,0,1,.59.2.84.84,0,0,1,.24.68.9.9,0,0,1-.24.69.87.87,0,0,1-.59.21.84.84,0,0,1-.57-.21A.94.94,0,0,1,268.75,47.11Z"/><path class="cls-3" d="M278.64,47.82h-6.55v-1l2.68-2.71c.49-.51.91-.95,1.25-1.34a5.36,5.36,0,0,0,.78-1.16,2.9,2.9,0,0,0,.26-1.26,1.62,1.62,0,0,0-.5-1.29,1.89,1.89,0,0,0-1.32-.45,3,3,0,0,0-1.27.25,5.42,5.42,0,0,0-1.14.69l-.61-.76a6.7,6.7,0,0,1,.87-.6,4.89,4.89,0,0,1,1-.41,4.26,4.26,0,0,1,1.15-.15,3.7,3.7,0,0,1,1.59.32,2.45,2.45,0,0,1,1,.92,2.69,2.69,0,0,1,.36,1.41,3.51,3.51,0,0,1-.31,1.48,5.82,5.82,0,0,1-.88,1.34c-.38.45-.82.92-1.33,1.42l-2.17,2.16v.05h5.1Z"/><g id="svg_1" data-name="svg 1"><path id="svg_2" data-name="svg 2" class="cls-4" d="M515.27,14.52c-.34.06-.33.06-.33.3V15h-.24c-.28,0-.28,0-.29.5s0,.53.31.56.16,0,.17.14a.31.31,0,0,1-.12.28,1.06,1.06,0,0,0-.25.77,2,2,0,0,0,.16.45,1.59,1.59,0,0,1,.13.3c0,.07-.21.24-.28.23s-.12-.09-.21-.21-.37-.31-.44-.21,0,0-.06,0-.18-.06-.32,0a.28.28,0,0,1-.29.08c-.15,0-.17,0-.13.06s-.21.21-.34.08-.08-.05-.14,0a.28.28,0,0,1-.19.07c-.26,0-.36,0-.36.09a.19.19,0,0,0,.05.13s0,.06,0,.06c-.23,0-.39.05-.41.09a.19.19,0,0,1-.08.11c-.41.34-.41.36-.43.58a.59.59,0,0,1-.15.39,1.22,1.22,0,0,0-.16.27,1.44,1.44,0,0,0,.08.65,1.08,1.08,0,0,1,.07.18,1,1,0,0,0,.17.44,1.57,1.57,0,0,1,.18.39,1.35,1.35,0,0,0,.37.57.79.79,0,0,1,.08.22c.05.22.16.36.47.55s.33.35.34.85,0,.47.23.53.14.07.14.1a3,3,0,0,1-.46.66,5,5,0,0,1-.94.66.91.91,0,0,0-.25.07A4,4,0,0,1,510,26c-.53,0-.51,0-.32-.6.3-.94.29-1.26,0-1.71a1.52,1.52,0,0,0-.8-.61c-.4-.13-.42-.16-.41-.5s0-.33-.09-.43a.85.85,0,0,1-.22-.52c0-.09.06-.1.23-.1a.28.28,0,0,0,.26-.1c.24-.39,0-1-.32-1-.11,0-.15,0-.2-.15s-.15-.24-.45-.32a.66.66,0,0,0-.44,0c-.19.05-.19.05-.19.26s0,.26-.3.27-.26.13-.26.55,0,.34.11.43a.4.4,0,0,0,.22.1c.2,0,.22.17,0,.36a.67.67,0,0,0-.19.71,1.62,1.62,0,0,0,.1.28s0,.07,0,.12-.18.08-.2,0a.22.22,0,0,0-.13-.07c-.1,0-.13,0-.13,0s0,.07-.07.05-.29.18-.31.33a.28.28,0,0,1-.09.16c-.06.05-.08,0-.11,0s0-.11,0-.13.08-.13,0-.13-.07,0-.07.05,0,0-.07,0a.11.11,0,0,0-.09.08,2.06,2.06,0,0,1-.13.21.75.75,0,0,0-.1.16.32.32,0,0,1-.09.12.31.31,0,0,0-.09.18,5.58,5.58,0,0,0,.31,1.07,2.48,2.48,0,0,1,.16.71,4.28,4.28,0,0,1-.6,0h-.57l-.15-.15a.85.85,0,0,1-.31-.66,2.1,2.1,0,0,1,.29-1.21c.52-1.08.63-1.64.42-2.06a1.32,1.32,0,0,0-.76-.66l-.63-.28a7.91,7.91,0,0,0-1.16-.43c-.42-.09-.72.13-1.28,1s-.72,1-1.32,1.18a4.42,4.42,0,0,0-1.22.66.71.71,0,0,0-.29.43,1.25,1.25,0,0,0,0,.71,5.15,5.15,0,0,0,.44.61,5.86,5.86,0,0,1,.42.59c0,.05,0,.09.06.09s-.19.39-.32.39a1,1,0,0,0-.25.09l-.25.13c-.15.06-.2.24-.17.6a2.32,2.32,0,0,0,.3.92c.07.09.19.07.46-.07a.64.64,0,0,1,.64-.08c.13.06.19.14.41.57a1.72,1.72,0,0,0,1.12,1.06.53.53,0,0,0,.47-.15c.07-.13.05-.23-.06-.52a1.14,1.14,0,0,1-.05-.86,3.76,3.76,0,0,1,.3-.5c.53-.75.56-1,.13-1.66l-.26-.34A2.76,2.76,0,0,1,501,25a2.57,2.57,0,0,0-.25-.32,1.14,1.14,0,0,1-.29-.66c0-.18.15-.27,1-.75s1-.46,1.09-.31.06.09.05.1a2,2,0,0,0-.09.39,7.33,7.33,0,0,1-.23.85,2.29,2.29,0,0,0-.16.95,1.22,1.22,0,0,0,.12.71,1.67,1.67,0,0,0,1.39.91l.47.1,0,.22a.77.77,0,0,1,0,.25,2.37,2.37,0,0,1-.43.12,1.82,1.82,0,0,0-1.15.63,1.26,1.26,0,0,0-.2.31l-.07.16a3.1,3.1,0,0,0,0,1.27c.07.29.2.61.2.48s0-.05,0,0a.31.31,0,0,0,.12.1c.1,0,.16,0,.46-.2a1.53,1.53,0,0,1,1.15-.25,1.76,1.76,0,0,1,.54.07.14.14,0,0,0,.11,0s.06,0,.07.06,0,.08-.07.08-.09,0-.09,0-.24.19-.95.5c-.86.39-1.15.47-1.47.42s-.36-.07-.73-.35-.4-.26-.48-.15.09.63.35.89.53.45.57.41a.44.44,0,0,1,.27,0,2.42,2.42,0,0,0,.48.06,1.77,1.77,0,0,0,.82-.19s0,0,0,0a1,1,0,0,0,.38-.15l.36-.18a2.07,2.07,0,0,1,0,.44,1,1,0,0,0,.15.68c.21.35.44.55.63.55s.25-.07.24-.53a1.09,1.09,0,0,1,.08-.59c.19-.37.48-.51,1.06-.51A2.34,2.34,0,0,1,508,32c.38.23.53.26.8.15a.44.44,0,0,1,.26,0,4.13,4.13,0,0,1,.91,1.07,5.75,5.75,0,0,1,.59,1.66c.15,1-.37,2.24-1,2.41a1.54,1.54,0,0,1-.88,0c-.21-.1-.36-.11-.41,0a.55.55,0,0,0,0,.25,1.49,1.49,0,0,0,.45.83.84.84,0,0,1,.16.23.39.39,0,0,1-.11.16,1.23,1.23,0,0,1-1.17.3.55.55,0,0,1-.19-.13.09.09,0,0,0-.08-.07.24.24,0,0,1-.13-.09c-.12-.12-.28-.11-.33,0a3.43,3.43,0,0,0,0,1.26,2,2,0,0,0,.38.87c.26.37.27.4,0,.62a2,2,0,0,1-1,.5,1.62,1.62,0,0,1-1.34-.34.29.29,0,0,0-.14-.09,1.42,1.42,0,0,1-.4-.47,1.73,1.73,0,0,1-.21-.84c0-.24.11-.44.16-.44s.06-.05.09-.11.07-.11.1-.11.07,0,.08,0a1.77,1.77,0,0,1,.27-.14c.14-.06.25-.12.24-.14s0-.06.08-.1a1.61,1.61,0,0,0,.32-1,2,2,0,0,0-.25-1.3,1.44,1.44,0,0,1-.16-.32,3.28,3.28,0,0,0-.72-.67,0,0,0,0,1-.05,0,3.8,3.8,0,0,0-.43-.38,9.67,9.67,0,0,1-2.58-3.11c-.16-.42-.36-.67-.53-.67s-.37.25-.4.4-.19.14-.36-.06a4.74,4.74,0,0,1-.94-1.8c-.13-.43-.19-.54-.31-.65s-.26-.16-.39-.07a.15.15,0,0,1-.15,0,14.28,14.28,0,0,1-1.12-1.66c-.18-.31-.4-.65-.48-.77l-.52-.9a9.34,9.34,0,0,0-.56-.9,11.73,11.73,0,0,1-.87-1.8c-.17-.43-.36-.67-.53-.67s-.34.21-.55.53a4.31,4.31,0,0,0-.36,3.88,2.35,2.35,0,0,1,.22.86s-.16-.06-.34-.2a6.42,6.42,0,0,0-.54-.39l-.26-.17a.6.6,0,0,0-.22-.09c-.18-.06-.19-.06-.31.08a2.79,2.79,0,0,0-.26,2.11,5.53,5.53,0,0,0,.55,1.54.67.67,0,0,1,.11.24c0,.08-.08.08-.83,0a2.84,2.84,0,0,0-.63-.06c-.17,0-.18,0-.22.18a4.81,4.81,0,0,0,.89,2.61,2,2,0,0,1,.22.38c0,.05-.11.06-.54,0-.81,0-1.43.08-1.43.3a6.51,6.51,0,0,0,.21.93l.16.4a1,1,0,0,0,.16.32s0,0,0,.06a3,3,0,0,0,.58.8,1.8,1.8,0,0,1,.29.35,1.22,1.22,0,0,1-.42.1,2.19,2.19,0,0,0-.56.13c-.12.06-.12.07-.1.34a3.7,3.7,0,0,0,.64,1.39,4,4,0,0,0,.89.91s0,0,0,.06-.07.09-.18.12c-.9.24-1,.29-1,.56a2,2,0,0,0,.1.44,2.7,2.7,0,0,0,1.38,1.57l.42.2-.28,0a1.4,1.4,0,0,0-.38.09.94.94,0,0,0-.31.62.51.51,0,0,1-.16.12.41.41,0,0,0-.2.28.37.37,0,0,1-.21.28,1,1,0,0,0-.25.2c-.09.1-.09.14-.06.28s.07.31.1.48a2.65,2.65,0,0,0,.82,1.37,2.15,2.15,0,0,1,.35.5,1.15,1.15,0,0,0,.44.54c.17.09.3.08.62,0s.38-.1.38.07a1,1,0,0,0,.33.58.55.55,0,0,1,.2.3c0,.1.11.3.18.46a1.79,1.79,0,0,1,.12.31.24.24,0,0,0,.05.12s.19.43.37.87c.77,1.8.95,2.24,1.08,2.51s.25.57.41.9.47,1,.7,1.49a7.53,7.53,0,0,1,.42,1,.89.89,0,0,0,.25.49c.05,0,.09.1.08.11a.74.74,0,0,0,0,.3,1.52,1.52,0,0,0,.42.77.38.38,0,0,1,.13.25.74.74,0,0,0,.2.48.91.91,0,0,1,.15.38l.06.28-.33.31a1,1,0,0,0-.43.89,1.46,1.46,0,0,0,.21.78.75.75,0,0,1,.12.47c0,.28.12.66.2.66a2.25,2.25,0,0,1,.58.4.39.39,0,0,1,.08.2.89.89,0,0,0,.11.31,1.29,1.29,0,0,0,1.14.56c.58-.09.59-.09.77.09a4.64,4.64,0,0,0,.6.58.63.63,0,0,1,.16.33c.08.36.17.44.49.43s.27,0,.37-.14a1.27,1.27,0,0,0,.17-.91,2,2,0,0,1-.05-.48.9.9,0,0,0,0-.34.19.19,0,0,1-.05-.11.63.63,0,0,0-.06-.2.69.69,0,0,1-.07-.29c0-.12,0-.17.21-.32a3.12,3.12,0,0,1,1.33-.69,12,12,0,0,0,1.47-.51,1.11,1.11,0,0,1,.24-.1.69.69,0,0,0,.23-.08,1.7,1.7,0,0,1,.36-.11,2,2,0,0,0,.73-.19.12.12,0,0,1,.11,0,1.5,1.5,0,0,0,.47-.08A2.27,2.27,0,0,1,508,61a11.27,11.27,0,0,0,1.58-.24c.25-.1.25-.34,0-1s-.19-.53.31-.66.92-.46.92-.75-.09-.25-.34-.21l-.42,0c-.18,0-.22,0-.31-.12a.34.34,0,0,0-.16-.12s-.08-.09-.14-.2a.7.7,0,0,1-.05-.4,1.84,1.84,0,0,1,.44-.84,2,2,0,0,1,2.06-.07,1.51,1.51,0,0,1,.69.83.87.87,0,0,0,.07.3.87.87,0,0,1,0,.46,1.8,1.8,0,0,1-1,1.26,3,3,0,0,0-1,.88.8.8,0,0,0-.12.49c0,.25,0,.28-.14.42a1,1,0,0,1-.3.2c-.08,0-.15.07-.15.09s-.09.08-.19.13a1.81,1.81,0,0,0-.32.22,11,11,0,0,1-1.24,1,.88.88,0,0,1-.84.1c-.15-.08-.18-.16-.17-.45a1.18,1.18,0,0,0-.15-.57c-.09-.14-.58,0-.92.31a2,2,0,0,0-.55,1,1.24,1.24,0,0,0,0,.67,4.06,4.06,0,0,0,.29.59c.08.12.09.09-.21.65a.89.89,0,0,0-.12.31.14.14,0,0,1,0,.11c-.07,0-.1.4-.05.64A3.12,3.12,0,0,0,506,67.1l.35.54a.81.81,0,0,0,.18.19c.1.06.12.06.26,0a2,2,0,0,0,.56-.63c0-.13.24,0,.42.28a3,3,0,0,0,1,1,2.38,2.38,0,0,0,1.19,0c.39-.11.52-.09.66.07a1.94,1.94,0,0,0,1.3.89,3.53,3.53,0,0,0,1.54-.06,1.06,1.06,0,0,1,.43-.06,7.53,7.53,0,0,1,.56.53,4.42,4.42,0,0,0,.55.49,0,0,0,0,1,.05,0c0,.07.26.18.36.16a6.14,6.14,0,0,0,1-.79,1.88,1.88,0,0,1,.35-.3,1.62,1.62,0,0,1,.37,0,4,4,0,0,0,.74.07,2,2,0,0,0,1.62-.66c.13-.14.24-.23.31-.23a4.84,4.84,0,0,1,.53.14,2.13,2.13,0,0,0,.85.13c.8,0,1.23-.28,1.81-1.16.08-.12.17-.23.21-.23a.62.62,0,0,1,.3.18c.28.24.43.33.6.34s.39-.08.56-.74c.25-1,.26-1.41,0-1.92a2.27,2.27,0,0,0-.31-.5.81.81,0,0,1-.15-.24.84.84,0,0,1,.16-.27,1.72,1.72,0,0,0,.4-1.08,1.35,1.35,0,0,0-.37-1.11,1.25,1.25,0,0,1-.22-.31c.07-.07.46,0,.8.12l1.22.44a17.3,17.3,0,0,1,2.72,1.15l.69.37a1.48,1.48,0,0,0,.84,0c.2,0,.65-.07,1-.08.74,0,.94-.06,1.24-.32l.62-.52c.25-.22.61-.51.78-.64a3.49,3.49,0,0,0,1.24-1.54,2.73,2.73,0,0,0-.07-1.38,1.08,1.08,0,0,1-.07-.51,2.45,2.45,0,0,0-.29-1.09l-.1-.24a2.77,2.77,0,0,0-.88-1.37,2.86,2.86,0,0,0-1.11-.62c-.47-.16-.6-.55-.2-.55a.33.33,0,0,0,.2-.09c.08-.08.09-.13.08-.4s0-.31-.15-.43-.15-.13-.24-.11-.13,0-.19-.17-.11-.2-.14-.2-.06,0-.06,0a1,1,0,0,0-.39,0h-.4V54h-.23c-.26,0-.28,0-.28.5,0,.34,0,.4.26.53s.21.15.06.3-.2.16-.48.23a2.92,2.92,0,0,0-1.45.82,4.15,4.15,0,0,0-.63,1.21s0,0,0,0-.17.14-.17.49a4.54,4.54,0,0,1-.05.54,2.48,2.48,0,0,0,.07,1.15c.06.26.12.56.13.67s0,.21-.12.26a3.77,3.77,0,0,1-1.51-.15c-.64-.17-2.26-.64-2.34-.68a2.89,2.89,0,0,0-.27-.14c-.18-.07-.21-.11-.21-.21s.05-.19.24-.08a1,1,0,0,0,.55.1,1.11,1.11,0,0,0,.95-.39c.18-.18.23-.3.17-.43a.19.19,0,0,1,0-.16c0-.08.08-.09.31-.09a.76.76,0,0,0,.64-.24c.14-.17.12-.26-.1-.71a5.7,5.7,0,0,1-.24-.57,3.42,3.42,0,0,1,.07-1.23,3,3,0,0,0-.31-1.79,2.67,2.67,0,0,0-.73-.76.37.37,0,0,1-.15-.08,1.5,1.5,0,0,0-.38-.18.61.61,0,0,1-.38-.24c-.05-.09-.12-.16-.15-.16a.1.1,0,0,1-.09-.06s-.14-.07-.39-.08a2.8,2.8,0,0,1-1.08-.23l-.23-.12c-.11,0-.13-.32,0-.51l.08-.17-.19-.18a2.05,2.05,0,0,1-.53-1.46,1.45,1.45,0,0,1,.45-1.38.92.92,0,0,1,.27-.1,13.36,13.36,0,0,1,1.31.42.41.41,0,0,1,0,.1.37.37,0,0,0,0,.12,2.26,2.26,0,0,1,0,.48,3.23,3.23,0,0,0,0,1,1.91,1.91,0,0,0,1,1.44,1.68,1.68,0,0,0,.38.14.93.93,0,0,1,.24.07.85.85,0,0,0,.36,0c.19,0,.21,0,.35-.22.23-.36.25-.37.41-.24s.23.19.32.28a3.07,3.07,0,0,0,.75.5s.06,0,.06,0a2,2,0,0,0,1.18.2,3.73,3.73,0,0,0,.44-1.29.45.45,0,0,1,.06-.23c.06-.07.09-.07.49.12a3.94,3.94,0,0,0,1.58.39.54.54,0,0,0,.46-.33,2.1,2.1,0,0,0,0-.77,1.91,1.91,0,0,1,0-.68s.14,0,.35,0l.82.23a2.55,2.55,0,0,0,1,.11c.41,0,.45,0,.57-.15l.13-.13-.06-.37c0-.2-.07-.54-.11-.76a1.14,1.14,0,0,1,0-.42,1.55,1.55,0,0,1,.43-.08,3.18,3.18,0,0,0,.46-.08.33.33,0,0,1,.15,0c.66-.06.71-.1.69-.72,0-.26,0-.57,0-.68v-.22l.35,0a2.81,2.81,0,0,0,.58-.12,2.9,2.9,0,0,0,.88-.6.46.46,0,0,0,0-.5.17.17,0,0,1-.07-.11,4.82,4.82,0,0,0-.5-.83.6.6,0,0,1-.09-.21c0-.13,0-.17,0-.17a2,2,0,0,0,.64-.26s0,0,.07,0a3.86,3.86,0,0,0,.93-.92.9.9,0,0,0,.22-.5c0-.23,0-.23-.22-.44a3.68,3.68,0,0,0-.47-.36c-.25-.17-.32-.26-.21-.34A2.79,2.79,0,0,0,540,39.89c.19-.38.23-.63.15-.81s-.34-.41-.4-.37,0,0,0,0-.06-.06-.14-.07c-.32-.07-.56-.17-.56-.23a2.65,2.65,0,0,1,.42-.5,2.68,2.68,0,0,0,.58-.78c.34-.67.39-1.26.15-1.57s-.33-.28-1-.25l-.57,0c-.11,0,0-.16.18-.39a4.2,4.2,0,0,0,.76-1.26,2.46,2.46,0,0,0-.11-1.78c-.15-.15-.23-.14-.75.06-.68.25-.72.27-.7.19s.13-.22.26-.41a4.19,4.19,0,0,0,.73-1.86c.06-.85-.35-1.73-.89-1.88l-.17-.05-.42.45a2.1,2.1,0,0,1-.47.43s0-.17.12-.45a6.47,6.47,0,0,0,.44-2.08,3.55,3.55,0,0,0-1-2.48c-.2-.14-.24-.14-.37,0a2.4,2.4,0,0,0-.34.73.81.81,0,0,1-.13.23.44.44,0,0,0-.13.22.45.45,0,0,1-.11.2,3.42,3.42,0,0,0-.42.72A.34.34,0,0,1,535,26a3.76,3.76,0,0,0-.48.73.45.45,0,0,1-.16.16,1.33,1.33,0,0,0-.41.58s-.06.14-.41.57l-.29.33a4,4,0,0,0-.57.77.05.05,0,0,1,0,.05,3,3,0,0,0-.23.26l-.22.28s-.12,0-.23-.06a.6.6,0,0,0-.51-.07c-.23.05-.27.11-.22.31a1.55,1.55,0,0,1-.05.88,5.35,5.35,0,0,1-1.31,1.72s-.1,0-.15-.13a1,1,0,0,0-.23-.26.35.35,0,0,0-.36-.12h-.2l0,.43a1,1,0,0,1-.24.72A9.69,9.69,0,0,1,526.91,35c-.12.1-.41.37-.65.61a3.2,3.2,0,0,1-.63.51,1.58,1.58,0,0,0-.92,1.05,2.94,2.94,0,0,0,0,1.26,1.38,1.38,0,0,0,.56.92,1.34,1.34,0,0,1,.68,1.11,1.44,1.44,0,0,1-.84,1.37,1.12,1.12,0,0,1-.76.17,1.44,1.44,0,0,1-.68-.11,1.39,1.39,0,0,1-.32-.15,1.06,1.06,0,0,1-.36-.39,2.5,2.5,0,0,1,.28-.6,2.88,2.88,0,0,0,.32-1.06.88.88,0,0,0-.25-.8c-.17-.14-.22-.14-.51,0a1.45,1.45,0,0,1-.9.15c-.17,0-.2-.24-.06-.5l.24-.46c.18-.34.19-.57,0-.74s-.19-.14-.41,0a1.28,1.28,0,0,1-.44.12.75.75,0,0,1-.82-.38,2,2,0,0,1-.35-1.2,3.26,3.26,0,0,1,0-1,5.74,5.74,0,0,1,.45-1.45,4.15,4.15,0,0,1,1.22-1.54,1.14,1.14,0,0,1,.37.05c.29.09.35.08.9-.09a2.45,2.45,0,0,1,.81-.12,1.2,1.2,0,0,1,1.06.38,1.09,1.09,0,0,1,.3.72c0,.35.13.49.3.49s.6-.52.66-1.06c0-.3,0-.32.12-.31a1.94,1.94,0,0,1,.38.17,2.92,2.92,0,0,0,.61.21,1.11,1.11,0,0,0,.65,0,1.75,1.75,0,0,0,1-.48,2.35,2.35,0,0,0,.6-1c0-.13,0-.17-.13-.31l-.14-.16-.32.3a2.34,2.34,0,0,1-.6.43.84.84,0,0,1-.57.11,2.42,2.42,0,0,1-.56-.11,4.33,4.33,0,0,1-1.11-.55c-.09-.09-.09-.11,0-.17a1.32,1.32,0,0,1,.8-.13c.25,0,.34,0,.41.09a.42.42,0,0,0,.14.09s.1.07.16.16.24.26.35.19a1.55,1.55,0,0,0,.42-.74,1.79,1.79,0,0,0,0-1.25,2.29,2.29,0,0,0-1.66-1.21c-.36-.05-.48-.1-.48-.18a.57.57,0,0,0-.13-.2c-.07-.08-.13-.16-.11-.17a4.6,4.6,0,0,1,.58-.08,2.1,2.1,0,0,0,1.35-.49,1.27,1.27,0,0,0,.4-.9,5.38,5.38,0,0,0-.41-2.15c-.15-.5-.15-.55,0-.55a1.5,1.5,0,0,1,.37.14,3.35,3.35,0,0,0,.62.25c.49.14.55.17.7.34s.17.43-.27,1.12a8.92,8.92,0,0,0-.72,1.3l-.18.43a1,1,0,0,0,.25,1,6.24,6.24,0,0,1,.37.58c.17.33.17.46,0,.69a.42.42,0,0,0,.24.62,1.47,1.47,0,0,0,.84-.26c.23-.17.32-.4.4-.93a4.08,4.08,0,0,1,.11-.55.33.33,0,0,1,.36-.14c.19,0,.23.08.45.42s.22.3.32.32.37-.08.56-.57c.25-.67.07-1-.71-1.41-.28-.14-.33-.2-.33-.4s.05-.2.45-.87a4.26,4.26,0,0,0,.32-.69.9.9,0,0,0,0-.88,2.24,2.24,0,0,0-.67-.63,2.5,2.5,0,0,1-.24-.16c-.07-.05-.38-.22-.68-.37a2.67,2.67,0,0,1-1.22-1.05c-.49-.76-.88-1-1.4-.82a5.63,5.63,0,0,0-1.51.95,1.62,1.62,0,0,0-.5.51c-.12.17-.12.2-.12.68a2.78,2.78,0,0,0,.47,1.55,3,3,0,0,1,.38,1.11,1.28,1.28,0,0,1-.21.55,1,1,0,0,1-.77.25l-.38,0,0-.15a4,4,0,0,1,.19-.8,2,2,0,0,0,.12-.61l0-.42-.24-.28c-.38-.44-.48-.52-.59-.52a.47.47,0,0,1-.24-.11,1.15,1.15,0,0,0-.32-.14l-.17,0,0-.22a1.27,1.27,0,0,0-.28-.78.37.37,0,0,1-.1-.27c0-.11,0-.13.22-.15a.57.57,0,0,0,.26-.08,1.05,1.05,0,0,0,.07-.41c0-.33,0-.35-.11-.48a.35.35,0,0,0-.29-.12c-.14,0-.16,0-.16-.1a.42.42,0,0,0-.36-.37,1,1,0,0,0-.43,0c-.23,0-.26.07-.27.3l0,.22H522l0,.22a1.07,1.07,0,0,0,.09.69.41.41,0,0,0,.23.1c.23,0,.23.14,0,.48a1,1,0,0,0-.16.77c.05.28,0,.32-.12.28a2.17,2.17,0,0,0-.95.45,1.37,1.37,0,0,0-.46.93,2.25,2.25,0,0,0,.27,1.11,2.31,2.31,0,0,1,.17.46v.11l-.62,0a3.53,3.53,0,0,1-1.53-.29,2.18,2.18,0,0,1-1.09-1.1c-.06-.22,0-.24.16-.28a.41.41,0,0,0,.37-.45,1.74,1.74,0,0,1,.21-.83,1,1,0,0,1,.28-.26,1,1,0,0,0,.32-.4,2.44,2.44,0,0,1,.26-.41,5.13,5.13,0,0,0,.65-2,1,1,0,0,0-.16-.32,1.11,1.11,0,0,1-.16-.28c0-.22-.12-.41-.46-.75s-.37-.35-.37-.31-.24.14-.31.09,0-.11,0-.11.06,0,0-.09a.1.1,0,0,0-.11-.06s-.13,0-.21-.05-.16-.07-.33,0-.17.07-.24,0-.06-.08,0-.12,0-.06-.08-.06-.15,0-.15.06-.07,0-.15-.07a.69.69,0,0,0-.25-.14.71.71,0,0,0-.59.29c-.08.14-.26.17-.3.07a1.26,1.26,0,0,1,.15-.4,1.05,1.05,0,0,0,.18-.53.76.76,0,0,0-.25-.58.57.57,0,0,1-.16-.35c0-.16,0-.16.19-.21s.33-.22.3-.62-.14-.49-.35-.49-.14,0-.19-.15a.64.64,0,0,0-.33-.34q-.1-.06-.12,0a.06.06,0,0,1-.06,0s0,0,0,0S515.5,14.48,515.27,14.52Zm.31,10.16c.07.09.21.27.32.43s.4.47.64.72a3,3,0,0,0,.84.65c.4.2.49.31.27.31-.38,0-.25.43.32,1a4,4,0,0,1,.34.37.6.6,0,0,1-.21.08c-.28.07-.37.17-.33.36a.57.57,0,0,0,.09.24c.09.14.08.16-.17.36a1.53,1.53,0,0,1-1.48.33,1.12,1.12,0,0,0-.42-.05.74.74,0,0,0,0,.24c0,.34.27.72.78,1.09l.13.09-.1.24a4,4,0,0,0-.17.41c0,.09-.09.23-.12.31a.74.74,0,0,0-.07.18,15,15,0,0,1-.67,1.84c-.13.3-.1.34-.63-.87-.13-.27-.27-.6-.31-.72s-.2-.45-.33-.72A2.45,2.45,0,0,1,514,31a.56.56,0,0,1,.19-.14c.44-.22.91-.83.88-1.12a.3.3,0,0,0-.13-.2c-.09-.07-.14-.07-.35,0a2.23,2.23,0,0,1-1,0,1.49,1.49,0,0,1-.39-.14.42.42,0,0,0-.15-.06.18.18,0,0,1-.11-.05l-.19-.15-.13-.1.17-.24a.91.91,0,0,0,.16-.32c0-.1-.25-.37-.35-.37s-.13-.14.09-.39.45-.62.41-.89,0-.29.42-.54a5.71,5.71,0,0,0,1.36-1.24c.4-.51.42-.53.49-.53A.39.39,0,0,1,515.58,24.68Zm-20.1,23.49c.09,0,.09,0,.09.51a5.73,5.73,0,0,0,0,.69c0,.25.17.49.24.46a1.31,1.31,0,0,1,.31,0c.27,0,.76,0,.78-.09a.14.14,0,0,1,.11,0,.76.76,0,0,0,.25-.09,1.21,1.21,0,0,1,.28-.14l.13,0,0,.27a2.33,2.33,0,0,0,.1,1.15l.12.43.22.12a1.24,1.24,0,0,0,.67.1c.43,0,.48,0,.69-.12a2.73,2.73,0,0,0,.5-.4,1.61,1.61,0,0,1,.3-.29s.05.1.06.21a3.26,3.26,0,0,0,.24,1c.19.4.44.49,1,.35a3,3,0,0,0,.43-.16,3.67,3.67,0,0,0,.88-.82c.19-.25.29-.29.37-.13l.16.32a2,2,0,0,0,.7.7.74.74,0,0,0,.73-.12,2.1,2.1,0,0,0,.76-.78,2.15,2.15,0,0,0,.25-.81,2.92,2.92,0,0,0,.09-1,3,3,0,0,1,.07-.76.47.47,0,0,1,.11-.19c.07-.07.12-.08.36-.06a1.16,1.16,0,0,0,.55-.06c.37-.12.43-.12.56,0s.29.47.29,1.07a2.27,2.27,0,0,1-.11.9,5.45,5.45,0,0,1-.21.52.78.78,0,0,0-.09.72l.09.21-.18.12a2.58,2.58,0,0,1-1,.29.34.34,0,0,0-.29.14c-.1.13-.17.16-.6.25a3.45,3.45,0,0,0-.63.18.84.84,0,0,1-.19.08,1.32,1.32,0,0,0-.28.16,2.44,2.44,0,0,0-.75,1,2.62,2.62,0,0,0-.06,1.35,3.81,3.81,0,0,1,0,1.12c0,.37-.14.46-.51.46s-.3,0-.37.11c-.28.44.4,1.21,1.2,1.36.27,0,.32.09.32.26s.45.7.88.78a1.19,1.19,0,0,1,.49.18c0,.05-.26.15-.42.15a.53.53,0,0,0-.19.05l-.3.08-.75.16a1.37,1.37,0,0,1-.81.05c-.47-.11-.5-.13-.8-.58-.48-.74-.89-1-1.37-1a1.24,1.24,0,0,0-.33.09.26.26,0,0,1-.4-.07,1.38,1.38,0,0,0-.27-.29c-.11-.09-.19-.18-.19-.21a1.07,1.07,0,0,0-.3-.52q-.09,0-.12-.18a1.5,1.5,0,0,0-.37-.72,1.25,1.25,0,0,1-.25-.43,1.41,1.41,0,0,0-.19-.4,2.83,2.83,0,0,1-.24-.42,6.48,6.48,0,0,0-.39-.88c-.08-.13-1.72-3.4-1.86-3.7l-.09-.17s-.14-.28-.27-.54a3.8,3.8,0,0,0-.28-.51.34.34,0,0,1-.08-.17c0-.06-.13-.3-.24-.53-.25-.52-.28-.71-.14-.81A.82.82,0,0,1,495.48,48.17Zm24.07,8.09a1.69,1.69,0,0,1,.83.37c.15.14.36.48.33.52s0,.06,0,.1a1.14,1.14,0,0,1-.15.67c-.12.18-.33.23-.64.14s-.5-.06-.59.11a.56.56,0,0,0,0,.58,1.69,1.69,0,0,0,1,.53c.3,0,.53.15.52.21s-.1.58-.15.82a.48.48,0,0,0,.23.55,3.68,3.68,0,0,0,.83.11,3.93,3.93,0,0,1,1.49.27.46.46,0,0,1,0,.41.64.64,0,0,0-.06.33.89.89,0,0,1-.26.66.74.74,0,0,1-.28.11.78.78,0,0,1-.51-.13,3.43,3.43,0,0,1-.6-.39,3.67,3.67,0,0,0-.49-.34,3.67,3.67,0,0,1-.52-.38,3,3,0,0,0-.36-.28c-.05,0-.16-.08-.39-.3a1.67,1.67,0,0,0-.24-.16,1.09,1.09,0,0,1-.34-.6,1.14,1.14,0,0,0-.37-.64l-.28-.2-.25-.18a.45.45,0,0,1-.15-.11s0,0-.06,0a1.55,1.55,0,0,1-.72-1.33,1.13,1.13,0,0,1,.21-.63,1.87,1.87,0,0,1,1.94-.78Zm-8,6.34-.26.41c-.1.16-.23.35-.27.4a2.38,2.38,0,0,0-.25.42c-.16.33-.27.42-.27.24a2.32,2.32,0,0,1,.41-.86.21.21,0,0,0,.08-.11.47.47,0,0,1,.1-.13l.26-.28C511.49,62.49,511.63,62.43,511.52,62.6Zm2.09,1.23c-.06.29-.16.73-.22,1a3.63,3.63,0,0,0-.16,1.49.49.49,0,0,0,.1.24s0,.11,0,.24-.06.33-.11.17a1.77,1.77,0,0,0-.06-.17,2.44,2.44,0,0,1-.14-.92,11,11,0,0,1,.4-2.08,1.53,1.53,0,0,1,.24-.48A5.32,5.32,0,0,1,513.61,63.83Zm3.39.32c0,.16.12.37.16.46a4.4,4.4,0,0,1,.05,1.79c-.08,0-.13-.24-.22-.94,0-.39-.11-.84-.14-1a2.86,2.86,0,0,1-.07-.54c0-.23,0-.24.07-.16A1.4,1.4,0,0,1,517,64.15Zm-7,1.42s0,0-.06.11-.2.13-.2,0,0-.13.1-.11A.55.55,0,0,0,510,65.57Zm10.59.72a.11.11,0,0,1-.05.12.16.16,0,0,0-.07.13c0,.11-.08.26-.14.26a1,1,0,0,1,0-.57C520.4,66.15,520.56,66.2,520.58,66.29Z"/><path id="svg_3" data-name="svg 3" class="cls-4" d="M504,30.13a1,1,0,0,0,.24,0c.06,0,0,0-.13,0S503.94,30.12,504,30.13Z"/><path id="svg_4" data-name="svg 4" class="cls-4" d="M504.49,30.17h.13s0,0-.08,0S504.44,30.16,504.49,30.17Z"/></g></g></svg>