<svg id="Слой_1" data-name="Слой 1" xmlns="http://www.w3.org/2000/svg" viewBox="0 0 720 720">
    <defs>
        <style>.cls-1{fill:#22333b;}.cls-2{fill:#ff5714;}</style>
    </defs>
    <circle class="cls-1" cx="360" cy="360" r="95"/>
    <path class="cls-2"
          d="M360,720A360.07,360.07,0,0,1,219.85,28.32,359.71,359.71,0,0,1,589.68,82.78a70,70,0,1,1-89.36,107.77A220.23,220.23,0,0,0,360,140c-121.31,0-220,98.69-220,220s98.69,220,220,220a220.23,220.23,0,0,0,140.32-50.55,70,70,0,0,1,89.37,107.77A358.92,358.92,0,0,1,360,720Z"/>
</svg>