<svg id="Слой_2" data-name="Слой 2" xmlns="http://www.w3.org/2000/svg" viewBox="0 0 160 160"><defs><style>.cls-1{fill:#22333b;}</style></defs><path class="cls-1" d="M29.56,129.9c-8.32,0-13.62-12.87-13.62-19.6a13.62,13.62,0,0,1,27.24,0C43.18,117,37.87,129.9,29.56,129.9Zm0-28.17A8.59,8.59,0,0,0,21,110.3c0,5.62,4.69,14.55,8.58,14.55s8.57-8.93,8.57-14.55A8.58,8.58,0,0,0,29.56,101.73Z"/><path class="cls-1" d="M2.52,159.7l-.31,0A2.52,2.52,0,0,1,0,156.86c1.7-13.67,7.12-21.47,17.58-25.29l.3-.09c4.89-1.13,8.67-.51,11.66,1.94,3-2.45,6.76-3.07,11.66-1.94l.3.09c7.87,2.87,13,8.21,15.66,16.31a2.52,2.52,0,0,1-4.79,1.58c-2.17-6.58-6.13-10.75-12.45-13.1-4.64-1-6.72.12-8.38,2.19a2.62,2.62,0,0,1-.22.25,2.35,2.35,0,0,1-.69.49,2.45,2.45,0,0,1-1.09.25h0a2.48,2.48,0,0,1-1.09-.25,2.35,2.35,0,0,1-.69-.49,2.73,2.73,0,0,1-.23-.25c-1.65-2.07-3.73-3.22-8.37-2.19-8.47,3.15-12.7,9.48-14.16,21.13A2.52,2.52,0,0,1,2.52,159.7Z"/><path class="cls-1" d="M17.44,159a2.52,2.52,0,0,1-2.53-2.52v-5.92a2.53,2.53,0,1,1,5.05,0v5.92A2.52,2.52,0,0,1,17.44,159Z"/><path class="cls-1" d="M41.68,159a2.52,2.52,0,0,1-2.52-2.52v-5.92a2.52,2.52,0,1,1,5,0v5.92A2.52,2.52,0,0,1,41.68,159Z"/><path class="cls-1" d="M80,129.9c-8.31,0-13.62-12.87-13.62-19.6a13.62,13.62,0,0,1,27.24,0C93.62,117,88.31,129.9,80,129.9Zm0-28.17a8.59,8.59,0,0,0-8.58,8.57c0,5.62,4.69,14.55,8.58,14.55s8.58-8.93,8.58-14.55A8.59,8.59,0,0,0,80,101.73Z"/><path class="cls-1" d="M54.78,151.19a2.71,2.71,0,0,1-.79-.12,2.54,2.54,0,0,1-1.61-3.19c2.67-8.1,7.79-13.43,15.66-16.31l.3-.09C73.23,130.35,77,131,80,133.42c3-2.45,6.77-3.07,11.66-1.94l.3.09c7.87,2.88,13,8.21,15.66,16.31a2.52,2.52,0,0,1-4.79,1.58c-2.17-6.58-6.13-10.75-12.45-13.1-4.64-1-6.72.12-8.38,2.19a1.71,1.71,0,0,1-.22.25,2.35,2.35,0,0,1-.69.49,2.45,2.45,0,0,1-1.09.25h0a2.48,2.48,0,0,1-1.09-.25,2.35,2.35,0,0,1-.69-.49,1.71,1.71,0,0,1-.22-.25c-1.66-2.07-3.74-3.22-8.38-2.19-6.32,2.35-10.28,6.52-12.45,13.1A2.51,2.51,0,0,1,54.78,151.19Z"/><path class="cls-1" d="M67.88,159a2.52,2.52,0,0,1-2.52-2.52v-5.92a2.52,2.52,0,1,1,5,0v5.92A2.52,2.52,0,0,1,67.88,159Z"/><path class="cls-1" d="M92.12,159a2.52,2.52,0,0,1-2.52-2.52v-5.92a2.52,2.52,0,1,1,5,0v5.92A2.52,2.52,0,0,1,92.12,159Z"/><path class="cls-1" d="M130.44,129.9c-8.31,0-13.62-12.87-13.62-19.6a13.62,13.62,0,0,1,27.24,0C144.06,117,138.76,129.9,130.44,129.9Zm0-28.17a8.58,8.58,0,0,0-8.57,8.57c0,5.62,4.68,14.55,8.57,14.55S139,115.92,139,110.3A8.59,8.59,0,0,0,130.44,101.73Z"/><path class="cls-1" d="M157.48,159.7a2.52,2.52,0,0,1-2.5-2.21c-1.46-11.65-5.69-18-14.16-21.13-4.64-1-6.72.12-8.37,2.19a2.73,2.73,0,0,1-.23.25,2.31,2.31,0,0,1-.68.49,2.52,2.52,0,0,1-1.1.25h0a2.48,2.48,0,0,1-1.09-.25,2.35,2.35,0,0,1-.69-.49,1.71,1.71,0,0,1-.22-.25c-1.66-2.07-3.74-3.22-8.38-2.19-6.32,2.35-10.28,6.52-12.45,13.1a2.52,2.52,0,0,1-4.79-1.58c2.67-8.1,7.79-13.44,15.66-16.31l.3-.09c4.9-1.13,8.67-.51,11.66,1.94,3-2.45,6.77-3.07,11.66-1.94l.3.09c10.46,3.82,15.88,11.62,17.58,25.29a2.52,2.52,0,0,1-2.19,2.82Z"/><path class="cls-1" d="M118.32,159a2.52,2.52,0,0,1-2.52-2.52v-5.92a2.52,2.52,0,1,1,5,0v5.92A2.52,2.52,0,0,1,118.32,159Z"/><path class="cls-1" d="M142.56,159a2.52,2.52,0,0,1-2.52-2.52v-5.92a2.53,2.53,0,1,1,5.05,0v5.92A2.52,2.52,0,0,1,142.56,159Z"/><path class="cls-1" d="M54.78,159.7a2.52,2.52,0,0,1-2.52-2.52v-8.51a2.52,2.52,0,0,1,5,0v8.51A2.52,2.52,0,0,1,54.78,159.7Z"/><path class="cls-1" d="M105.22,159.7a2.52,2.52,0,0,1-2.52-2.52v-8.51a2.52,2.52,0,0,1,5,0v8.51A2.52,2.52,0,0,1,105.22,159.7Z"/><path class="cls-1" d="M74,83.43l2.78-11c-21.27-1.22-42.19-14.5-42.19-36C34.6,16.5,55,.3,80,.3s45.4,16.2,45.4,36.12c0,34.28-45.4,45.57-47.33,46ZM80,5.35c-22.25,0-40.35,13.94-40.35,31.07,0,19.45,20.51,31.07,40.35,31.07h3.24L81,76.33c10.84-3.56,39.34-15.25,39.34-39.91C120.35,19.29,102.25,5.35,80,5.35Z"/></svg>