<svg id="Слой_2" data-name="Слой 2" xmlns="http://www.w3.org/2000/svg" viewBox="0 0 160 160"><defs><style>.cls-1{fill:#22333b;}</style></defs><path class="cls-1" d="M2.52,144.48a2.52,2.52,0,0,1-2.47-3l18.2-90A2.5,2.5,0,0,1,20,49.58c17.93-5,37.72-5,60.5,0a2.52,2.52,0,0,1,2,2.46v87.12a2.53,2.53,0,0,1-3.34,2.38L46,130.06,3.32,144.35A2.53,2.53,0,0,1,2.52,144.48ZM22.87,54l-17,84.17L45.16,125a2.5,2.5,0,0,1,1.62,0l30.7,10.57V54C57,49.8,39.09,49.79,22.87,54Z"/><path class="cls-1" d="M46,129.92l-.26,0a2.51,2.51,0,0,1-2.24-2.76l3.81-36.4a2.51,2.51,0,1,1,5,.52l-3.81,36.4A2.51,2.51,0,0,1,46,129.92Z"/><path class="cls-1" d="M157.48,144.48a2.53,2.53,0,0,1-.8-.13l-42.63-14.29L80.82,141.5a2.53,2.53,0,0,1-3.34-2.38V52h5v83.59L113.22,125a2.5,2.5,0,0,1,1.62,0l39.32,13.17L136.82,52.5l4.93-1,18.2,90a2.52,2.52,0,0,1-2.47,3Z"/><path class="cls-1" d="M114,129.92a2.51,2.51,0,0,1-2.5-2.26l-3.81-36.4a2.51,2.51,0,0,1,5-.52l3.81,36.4a2.51,2.51,0,0,1-2.24,2.76Z"/><path class="cls-1" d="M109.64,88l-1.56-1.24C106.81,85.73,77,61.87,77,44.2a32.68,32.68,0,1,1,65.36,0c0,17.67-29.85,41.53-31.12,42.53Zm0-71.42A27.67,27.67,0,0,0,82,44.2c0,11.91,18.67,29.87,27.64,37.32,9-7.45,27.65-25.41,27.65-37.32A27.68,27.68,0,0,0,109.64,16.55Z"/><path class="cls-1" d="M109.64,54a11.88,11.88,0,1,1,11.88-11.87A11.88,11.88,0,0,1,109.64,54Zm0-18.72a6.85,6.85,0,1,0,6.85,6.85A6.85,6.85,0,0,0,109.64,35.27Z"/></svg>