<svg id="Слой_2" data-name="Слой 2" xmlns="http://www.w3.org/2000/svg" viewBox="0 0 160 160"><defs><style>.cls-1{fill:#22333b;}</style></defs><path class="cls-1" d="M42,11a2.5,2.5,0,0,1-2.5-2.5v-6a2.5,2.5,0,0,1,5,0v6A2.5,2.5,0,0,1,42,11Z"/><path class="cls-1" d="M52,11a2.5,2.5,0,0,1-2.5-2.5v-6a2.5,2.5,0,0,1,5,0v6A2.5,2.5,0,0,1,52,11Z"/><path class="cls-1" d="M62,11a2.5,2.5,0,0,1-2.5-2.5v-6a2.5,2.5,0,0,1,5,0v6A2.5,2.5,0,0,1,62,11Z"/><path class="cls-1" d="M72,11a2.5,2.5,0,0,1-2.5-2.5v-6a2.5,2.5,0,0,1,5,0v6A2.5,2.5,0,0,1,72,11Z"/><path class="cls-1" d="M86,160H30a12.52,12.52,0,0,1-12.5-12.5l-2-120A12.53,12.53,0,0,1,28,15h3a2.5,2.5,0,0,1,0,5H28a7.5,7.5,0,0,0-7.5,7.5l2,120A7.51,7.51,0,0,0,30,155H86a7.5,7.5,0,0,0,7.5-7.5l2-120A7.49,7.49,0,0,0,88,20H83a2.5,2.5,0,0,1,0-5h5a12.52,12.52,0,0,1,12.5,12.5l-2,120A12.51,12.51,0,0,1,86,160Z"/><path class="cls-1" d="M90.5,83h-66V46h66Zm-61-5h56V51h-56Z"/><path class="cls-1" d="M69,71H55a2.5,2.5,0,0,1,0-5H69a2.5,2.5,0,0,1,0,5Z"/><circle class="cls-1" cx="78" cy="69.5" r="4"/><path class="cls-1" d="M44.8,105h-16V89h16Zm-13-3h10V92h-10Z"/><path class="cls-1" d="M66.05,105h-16V89h16Zm-13-3h10V92h-10Z"/><path class="cls-1" d="M87.3,105h-16V89h16Zm-13-3h10V92h-10Z"/><path class="cls-1" d="M44.8,127h-16V111h16Zm-13-3h10V114h-10Z"/><path class="cls-1" d="M66.05,127h-16V111h16Zm-13-3h10V114h-10Z"/><path class="cls-1" d="M87.3,127h-16V111h16Zm-13-3h10V114h-10Z"/><path class="cls-1" d="M44.8,148h-16V132h16Zm-13-3h10V135h-10Z"/><path class="cls-1" d="M66.05,148h-16V132h16Zm-13-3h10V135h-10Z"/><path class="cls-1" d="M87.3,148h-16V132h16Zm-13-3h10V135h-10Z"/><path class="cls-1" d="M88,41H27a2.5,2.5,0,0,1,0-5H88a2.5,2.5,0,0,1,0,5Z"/><path class="cls-1" d="M85.5,41h-57V0h57Zm-52-5h47V5h-47Z"/><path class="cls-1" d="M74,21H42a2.5,2.5,0,0,1,0-5H74a2.5,2.5,0,0,1,0,5Z"/><rect class="cls-1" x="68.5" y="26.33" width="8" height="5.33"/><path class="cls-1" d="M132,115H99a2.5,2.5,0,0,1,0-5h33a7.5,7.5,0,0,0,7.5-7.5v-61A7.5,7.5,0,0,0,132,34H99a2.5,2.5,0,0,1,0-5h33a12.52,12.52,0,0,1,12.5,12.5v61A12.52,12.52,0,0,1,132,115Z"/><path class="cls-1" d="M123,60a10.41,10.41,0,0,1-6.42-2.19,1.5,1.5,0,1,1,1.83-2.37,7.5,7.5,0,1,0,0-11.88,1.5,1.5,0,1,1-1.84-2.37A10.5,10.5,0,1,1,123,60Z"/><path class="cls-1" d="M112,60a10.5,10.5,0,1,1,10.5-10.5A10.51,10.51,0,0,1,112,60Zm0-18a7.5,7.5,0,1,0,7.5,7.5A7.5,7.5,0,0,0,112,42Z"/><rect class="cls-1" x="107" y="65.5" width="5" height="27"/><rect class="cls-1" x="106.5" y="98" width="6" height="4"/></svg>