<svg id="Слой_2" data-name="Слой 2" xmlns="http://www.w3.org/2000/svg" viewBox="0 0 160 160"><defs><style>.cls-1{fill:#22333b;}</style></defs><path class="cls-1" d="M157.58,156.41a2.4,2.4,0,0,1-1.69-.68L57.18,60.59l-53,53A2.42,2.42,0,0,1,.71,110.2L57.12,53.79l102.14,98.45a2.43,2.43,0,0,1-1.68,4.17Z"/><path class="cls-1" d="M157.58,112.86a2.41,2.41,0,0,1-1.64-.64L117.37,77.05l-20,19.06A2.43,2.43,0,1,1,94,92.6L117.3,70.42l41.91,38.22a2.43,2.43,0,0,1-1.63,4.22Z"/><path class="cls-1" d="M97.94,142.1H28.37l-.6-.39c-2.83-1.84-7.62-5.8-7.89-11.62-.28-6,4.63-10.18,7.57-12.69l1-.86c8-7.12,18-8.12,26.79-9,7.8-.77,14-1.39,16.31-5.84a9,9,0,0,0,.78-6c-1.23-4.52-7.74-7-13.47-9.2S47.43,82.15,48,77.33c.34-2.85,2.36-5.4,6-7.6a2.42,2.42,0,1,1,2.51,4.14c-2.23,1.35-3.55,2.79-3.7,4C52.7,79,58,81,60.59,82,67.07,84.46,75.13,87.54,77,94.43A13.81,13.81,0,0,1,75.84,104c-3.56,6.76-11.61,7.56-20.12,8.41-8.09.8-17.25,1.72-24,7.78-.32.29-.68.6-1.07.93-2.55,2.19-6,5.18-5.88,8.79.16,3.4,3.28,6.09,5.11,7.38H97.94a2.43,2.43,0,0,1,0,4.85Z"/><path class="cls-1" d="M56.24,50a2.42,2.42,0,0,1-2.42-2.42V8.77a2.43,2.43,0,1,1,4.85,0V47.56A2.42,2.42,0,0,1,56.24,50Z"/><path class="cls-1" d="M88.24,15.07h-32a2.43,2.43,0,0,1,0-4.85h32a2.43,2.43,0,1,1,0,4.85Z"/><path class="cls-1" d="M88.24,34.47h-32a2.43,2.43,0,0,1,0-4.85h32a2.43,2.43,0,1,1,0,4.85Z"/><path class="cls-1" d="M88.24,34.47A2.42,2.42,0,0,1,85.82,32V12.65a2.43,2.43,0,1,1,4.85,0V32A2.43,2.43,0,0,1,88.24,34.47Z"/></svg>