<svg id="Слой_1" data-name="Слой 1" xmlns="http://www.w3.org/2000/svg" viewBox="0 0 100 100"><defs><style>.cls-1{fill:#ff5714;}.cls-2{fill:#f2f4f3;}</style></defs><circle class="cls-1" cx="50" cy="50" r="50"/><path class="cls-2" d="M68.62,61H33.21a1.33,1.33,0,0,1-1.3-1L26.29,34.39a1.33,1.33,0,0,1,.27-1.12,1.31,1.31,0,0,1,1-.5H75.67a1.33,1.33,0,0,1,1,.44,1.36,1.36,0,0,1,.33,1L74.65,55.6A6.06,6.06,0,0,1,68.62,61ZM34.28,58.34H68.62a3.39,3.39,0,0,0,3.38-3l2.18-19.87H29.25Z"/><path class="cls-2" d="M53,61a1.34,1.34,0,0,1-1.33-1.33V34.1a1.34,1.34,0,0,1,2.67,0V59.67A1.34,1.34,0,0,1,53,61Z"/><path class="cls-2" d="M62.86,61h-.11a1.32,1.32,0,0,1-1.22-1.43L63.63,34a1.33,1.33,0,0,1,2.66.21L64.18,59.78A1.33,1.33,0,0,1,62.86,61Z"/><path class="cls-2" d="M43.21,61a1.33,1.33,0,0,1-1.32-1.19L39.08,34.25A1.33,1.33,0,0,1,41.73,34l2.81,25.57A1.34,1.34,0,0,1,43.36,61Z"/><path class="cls-2" d="M74.26,48.22H30.4a1.33,1.33,0,1,1,0-2.66H74.26a1.33,1.33,0,1,1,0,2.66Z"/><path class="cls-2" d="M39.81,74.44A5.14,5.14,0,1,1,45,69.31,5.13,5.13,0,0,1,39.81,74.44Zm0-7.6a2.47,2.47,0,1,0,2.47,2.47A2.47,2.47,0,0,0,39.81,66.84Z"/><path class="cls-2" d="M65.77,74.44a5.14,5.14,0,1,1,5.14-5.13A5.13,5.13,0,0,1,65.77,74.44Zm0-7.6a2.47,2.47,0,1,0,2.47,2.47A2.47,2.47,0,0,0,65.77,66.84Z"/><path class="cls-2" d="M36.45,68.87H34.33a5.27,5.27,0,0,1,0-10.53,1.34,1.34,0,1,1,0,2.67,2.6,2.6,0,0,0,0,5.19h2.12a1.34,1.34,0,0,1,0,2.67Z"/><path class="cls-2" d="M62.41,68.87H43.21a1.34,1.34,0,0,1,0-2.67h19.2a1.34,1.34,0,0,1,0,2.67Z"/><path class="cls-2" d="M71.83,68.87H69.58a1.34,1.34,0,1,1,0-2.67h2.25a1.34,1.34,0,1,1,0,2.67Z"/><path class="cls-2" d="M27.6,35.44a1.35,1.35,0,0,1-1.31-1l-.37-1.72a5.7,5.7,0,0,0-5.53-4.45H18.33a1.33,1.33,0,0,1,0-2.66h2.06a8.37,8.37,0,0,1,8.13,6.54l.38,1.72a1.33,1.33,0,0,1-1.3,1.62Z"/></svg>