<svg id="Слой_1" data-name="Слой 1" xmlns="http://www.w3.org/2000/svg" viewBox="0 0 100 100"><defs><style>.cls-1{fill:#ff5714;}.cls-2{fill:#f2f4f3;}</style></defs><circle class="cls-1" cx="50" cy="50" r="50"/><path class="cls-2" d="M56.46,71.94V71c2.19,0,4.65-3,6.11-5.62,4.3-.58,10.59-5.76,10.63-11.61a4.5,4.5,0,0,0-1.67-3.92c-1.54-1.14-3.63-.91-5.18-.54.05-1.21,0-2.29,0-3.13H62.58a10.62,10.62,0,0,1,1.76-2.54c.36-.8,4.09-9.25,4.09-9.25h0l0,0c.33-.74.33-1.47-.42-1.8l-.21-.1a1.33,1.33,0,0,0-1.78.84,0,0,0,0,0,0,0h0l-4.09,9.24a12.56,12.56,0,0,1-.84,3.62H32.67c-.3,5.69,1.88,24.1,10.21,24.81v1H26.79V75H73.21V71.94ZM38.78,63.62C37,59.44,35.66,48.11,35.66,48.11s3.68,10.18,4.51,13,4.5,6.83,4.5,6.83A7.06,7.06,0,0,1,38.78,63.62Zm27.34-11c1.81-.55,3-.65,3.53-.27.33.24.39.86.38,1.34,0,3.25-3.1,6.34-5.74,7.74A40.69,40.69,0,0,0,66.12,52.66Z"/><polygon class="cls-2" points="49.67 21.25 49.67 21.25 49.68 21.27 49.67 21.25"/><path class="cls-2" d="M40.07,30.88a5.3,5.3,0,0,0,.59.83l.51.63a4.3,4.3,0,0,1,.32.6,5.21,5.21,0,0,1,.41,1.39A13.89,13.89,0,0,1,42,37.26c-.12,1.8-.29,3.12-.29,3.12a8.87,8.87,0,0,0,1.73-2.78A8.66,8.66,0,0,0,44,36a7.88,7.88,0,0,0,.22-1.88A6.05,6.05,0,0,0,43.82,32,8.54,8.54,0,0,0,43.31,31a3.91,3.91,0,0,0-.35-.48l-.18-.24-.1-.12,0,0,.07.07h0l0-.05a3.83,3.83,0,0,1-.51-.67,2.48,2.48,0,0,1-.26-.54,5.81,5.81,0,0,1-.38-1.42,15.43,15.43,0,0,1-.09-2.94c.12-1.81.27-3.14.27-3.14a10.1,10.1,0,0,0-2.46,6.21,6.16,6.16,0,0,0,.31,2.12A5.15,5.15,0,0,0,40.07,30.88Z"/><path class="cls-2" d="M45.75,24.47a7.29,7.29,0,0,0,.59.84l.52.62a5.7,5.7,0,0,1,.32.6,5.6,5.6,0,0,1,.4,1.39,13.94,13.94,0,0,1,.12,2.93c-.12,1.81-.3,3.12-.3,3.12a8.77,8.77,0,0,0,1.74-2.78,9.54,9.54,0,0,0,.5-1.56,7.42,7.42,0,0,0,.21-1.88,6,6,0,0,0-.35-2.12,8,8,0,0,0-.5-1.07c-.1-.17-.23-.32-.35-.49l-.19-.24-.09-.12,0,0s0,0,0,.06l0,0a5.18,5.18,0,0,1-.51-.67,3.1,3.1,0,0,1-.25-.54,5.4,5.4,0,0,1-.38-1.42,15.43,15.43,0,0,1-.09-2.94c.12-1.81.27-3.13.27-3.13a9.12,9.12,0,0,0-1.72,2.79,9.2,9.2,0,0,0-.74,3.41,6.23,6.23,0,0,0,.3,2.13A5.58,5.58,0,0,0,45.75,24.47Z"/><path class="cls-2" d="M52.78,30.28a5.49,5.49,0,0,0,.59.83l.51.63a3.8,3.8,0,0,1,.32.6,5.61,5.61,0,0,1,.41,1.39,13.84,13.84,0,0,1,.11,2.92c-.12,1.82-.29,3.13-.29,3.13A8.66,8.66,0,0,0,56.16,37a8.16,8.16,0,0,0,.5-1.56,7.88,7.88,0,0,0,.22-1.88,6.05,6.05,0,0,0-.35-2.13A7.32,7.32,0,0,0,56,30.37c-.1-.17-.23-.32-.35-.49l-.18-.24-.09-.11,0,0s0,0,.07.08v0l0,0a3.83,3.83,0,0,1-.51-.67,2.48,2.48,0,0,1-.26-.54,5.81,5.81,0,0,1-.38-1.42,15.43,15.43,0,0,1-.09-2.94c.12-1.81.27-3.13.27-3.13a9,9,0,0,0-1.71,2.79A9,9,0,0,0,52,27a6.43,6.43,0,0,0,.3,2.12A5.92,5.92,0,0,0,52.78,30.28Z"/></svg>