<svg id="Слой_1" data-name="Слой 1" xmlns="http://www.w3.org/2000/svg" viewBox="0 0 100 100"><defs><style>.cls-1{fill:#ff5714;}.cls-2{fill:#f2f4f3;}</style></defs><circle class="cls-1" cx="50" cy="50" r="50"/><path class="cls-2" d="M75.78,69V41.05a1.5,1.5,0,0,0-1.5-1.5H65.8V33.12a1.5,1.5,0,0,0-1.5-1.5H57.83V29.51a7.83,7.83,0,1,0-15.66,0v2.11H35.7a1.5,1.5,0,0,0-1.5,1.5v6.43H25.72a1.5,1.5,0,0,0-1.5,1.5V69A4.3,4.3,0,0,0,20,73.29V74a4.31,4.31,0,0,0,4.3,4.3H75.7A4.31,4.31,0,0,0,80,74v-.73A4.3,4.3,0,0,0,75.78,69ZM35.7,63.39H64.3a1.5,1.5,0,0,0,1.5-1.5V47.67h2.28v21H31.92v-21H34.2V61.89A1.5,1.5,0,0,0,35.7,63.39ZM72.78,42.55V68.68h-1.7V46.17a1.5,1.5,0,0,0-1.5-1.5H65.8V42.55Zm-27.61-13a4.83,4.83,0,1,1,9.66,0v2.11H45.17Zm-8,5.11h5v2.57a1.5,1.5,0,0,0,3,0V34.62h9.66v2.57a1.5,1.5,0,0,0,3,0V34.62h5V60.39H37.2Zm-10,7.93h7v2.12H30.42a1.5,1.5,0,0,0-1.5,1.5V68.68h-1.7V42.55ZM77,74a1.3,1.3,0,0,1-1.3,1.3H24.3A1.3,1.3,0,0,1,23,74v-.73A1.3,1.3,0,0,1,24.3,72H75.7a1.3,1.3,0,0,1,1.3,1.3Z"/><polygon class="cls-2" points="54.38 50.72 44.65 46.82 48.54 56.57 49.49 53.62 53.41 57.55 55.35 55.6 51.43 51.67 54.38 50.72"/></svg>