<svg xmlns="http://www.w3.org/2000/svg" viewBox="0 0 750 400">
    <defs>
        <style>
            .cls-1{fill:#f2f4f3;}.cls-2{fill:#22333b;}.cls-3{fill:#ff5714;}.cls-4{opacity:0.5;}.cls-5{fill:none;}.cls-6{fill:#e6ede5;}
        </style>
    </defs>
    <g id="Слой_2" data-name="Слой 2">
        <rect class="cls-1" width="750" height="400"/>
        <circle class="cls-2" cx="49.87" cy="50.13" r="7.49"/>
        <path class="cls-3"
              d="M49.87,78.5A28.37,28.37,0,1,1,68,28.28a5.52,5.52,0,1,1-7,8.5,17.34,17.34,0,1,0,0,26.7A5.52,5.52,0,0,1,68,72a28.21,28.21,0,0,1-18.1,6.52Z"/>
        <g class="cls-4">
            <polygon class="cls-5" points="750 266.6 750 255.51 747.08 266.6 750 266.6"/>
            <polygon class="cls-5" points="750 133.3 750 122.21 747.08 133.3 750 133.3"/>
            <polygon class="cls-5"
                     points="570.66 266.7 605.75 133.4 570.66 133.4 605.77 0 570.66 0 535.58 133.3 570.66 133.3 535.58 266.6 570.66 266.6 535.55 400 570.66 400 605.75 266.7 570.66 266.7"/>
            <polygon class="cls-5"
                     points="711.66 266.7 746.75 133.4 711.66 133.4 746.77 0 711.66 0 676.58 133.3 711.66 133.3 676.58 266.6 711.66 266.6 676.55 400 711.66 400 746.75 266.7 711.66 266.7"/>
            <polygon class="cls-5"
                     points="641.16 266.7 676.25 133.4 641.16 133.4 676.27 0 641.16 0 606.08 133.3 641.16 133.3 606.08 266.6 641.16 266.6 606.05 400 641.16 400 676.25 266.7 641.16 266.7"/>
            <polygon class="cls-5" points="747.05 400 750 400 750 388.81 747.05 400"/>
            <polygon class="cls-5"
                     points="500.17 266.7 535.25 133.4 500.17 133.4 535.27 0 0 0 0 400 359.17 400 394.28 266.6 429.67 266.6 394.56 400 429.67 400 464.75 266.7 429.67 266.7 464.77 133.3 500.17 133.3 465.08 266.6 500.17 266.6 465.06 400 500.17 400 535.25 266.7 500.17 266.7"/>
            <polygon class="cls-3"
                     points="465.08 266.6 500.17 133.3 464.77 133.3 429.67 266.7 464.75 266.7 464.77 266.6 465.08 266.6"/>
            <polygon class="cls-3" points="394.28 266.6 359.17 400 394.56 400 429.67 266.6 394.28 266.6"/>
            <polygon class="cls-3"
                     points="535.25 133.4 535.27 133.3 535.58 133.3 570.66 0 535.27 0 500.17 133.4 535.25 133.4"/>
            <polygon class="cls-3"
                     points="535.25 133.4 500.17 266.7 535.25 266.7 535.27 266.6 535.58 266.6 570.66 133.3 535.58 133.3 535.27 133.3 535.25 133.4"/>
            <polygon class="cls-3"
                     points="465.08 266.6 464.77 266.6 464.75 266.7 429.67 400 465.06 400 500.17 266.6 465.08 266.6"/>
            <polygon class="cls-3"
                     points="605.75 133.4 605.77 133.3 606.08 133.3 641.16 0 605.77 0 570.66 133.4 605.75 133.4"/>
            <polygon class="cls-3"
                     points="605.75 133.4 570.66 266.7 605.75 266.7 605.77 266.6 606.08 266.6 641.16 133.3 606.08 133.3 605.77 133.3 605.75 133.4"/>
            <polygon class="cls-3"
                     points="535.58 266.6 535.27 266.6 535.25 266.7 500.17 400 535.55 400 570.66 266.6 535.58 266.6"/>
            <polygon class="cls-3"
                     points="676.25 133.4 676.27 133.3 676.58 133.3 711.66 0 676.27 0 641.16 133.4 676.25 133.4"/>
            <polygon class="cls-3"
                     points="676.25 133.4 641.16 266.7 676.25 266.7 676.27 266.6 676.58 266.6 711.66 133.3 676.58 133.3 676.27 133.3 676.25 133.4"/>
            <polygon class="cls-3"
                     points="606.08 266.6 605.77 266.6 605.75 266.7 570.66 400 606.05 400 641.16 266.6 606.08 266.6"/>
            <polygon class="cls-3"
                     points="746.75 133.4 746.77 133.3 747.08 133.3 750 122.21 750 0 746.77 0 711.66 133.4 746.75 133.4"/>
            <polygon class="cls-3"
                     points="746.77 133.3 746.75 133.4 711.66 266.7 746.75 266.7 746.77 266.6 747.08 266.6 750 255.51 750 133.3 747.08 133.3 746.77 133.3"/>
            <polygon class="cls-3"
                     points="676.58 266.6 676.27 266.6 676.25 266.7 641.16 400 676.55 400 711.66 266.6 676.58 266.6"/>
            <polygon class="cls-3"
                     points="750 266.6 747.08 266.6 746.77 266.6 746.75 266.7 711.66 400 747.05 400 750 388.81 750 266.6"/>
        </g>
        <path d="M89.82,111.69a5.73,5.73,0,0,0-2.61.57,5.13,5.13,0,0,0-1.91,1.65,7.63,7.63,0,0,0-1.17,2.61,13.43,13.43,0,0,0-.4,3.44,13.21,13.21,0,0,0,.64,4.39,5.54,5.54,0,0,0,2,2.77,5.86,5.86,0,0,0,3.47,1,13.74,13.74,0,0,0,3-.34A27.79,27.79,0,0,0,96,126.8v4.31a15.89,15.89,0,0,1-3.17,1,19.49,19.49,0,0,1-3.5.29,11.27,11.27,0,0,1-6.17-1.55,9.24,9.24,0,0,1-3.57-4.35,16.89,16.89,0,0,1-1.17-6.54,16.1,16.1,0,0,1,.75-5,11.51,11.51,0,0,1,2.19-4,9.62,9.62,0,0,1,3.57-2.59,12.24,12.24,0,0,1,4.88-.91,15,15,0,0,1,3.63.45,18.29,18.29,0,0,1,3.48,1.26l-1.66,4.18a27.77,27.77,0,0,0-2.74-1.13A8.2,8.2,0,0,0,89.82,111.69Z"/>
        <path d="M116.14,117.27h-6.08V132H105V117.27H98.9v-3.8h17.24Z"/>
        <path d="M127.19,113.08a8.89,8.89,0,0,1,5.73,1.63,6,6,0,0,1,2,5V132h-3.53l-1-2.53h-.14a9.25,9.25,0,0,1-1.62,1.63,5.67,5.67,0,0,1-1.91.93,10,10,0,0,1-2.63.3,6.68,6.68,0,0,1-2.94-.63,4.68,4.68,0,0,1-2-1.94,6.57,6.57,0,0,1-.75-3.31,4.89,4.89,0,0,1,2.08-4.36,12,12,0,0,1,6.22-1.55l3.22-.1v-.81a2.71,2.71,0,0,0-.76-2.14,3.06,3.06,0,0,0-2.13-.68,9.16,9.16,0,0,0-2.64.38,19.92,19.92,0,0,0-2.59,1l-1.67-3.42a14.38,14.38,0,0,1,3.31-1.23A15.86,15.86,0,0,1,127.19,113.08Zm2.69,10.35-2,.06a5.69,5.69,0,0,0-3.41.88,2.71,2.71,0,0,0-1,2.14,1.89,1.89,0,0,0,.68,1.66,3,3,0,0,0,1.77.49,4,4,0,0,0,2.75-1,3.4,3.4,0,0,0,1.12-2.74Z"/>
        <path d="M150.45,113.12a6.15,6.15,0,0,1,5.07,2.44c1.29,1.62,1.94,4,1.94,7.15a13.59,13.59,0,0,1-.92,5.31,7.15,7.15,0,0,1-2.52,3.24,6.43,6.43,0,0,1-3.7,1.1A7.12,7.12,0,0,1,148,132a5.68,5.68,0,0,1-1.64-.88,7.22,7.22,0,0,1-1.18-1.16h-.27a12.21,12.21,0,0,1,.2,1.37,12.52,12.52,0,0,1,.07,1.36v7.48h-5.07V113.47h4.12l.72,2.4h.23a7,7,0,0,1,1.21-1.37,5.32,5.32,0,0,1,1.72-1A6.66,6.66,0,0,1,150.45,113.12Zm-1.63,4a3.56,3.56,0,0,0-2.1.55,3.09,3.09,0,0,0-1.14,1.64,9.55,9.55,0,0,0-.39,2.77v.55a11.53,11.53,0,0,0,.34,3,3.58,3.58,0,0,0,1.14,1.89,3.47,3.47,0,0,0,2.22.65,2.82,2.82,0,0,0,1.91-.65,3.89,3.89,0,0,0,1.12-1.9,10.85,10.85,0,0,0,.37-3.06,8,8,0,0,0-.84-4.1A2.87,2.87,0,0,0,148.82,117.17Z"/>
        <path d="M177,117.27h-6.08V132h-5.06V117.27h-6.1v-3.8H177Z"/>
        <path d="M197.32,122.71a12.7,12.7,0,0,1-.62,4.12,8.08,8.08,0,0,1-1.82,3,7.69,7.69,0,0,1-2.85,1.87,10.59,10.59,0,0,1-3.76.63,9.88,9.88,0,0,1-3.59-.63,7.82,7.82,0,0,1-2.84-1.87,8.15,8.15,0,0,1-1.86-3,11.91,11.91,0,0,1-.66-4.12,11.39,11.39,0,0,1,1.1-5.23,7.54,7.54,0,0,1,3.12-3.25,9.91,9.91,0,0,1,4.83-1.11,9.4,9.4,0,0,1,4.62,1.11,7.89,7.89,0,0,1,3.17,3.25A10.9,10.9,0,0,1,197.32,122.71Zm-12.84,0a10.35,10.35,0,0,0,.4,3.07,3.64,3.64,0,0,0,1.25,1.88,3.6,3.6,0,0,0,2.21.63,3.55,3.55,0,0,0,2.18-.63,3.62,3.62,0,0,0,1.23-1.88,10.38,10.38,0,0,0,.39-3.07,10.17,10.17,0,0,0-.39-3.06,3.47,3.47,0,0,0-1.24-1.83,3.66,3.66,0,0,0-2.21-.62,3.22,3.22,0,0,0-2.91,1.38A7.64,7.64,0,0,0,184.48,122.71Z"/>
        <path d="M218,118.33a3.71,3.71,0,0,1-.93,2.55,4.58,4.58,0,0,1-2.77,1.35v.13a5.36,5.36,0,0,1,3.11,1.34,3.66,3.66,0,0,1,1.17,2.78,5,5,0,0,1-.83,2.85,5.46,5.46,0,0,1-2.64,2,12.73,12.73,0,0,1-4.73.73H201.5V113.47h8.83a15.48,15.48,0,0,1,3.9.45,5.68,5.68,0,0,1,2.73,1.52A4.07,4.07,0,0,1,218,118.33Zm-5.13.4a1.38,1.38,0,0,0-.68-1.28,3.87,3.87,0,0,0-2-.41h-3.57v3.66h3a5.08,5.08,0,0,0,2.44-.46A1.58,1.58,0,0,0,212.82,118.73Zm.47,7.49a1.7,1.7,0,0,0-.86-1.59,5.15,5.15,0,0,0-2.53-.49h-3.34v4.38H210a4.66,4.66,0,0,0,2.36-.53A1.87,1.87,0,0,0,213.29,126.22Z"/>
        <path d="M230.49,113.08a8.84,8.84,0,0,1,5.72,1.63,6,6,0,0,1,2,5V132h-3.54l-1-2.53h-.13a9.29,9.29,0,0,1-1.63,1.63,5.58,5.58,0,0,1-1.91.93,9.89,9.89,0,0,1-2.62.3,6.69,6.69,0,0,1-3-.63,4.68,4.68,0,0,1-2-1.94,6.57,6.57,0,0,1-.74-3.31,4.9,4.9,0,0,1,2.07-4.36,12,12,0,0,1,6.23-1.55l3.22-.1v-.81a2.71,2.71,0,0,0-.77-2.14,3,3,0,0,0-2.12-.68,9.06,9.06,0,0,0-2.64.38,19.39,19.39,0,0,0-2.59,1l-1.68-3.42a14.56,14.56,0,0,1,3.31-1.23A15.94,15.94,0,0,1,230.49,113.08Zm2.69,10.35-2,.06a5.64,5.64,0,0,0-3.41.88,2.68,2.68,0,0,0-1,2.14,1.92,1.92,0,0,0,.68,1.66,3,3,0,0,0,1.78.49,4.06,4.06,0,0,0,2.75-1,3.43,3.43,0,0,0,1.12-2.74Z"/>
        <path d="M260,132H255V117.27h-4.66q-.34,4.08-.83,7a21.7,21.7,0,0,1-1.23,4.68,6.11,6.11,0,0,1-1.86,2.63,4.46,4.46,0,0,1-2.74.83,9.5,9.5,0,0,1-1.6-.13,6.09,6.09,0,0,1-1.29-.4v-4.05a5,5,0,0,0,.78.24,4,4,0,0,0,.85.09,1.36,1.36,0,0,0,.91-.38,3.7,3.7,0,0,0,.82-1.32,16.22,16.22,0,0,0,.72-2.6c.23-1.11.43-2.51.62-4.2s.37-3.74.53-6.14H260Z"/>
        <path d="M270.25,113.47v7.33c0,.38,0,.85,0,1.42s-.07,1.15-.11,1.74-.09,1.11-.13,1.58-.08.78-.1.94l8.56-13h6.1V132h-4.9v-7.41c0-.61,0-1.28.06-2s.1-1.43.15-2.08.1-1.14.12-1.48l-8.53,13h-6.08V113.47Z"/>
        <path d="M315.54,113.47V132h-5.08V117.27h-6.73V132h-5.06V113.47Z"/>
        <path d="M331.16,113.12a6.15,6.15,0,0,1,5.07,2.44c1.29,1.62,1.94,4,1.94,7.15a13.59,13.59,0,0,1-.92,5.31,7.22,7.22,0,0,1-2.52,3.24,6.45,6.45,0,0,1-3.7,1.1,7.12,7.12,0,0,1-2.31-.34,5.68,5.68,0,0,1-1.64-.88A7.22,7.22,0,0,1,325.9,130h-.27a12.21,12.21,0,0,1,.2,1.37c0,.46.07.91.07,1.36v7.48h-5.07V113.47H325l.71,2.4h.24a7,7,0,0,1,1.21-1.37,5.21,5.21,0,0,1,1.72-1A6.62,6.62,0,0,1,331.16,113.12Zm-1.63,4a3.59,3.59,0,0,0-2.11.55,3,3,0,0,0-1.13,1.64,9.55,9.55,0,0,0-.39,2.77v.55a11.53,11.53,0,0,0,.34,3,3.52,3.52,0,0,0,1.14,1.89,3.47,3.47,0,0,0,2.22.65,2.83,2.83,0,0,0,1.91-.65,3.89,3.89,0,0,0,1.12-1.9,10.85,10.85,0,0,0,.37-3.06,8,8,0,0,0-.84-4.1A2.87,2.87,0,0,0,329.53,117.17Z"/>
        <path d="M359.22,122.71a12.43,12.43,0,0,1-.63,4.12,8.06,8.06,0,0,1-1.81,3,7.69,7.69,0,0,1-2.85,1.87,10.59,10.59,0,0,1-3.76.63,9.93,9.93,0,0,1-3.6-.63,8,8,0,0,1-2.84-1.87,8.27,8.27,0,0,1-1.85-3,11.91,11.91,0,0,1-.66-4.12,11.27,11.27,0,0,1,1.1-5.23,7.54,7.54,0,0,1,3.12-3.25,9.91,9.91,0,0,1,4.83-1.11,9.43,9.43,0,0,1,4.62,1.11,7.89,7.89,0,0,1,3.17,3.25A10.9,10.9,0,0,1,359.22,122.71Zm-12.84,0a10.35,10.35,0,0,0,.4,3.07,3.64,3.64,0,0,0,1.25,1.88,3.54,3.54,0,0,0,5.62-1.88,10.38,10.38,0,0,0,.39-3.07,10.17,10.17,0,0,0-.39-3.06,3.52,3.52,0,0,0-1.24-1.83,3.68,3.68,0,0,0-2.21-.62,3.22,3.22,0,0,0-2.91,1.38A7.55,7.55,0,0,0,346.38,122.71Z"/>
        <path d="M380.08,113.47v14.85h2.73v10.36h-4.55V132H365.77v6.65h-4.55V128.32h1.57a19.77,19.77,0,0,0,2.06-4.28,35.55,35.55,0,0,0,1.36-5.1,52.52,52.52,0,0,0,.76-5.47Zm-5.06,3.8h-3.8c-.18,1.37-.4,2.7-.67,4a32.17,32.17,0,0,1-1,3.69,22.2,22.2,0,0,1-1.46,3.39H375Z"/>
        <path d="M393.58,113.08a8.89,8.89,0,0,1,5.73,1.63,6,6,0,0,1,2,5V132h-3.54l-1-2.53h-.14a9.25,9.25,0,0,1-1.62,1.63,5.67,5.67,0,0,1-1.91.93,10,10,0,0,1-2.63.3,6.68,6.68,0,0,1-2.94-.63,4.63,4.63,0,0,1-2.05-1.94,6.57,6.57,0,0,1-.75-3.31,4.9,4.9,0,0,1,2.07-4.36,12.07,12.07,0,0,1,6.23-1.55l3.22-.1v-.81a2.71,2.71,0,0,0-.76-2.14,3.06,3.06,0,0,0-2.13-.68,9.16,9.16,0,0,0-2.64.38,19.92,19.92,0,0,0-2.59,1l-1.67-3.42a14.21,14.21,0,0,1,3.31-1.23A15.86,15.86,0,0,1,393.58,113.08Zm2.69,10.35-2,.06a5.67,5.67,0,0,0-3.41.88,2.68,2.68,0,0,0-.95,2.14,1.89,1.89,0,0,0,.68,1.66,3,3,0,0,0,1.77.49,4,4,0,0,0,2.75-1,3.4,3.4,0,0,0,1.12-2.74Z"/>
        <path d="M432.89,113.47l-6.84,8.89,7.49,9.67h-5.41l-7.07-9.42V132h-4.72v-9.42L409.27,132h-5.41l7.48-9.67-6.84-8.89h5.23l6.61,9v-9h4.72v9l6.6-9Z"/>
        <path d="M441.09,113.47v7.33c0,.38,0,.85,0,1.42s-.06,1.15-.1,1.74-.09,1.11-.14,1.58-.08.78-.1.94l8.57-13h6.09V132h-4.9v-7.41c0-.61,0-1.28.07-2s.09-1.43.15-2.08.09-1.14.12-1.48l-8.54,13H436.2V113.47Z"/>
        <path d="M86.65,173.16a10.13,10.13,0,0,1-4.7-1A6.56,6.56,0,0,1,79,169a12.37,12.37,0,0,1-1-5.39,11.74,11.74,0,0,1,1.15-5.56,7.23,7.23,0,0,1,3.2-3.16,10.55,10.55,0,0,1,4.76-1,13.07,13.07,0,0,1,3.33.37,13.88,13.88,0,0,1,2.45.89l-1.5,3.92c-.79-.32-1.54-.59-2.22-.79A7,7,0,0,0,87.1,158a3.77,3.77,0,0,0-2.21.62,3.69,3.69,0,0,0-1.31,1.87,9.58,9.58,0,0,0-.43,3.12,8.65,8.65,0,0,0,.46,3.06,3.62,3.62,0,0,0,1.35,1.8,3.77,3.77,0,0,0,2.14.59,8.42,8.42,0,0,0,2.81-.43,10.82,10.82,0,0,0,2.39-1.18v4.33a8.31,8.31,0,0,1-2.44,1.05A13,13,0,0,1,86.65,173.16Z"/>
        <path d="M120,154.27v18.56h-4.73v-9.12c0-.89,0-1.77,0-2.64s.08-1.66.15-2.39h-.1l-5.13,14.15h-3.81l-5.21-14.18h-.13c.09.74.15,1.54.18,2.39s0,1.79,0,2.8v9H96.6V154.27h7.17l4.61,12.58,4.7-12.58Z"/>
        <path d="M132.9,153.88a8.89,8.89,0,0,1,5.73,1.63,6,6,0,0,1,2,5v12.37h-3.53l-1-2.53H136a9.25,9.25,0,0,1-1.62,1.63,5.67,5.67,0,0,1-1.91.93,9.94,9.94,0,0,1-2.62.3,6.69,6.69,0,0,1-2.95-.63,4.68,4.68,0,0,1-2.05-1.94,6.57,6.57,0,0,1-.75-3.31,4.89,4.89,0,0,1,2.08-4.36,12,12,0,0,1,6.22-1.55l3.22-.1v-.81a2.71,2.71,0,0,0-.76-2.14,3.06,3.06,0,0,0-2.13-.68,9.16,9.16,0,0,0-2.64.38,19.92,19.92,0,0,0-2.59,1l-1.67-3.42a14.38,14.38,0,0,1,3.31-1.23A15.86,15.86,0,0,1,132.9,153.88Zm2.69,10.35-2,.06a5.69,5.69,0,0,0-3.41.88,2.71,2.71,0,0,0-.95,2.14A1.89,1.89,0,0,0,130,169a3,3,0,0,0,1.77.49,4,4,0,0,0,2.75-1,3.4,3.4,0,0,0,1.12-2.74Z"/>
        <path d="M156.16,153.92a6.15,6.15,0,0,1,5.07,2.44c1.29,1.62,1.94,4,1.94,7.15a13.59,13.59,0,0,1-.92,5.31,7.15,7.15,0,0,1-2.52,3.24,6.43,6.43,0,0,1-3.7,1.1,7.12,7.12,0,0,1-2.31-.34,5.68,5.68,0,0,1-1.64-.88,7.22,7.22,0,0,1-1.18-1.16h-.27a12.21,12.21,0,0,1,.2,1.37,12.52,12.52,0,0,1,.07,1.36V181h-5.06V154.27H150l.72,2.4h.23a7.09,7.09,0,0,1,1.21-1.38,5.48,5.48,0,0,1,1.72-1A6.66,6.66,0,0,1,156.16,153.92ZM154.54,158a3.57,3.57,0,0,0-2.11.55,3.09,3.09,0,0,0-1.14,1.64,9.55,9.55,0,0,0-.39,2.77v.55a11.59,11.59,0,0,0,.34,3,3.58,3.58,0,0,0,1.14,1.89,3.47,3.47,0,0,0,2.22.65,2.82,2.82,0,0,0,1.91-.65,3.89,3.89,0,0,0,1.12-1.9,10.85,10.85,0,0,0,.37-3.06,8,8,0,0,0-.84-4.1A2.87,2.87,0,0,0,154.54,158Z"/>
        <path d="M182.71,158.07h-6.08v14.76h-5.06V158.07h-6.09v-3.8h17.23Z"/>
        <path d="M184.52,165.79v-4.15h8.91v4.15Z"/>
        <path d="M212.46,158.07h-6.08v14.76h-5.06V158.07h-6.09v-3.8h17.23Z"/>
        <path d="M223.56,153.92a9.45,9.45,0,0,1,4.44,1,6.91,6.91,0,0,1,2.87,2.87,9.6,9.6,0,0,1,1,4.58v2.46h-12a4.88,4.88,0,0,0,1.29,3.36,4.5,4.5,0,0,0,3.34,1.22,13.27,13.27,0,0,0,3.26-.37,16.44,16.44,0,0,0,3-1.09v3.92a12.27,12.27,0,0,1-2.88,1,18.12,18.12,0,0,1-3.65.32,11.28,11.28,0,0,1-4.94-1A7.68,7.68,0,0,1,216,169a10.51,10.51,0,0,1-1.22-5.31,11.8,11.8,0,0,1,1.11-5.42A7.43,7.43,0,0,1,219,155,9.41,9.41,0,0,1,223.56,153.92Zm0,3.6a3.33,3.33,0,0,0-2.45.95,4.46,4.46,0,0,0-1.12,3h7.1a5.11,5.11,0,0,0-.4-2,3.21,3.21,0,0,0-1.17-1.4A3.48,3.48,0,0,0,223.6,157.52Z"/>
        <path d="M246.33,153.92a6.15,6.15,0,0,1,5.07,2.44c1.29,1.62,1.93,4,1.93,7.15a13.6,13.6,0,0,1-.91,5.31,7.16,7.16,0,0,1-2.53,3.24,6.4,6.4,0,0,1-3.7,1.1,7.21,7.21,0,0,1-2.31-.34,5.81,5.81,0,0,1-1.64-.88,7.64,7.64,0,0,1-1.18-1.16h-.26c.08.45.15.9.2,1.37s.06.91.06,1.36V181H236V154.27h4.12l.71,2.4h.23a7.44,7.44,0,0,1,1.21-1.38,5.48,5.48,0,0,1,1.72-1A6.68,6.68,0,0,1,246.33,153.92ZM244.7,158a3.57,3.57,0,0,0-2.11.55,3.09,3.09,0,0,0-1.14,1.64,9.55,9.55,0,0,0-.39,2.77v.55a12,12,0,0,0,.34,3,3.53,3.53,0,0,0,1.15,1.89,3.42,3.42,0,0,0,2.21.65,2.8,2.8,0,0,0,1.91-.65,3.89,3.89,0,0,0,1.12-1.9,10.82,10.82,0,0,0,.38-3.06,7.86,7.86,0,0,0-.85-4.1A2.85,2.85,0,0,0,244.7,158Z"/>
        <path d="M280.91,154.27v18.56h-4.74v-9.12c0-.89,0-1.77.05-2.64s.09-1.66.15-2.39h-.1l-5.13,14.15h-3.8l-5.21-14.18H262c.09.74.15,1.54.18,2.39s.05,1.79.05,2.8v9h-4.72V154.27h7.18l4.61,12.58,4.7-12.58Z"/>
        <path d="M291.12,154.27v7.33c0,.38,0,.85-.05,1.42s-.06,1.15-.1,1.74-.09,1.11-.14,1.57-.07.79-.1.95l8.57-13h6.09v18.56H300.5v-7.41c0-.61,0-1.28.06-2s.1-1.43.15-2.08.1-1.14.12-1.48l-8.54,13h-6.07V154.27Z"/>
        <path d="M315.77,154.27v7.13h7.07v-7.13h5.07v18.56h-5.07v-7.66h-7.07v7.66h-5.06V154.27Z"/>
        <path d="M340.82,153.88a8.89,8.89,0,0,1,5.73,1.63,6,6,0,0,1,2,5v12.37H345l-1-2.53h-.14a9.25,9.25,0,0,1-1.62,1.63,5.67,5.67,0,0,1-1.91.93,10,10,0,0,1-2.63.3,6.68,6.68,0,0,1-2.94-.63,4.63,4.63,0,0,1-2.05-1.94,6.57,6.57,0,0,1-.75-3.31,4.9,4.9,0,0,1,2.07-4.36,12.07,12.07,0,0,1,6.23-1.55l3.22-.1v-.81a2.71,2.71,0,0,0-.76-2.14,3.06,3.06,0,0,0-2.13-.68A9.16,9.16,0,0,0,338,158a19.92,19.92,0,0,0-2.59,1l-1.67-3.42a14.21,14.21,0,0,1,3.31-1.23A15.86,15.86,0,0,1,340.82,153.88Zm2.69,10.35-2,.06a5.67,5.67,0,0,0-3.41.88,2.68,2.68,0,0,0-.95,2.14,1.89,1.89,0,0,0,.68,1.66,3,3,0,0,0,1.77.49,4,4,0,0,0,2.75-1,3.4,3.4,0,0,0,1.12-2.74Z"/>
        <path d="M370.37,172.83h-5.06V158.07h-4.67q-.34,4.08-.83,7a21.7,21.7,0,0,1-1.23,4.68,6.08,6.08,0,0,1-1.85,2.63,4.5,4.5,0,0,1-2.74.83,9.63,9.63,0,0,1-1.61-.13,5.82,5.82,0,0,1-1.28-.4v-4a4.45,4.45,0,0,0,.78.24,3.93,3.93,0,0,0,.84.09,1.4,1.4,0,0,0,.92-.38,3.57,3.57,0,0,0,.81-1.32,14.36,14.36,0,0,0,.72-2.6q.34-1.67.63-4.2c.18-1.7.36-3.74.53-6.14h14Z"/>
        <path d="M383.29,153.88a8.89,8.89,0,0,1,5.73,1.63,6,6,0,0,1,2,5v12.37h-3.54l-1-2.53h-.13a9,9,0,0,1-1.63,1.63,5.58,5.58,0,0,1-1.91.93,9.89,9.89,0,0,1-2.62.3,6.69,6.69,0,0,1-2.95-.63,4.68,4.68,0,0,1-2.05-1.94,6.67,6.67,0,0,1-.74-3.31,4.9,4.9,0,0,1,2.07-4.36,12,12,0,0,1,6.23-1.55l3.22-.1v-.81a2.71,2.71,0,0,0-.77-2.14,3,3,0,0,0-2.12-.68,9.06,9.06,0,0,0-2.64.38,19.39,19.39,0,0,0-2.59,1l-1.68-3.42a14.56,14.56,0,0,1,3.31-1.23A15.94,15.94,0,0,1,383.29,153.88ZM386,164.23l-2,.06a5.64,5.64,0,0,0-3.41.88,2.68,2.68,0,0,0-1,2.14,1.92,1.92,0,0,0,.68,1.66,3,3,0,0,0,1.78.49,4.06,4.06,0,0,0,2.75-1,3.43,3.43,0,0,0,1.12-2.74Z"/>
        <path d="M420.31,172.83l-1.76-5.78H409.7l-1.76,5.78H402.4L411,148.46h6.29l8.6,24.37Zm-3-10.1-1.76-5.64c-.11-.38-.26-.86-.44-1.45s-.36-1.2-.55-1.81-.33-1.15-.44-1.61c-.11.46-.26,1-.45,1.69s-.38,1.3-.56,1.9l-.38,1.28L411,162.73Z"/>
        <path d="M438.27,172.83h-5.14v-20h-6.59v-4.29h18.32v4.29h-6.59Z"/>
        <path d="M470.63,160.66a17.33,17.33,0,0,1-.7,5.1,10.63,10.63,0,0,1-2.12,4,9.12,9.12,0,0,1-3.59,2.55,15.32,15.32,0,0,1-10.29,0,9.23,9.23,0,0,1-3.6-2.55,10.8,10.8,0,0,1-2.11-4,17.44,17.44,0,0,1-.7-5.13,16,16,0,0,1,1.24-6.56,9.27,9.27,0,0,1,3.81-4.34,12.51,12.51,0,0,1,6.54-1.55,12.39,12.39,0,0,1,6.5,1.55,9.34,9.34,0,0,1,3.78,4.35A16.11,16.11,0,0,1,470.63,160.66Zm-17.71,0a13.49,13.49,0,0,0,.63,4.37,5.71,5.71,0,0,0,2,2.82,5.84,5.84,0,0,0,3.52,1,5.91,5.91,0,0,0,3.56-1,5.56,5.56,0,0,0,2-2.82,13.5,13.5,0,0,0,.62-4.37,10.93,10.93,0,0,0-1.42-6,5.2,5.2,0,0,0-4.7-2.19,6,6,0,0,0-3.55,1,5.69,5.69,0,0,0-2,2.83A13.53,13.53,0,0,0,452.92,160.66Z"/>
        <path d="M494.87,172.83h-5.13v-20h-5.95c-.13,1-.27,2.17-.43,3.4s-.31,2.47-.48,3.72-.34,2.44-.52,3.57-.36,2.12-.54,3a14.86,14.86,0,0,1-1.17,3.61,5.38,5.38,0,0,1-2,2.27,6.26,6.26,0,0,1-3.31.78,9.16,9.16,0,0,1-1.31-.1,8.83,8.83,0,0,1-1.15-.27v-4.21a7.42,7.42,0,0,0,.86.24,4.72,4.72,0,0,0,.95.09,1.5,1.5,0,0,0,1.1-.44,3.74,3.74,0,0,0,.79-1.51,24.2,24.2,0,0,0,.7-3c.1-.55.23-1.33.4-2.34s.35-2.21.56-3.57.43-2.86.66-4.48.44-3.3.65-5h15.33Z"/>
        <path d="M89.82,193.29a5.73,5.73,0,0,0-2.61.57,5.13,5.13,0,0,0-1.91,1.65,7.63,7.63,0,0,0-1.17,2.61,13.43,13.43,0,0,0-.4,3.44,13.21,13.21,0,0,0,.64,4.39,5.54,5.54,0,0,0,2,2.77,5.86,5.86,0,0,0,3.47,1,13.74,13.74,0,0,0,3-.34A27.79,27.79,0,0,0,96,208.4v4.31a15.89,15.89,0,0,1-3.17,1,19.49,19.49,0,0,1-3.5.29,11.27,11.27,0,0,1-6.17-1.55,9.24,9.24,0,0,1-3.57-4.35,16.89,16.89,0,0,1-1.17-6.54,16.1,16.1,0,0,1,.75-5,11.51,11.51,0,0,1,2.19-4,9.62,9.62,0,0,1,3.57-2.59,12.24,12.24,0,0,1,4.88-.91,15,15,0,0,1,3.63.45,19,19,0,0,1,3.48,1.26l-1.66,4.18a27.77,27.77,0,0,0-2.74-1.13A8.2,8.2,0,0,0,89.82,193.29Z"/>
        <path d="M110.54,213.63h-5.15v-20H98.8v-4.29h18.33v4.29h-6.59Z"/>
        <path d="M120.87,213.63V189.35h15.34v4.25H126v5.07h2a14.36,14.36,0,0,1,5.62.94,7,7,0,0,1,3.25,2.62,7.58,7.58,0,0,1-1.34,9.4q-2.4,2-7.63,2Zm5.14-4.22h1.73a7.51,7.51,0,0,0,3.69-.76,2.74,2.74,0,0,0,1.34-2.61,2.79,2.79,0,0,0-.65-2,3.59,3.59,0,0,0-1.88-.93,15.31,15.31,0,0,0-2.91-.24H126Z"/>
        <path d="M140.52,206.59v-4.15h8.92v4.15Z"/>
        <path d="M160.64,198.12a8.8,8.8,0,0,1,4,.85,6.32,6.32,0,0,1,2.73,2.49,7.6,7.6,0,0,1,1,4,8.87,8.87,0,0,1-1.09,4.52A7.08,7.08,0,0,1,164,213a12.66,12.66,0,0,1-5.36,1,18.64,18.64,0,0,1-3.59-.33,10.43,10.43,0,0,1-2.95-1v-4.44a13.45,13.45,0,0,0,3,1.12,13.12,13.12,0,0,0,3.33.46,6.89,6.89,0,0,0,2.57-.41,3.16,3.16,0,0,0,1.59-1.26,4,4,0,0,0,.54-2.18,3.26,3.26,0,0,0-1.2-2.72,5.86,5.86,0,0,0-3.67-.95,11.25,11.25,0,0,0-2,.18c-.68.13-1.25.25-1.71.37l-2-1.1.92-12.37h13.16v4.35H158l-.44,4.77c.37-.08.78-.16,1.23-.23A11,11,0,0,1,160.64,198.12Z"/>
        <path d="M103.71,245.32H102l-5.51-6.16v6.16H95.1V233.18h1.4v5.88l5.37-5.88h1.61l-5.32,5.9Z"/>
        <path d="M108.52,236.07a3.43,3.43,0,0,1,2.39.73,3.09,3.09,0,0,1,.78,2.34v6.18h-1l-.26-1.34h-.06a5.27,5.27,0,0,1-.79.83,3.1,3.1,0,0,1-1,.51,4.55,4.55,0,0,1-1.32.17,3.56,3.56,0,0,1-1.46-.29,2.31,2.31,0,0,1-1-.88,2.87,2.87,0,0,1-.36-1.5,2.38,2.38,0,0,1,1.06-2.09,6.18,6.18,0,0,1,3.25-.8l1.56-.06v-.56a2.21,2.21,0,0,0-.5-1.65,2,2,0,0,0-1.42-.47,4.22,4.22,0,0,0-1.34.2,8.87,8.87,0,0,0-1.22.49l-.42-1a7.57,7.57,0,0,1,1.4-.54A6,6,0,0,1,108.52,236.07Zm1.82,4.77-1.37.06a4.51,4.51,0,0,0-2.37.55,1.61,1.61,0,0,0-.69,1.39,1.38,1.38,0,0,0,.46,1.15,2,2,0,0,0,1.24.38,2.88,2.88,0,0,0,2-.68,2.54,2.54,0,0,0,.76-2Z"/>
        <path d="M118.1,245.49A4.37,4.37,0,0,1,116,245a3.5,3.5,0,0,1-1.45-1.54,6,6,0,0,1-.52-2.62,5.89,5.89,0,0,1,.55-2.7,3.56,3.56,0,0,1,1.51-1.56,4.7,4.7,0,0,1,2.18-.5,6.16,6.16,0,0,1,1.3.13,4.11,4.11,0,0,1,1,.35l-.41,1.15a7.15,7.15,0,0,0-1-.3,4,4,0,0,0-1-.13,2.81,2.81,0,0,0-1.56.41,2.5,2.5,0,0,0-.93,1.19,5.53,5.53,0,0,0-.3,1.94,5.28,5.28,0,0,0,.3,1.89,2.43,2.43,0,0,0,.89,1.19,2.61,2.61,0,0,0,1.49.41,5.08,5.08,0,0,0,1.29-.15,9.65,9.65,0,0,0,1-.36V245a3.82,3.82,0,0,1-1,.36A6.27,6.27,0,0,1,118.1,245.49Z"/>
        <path d="M126.15,245.49A4.37,4.37,0,0,1,124,245a3.42,3.42,0,0,1-1.44-1.54,5.82,5.82,0,0,1-.52-2.62,5.89,5.89,0,0,1,.54-2.7,3.62,3.62,0,0,1,1.51-1.56,4.71,4.71,0,0,1,2.19-.5,6.16,6.16,0,0,1,1.3.13,4.11,4.11,0,0,1,1,.35l-.41,1.15a7.65,7.65,0,0,0-1-.3,4.12,4.12,0,0,0-1-.13,2.77,2.77,0,0,0-1.55.41,2.38,2.38,0,0,0-.93,1.19,6.16,6.16,0,0,0,0,3.83,2.45,2.45,0,0,0,.9,1.19,2.57,2.57,0,0,0,1.49.41,5.19,5.19,0,0,0,1.29-.15,9.65,9.65,0,0,0,1-.36V245a3.89,3.89,0,0,1-1,.36A6.27,6.27,0,0,1,126.15,245.49Z"/>
        <path d="M134,236.07a3.43,3.43,0,0,1,2.39.73,3.09,3.09,0,0,1,.78,2.34v6.18h-1l-.27-1.34h-.06a4.85,4.85,0,0,1-.79.83,3,3,0,0,1-.95.51,4.5,4.5,0,0,1-1.32.17,3.51,3.51,0,0,1-1.45-.29,2.26,2.26,0,0,1-1-.88,2.78,2.78,0,0,1-.37-1.5,2.39,2.39,0,0,1,1.07-2.09,6.15,6.15,0,0,1,3.25-.8l1.55-.06v-.56a2.21,2.21,0,0,0-.5-1.65,1.94,1.94,0,0,0-1.41-.47,4.33,4.33,0,0,0-1.35.2,8.73,8.73,0,0,0-1.21.49l-.42-1a7.46,7.46,0,0,1,1.39-.54A6.05,6.05,0,0,1,134,236.07Zm1.82,4.77-1.37.06a4.51,4.51,0,0,0-2.37.55,1.61,1.61,0,0,0-.69,1.39,1.39,1.39,0,0,0,.47,1.15,1.91,1.91,0,0,0,1.24.38,2.85,2.85,0,0,0,2-.68,2.54,2.54,0,0,0,.76-2Z"/>
        <path d="M151.13,236a3,3,0,0,1-.31,1.42,2.7,2.7,0,0,1-.87,1,3.58,3.58,0,0,1-1.31.53V239a3.55,3.55,0,0,1,2.14.93,2.72,2.72,0,0,1,.72,2,3.5,3.5,0,0,1-.49,1.87,3.19,3.19,0,0,1-1.49,1.27,6.15,6.15,0,0,1-2.57.47,9.7,9.7,0,0,1-1.77-.16,6.06,6.06,0,0,1-1.54-.51v-1.29a7.79,7.79,0,0,0,3.32.79,3.46,3.46,0,0,0,2.37-.66,2.3,2.3,0,0,0,.74-1.8,2,2,0,0,0-.41-1.28,2.36,2.36,0,0,0-1.17-.71,6.4,6.4,0,0,0-1.82-.23h-1.2v-1.18h1.2a4.08,4.08,0,0,0,1.66-.29,2.22,2.22,0,0,0,1-.82,2.13,2.13,0,0,0,.36-1.24,1.74,1.74,0,0,0-.61-1.43,2.52,2.52,0,0,0-1.65-.5,4.63,4.63,0,0,0-1.16.13,4.69,4.69,0,0,0-1,.37,7.34,7.34,0,0,0-.92.54l-.69-.95a6.55,6.55,0,0,1,1.6-.89,5.81,5.81,0,0,1,2.15-.37,3.91,3.91,0,0,1,2.75.85A2.76,2.76,0,0,1,151.13,236Z"/>
        <path d="M165.45,238.5a1.78,1.78,0,0,1-.49,1.34,2.52,2.52,0,0,1-1.27.64v.07a2.86,2.86,0,0,1,1.46.61,1.84,1.84,0,0,1,.61,1.5,2.64,2.64,0,0,1-.37,1.38,2.46,2.46,0,0,1-1.16.94,5.19,5.19,0,0,1-2,.34H158.3v-9.1h3.84a6.36,6.36,0,0,1,1.72.22,2.48,2.48,0,0,1,1.17.72A2,2,0,0,1,165.45,238.5Zm-1.38.16a1.08,1.08,0,0,0-.47-1,2.76,2.76,0,0,0-1.54-.32h-2.39V240h2.15a3.55,3.55,0,0,0,1.68-.32A1.08,1.08,0,0,0,164.07,238.66Zm.27,4a1.24,1.24,0,0,0-.61-1.16,3.44,3.44,0,0,0-1.75-.36h-2.31v3.06H162a3.5,3.5,0,0,0,1.73-.35A1.27,1.27,0,0,0,164.34,242.66Z"/>
        <path d="M176.79,245.32h-1.33v-8.6c0-.33,0-.61,0-.84s0-.45,0-.65,0-.4,0-.6a4.78,4.78,0,0,1-.48.45c-.14.13-.33.28-.55.46l-1.37,1.11-.71-.93,3.25-2.54h1.13Z"/>
        <path d="M189.91,245.49a4.37,4.37,0,0,1-2.14-.51,3.42,3.42,0,0,1-1.44-1.54,5.82,5.82,0,0,1-.52-2.62,5.89,5.89,0,0,1,.54-2.7,3.62,3.62,0,0,1,1.51-1.56,4.71,4.71,0,0,1,2.19-.5,6.23,6.23,0,0,1,1.3.13,4.11,4.11,0,0,1,1,.35l-.41,1.15a7.65,7.65,0,0,0-.95-.3,4.18,4.18,0,0,0-1-.13,2.77,2.77,0,0,0-1.55.41,2.38,2.38,0,0,0-.93,1.19,6.16,6.16,0,0,0,0,3.83,2.45,2.45,0,0,0,.9,1.19,2.57,2.57,0,0,0,1.49.41,5.19,5.19,0,0,0,1.29-.15,9.65,9.65,0,0,0,1-.36V245a3.89,3.89,0,0,1-1,.36A6.27,6.27,0,0,1,189.91,245.49Z"/>
        <path d="M202.12,240.75a6.44,6.44,0,0,1-.28,2,4.06,4.06,0,0,1-.83,1.49,3.73,3.73,0,0,1-1.31.93,4.54,4.54,0,0,1-1.74.32,4.22,4.22,0,0,1-1.65-.32,3.78,3.78,0,0,1-1.3-.93,4.1,4.1,0,0,1-.85-1.49,6.14,6.14,0,0,1-.3-2,5.93,5.93,0,0,1,.5-2.54,3.68,3.68,0,0,1,1.44-1.6,4.25,4.25,0,0,1,2.22-.55,4.07,4.07,0,0,1,2.15.55,3.71,3.71,0,0,1,1.44,1.61A5.74,5.74,0,0,1,202.12,240.75Zm-6.84,0a5.78,5.78,0,0,0,.28,1.91,2.69,2.69,0,0,0,4,1.24,2.49,2.49,0,0,0,.89-1.24,5.52,5.52,0,0,0,.29-1.91,5.34,5.34,0,0,0-.29-1.88,2.53,2.53,0,0,0-.88-1.22,2.58,2.58,0,0,0-1.55-.43,2.32,2.32,0,0,0-2.06.94A4.43,4.43,0,0,0,195.28,240.75Z"/>
        <path d="M216,238.5a1.78,1.78,0,0,1-.49,1.34,2.52,2.52,0,0,1-1.27.64v.07a2.79,2.79,0,0,1,1.45.61,1.81,1.81,0,0,1,.62,1.5,2.64,2.64,0,0,1-.37,1.38,2.51,2.51,0,0,1-1.16.94,5.21,5.21,0,0,1-2.06.34h-3.87v-9.1h3.84a6.23,6.23,0,0,1,1.71.22,2.39,2.39,0,0,1,1.17.72A2,2,0,0,1,216,238.5Zm-1.39.16a1.08,1.08,0,0,0-.46-1,2.78,2.78,0,0,0-1.54-.32h-2.39V240h2.15a3.55,3.55,0,0,0,1.68-.32A1.09,1.09,0,0,0,214.61,238.66Zm.27,4a1.25,1.25,0,0,0-.6-1.16,3.46,3.46,0,0,0-1.75-.36h-2.31v3.06h2.34a3.5,3.5,0,0,0,1.73-.35A1.26,1.26,0,0,0,214.88,242.66Z"/>
        <path d="M222.11,245.49A4.37,4.37,0,0,1,220,245a3.5,3.5,0,0,1-1.45-1.54,6,6,0,0,1-.52-2.62,5.89,5.89,0,0,1,.55-2.7,3.62,3.62,0,0,1,1.51-1.56,4.7,4.7,0,0,1,2.18-.5,6.16,6.16,0,0,1,1.3.13,4,4,0,0,1,1,.35l-.41,1.15a7.15,7.15,0,0,0-.95-.3,4,4,0,0,0-1-.13,2.81,2.81,0,0,0-1.56.41,2.5,2.5,0,0,0-.93,1.19,5.53,5.53,0,0,0-.3,1.94,5.28,5.28,0,0,0,.3,1.89,2.43,2.43,0,0,0,.89,1.19,2.61,2.61,0,0,0,1.49.41,5.08,5.08,0,0,0,1.29-.15,9.65,9.65,0,0,0,1-.36V245a3.82,3.82,0,0,1-1,.36A6.27,6.27,0,0,1,222.11,245.49Z"/>
        <path d="M232.69,237.39h-3v7.93h-1.35v-7.93h-2.92v-1.17h7.23Z"/>
        <path d="M238.71,236.06a3.35,3.35,0,0,1,2.68,1.17,5.28,5.28,0,0,1,1,3.52,6.44,6.44,0,0,1-.46,2.6,3.47,3.47,0,0,1-1.29,1.6,3.55,3.55,0,0,1-2,.54,3.68,3.68,0,0,1-1.25-.2,2.69,2.69,0,0,1-.93-.51,3.27,3.27,0,0,1-.64-.71h-.1q0,.33.06.78c0,.31,0,.57,0,.8v3.74h-1.37V236.22h1.12l.18,1.35h.07a3.54,3.54,0,0,1,.64-.76,2.89,2.89,0,0,1,.92-.55A3.66,3.66,0,0,1,238.71,236.06Zm-.24,1.16a2.79,2.79,0,0,0-1.51.36,2.08,2.08,0,0,0-.83,1.1,5.48,5.48,0,0,0-.28,1.82v.26a6.46,6.46,0,0,0,.25,2,2.25,2.25,0,0,0,.83,1.22,2.64,2.64,0,0,0,1.55.41,2.11,2.11,0,0,0,1.4-.46,2.69,2.69,0,0,0,.83-1.27,5.72,5.72,0,0,0,.28-1.88,4.66,4.66,0,0,0-.62-2.56A2.13,2.13,0,0,0,238.47,237.22Z"/>
        <path d="M252.52,240.75a6.44,6.44,0,0,1-.28,2,4.06,4.06,0,0,1-.83,1.49,3.73,3.73,0,0,1-1.31.93,4.54,4.54,0,0,1-1.74.32,4.22,4.22,0,0,1-1.65-.32,3.78,3.78,0,0,1-1.3-.93,4.1,4.1,0,0,1-.85-1.49,6.14,6.14,0,0,1-.3-2,5.93,5.93,0,0,1,.5-2.54,3.68,3.68,0,0,1,1.44-1.6,4.25,4.25,0,0,1,2.22-.55,4.07,4.07,0,0,1,2.15.55,3.71,3.71,0,0,1,1.44,1.61A5.74,5.74,0,0,1,252.52,240.75Zm-6.84,0a5.78,5.78,0,0,0,.28,1.91,2.62,2.62,0,0,0,.89,1.24,2.58,2.58,0,0,0,4-1.24,5.78,5.78,0,0,0,.28-1.91,5.6,5.6,0,0,0-.28-1.88,2.61,2.61,0,0,0-.89-1.22,2.58,2.58,0,0,0-1.55-.43,2.32,2.32,0,0,0-2.06.94A4.43,4.43,0,0,0,245.68,240.75Z"/>
        <path d="M258.35,236.06a3.68,3.68,0,0,1,2,.51,3.32,3.32,0,0,1,1.25,1.44,5,5,0,0,1,.44,2.16V241h-6.22a3.6,3.6,0,0,0,.79,2.44,2.77,2.77,0,0,0,2.15.84,6.79,6.79,0,0,0,1.51-.16,8.25,8.25,0,0,0,1.37-.47v1.22a6.72,6.72,0,0,1-1.36.44,7.24,7.24,0,0,1-1.58.15,4.58,4.58,0,0,1-2.26-.54,3.73,3.73,0,0,1-1.5-1.57,5.58,5.58,0,0,1-.53-2.54,6.08,6.08,0,0,1,.49-2.55,3.63,3.63,0,0,1,3.48-2.23Zm0,1.13a2.22,2.22,0,0,0-1.74.72,3.4,3.4,0,0,0-.77,2h4.76a4.15,4.15,0,0,0-.25-1.43,2,2,0,0,0-.74-1A2.13,2.13,0,0,0,258.33,237.19Z"/>
        <path d="M265.7,236.22V240h5v-3.82h1.37v9.1h-1.37v-4.11h-5v4.11h-1.38v-9.1Z"/>
        <path d="M276.34,236.22V240h5v-3.82h1.37v9.1h-1.37v-4.11h-5v4.11H275v-9.1Z"/>
        <path d="M285.61,245.32v-9.1H287V240h2.46a5.29,5.29,0,0,1,1.89.29,2.25,2.25,0,0,1,1.11.87,2.6,2.6,0,0,1,.36,1.42,2.91,2.91,0,0,1-.36,1.47,2.35,2.35,0,0,1-1.11,1,4.86,4.86,0,0,1-2,.34ZM287,244.2h2.24a3.1,3.1,0,0,0,1.63-.37,1.31,1.31,0,0,0,.6-1.22,1.23,1.23,0,0,0-.56-1.16,3.28,3.28,0,0,0-1.63-.33H287Zm7.31,1.12v-9.1h1.36v9.1Z"/>
        <path d="M308,236.22v9.1h-1.23v-5.93c0-.24,0-.49,0-.74s0-.5.06-.76h-.05l-3,7.43h-1.16l-2.92-7.43h0l0,.76c0,.25,0,.52,0,.79v5.88h-1.23v-9.1h1.83l2.9,7.44,2.95-7.44Z"/>
        <path d="M316.7,245.49a6.37,6.37,0,0,1-1.33-.13,4.33,4.33,0,0,1-1.05-.36v-1.2a8.7,8.7,0,0,0,1.09.36,5.3,5.3,0,0,0,1.31.15,3.51,3.51,0,0,0,1.58-.34,2.35,2.35,0,0,0,1-1,4.11,4.11,0,0,0,.44-1.73H315.2v-1.13h4.55a3.26,3.26,0,0,0-.8-2.13,2.72,2.72,0,0,0-2-.7,4.77,4.77,0,0,0-1.07.14,10,10,0,0,0-1,.31l-.37-1.13a6.21,6.21,0,0,1,2.47-.5,4.92,4.92,0,0,1,2.23.48,3.37,3.37,0,0,1,1.5,1.51,5.84,5.84,0,0,1,.54,2.7,5.49,5.49,0,0,1-.57,2.64A3.68,3.68,0,0,1,319,245,5.11,5.11,0,0,1,316.7,245.49Z"/>
        <path d="M328.77,236.22h1.51l-3.89,4.39,4.2,4.71H329l-4.09-4.62v4.62h-1.37v-9.1h1.37v4.42Z"/>
        <path d="M339.37,238.5a1.79,1.79,0,0,1-.5,1.34,2.48,2.48,0,0,1-1.27.64v.07a2.82,2.82,0,0,1,1.46.61,1.81,1.81,0,0,1,.61,1.5,2.55,2.55,0,0,1-.37,1.38,2.46,2.46,0,0,1-1.16.94,5.16,5.16,0,0,1-2.05.34h-3.88v-9.1h3.85a6.33,6.33,0,0,1,1.71.22,2.43,2.43,0,0,1,1.17.72A2,2,0,0,1,339.37,238.5Zm-1.39.16a1.08,1.08,0,0,0-.47-1,2.72,2.72,0,0,0-1.53-.32h-2.39V240h2.15a3.5,3.5,0,0,0,1.67-.32A1.08,1.08,0,0,0,338,238.66Zm.27,4a1.25,1.25,0,0,0-.6-1.16,3.5,3.5,0,0,0-1.76-.36h-2.3v3.06h2.34a3.45,3.45,0,0,0,1.72-.35A1.27,1.27,0,0,0,338.25,242.66Z"/>
        <path d="M345.24,236.07a3.43,3.43,0,0,1,2.39.73,3.09,3.09,0,0,1,.78,2.34v6.18h-1l-.26-1.34h-.07a4.82,4.82,0,0,1-.78.83,3.1,3.1,0,0,1-.95.51,4.55,4.55,0,0,1-1.32.17,3.56,3.56,0,0,1-1.46-.29,2.31,2.31,0,0,1-1-.88,2.87,2.87,0,0,1-.36-1.5,2.38,2.38,0,0,1,1.06-2.09,6.18,6.18,0,0,1,3.25-.8l1.56-.06v-.56a2.21,2.21,0,0,0-.5-1.65,2,2,0,0,0-1.42-.47,4.22,4.22,0,0,0-1.34.2,8.87,8.87,0,0,0-1.22.49l-.42-1a7.57,7.57,0,0,1,1.4-.54A6,6,0,0,1,345.24,236.07Zm1.82,4.77-1.37.06a4.51,4.51,0,0,0-2.37.55,1.61,1.61,0,0,0-.69,1.39,1.38,1.38,0,0,0,.46,1.15,2,2,0,0,0,1.24.38,2.88,2.88,0,0,0,2-.68,2.54,2.54,0,0,0,.76-2Z"/>
        <path d="M352.51,236.22v5.72c0,.11,0,.25,0,.43s0,.36,0,.56l0,.56c0,.18,0,.33,0,.44l4.91-7.71H359v9.1h-1.28v-5.58c0-.18,0-.4,0-.68l0-.82c0-.26,0-.47,0-.62l-4.89,7.7h-1.69v-9.1Zm5.82-3.74a3.08,3.08,0,0,1-.41,1.4,2.1,2.1,0,0,1-1,.85,4.26,4.26,0,0,1-1.68.29,4.21,4.21,0,0,1-1.7-.28,1.9,1.9,0,0,1-1-.84,3.4,3.4,0,0,1-.36-1.42h1.28a1.82,1.82,0,0,0,.48,1.24,2.47,2.47,0,0,0,2.52,0,1.73,1.73,0,0,0,.54-1.23Z"/>
        <path d="M366.13,236.06a3.36,3.36,0,0,1,2.69,1.17,5.28,5.28,0,0,1,1,3.52,6.44,6.44,0,0,1-.46,2.6,3.47,3.47,0,0,1-1.29,1.6,3.55,3.55,0,0,1-2,.54,3.68,3.68,0,0,1-1.25-.2,2.6,2.6,0,0,1-.93-.51,3.27,3.27,0,0,1-.64-.71h-.1q0,.33.06.78c0,.31,0,.57,0,.8v3.74h-1.37V236.22H363l.18,1.35h.07a3.54,3.54,0,0,1,.64-.76,2.89,2.89,0,0,1,.92-.55A3.64,3.64,0,0,1,366.13,236.06Zm-.23,1.16a2.79,2.79,0,0,0-1.51.36,2.08,2.08,0,0,0-.83,1.1,5.48,5.48,0,0,0-.28,1.82v.26a6.46,6.46,0,0,0,.25,2,2.25,2.25,0,0,0,.83,1.22,2.64,2.64,0,0,0,1.55.41,2.11,2.11,0,0,0,1.4-.46,2.69,2.69,0,0,0,.83-1.27,5.72,5.72,0,0,0,.28-1.88,4.66,4.66,0,0,0-.62-2.56A2.13,2.13,0,0,0,365.9,237.22Z"/>
        <path d="M373.49,236.22v5.72c0,.11,0,.25,0,.43s0,.36,0,.56l0,.56c0,.18,0,.33,0,.44l4.91-7.71H380v9.1h-1.28v-5.58c0-.18,0-.4,0-.68l0-.82c0-.26,0-.47,0-.62l-4.89,7.7h-1.69v-9.1Z"/>
        <path d="M384.26,236.22V240h5v-3.82h1.37v9.1h-1.37v-4.11h-5v4.11h-1.37v-9.1Z"/>
        <path d="M399,236.22v1.17H394.9v7.93h-1.37v-9.1Z"/>
        <path d="M408.54,240.75a6.43,6.43,0,0,1-.29,2,4.06,4.06,0,0,1-.83,1.49,3.73,3.73,0,0,1-1.31.93,4.54,4.54,0,0,1-1.74.32,4.22,4.22,0,0,1-1.65-.32,3.88,3.88,0,0,1-1.3-.93,4.23,4.23,0,0,1-.84-1.49,6.14,6.14,0,0,1-.3-2,5.78,5.78,0,0,1,.5-2.54,3.6,3.6,0,0,1,1.43-1.6,4.25,4.25,0,0,1,2.22-.55,4.13,4.13,0,0,1,2.16.55,3.75,3.75,0,0,1,1.43,1.61A5.6,5.6,0,0,1,408.54,240.75Zm-6.85,0a5.77,5.77,0,0,0,.29,1.91,2.54,2.54,0,0,0,.88,1.24,2.93,2.93,0,0,0,3.09,0,2.56,2.56,0,0,0,.89-1.24,5.78,5.78,0,0,0,.28-1.91,5.6,5.6,0,0,0-.28-1.88,2.55,2.55,0,0,0-.89-1.22,2.58,2.58,0,0,0-1.55-.43,2.33,2.33,0,0,0-2.06.94A4.51,4.51,0,0,0,401.69,240.75Z"/>
        <path d="M420.39,236.22v9.1h-1.23v-5.93c0-.24,0-.49,0-.74s0-.5.06-.76h-.05l-3,7.43H415l-2.92-7.43h0l0,.76c0,.25,0,.52,0,.79v5.88h-1.23v-9.1h1.83l2.9,7.44,2.95-7.44Z"/>
        <circle cx="78.96" cy="242.47" r="2.5"/>
        <path d="M100.23,270.25a4.38,4.38,0,0,0-1.78.35,3.61,3.61,0,0,0-1.35,1,4.47,4.47,0,0,0-.85,1.57,6.63,6.63,0,0,0-.3,2.07,6.76,6.76,0,0,0,.48,2.66,3.63,3.63,0,0,0,1.41,1.73,4.19,4.19,0,0,0,2.35.62,8.18,8.18,0,0,0,1.52-.14,12.63,12.63,0,0,0,1.38-.34V281a7.78,7.78,0,0,1-1.38.37,10.6,10.6,0,0,1-1.72.12,5.63,5.63,0,0,1-3-.77,4.67,4.67,0,0,1-1.84-2.17,8.21,8.21,0,0,1-.62-3.31,7.75,7.75,0,0,1,.39-2.52,5.65,5.65,0,0,1,1.11-2,5,5,0,0,1,1.81-1.28,6.28,6.28,0,0,1,2.46-.45,8.47,8.47,0,0,1,1.76.18,6.19,6.19,0,0,1,1.52.53l-.56,1.19a8.07,8.07,0,0,0-1.26-.46A5.35,5.35,0,0,0,100.23,270.25Z"/>
        <path d="M111.62,273.39h-3v7.93h-1.35v-7.93h-2.92v-1.17h7.23Z"/>
        <path d="M116.77,272.07a3.43,3.43,0,0,1,2.39.73,3.09,3.09,0,0,1,.78,2.34v6.18h-1l-.27-1.34h-.06a4.85,4.85,0,0,1-.79.83,3.1,3.1,0,0,1-1,.51,4.55,4.55,0,0,1-1.32.17,3.51,3.51,0,0,1-1.45-.29,2.34,2.34,0,0,1-1-.88,2.87,2.87,0,0,1-.36-1.5,2.36,2.36,0,0,1,1.07-2.09,6.15,6.15,0,0,1,3.25-.8l1.55-.06v-.56a2.21,2.21,0,0,0-.5-1.65,2,2,0,0,0-1.41-.47,4.28,4.28,0,0,0-1.35.2,9.41,9.41,0,0,0-1.22.49l-.42-1a7.86,7.86,0,0,1,1.4-.54A6.05,6.05,0,0,1,116.77,272.07Zm1.82,4.77-1.37.06a4.51,4.51,0,0,0-2.37.55,1.61,1.61,0,0,0-.69,1.39,1.36,1.36,0,0,0,.47,1.15,1.91,1.91,0,0,0,1.24.38,2.85,2.85,0,0,0,2-.68,2.54,2.54,0,0,0,.76-2Z"/>
        <path d="M129.9,274.5a1.78,1.78,0,0,1-.49,1.34,2.55,2.55,0,0,1-1.28.64v.07a2.82,2.82,0,0,1,1.46.61,1.81,1.81,0,0,1,.61,1.5,2.55,2.55,0,0,1-.37,1.38,2.43,2.43,0,0,1-1.15.94,5.21,5.21,0,0,1-2.06.34h-3.87v-9.1h3.84a6.23,6.23,0,0,1,1.71.22,2.39,2.39,0,0,1,1.17.72A2,2,0,0,1,129.9,274.5Zm-1.39.16a1.06,1.06,0,0,0-.47-1,2.72,2.72,0,0,0-1.53-.32h-2.39V276h2.15a3.55,3.55,0,0,0,1.68-.32A1.09,1.09,0,0,0,128.51,274.66Zm.27,4a1.25,1.25,0,0,0-.6-1.16,3.46,3.46,0,0,0-1.75-.36h-2.31v3.06h2.34a3.52,3.52,0,0,0,1.73-.35A1.28,1.28,0,0,0,128.78,278.66Z"/>
        <path d="M137.65,272.22h1.5l-3.88,4.39,4.19,4.71h-1.6l-4.09-4.62v4.62H132.4v-9.1h1.37v4.42Z"/>
        <path d="M144.46,272.07a3.43,3.43,0,0,1,2.39.73,3.09,3.09,0,0,1,.78,2.34v6.18h-1l-.26-1.34h-.06a5.27,5.27,0,0,1-.79.83,3.1,3.1,0,0,1-1,.51,4.55,4.55,0,0,1-1.32.17,3.56,3.56,0,0,1-1.46-.29,2.37,2.37,0,0,1-1-.88,2.87,2.87,0,0,1-.36-1.5,2.38,2.38,0,0,1,1.06-2.09,6.22,6.22,0,0,1,3.26-.8l1.55-.06v-.56a2.21,2.21,0,0,0-.5-1.65,2,2,0,0,0-1.42-.47,4.22,4.22,0,0,0-1.34.2,9.41,9.41,0,0,0-1.22.49l-.42-1a7.57,7.57,0,0,1,1.4-.54A6,6,0,0,1,144.46,272.07Zm1.82,4.77-1.37.06a4.51,4.51,0,0,0-2.37.55,1.61,1.61,0,0,0-.69,1.39,1.38,1.38,0,0,0,.46,1.15,2,2,0,0,0,1.24.38,2.88,2.88,0,0,0,2-.68,2.54,2.54,0,0,0,.76-2Z"/>
        <path d="M159.94,272.22v9.1H158.7v-5.93c0-.24,0-.49,0-.74l.06-.76h-.05l-3,7.43h-1.16l-2.91-7.43h0c0,.26,0,.51,0,.76s0,.52,0,.79v5.88h-1.24v-9.1h1.83l2.91,7.44,2.94-7.44Z"/>
        <path d="M166.67,275.86a12.78,12.78,0,0,1,.37-3.32,5.32,5.32,0,0,1,1.14-2.21,4.1,4.1,0,0,1,2-1.14c.7-.19,1.42-.36,2.14-.5s1.43-.26,2.11-.37l.24,1.21-1.09.17-1.13.2c-.38.07-.73.14-1.07.22s-.63.15-.88.23a2.71,2.71,0,0,0-1.21.66,3.26,3.26,0,0,0-.79,1.3,7.33,7.33,0,0,0-.35,2.1h.1a3.2,3.2,0,0,1,.67-.73,3.85,3.85,0,0,1,1-.59,3.89,3.89,0,0,1,3.27.27,3.18,3.18,0,0,1,1.18,1.44,5.47,5.47,0,0,1,.39,2.15,5.65,5.65,0,0,1-.5,2.5,3.46,3.46,0,0,1-1.42,1.53,4.32,4.32,0,0,1-2.14.51,3.77,3.77,0,0,1-1.71-.38,3.48,3.48,0,0,1-1.27-1.09,5.35,5.35,0,0,1-.8-1.77A9.64,9.64,0,0,1,166.67,275.86Zm4.15,4.48a2.65,2.65,0,0,0,1.35-.33A2.19,2.19,0,0,0,173,279a4.91,4.91,0,0,0,.3-1.87,4.1,4.1,0,0,0-.54-2.27,2,2,0,0,0-1.75-.81,2.78,2.78,0,0,0-1.35.32,3.68,3.68,0,0,0-1,.76,3.55,3.55,0,0,0-.6.78,11,11,0,0,0,.12,1.65,4.78,4.78,0,0,0,.43,1.43,2.49,2.49,0,0,0,.84,1A2.32,2.32,0,0,0,170.82,280.34Z"/>
        <path d="M180.6,272.06a3.69,3.69,0,0,1,2,.51,3.32,3.32,0,0,1,1.25,1.44,5,5,0,0,1,.44,2.16V277h-6.22a3.6,3.6,0,0,0,.79,2.44,2.75,2.75,0,0,0,2.15.84,6.79,6.79,0,0,0,1.51-.16,8.15,8.15,0,0,0,1.36-.47v1.22a6.44,6.44,0,0,1-1.35.44,7.24,7.24,0,0,1-1.58.15,4.55,4.55,0,0,1-2.26-.54,3.73,3.73,0,0,1-1.5-1.57,5.58,5.58,0,0,1-.53-2.54,6.08,6.08,0,0,1,.49-2.55,3.63,3.63,0,0,1,3.47-2.23Zm0,1.13a2.22,2.22,0,0,0-1.74.72,3.34,3.34,0,0,0-.77,2h4.76a4.15,4.15,0,0,0-.25-1.43,2,2,0,0,0-.74-1A2.15,2.15,0,0,0,180.59,273.19Z"/>
        <path d="M188.9,272.06a5.15,5.15,0,0,1,1.75.27,2.57,2.57,0,0,1,1.14.81,2.1,2.1,0,0,1,.4,1.3,1.9,1.9,0,0,1-.44,1.31,2.57,2.57,0,0,1-1.23.71v.06a3.6,3.6,0,0,1,1,.43,2.1,2.1,0,0,1,.72.73,2.26,2.26,0,0,1,.26,1.12,2.38,2.38,0,0,1-.41,1.38,2.71,2.71,0,0,1-1.25,1,5.55,5.55,0,0,1-2.12.35,11,11,0,0,1-1.19-.07,6.92,6.92,0,0,1-1-.21,4.05,4.05,0,0,1-.8-.31v-1.26a7.38,7.38,0,0,0,1.34.5,6,6,0,0,0,1.67.22,4.32,4.32,0,0,0,1.24-.17,1.73,1.73,0,0,0,.87-.52,1.52,1.52,0,0,0,0-1.84,1.64,1.64,0,0,0-.86-.52,4.9,4.9,0,0,0-1.44-.17h-1.21V276h1a4.27,4.27,0,0,0,1.84-.33,1.17,1.17,0,0,0,.69-1.13,1.1,1.1,0,0,0-.53-1,2.8,2.8,0,0,0-1.53-.34,5.1,5.1,0,0,0-1.3.15,10.31,10.31,0,0,0-1.23.44l-.48-1.1a7.32,7.32,0,0,1,1.48-.48A8.38,8.38,0,0,1,188.9,272.06Z"/>
        <path d="M205.21,273.39h-3v7.93H200.9v-7.93H198v-1.17h7.23Z"/>
        <path d="M211.22,272.06a3.36,3.36,0,0,1,2.69,1.17,5.28,5.28,0,0,1,1,3.52,6.44,6.44,0,0,1-.46,2.6,3.33,3.33,0,0,1-3.26,2.14,3.74,3.74,0,0,1-1.26-.2,2.64,2.64,0,0,1-.92-.51,3.27,3.27,0,0,1-.64-.71h-.1q0,.33.06.78c0,.31,0,.57,0,.8v3.74H207V272.22h1.12l.18,1.35h.07a3.27,3.27,0,0,1,.64-.76,2.89,2.89,0,0,1,.92-.55A3.61,3.61,0,0,1,211.22,272.06Zm-.23,1.16a2.79,2.79,0,0,0-1.51.36,2.08,2.08,0,0,0-.83,1.1,5.48,5.48,0,0,0-.28,1.82v.26a6.46,6.46,0,0,0,.25,1.95,2.25,2.25,0,0,0,.83,1.22,2.64,2.64,0,0,0,1.55.41,2.11,2.11,0,0,0,1.4-.46,2.69,2.69,0,0,0,.83-1.27,5.72,5.72,0,0,0,.28-1.88,4.66,4.66,0,0,0-.62-2.56A2.13,2.13,0,0,0,211,273.22Z"/>
        <path d="M220.75,272.06a3.66,3.66,0,0,1,2,.51A3.28,3.28,0,0,1,224,274a5,5,0,0,1,.43,2.16V277H218.2a3.55,3.55,0,0,0,.78,2.44,2.77,2.77,0,0,0,2.15.84,6.89,6.89,0,0,0,1.52-.16,8.48,8.48,0,0,0,1.36-.47v1.22a6.84,6.84,0,0,1-1.35.44,7.31,7.31,0,0,1-1.58.15,4.53,4.53,0,0,1-2.26-.54,3.62,3.62,0,0,1-1.5-1.57,5.45,5.45,0,0,1-.54-2.54,6.24,6.24,0,0,1,.49-2.55,3.82,3.82,0,0,1,1.38-1.65A3.74,3.74,0,0,1,220.75,272.06Zm0,1.13a2.22,2.22,0,0,0-1.74.72,3.4,3.4,0,0,0-.77,2H223a3.93,3.93,0,0,0-.25-1.43,2,2,0,0,0-.73-1A2.16,2.16,0,0,0,220.73,273.19Z"/>
        <path d="M226.26,275.86a12.78,12.78,0,0,1,.37-3.32,5.32,5.32,0,0,1,1.14-2.21,4.1,4.1,0,0,1,2-1.14c.7-.19,1.42-.36,2.14-.5s1.42-.26,2.11-.37l.24,1.21-1.09.17-1.13.2c-.38.07-.73.14-1.07.22s-.63.15-.89.23a2.73,2.73,0,0,0-1.2.66,3.26,3.26,0,0,0-.79,1.3,7.33,7.33,0,0,0-.35,2.1h.09a3.51,3.51,0,0,1,.68-.73,3.85,3.85,0,0,1,1-.59,3.89,3.89,0,0,1,3.27.27A3.18,3.18,0,0,1,234,274.8a5.47,5.47,0,0,1,.39,2.15,5.65,5.65,0,0,1-.5,2.5,3.46,3.46,0,0,1-1.42,1.53,4.32,4.32,0,0,1-2.14.51,3.77,3.77,0,0,1-1.71-.38,3.48,3.48,0,0,1-1.27-1.09,5.35,5.35,0,0,1-.8-1.77A9.64,9.64,0,0,1,226.26,275.86Zm4.15,4.48a2.65,2.65,0,0,0,1.35-.33,2.19,2.19,0,0,0,.87-1.05,4.91,4.91,0,0,0,.3-1.87,4.1,4.1,0,0,0-.54-2.27,2,2,0,0,0-1.75-.81,2.78,2.78,0,0,0-1.35.32,3.68,3.68,0,0,0-1,.76,4,4,0,0,0-.61.78,11,11,0,0,0,.13,1.65,4.78,4.78,0,0,0,.43,1.43,2.49,2.49,0,0,0,.84,1A2.32,2.32,0,0,0,230.41,280.34Z"/>
        <path d="M244.49,276.75a6.43,6.43,0,0,1-.29,2,4.06,4.06,0,0,1-.83,1.49,3.73,3.73,0,0,1-1.31.93,4.52,4.52,0,0,1-1.73.32,4.24,4.24,0,0,1-1.66-.32,3.88,3.88,0,0,1-1.3-.93,4.23,4.23,0,0,1-.84-1.49,6.14,6.14,0,0,1-.3-2,5.78,5.78,0,0,1,.5-2.54,3.6,3.6,0,0,1,1.43-1.6,4.25,4.25,0,0,1,2.22-.55,4.13,4.13,0,0,1,2.16.55,3.75,3.75,0,0,1,1.43,1.61A5.6,5.6,0,0,1,244.49,276.75Zm-6.85,0a5.77,5.77,0,0,0,.29,1.91,2.54,2.54,0,0,0,.88,1.24,2.93,2.93,0,0,0,3.09,0,2.56,2.56,0,0,0,.89-1.24,5.77,5.77,0,0,0,.29-1.91,5.58,5.58,0,0,0-.29-1.88,2.55,2.55,0,0,0-.89-1.22,2.58,2.58,0,0,0-1.55-.43,2.33,2.33,0,0,0-2.06.94A4.51,4.51,0,0,0,237.64,276.75Z"/>
        <path d="M254,274.5a1.79,1.79,0,0,1-.5,1.34,2.48,2.48,0,0,1-1.27.64v.07a2.86,2.86,0,0,1,1.46.61,1.81,1.81,0,0,1,.61,1.5,2.55,2.55,0,0,1-.37,1.38,2.46,2.46,0,0,1-1.16.94,5.16,5.16,0,0,1-2.05.34h-3.88v-9.1h3.85a6.33,6.33,0,0,1,1.71.22,2.43,2.43,0,0,1,1.17.72A2,2,0,0,1,254,274.5Zm-1.39.16a1.08,1.08,0,0,0-.47-1,2.72,2.72,0,0,0-1.53-.32h-2.39V276h2.15a3.5,3.5,0,0,0,1.67-.32A1.08,1.08,0,0,0,252.61,274.66Zm.27,4a1.25,1.25,0,0,0-.6-1.16,3.5,3.5,0,0,0-1.76-.36h-2.3v3.06h2.34a3.45,3.45,0,0,0,1.72-.35A1.27,1.27,0,0,0,252.88,278.66Z"/>
        <path d="M259.87,272.07a3.43,3.43,0,0,1,2.39.73,3.09,3.09,0,0,1,.78,2.34v6.18h-1l-.26-1.34h-.07a4.82,4.82,0,0,1-.78.83,3.1,3.1,0,0,1-.95.51,4.55,4.55,0,0,1-1.32.17,3.56,3.56,0,0,1-1.46-.29,2.31,2.31,0,0,1-1-.88,2.87,2.87,0,0,1-.36-1.5,2.38,2.38,0,0,1,1.06-2.09,6.18,6.18,0,0,1,3.25-.8l1.56-.06v-.56a2.21,2.21,0,0,0-.5-1.65,2,2,0,0,0-1.42-.47,4.22,4.22,0,0,0-1.34.2,8.87,8.87,0,0,0-1.22.49l-.42-1a7.57,7.57,0,0,1,1.4-.54A6,6,0,0,1,259.87,272.07Zm1.82,4.77-1.37.06a4.51,4.51,0,0,0-2.37.55,1.61,1.61,0,0,0-.69,1.39,1.38,1.38,0,0,0,.46,1.15,2,2,0,0,0,1.24.38,2.88,2.88,0,0,0,2-.68,2.54,2.54,0,0,0,.76-2Z"/>
        <path d="M267.22,272.22V276h5v-3.82h1.37v9.1h-1.37v-4.11h-5v4.11h-1.38v-9.1Z"/>
        <path d="M277.78,272.22v6.15c0,.17,0,.36,0,.56l0,.56c0,.18,0,.33,0,.44l4.91-7.71h1.68v9.1H283v-6.26l0-.82c0-.26,0-.47,0-.62l-4.89,7.7h-1.68v-9.1Z"/>
        <path d="M288.47,272.22v6.15c0,.17,0,.36,0,.56l0,.56a2.59,2.59,0,0,1,0,.44l4.91-7.71H295v9.1H293.7v-5.58c0-.18,0-.4,0-.68s0-.55,0-.82,0-.47,0-.62l-4.89,7.7h-1.68v-9.1Zm5.83-3.74a3.21,3.21,0,0,1-.42,1.4,2.1,2.1,0,0,1-1,.85,4.22,4.22,0,0,1-1.68.29,4.28,4.28,0,0,1-1.7-.28,1.94,1.94,0,0,1-1-.84,3.56,3.56,0,0,1-.36-1.42h1.28a1.82,1.82,0,0,0,.48,1.24,2.49,2.49,0,0,0,2.53,0,1.73,1.73,0,0,0,.54-1.23Z"/>
        <path d="M307.48,272.22H309l-3.89,4.39,4.2,4.71h-1.6l-4.09-4.62v4.62h-1.37v-9.1h1.37v4.42Z"/>
        <path d="M323.05,276.75a6.15,6.15,0,0,1-.29,2,4,4,0,0,1-.82,1.49,3.82,3.82,0,0,1-1.31.93,4.57,4.57,0,0,1-1.74.32,4.31,4.31,0,0,1-1.66-.32,3.74,3.74,0,0,1-1.29-.93,4.1,4.1,0,0,1-.85-1.49,6.14,6.14,0,0,1-.3-2,5.93,5.93,0,0,1,.5-2.54,3.62,3.62,0,0,1,1.44-1.6,4.25,4.25,0,0,1,2.22-.55,4.07,4.07,0,0,1,2.15.55,3.71,3.71,0,0,1,1.44,1.61A5.74,5.74,0,0,1,323.05,276.75Zm-6.85,0a5.77,5.77,0,0,0,.29,1.91,2.56,2.56,0,0,0,4.86,0,5.77,5.77,0,0,0,.29-1.91,5.58,5.58,0,0,0-.29-1.88,2.53,2.53,0,0,0-.88-1.22,2.59,2.59,0,0,0-1.56-.43,2.31,2.31,0,0,0-2.05.94A4.43,4.43,0,0,0,316.2,276.75Z"/>
        <path d="M324.94,275.86a12.78,12.78,0,0,1,.37-3.32,5.22,5.22,0,0,1,1.15-2.21,4,4,0,0,1,2-1.14c.7-.19,1.41-.36,2.13-.5s1.43-.26,2.11-.37l.24,1.21-1.09.17-1.13.2c-.38.07-.73.14-1.07.22s-.63.15-.88.23a2.71,2.71,0,0,0-1.21.66,3.26,3.26,0,0,0-.79,1.3,7.33,7.33,0,0,0-.35,2.1h.1a3.45,3.45,0,0,1,.67-.73,4,4,0,0,1,1-.59,3.91,3.91,0,0,1,3.28.27,3.16,3.16,0,0,1,1.17,1.44,6.32,6.32,0,0,1-.11,4.65,3.46,3.46,0,0,1-1.42,1.53,4.32,4.32,0,0,1-2.14.51,3.73,3.73,0,0,1-1.7-.38A3.43,3.43,0,0,1,326,280a5.34,5.34,0,0,1-.79-1.77A9.17,9.17,0,0,1,324.94,275.86Zm4.16,4.48a2.61,2.61,0,0,0,1.34-.33,2.19,2.19,0,0,0,.87-1.05,4.89,4.89,0,0,0,.31-1.87,4.09,4.09,0,0,0-.55-2.27,2,2,0,0,0-1.74-.81,2.81,2.81,0,0,0-1.36.32,3.83,3.83,0,0,0-1,.76,3.89,3.89,0,0,0-.6.78,11,11,0,0,0,.12,1.65,4.78,4.78,0,0,0,.43,1.43,2.49,2.49,0,0,0,.84,1A2.33,2.33,0,0,0,329.1,280.34Z"/>
        <path d="M343.17,276.75a6.43,6.43,0,0,1-.29,2,3.93,3.93,0,0,1-.83,1.49,3.64,3.64,0,0,1-1.31.93,4.52,4.52,0,0,1-1.73.32,4.24,4.24,0,0,1-1.66-.32,3.88,3.88,0,0,1-1.3-.93,4.23,4.23,0,0,1-.84-1.49,6.14,6.14,0,0,1-.3-2,5.93,5.93,0,0,1,.5-2.54,3.6,3.6,0,0,1,1.43-1.6,4.28,4.28,0,0,1,2.22-.55,4.11,4.11,0,0,1,2.16.55,3.77,3.77,0,0,1,1.44,1.61A5.74,5.74,0,0,1,343.17,276.75Zm-6.85,0a5.77,5.77,0,0,0,.29,1.91,2.56,2.56,0,0,0,4.86,0,5.77,5.77,0,0,0,.29-1.91,5.58,5.58,0,0,0-.29-1.88,2.37,2.37,0,0,0-2.44-1.65,2.34,2.34,0,0,0-2.06.94A4.51,4.51,0,0,0,336.32,276.75Z"/>
        <path d="M349.76,272.06a3.35,3.35,0,0,1,2.68,1.17,5.28,5.28,0,0,1,1,3.52,6.44,6.44,0,0,1-.46,2.6,3.41,3.41,0,0,1-1.29,1.6,3.55,3.55,0,0,1-2,.54,3.68,3.68,0,0,1-1.25-.2,2.69,2.69,0,0,1-.93-.51,3.27,3.27,0,0,1-.64-.71h-.1q0,.33.06.78c0,.31,0,.57,0,.8v3.74h-1.37V272.22h1.12l.18,1.35h.07a3.54,3.54,0,0,1,.64-.76,2.89,2.89,0,0,1,.92-.55A3.66,3.66,0,0,1,349.76,272.06Zm-.24,1.16a2.79,2.79,0,0,0-1.51.36,2.08,2.08,0,0,0-.83,1.1,5.48,5.48,0,0,0-.28,1.82v.26a6.46,6.46,0,0,0,.25,1.95,2.31,2.31,0,0,0,.83,1.22,2.64,2.64,0,0,0,1.55.41,2.11,2.11,0,0,0,1.4-.46,2.69,2.69,0,0,0,.83-1.27,5.72,5.72,0,0,0,.28-1.88,4.66,4.66,0,0,0-.62-2.56A2.13,2.13,0,0,0,349.52,273.22Z"/>
        <path d="M363.58,276.75a6.43,6.43,0,0,1-.29,2,4.06,4.06,0,0,1-.83,1.49,3.73,3.73,0,0,1-1.31.93,4.54,4.54,0,0,1-1.74.32,4.22,4.22,0,0,1-1.65-.32,3.78,3.78,0,0,1-1.3-.93,4.25,4.25,0,0,1-.85-1.49,6.14,6.14,0,0,1-.3-2,5.78,5.78,0,0,1,.51-2.54,3.6,3.6,0,0,1,1.43-1.6,4.25,4.25,0,0,1,2.22-.55,4.07,4.07,0,0,1,2.15.55,3.71,3.71,0,0,1,1.44,1.61A5.73,5.73,0,0,1,363.58,276.75Zm-6.85,0a5.78,5.78,0,0,0,.28,1.91,2.62,2.62,0,0,0,.89,1.24,2.58,2.58,0,0,0,4-1.24,5.78,5.78,0,0,0,.28-1.91,5.6,5.6,0,0,0-.28-1.88,2.61,2.61,0,0,0-.89-1.22,2.58,2.58,0,0,0-1.55-.43,2.32,2.32,0,0,0-2.06.94A4.43,4.43,0,0,0,356.73,276.75Z"/>
        <path d="M372.07,273.39h-3v7.93h-1.35v-7.93h-2.92v-1.17h7.24Z"/>
        <path d="M372.43,272.22h1.46l2,5.28.32.89.26.82a7.57,7.57,0,0,1,.18.76h.06c.07-.28.18-.64.32-1.09s.3-.92.46-1.39l1.89-5.27h1.46l-3.91,10.44a7.1,7.1,0,0,1-.73,1.46,3,3,0,0,1-1,1,2.93,2.93,0,0,1-1.43.33,4.52,4.52,0,0,1-.68,0,4,4,0,0,1-.51-.11v-1.1a3.51,3.51,0,0,0,.43.07,3.27,3.27,0,0,0,.54,0,1.77,1.77,0,0,0,1.53-.77,3.72,3.72,0,0,0,.47-.89l.49-1.27Z"/>
        <circle cx="78.96" cy="277.47" r="2.5"/>
        <rect class="cls-3" x="94.73" y="321.69" width="130.88" height="36.04" rx="12"/>
        <path class="cls-6" d="M125.89,344.65v-9.28h6.91v9.28h-1.06v-8.33H127v8.33Z"/>
        <path class="cls-6"
              d="M141.2,341.16a4.82,4.82,0,0,1-.23,1.53,3.06,3.06,0,0,1-.64,1.13,2.69,2.69,0,0,1-1,.71,3.56,3.56,0,0,1-1.34.24,3.32,3.32,0,0,1-1.28-.24,2.73,2.73,0,0,1-1-.71,3.24,3.24,0,0,1-.66-1.13,4.82,4.82,0,0,1-.23-1.53,4.43,4.43,0,0,1,.39-2,2.83,2.83,0,0,1,1.11-1.23,3.33,3.33,0,0,1,1.71-.42,3.15,3.15,0,0,1,1.67.43,2.77,2.77,0,0,1,1.11,1.23A4.38,4.38,0,0,1,141.2,341.16Zm-5.3,0a4.51,4.51,0,0,0,.22,1.45,2,2,0,0,0,3.76,0,4.25,4.25,0,0,0,.22-1.45,4.11,4.11,0,0,0-.22-1.44,1.9,1.9,0,0,0-.68-.94,2,2,0,0,0-1.2-.33,1.79,1.79,0,0,0-1.59.72A3.39,3.39,0,0,0,135.9,341.16Z"/>
        <path class="cls-6"
              d="M148.12,337.69v6.06h1v3.3h-1v-2.4h-4.93v2.4h-1v-3.3h.55a8.11,8.11,0,0,0,1-1.81,11.41,11.41,0,0,0,.6-2.06,12.31,12.31,0,0,0,.21-2.19Zm-1,.84h-1.65a12.52,12.52,0,0,1-.27,1.88,11.8,11.8,0,0,1-.56,1.83,6.94,6.94,0,0,1-.81,1.51h3.29Z"/>
        <path class="cls-6"
              d="M153.76,337.56a2.58,2.58,0,0,1,2.07.9,4,4,0,0,1,.78,2.69,4.88,4.88,0,0,1-.36,2,2.6,2.6,0,0,1-1,1.22,2.7,2.7,0,0,1-1.52.41,2.91,2.91,0,0,1-1-.14,2.28,2.28,0,0,1-.72-.4,2.5,2.5,0,0,1-.49-.54h-.08c0,.17,0,.37.05.6s0,.44,0,.61v2.86h-1.06V337.69h.87l.14,1h.05a2.7,2.7,0,0,1,.49-.58,2.14,2.14,0,0,1,.72-.42A2.72,2.72,0,0,1,153.76,337.56Zm-.19.89a2.1,2.1,0,0,0-1.16.28,1.62,1.62,0,0,0-.64.84,4.17,4.17,0,0,0-.22,1.39v.2a4.91,4.91,0,0,0,.19,1.49,1.77,1.77,0,0,0,.64.93,2.07,2.07,0,0,0,1.21.32,1.69,1.69,0,0,0,1.08-.35,2.1,2.1,0,0,0,.64-1,4.44,4.44,0,0,0,.21-1.43,3.51,3.51,0,0,0-.48-2A1.63,1.63,0,0,0,153.57,338.45Z"/>
        <path class="cls-6"
              d="M164.44,341.16a4.83,4.83,0,0,1-.22,1.53,3.2,3.2,0,0,1-.64,1.13,2.77,2.77,0,0,1-1,.71,3.61,3.61,0,0,1-1.35.24,3.35,3.35,0,0,1-1.28-.24,2.82,2.82,0,0,1-1-.71,3.22,3.22,0,0,1-.65-1.13,4.56,4.56,0,0,1-.23-1.53,4.43,4.43,0,0,1,.38-2,2.83,2.83,0,0,1,1.11-1.23,3.35,3.35,0,0,1,1.72-.42,3.11,3.11,0,0,1,1.66.43,2.77,2.77,0,0,1,1.11,1.23A4.25,4.25,0,0,1,164.44,341.16Zm-5.29,0a4.25,4.25,0,0,0,.22,1.45,2,2,0,0,0,.68.95,2,2,0,0,0,3.08-.95,4.25,4.25,0,0,0,.22-1.45,4.11,4.11,0,0,0-.22-1.44,1.92,1.92,0,0,0-.69-.94,2,2,0,0,0-1.2-.33,1.81,1.81,0,0,0-1.59.72A3.46,3.46,0,0,0,159.15,341.16Z"/>
        <path class="cls-6"
              d="M165.9,340.47a9.81,9.81,0,0,1,.29-2.54,3.84,3.84,0,0,1,.88-1.68,3.1,3.1,0,0,1,1.55-.88c.54-.14,1.09-.27,1.65-.38s1.1-.2,1.63-.28l.18.92-.83.13-.88.16-.83.16-.68.18a2.1,2.1,0,0,0-.93.5,2.48,2.48,0,0,0-.62,1,5.65,5.65,0,0,0-.27,1.6h.08a2.93,2.93,0,0,1,1.31-1,2.78,2.78,0,0,1,1-.18,2.7,2.7,0,0,1,1.5.39,2.41,2.41,0,0,1,.91,1.1,4.79,4.79,0,0,1-.09,3.56,2.66,2.66,0,0,1-1.09,1.16,3.37,3.37,0,0,1-1.66.39,3,3,0,0,1-1.32-.28,2.7,2.7,0,0,1-1-.84,4.21,4.21,0,0,1-.62-1.35A7.19,7.19,0,0,1,165.9,340.47Zm3.21,3.43a2,2,0,0,0,1-.26,1.58,1.58,0,0,0,.67-.8,3.58,3.58,0,0,0,.24-1.43,3.07,3.07,0,0,0-.42-1.73,1.5,1.5,0,0,0-1.35-.63,2.32,2.32,0,0,0-1,.25,3.17,3.17,0,0,0-.79.58,3,3,0,0,0-.47.6,7.48,7.48,0,0,0,.1,1.26,3.72,3.72,0,0,0,.33,1.1,1.88,1.88,0,0,0,.65.77A1.81,1.81,0,0,0,169.11,343.9Z"/>
        <path class="cls-6" d="M175.05,337.69v2.92h3.88v-2.92H180v7h-1.06V341.5h-3.88v3.15H174v-7Z"/>
        <path class="cls-6"
              d="M184.9,337.56a2.76,2.76,0,0,1,1.52.4,2.47,2.47,0,0,1,1,1.1,3.71,3.71,0,0,1,.34,1.65v.66h-4.8a2.68,2.68,0,0,0,.61,1.86,2.12,2.12,0,0,0,1.66.64,5.14,5.14,0,0,0,1.17-.12,6.8,6.8,0,0,0,1-.35v.92a5.54,5.54,0,0,1-1,.35,6.37,6.37,0,0,1-1.23.1,3.47,3.47,0,0,1-1.74-.41,2.75,2.75,0,0,1-1.16-1.2,4.09,4.09,0,0,1-.42-1.94,4.68,4.68,0,0,1,.38-2,2.84,2.84,0,0,1,2.69-1.71Zm0,.87a1.73,1.73,0,0,0-1.35.55,2.6,2.6,0,0,0-.59,1.54h3.68a3,3,0,0,0-.2-1.09,1.56,1.56,0,0,0-.56-.74A1.67,1.67,0,0,0,184.89,338.43Z"/>
        <path class="cls-6"
              d="M192.2,337.56a2.76,2.76,0,0,1,1.52.4,2.47,2.47,0,0,1,1,1.1,3.71,3.71,0,0,1,.34,1.65v.66h-4.8a2.73,2.73,0,0,0,.6,1.86,2.16,2.16,0,0,0,1.67.64,5.14,5.14,0,0,0,1.17-.12,7.18,7.18,0,0,0,1.05-.35v.92a5.54,5.54,0,0,1-1,.35,6.37,6.37,0,0,1-1.23.1,3.47,3.47,0,0,1-1.74-.41,2.75,2.75,0,0,1-1.16-1.2,4.09,4.09,0,0,1-.42-1.94,4.68,4.68,0,0,1,.38-2,2.84,2.84,0,0,1,2.69-1.71Zm0,.87a1.73,1.73,0,0,0-1.35.55,2.67,2.67,0,0,0-.6,1.54h3.69a3,3,0,0,0-.2-1.09,1.52,1.52,0,0,0-.57-.74A1.63,1.63,0,0,0,192.19,338.43Z"/>
    </g>
</svg>