<svg id="Слой_1" data-name="Слой 1" xmlns="http://www.w3.org/2000/svg" viewBox="0 0 750 400">
    <defs>
        <style>.cls-1{fill:#f2f4f3;}.cls-2{fill:none;}.cls-3{fill:#e6ede5;}.cls-4{fill:#22333b;}.cls-5{fill:#ff5714;}
        </style>
    </defs>
    <rect class="cls-1" width="750" height="400"/>
    <polygon class="cls-2"
             points="711.66 266.7 746.75 133.4 711.66 133.4 746.77 0 711.66 0 676.58 133.3 711.66 133.3 676.58 266.6 711.66 266.6 676.55 400 711.66 400 746.75 266.7 711.66 266.7"/>
    <polygon class="cls-2"
             points="641.16 266.7 676.25 133.4 641.16 133.4 676.27 0 641.16 0 606.08 133.3 641.16 133.3 606.08 266.6 641.16 266.6 606.05 400 641.16 400 676.25 266.7 641.16 266.7"/>
    <polygon class="cls-2" points="750 266.6 750 255.51 747.08 266.6 750 266.6"/>
    <polygon class="cls-2" points="747.05 400 750 400 750 388.81 747.05 400"/>
    <polygon class="cls-2" points="750 133.3 750 122.21 747.08 133.3 750 133.3"/>
    <polygon class="cls-2"
             points="500.17 266.7 535.25 133.4 500.17 133.4 535.27 0 0 0 0 400 359.17 400 394.28 266.6 429.67 266.6 394.56 400 429.67 400 464.75 266.7 429.67 266.7 464.77 133.3 500.17 133.3 465.08 266.6 500.17 266.6 465.06 400 500.17 400 535.25 266.7 500.17 266.7"/>
    <polygon class="cls-2"
             points="570.66 266.7 605.75 133.4 570.66 133.4 605.77 0 570.66 0 535.58 133.3 570.66 133.3 535.58 266.6 570.66 266.6 535.55 400 570.66 400 605.75 266.7 570.66 266.7"/>
    <polygon class="cls-3"
             points="465.08 266.6 500.17 133.3 464.77 133.3 429.67 266.7 464.75 266.7 464.77 266.6 465.08 266.6"/>
    <polygon class="cls-3" points="394.28 266.6 359.17 400 394.56 400 429.67 266.6 394.28 266.6"/>
    <polygon class="cls-3" points="535.25 133.4 535.27 133.3 535.58 133.3 570.66 0 535.27 0 500.17 133.4 535.25 133.4"/>
    <polygon class="cls-3"
             points="535.25 133.4 500.17 266.7 535.25 266.7 535.27 266.6 535.58 266.6 570.66 133.3 535.58 133.3 535.27 133.3 535.25 133.4"/>
    <polygon class="cls-3"
             points="465.08 266.6 464.77 266.6 464.75 266.7 429.67 400 465.06 400 500.17 266.6 465.08 266.6"/>
    <polygon class="cls-3" points="605.75 133.4 605.77 133.3 606.08 133.3 641.16 0 605.77 0 570.66 133.4 605.75 133.4"/>
    <polygon class="cls-3"
             points="605.75 133.4 570.66 266.7 605.75 266.7 605.77 266.6 606.08 266.6 641.16 133.3 606.08 133.3 605.77 133.3 605.75 133.4"/>
    <polygon class="cls-3"
             points="535.58 266.6 535.27 266.6 535.25 266.7 500.17 400 535.55 400 570.66 266.6 535.58 266.6"/>
    <polygon class="cls-3" points="676.25 133.4 676.27 133.3 676.58 133.3 711.66 0 676.27 0 641.16 133.4 676.25 133.4"/>
    <polygon class="cls-3"
             points="676.25 133.4 641.16 266.7 676.25 266.7 676.27 266.6 676.58 266.6 711.66 133.3 676.58 133.3 676.27 133.3 676.25 133.4"/>
    <polygon class="cls-3"
             points="606.08 266.6 605.77 266.6 605.75 266.7 570.66 400 606.05 400 641.16 266.6 606.08 266.6"/>
    <polygon class="cls-3"
             points="746.75 133.4 746.77 133.3 747.08 133.3 750 122.21 750 0 746.77 0 711.66 133.4 746.75 133.4"/>
    <polygon class="cls-3"
             points="746.77 133.3 746.75 133.4 711.66 266.7 746.75 266.7 746.77 266.6 747.08 266.6 750 255.51 750 133.3 747.08 133.3 746.77 133.3"/>
    <polygon class="cls-3"
             points="676.58 266.6 676.27 266.6 676.25 266.7 641.16 400 676.55 400 711.66 266.6 676.58 266.6"/>
    <polygon class="cls-3"
             points="750 266.6 747.08 266.6 746.77 266.6 746.75 266.7 711.66 400 747.05 400 750 388.81 750 266.6"/>
    <circle class="cls-4" cx="49.87" cy="50.13" r="7.49"/>
    <path class="cls-5"
          d="M49.87,78.5A28.37,28.37,0,1,1,68,28.28a5.52,5.52,0,1,1-7,8.5,17.34,17.34,0,1,0,0,26.7A5.52,5.52,0,0,1,68,72a28.21,28.21,0,0,1-18.1,6.52Z"/>
    <path d="M98.61,119.29a5.5,5.5,0,0,1-2,4.39,9.35,9.35,0,0,1-4.93,2.1v.11A10.25,10.25,0,0,1,97.44,128a5.48,5.48,0,0,1,2,4.4,7.12,7.12,0,0,1-1.3,4.2,8.5,8.5,0,0,1-3.84,2.86,17,17,0,0,1-6.29,1,35.46,35.46,0,0,1-5.47-.38A19.59,19.59,0,0,1,78.42,139v-4.82a16,16,0,0,0,2.67.95,25.17,25.17,0,0,0,3,.62,20.85,20.85,0,0,0,2.82.21,10.08,10.08,0,0,0,5.23-1,3.31,3.31,0,0,0,1.62-2.95c0-1.3-.79-2.25-2.36-2.84a18.46,18.46,0,0,0-6.34-.89H82.51v-4.49h2.28a23.24,23.24,0,0,0,5-.42,4.85,4.85,0,0,0,2.5-1.2,2.73,2.73,0,0,0,.72-1.91A2.54,2.54,0,0,0,91.78,118a6.72,6.72,0,0,0-3.69-.83,12.62,12.62,0,0,0-4,.6,15.61,15.61,0,0,0-3.43,1.61l-2.51-3.84a18.79,18.79,0,0,1,3-1.58,17.7,17.7,0,0,1,3.48-1,22.7,22.7,0,0,1,4.23-.36,14.07,14.07,0,0,1,5.23.87,7.63,7.63,0,0,1,3.33,2.39A5.49,5.49,0,0,1,98.61,119.29Z"/>
    <path d="M112.55,118.9a9.92,9.92,0,0,1,6.4,1.81,6.75,6.75,0,0,1,2.22,5.53v13.83h-4l-1.09-2.82H116a10.34,10.34,0,0,1-1.82,1.81,6.22,6.22,0,0,1-2.13,1,10.82,10.82,0,0,1-2.93.34,7.47,7.47,0,0,1-3.3-.71,5.24,5.24,0,0,1-2.29-2.16,7.32,7.32,0,0,1-.83-3.7A5.47,5.47,0,0,1,105,129c1.55-1,3.87-1.62,7-1.74l3.6-.11v-.91a3,3,0,0,0-.85-2.39,3.44,3.44,0,0,0-2.38-.76,10.22,10.22,0,0,0-2.95.43,22.53,22.53,0,0,0-2.89,1.07l-1.88-3.82a16.11,16.11,0,0,1,3.71-1.37A17.45,17.45,0,0,1,112.55,118.9Zm3,11.56-2.19.07a6.31,6.31,0,0,0-3.81,1,3,3,0,0,0-1.07,2.4,2.13,2.13,0,0,0,.76,1.84,3.3,3.3,0,0,0,2,.55,4.55,4.55,0,0,0,3.07-1.08,3.81,3.81,0,0,0,1.25-3.06Z"/>
    <path d="M153.14,119.32v20.75h-5.28V129.88c0-1,0-2,0-2.95s.09-1.86.17-2.67H148l-5.74,15.81H138l-5.82-15.85H132c.1.83.17,1.72.2,2.67s.06,2,.06,3.14v10H127V119.32h8l5.15,14.07,5.26-14.07Z"/>
    <path d="M167.64,118.93a10.39,10.39,0,0,1,5,1.11,7.68,7.68,0,0,1,3.21,3.2,10.7,10.7,0,0,1,1.13,5.12v2.74H163.55a5.41,5.41,0,0,0,1.44,3.76,5,5,0,0,0,3.74,1.37,15.3,15.3,0,0,0,3.64-.41,17.89,17.89,0,0,0,3.39-1.23V139a13.06,13.06,0,0,1-3.22,1.11,19.69,19.69,0,0,1-4.07.36,12.72,12.72,0,0,1-5.52-1.15,8.58,8.58,0,0,1-3.77-3.51,11.71,11.71,0,0,1-1.36-5.94,13.35,13.35,0,0,1,1.23-6.06,8.37,8.37,0,0,1,3.45-3.63A10.47,10.47,0,0,1,167.64,118.93Zm0,4a3.72,3.72,0,0,0-2.73,1.06,5,5,0,0,0-1.26,3.32h7.94a5.71,5.71,0,0,0-.45-2.25,3.6,3.6,0,0,0-1.3-1.56A3.91,3.91,0,0,0,167.67,123Z"/>
    <path d="M187.19,119.32v8h7.91v-8h5.66v20.75H195.1v-8.56h-7.91v8.56h-5.66V119.32Z"/>
    <path d="M215.19,118.9c2.78,0,4.92.6,6.4,1.81a6.72,6.72,0,0,1,2.23,5.53v13.83h-3.95l-1.1-2.82h-.15a10.66,10.66,0,0,1-1.81,1.81,6.18,6.18,0,0,1-2.14,1,10.77,10.77,0,0,1-2.93.34,7.46,7.46,0,0,1-3.29-.71,5.26,5.26,0,0,1-2.3-2.16,7.42,7.42,0,0,1-.83-3.7,5.45,5.45,0,0,1,2.32-4.87c1.55-1,3.86-1.62,7-1.74l3.6-.11v-.91a3,3,0,0,0-.86-2.39,3.43,3.43,0,0,0-2.37-.76,10.17,10.17,0,0,0-2.95.43,22.66,22.66,0,0,0-2.9,1.07l-1.87-3.82a15.86,15.86,0,0,1,3.7-1.37A17.51,17.51,0,0,1,215.19,118.9Zm3,11.56-2.19.07a6.37,6.37,0,0,0-3.82,1,3,3,0,0,0-1.06,2.4,2.1,2.1,0,0,0,.76,1.84,3.29,3.29,0,0,0,2,.55,4.51,4.51,0,0,0,3.07-1.08,3.78,3.78,0,0,0,1.26-3.06Z"/>
    <path d="M254.68,111.2v8a14.85,14.85,0,0,1,6.06,1.68,9.46,9.46,0,0,1,3.75,3.64,10.29,10.29,0,0,1,1.28,5.16,10.64,10.64,0,0,1-1.23,5.16,9.37,9.37,0,0,1-3.7,3.66,14.93,14.93,0,0,1-6.16,1.7v9h-5.26v-9a15.1,15.1,0,0,1-6.06-1.73,9.78,9.78,0,0,1-3.8-3.66,10,10,0,0,1-1.31-5.13,11.1,11.1,0,0,1,1.21-5.24,8.88,8.88,0,0,1,3.68-3.63,14.92,14.92,0,0,1,6.28-1.61v-8Zm-5.26,12.26a6.21,6.21,0,0,0-2.84,1.08,5.66,5.66,0,0,0-1.85,2.18,6.68,6.68,0,0,0-.65,3,7.09,7.09,0,0,0,.62,3,5.45,5.45,0,0,0,1.82,2.16,6.46,6.46,0,0,0,2.9,1.06Zm5.26.07v12.4a6.25,6.25,0,0,0,2.86-1.06,5.4,5.4,0,0,0,1.8-2.16,6.94,6.94,0,0,0,.62-3,6.21,6.21,0,0,0-1.42-4.16A5.8,5.8,0,0,0,254.68,123.53Z"/>
    <path d="M275.92,119.32v8.2c0,.42,0,1-.05,1.59s-.07,1.28-.12,1.94-.1,1.24-.15,1.76-.08.87-.11,1.06l9.58-14.55h6.81v20.75H286.4v-8.28c0-.68,0-1.43.08-2.25s.1-1.6.17-2.33.1-1.28.12-1.65l-9.53,14.51h-6.79V119.32Z"/>
    <path d="M306.24,140.44a11.31,11.31,0,0,1-5.25-1.13,7.28,7.28,0,0,1-3.3-3.47,13.89,13.89,0,0,1-1.14-6,13.07,13.07,0,0,1,1.29-6.21,8.16,8.16,0,0,1,3.58-3.54,11.94,11.94,0,0,1,5.32-1.13,14.55,14.55,0,0,1,3.72.42,15.5,15.5,0,0,1,2.74,1l-1.67,4.38c-.89-.36-1.72-.65-2.49-.88a8,8,0,0,0-2.3-.34,4.21,4.21,0,0,0-2.47.69,4.15,4.15,0,0,0-1.46,2.09,10.55,10.55,0,0,0-.49,3.49,9.74,9.74,0,0,0,.52,3.41,4.09,4.09,0,0,0,1.51,2,4.17,4.17,0,0,0,2.39.65,9.55,9.55,0,0,0,3.14-.47,11.88,11.88,0,0,0,2.67-1.33v4.85a9.89,9.89,0,0,1-2.72,1.18A14.94,14.94,0,0,1,306.24,140.44Z"/>
    <path d="M331,119.32h6.24l-8.22,10,8.94,10.8h-6.42L323,129.55v10.52h-5.66V119.32H323V129.4Z"/>
    <path d="M349.38,118.9c2.78,0,4.92.6,6.4,1.81a6.75,6.75,0,0,1,2.23,5.53v13.83h-4L353,137.25h-.15a10.34,10.34,0,0,1-1.82,1.81,6.22,6.22,0,0,1-2.13,1,10.82,10.82,0,0,1-2.93.34,7.47,7.47,0,0,1-3.3-.71,5.24,5.24,0,0,1-2.29-2.16,7.42,7.42,0,0,1-.83-3.7,5.45,5.45,0,0,1,2.32-4.87c1.54-1,3.86-1.62,6.95-1.74l3.6-.11v-.91a3,3,0,0,0-.85-2.39,3.43,3.43,0,0,0-2.37-.76,10.13,10.13,0,0,0-3,.43,22.66,22.66,0,0,0-2.9,1.07l-1.87-3.82a15.86,15.86,0,0,1,3.7-1.37A17.51,17.51,0,0,1,349.38,118.9Zm3,11.56-2.19.07a6.31,6.31,0,0,0-3.81,1,3,3,0,0,0-1.07,2.4,2.11,2.11,0,0,0,.77,1.84,3.25,3.25,0,0,0,2,.55,4.53,4.53,0,0,0,3.07-1.08,3.78,3.78,0,0,0,1.25-3.06Z"/>
    <path d="M382.41,140.07h-5.66v-16.5h-5.22c-.26,3-.57,5.64-.93,7.78a23.74,23.74,0,0,1-1.37,5.22,6.78,6.78,0,0,1-2.08,2.94,5,5,0,0,1-3.06.93,9.65,9.65,0,0,1-1.79-.15,6.38,6.38,0,0,1-1.44-.45v-4.52a6,6,0,0,0,.88.27,4.83,4.83,0,0,0,.94.1,1.49,1.49,0,0,0,1-.43,4,4,0,0,0,.91-1.47,16.36,16.36,0,0,0,.81-2.91c.25-1.23.48-2.8.69-4.69s.41-4.18.6-6.87h15.7Z"/>
    <path d="M394,127.34h4a17.33,17.33,0,0,1,5.27.67,6,6,0,0,1,3.1,2,5.55,5.55,0,0,1,1,3.42,6.43,6.43,0,0,1-.93,3.49,5.93,5.93,0,0,1-2.95,2.3,14.43,14.43,0,0,1-5.29.82h-9.87V119.32H394Zm7.72,6.2a1.85,1.85,0,0,0-1-1.75,6.09,6.09,0,0,0-2.88-.54H394v4.9H398a5.41,5.41,0,0,0,2.71-.6A2.12,2.12,0,0,0,401.72,133.54Z"/>
    <path d="M417.33,119.32v8h7.9v-8h5.66v20.75h-5.66v-8.56h-7.9v8.56h-5.66V119.32Z"/>
    <path d="M455.68,129.66a13.85,13.85,0,0,1-.7,4.6,9.28,9.28,0,0,1-2,3.39,8.53,8.53,0,0,1-3.19,2.08,11.82,11.82,0,0,1-4.2.71,11.09,11.09,0,0,1-4-.71,8.7,8.7,0,0,1-3.17-2.08,9.54,9.54,0,0,1-2.08-3.39,13.33,13.33,0,0,1-.74-4.6,12.71,12.71,0,0,1,1.23-5.85,8.39,8.39,0,0,1,3.49-3.63,11,11,0,0,1,5.4-1.25,10.48,10.48,0,0,1,5.16,1.25,8.75,8.75,0,0,1,3.55,3.63A12.22,12.22,0,0,1,455.68,129.66Zm-14.34,0a11.3,11.3,0,0,0,.44,3.43,4.08,4.08,0,0,0,1.39,2.1,4,4,0,0,0,2.47.7,4,4,0,0,0,2.44-.7,4.06,4.06,0,0,0,1.37-2.1,11.63,11.63,0,0,0,.44-3.43,11.44,11.44,0,0,0-.44-3.43,3.91,3.91,0,0,0-1.38-2,4.15,4.15,0,0,0-2.47-.68,3.59,3.59,0,0,0-3.25,1.54A8.42,8.42,0,0,0,441.34,129.66Z"/>
    <path d="M474.68,119.32v4.25H466v16.5h-5.66V119.32Z"/>
    <path d="M497.37,129.66a13.85,13.85,0,0,1-.7,4.6,9.14,9.14,0,0,1-2,3.39,8.53,8.53,0,0,1-3.19,2.08,11.78,11.78,0,0,1-4.2.71,11.09,11.09,0,0,1-4-.71,8.7,8.7,0,0,1-3.17-2.08,9.54,9.54,0,0,1-2.08-3.39,13.34,13.34,0,0,1-.73-4.6,12.84,12.84,0,0,1,1.22-5.85,8.39,8.39,0,0,1,3.49-3.63,11,11,0,0,1,5.4-1.25,10.55,10.55,0,0,1,5.17,1.25,8.79,8.79,0,0,1,3.54,3.63A12.22,12.22,0,0,1,497.37,129.66Zm-14.34,0a11.63,11.63,0,0,0,.44,3.43,3.66,3.66,0,0,0,3.86,2.8,4,4,0,0,0,2.44-.7,4.07,4.07,0,0,0,1.38-2.1,11.65,11.65,0,0,0,.43-3.43,11.47,11.47,0,0,0-.43-3.43,4,4,0,0,0-1.39-2,4.14,4.14,0,0,0-2.46-.68A3.6,3.6,0,0,0,484,125,8.42,8.42,0,0,0,483,129.66Z"/>
    <path d="M85.09,164.92v8H93v-8h5.66v20.75H93v-8.56h-7.9v8.56H79.43V164.92Z"/>
    <path d="M113.08,164.5c2.79,0,4.92.6,6.41,1.81a6.75,6.75,0,0,1,2.22,5.53v13.83h-3.95l-1.09-2.82h-.15a10.69,10.69,0,0,1-1.82,1.81,6.18,6.18,0,0,1-2.14,1,10.77,10.77,0,0,1-2.93.34,7.46,7.46,0,0,1-3.29-.71,5.19,5.19,0,0,1-2.29-2.16,7.32,7.32,0,0,1-.84-3.7,5.48,5.48,0,0,1,2.32-4.87c1.55-1,3.87-1.62,7-1.74l3.6-.11v-.91a3,3,0,0,0-.85-2.39,3.44,3.44,0,0,0-2.38-.76,10.22,10.22,0,0,0-3,.43,22.53,22.53,0,0,0-2.89,1.07l-1.88-3.82a16,16,0,0,1,3.7-1.37A17.51,17.51,0,0,1,113.08,164.5Zm3,11.56-2.19.07a6.31,6.31,0,0,0-3.81,1,3,3,0,0,0-1.07,2.4,2.1,2.1,0,0,0,.76,1.84,3.3,3.3,0,0,0,2,.55,4.55,4.55,0,0,0,3.07-1.08,3.81,3.81,0,0,0,1.25-3.06Z"/>
    <path d="M141.14,164.92h6.23l-8.22,10,8.95,10.8h-6.42l-8.48-10.52v10.52h-5.66V164.92h5.66V175Z"/>
    <path d="M169.92,175.26a13.85,13.85,0,0,1-.7,4.6,9.28,9.28,0,0,1-2,3.39,8.61,8.61,0,0,1-3.19,2.08,11.86,11.86,0,0,1-4.2.71,11.09,11.09,0,0,1-4-.71,8.7,8.7,0,0,1-3.17-2.08,9.54,9.54,0,0,1-2.08-3.39,13.33,13.33,0,0,1-.74-4.6,12.71,12.71,0,0,1,1.23-5.85,8.39,8.39,0,0,1,3.49-3.63,11,11,0,0,1,5.4-1.25,10.48,10.48,0,0,1,5.16,1.25,8.75,8.75,0,0,1,3.55,3.63A12.22,12.22,0,0,1,169.92,175.26Zm-14.35,0a11.28,11.28,0,0,0,.45,3.43,4.08,4.08,0,0,0,1.39,2.1,4,4,0,0,0,2.47.7,4,4,0,0,0,2.44-.7,4.06,4.06,0,0,0,1.37-2.1,11.63,11.63,0,0,0,.44-3.43,11.44,11.44,0,0,0-.44-3.43,3.91,3.91,0,0,0-1.38-2.05,4.15,4.15,0,0,0-2.47-.68,3.59,3.59,0,0,0-3.25,1.54A8.41,8.41,0,0,0,155.57,175.26Z"/>
    <path d="M193.44,164.92v20.75h-5.67v-16.5h-7.52v16.5h-5.66V164.92Z"/>
    <path d="M204.84,164.92v8.2c0,.42,0,.95-.05,1.59s-.07,1.28-.12,1.94-.1,1.24-.15,1.76-.08.87-.11,1.06L214,164.92h6.81v20.75h-5.47v-8.28c0-.68,0-1.43.08-2.25s.1-1.6.16-2.33.11-1.28.13-1.65l-9.54,14.51h-6.79V164.92Z"/>
    <path d="M243.9,169.17h-6.8v16.5h-5.66v-16.5h-6.8v-4.25H243.9Z"/>
    <path d="M256.31,164.53a10.34,10.34,0,0,1,4.95,1.11,7.57,7.57,0,0,1,3.21,3.2A10.59,10.59,0,0,1,265.6,174v2.74H252.23a5.45,5.45,0,0,0,1.43,3.76,5,5,0,0,0,3.74,1.37,15.24,15.24,0,0,0,3.64-.41,18.22,18.22,0,0,0,3.4-1.23v4.38a13.83,13.83,0,0,1-3.22,1.12,20.59,20.59,0,0,1-4.08.35,12.72,12.72,0,0,1-5.52-1.15,8.55,8.55,0,0,1-3.76-3.51,11.71,11.71,0,0,1-1.37-5.94,13.21,13.21,0,0,1,1.24-6.06,8.35,8.35,0,0,1,3.44-3.63A10.47,10.47,0,0,1,256.31,164.53Zm0,4a3.73,3.73,0,0,0-2.74,1.06,5,5,0,0,0-1.25,3.32h7.94a5.9,5.9,0,0,0-.46-2.25,3.6,3.6,0,0,0-1.3-1.56A3.87,3.87,0,0,0,256.35,168.56Z"/>
    <path d="M288.78,185.67h-5.66v-16.5h-5.21c-.26,3-.57,5.64-.93,7.78a24.26,24.26,0,0,1-1.38,5.22,6.77,6.77,0,0,1-2.07,2.94,5,5,0,0,1-3.06.93,9.76,9.76,0,0,1-1.8-.15,6.14,6.14,0,0,1-1.43-.45v-4.52a5.53,5.53,0,0,0,.87.27,4.94,4.94,0,0,0,.95.1,1.53,1.53,0,0,0,1-.43,4,4,0,0,0,.9-1.47,16.36,16.36,0,0,0,.81-2.91c.26-1.23.49-2.8.7-4.69s.41-4.18.59-6.87h15.7Z"/>
    <path d="M297.87,185.67h-6.12l5.58-8.2a7.71,7.71,0,0,1-2-1.24,6,6,0,0,1-1.51-2,6.76,6.76,0,0,1-.57-2.9,5.48,5.48,0,0,1,2.35-4.76,10.28,10.28,0,0,1,6.05-1.66h9.65v20.75h-5.66V178h-3.11Zm.95-14.29a2.34,2.34,0,0,0,1,2,4.45,4.45,0,0,0,2.66.73h3.15v-5.23h-3.87a3.07,3.07,0,0,0-2.25.73A2.4,2.4,0,0,0,298.82,171.38Z"/>
    <path d="M104.14,236.89a3.18,3.18,0,0,1-.93,2.41,4.66,4.66,0,0,1-2.5,1.15v.08a4.83,4.83,0,0,1,2.78,1.19,3.19,3.19,0,0,1,1,2.42,4.12,4.12,0,0,1-.65,2.32,4.3,4.3,0,0,1-2,1.55,8.41,8.41,0,0,1-3.26.55,14.2,14.2,0,0,1-2.3-.18,7.51,7.51,0,0,1-2-.64v-1.61a8.76,8.76,0,0,0,1.36.54,10.92,10.92,0,0,0,1.48.34,9.34,9.34,0,0,0,1.45.12,5,5,0,0,0,3-.78,2.62,2.62,0,0,0,1-2.21,2.28,2.28,0,0,0-1.2-2.14,7,7,0,0,0-3.38-.67H95.93v-1.47H98a7.33,7.33,0,0,0,2.43-.34,3,3,0,0,0,1.44-1,2.39,2.39,0,0,0,.48-1.49,2.15,2.15,0,0,0-.84-1.82,3.62,3.62,0,0,0-2.21-.63A6.44,6.44,0,0,0,97,235a10.3,10.3,0,0,0-1.8.94l-.83-1.19a7.49,7.49,0,0,1,1.34-.78,7.9,7.9,0,0,1,1.66-.57,8.82,8.82,0,0,1,2-.21,6.5,6.5,0,0,1,2.65.48,3.73,3.73,0,0,1,1.63,1.32A3.43,3.43,0,0,1,104.14,236.89Z"/>
    <path d="M111.5,236.94a4.23,4.23,0,0,1,3,.9,3.79,3.79,0,0,1,1,2.88v7.64h-1.23l-.32-1.66h-.08a6.48,6.48,0,0,1-1,1,3.46,3.46,0,0,1-1.17.62,5.47,5.47,0,0,1-1.63.21,4.32,4.32,0,0,1-1.8-.35,2.85,2.85,0,0,1-1.24-1.09,3.47,3.47,0,0,1-.45-1.85,2.93,2.93,0,0,1,1.32-2.58,7.59,7.59,0,0,1,4-1l1.92-.09v-.68a2.75,2.75,0,0,0-.62-2,2.47,2.47,0,0,0-1.75-.59,5.39,5.39,0,0,0-1.66.26,11.17,11.17,0,0,0-1.5.6l-.52-1.29a9.79,9.79,0,0,1,1.72-.67A7.68,7.68,0,0,1,111.5,236.94Zm2.25,5.88-1.69.07a5.74,5.74,0,0,0-2.93.69,2,2,0,0,0-.85,1.71,1.7,1.7,0,0,0,.58,1.43,2.35,2.35,0,0,0,1.53.46,3.55,3.55,0,0,0,2.42-.83,3.13,3.13,0,0,0,.94-2.49Z"/>
    <path d="M132.7,236.87a3.78,3.78,0,0,1-.38,1.74,3.28,3.28,0,0,1-1.08,1.2,4.34,4.34,0,0,1-1.62.65v.09a4.32,4.32,0,0,1,2.65,1.14,3.37,3.37,0,0,1,.89,2.42,4.42,4.42,0,0,1-.6,2.31,4.09,4.09,0,0,1-1.85,1.58,7.68,7.68,0,0,1-3.18.56,12.41,12.41,0,0,1-2.18-.18,7.67,7.67,0,0,1-1.91-.64v-1.59a10.38,10.38,0,0,0,2,.72,9.14,9.14,0,0,0,2.1.26,4.28,4.28,0,0,0,2.93-.82,2.84,2.84,0,0,0,.9-2.23,2.33,2.33,0,0,0-.5-1.57,2.88,2.88,0,0,0-1.44-.88,7.81,7.81,0,0,0-2.25-.28H125.7v-1.46h1.49a5.19,5.19,0,0,0,2.05-.36,2.82,2.82,0,0,0,1.29-1A2.71,2.71,0,0,0,131,237a2.15,2.15,0,0,0-.75-1.76,3.12,3.12,0,0,0-2-.62,5.82,5.82,0,0,0-1.44.16,6.12,6.12,0,0,0-1.22.45,12,12,0,0,0-1.13.67l-.86-1.17a8.06,8.06,0,0,1,2-1.1,7.32,7.32,0,0,1,2.65-.46,4.89,4.89,0,0,1,3.41,1A3.5,3.5,0,0,1,132.7,236.87Z"/>
    <path d="M149.7,237.12v9.79h1.6v5.34h-1.64v-3.89h-7.87v3.89h-1.61v-5.34h.87a13.21,13.21,0,0,0,1.58-2.92,18.12,18.12,0,0,0,1-3.34,20.8,20.8,0,0,0,.34-3.53Zm-1.63,1.36h-2.64a19.34,19.34,0,0,1-.43,3,17.43,17.43,0,0,1-.9,2.95,11.65,11.65,0,0,1-1.29,2.44h5.26Z"/>
    <path d="M155.19,237.12v4.72h6.2v-4.72h1.68v11.24h-1.68v-5.08h-6.2v5.08H153.5V237.12Z"/>
    <path d="M167.18,248.36h-2l3.21-4.74a4,4,0,0,1-1.3-.53,2.75,2.75,0,0,1-1-1,3.22,3.22,0,0,1-.37-1.63,3,3,0,0,1,1.07-2.46,4.4,4.4,0,0,1,2.83-.85h4.92v11.24h-1.69v-4.51h-2.82Zm.23-7.92a1.71,1.71,0,0,0,.71,1.5,3.63,3.63,0,0,0,2,.48h2.76v-3.87h-3a2.71,2.71,0,0,0-1.87.52A1.77,1.77,0,0,0,167.41,240.44Z"/>
    <circle cx="78.96" cy="242.47" r="2.5"/>
    <path d="M101.83,270.69a5.38,5.38,0,0,0-2.21.43A4.4,4.4,0,0,0,98,272.35a5.41,5.41,0,0,0-1,1.94,8.16,8.16,0,0,0-.37,2.56,8.62,8.62,0,0,0,.58,3.28,4.68,4.68,0,0,0,1.75,2.15,5.24,5.24,0,0,0,2.91.76,10.16,10.16,0,0,0,1.87-.17,16.44,16.44,0,0,0,1.71-.43V284a8.79,8.79,0,0,1-1.71.46,13,13,0,0,1-2.12.14,7,7,0,0,1-3.78-.94,5.91,5.91,0,0,1-2.27-2.68,10.28,10.28,0,0,1-.75-4.1,9.62,9.62,0,0,1,.47-3.11,6.76,6.76,0,0,1,1.38-2.43,6,6,0,0,1,2.23-1.59,7.78,7.78,0,0,1,3-.56,10.31,10.31,0,0,1,2.17.23,8,8,0,0,1,1.88.64l-.69,1.48a10.41,10.41,0,0,0-1.55-.57A6.75,6.75,0,0,0,101.83,270.69Z"/>
    <path d="M120.46,273.12v1.45h-5v9.79h-1.7V273.12Z"/>
    <path d="M126.83,272.94a4.18,4.18,0,0,1,3,.9,3.79,3.79,0,0,1,1,2.88v7.64h-1.23l-.33-1.66h-.08a6,6,0,0,1-1,1,3.46,3.46,0,0,1-1.17.62,5.52,5.52,0,0,1-1.63.21,4.25,4.25,0,0,1-1.8-.35,2.8,2.8,0,0,1-1.24-1.09,3.47,3.47,0,0,1-.45-1.85,2.93,2.93,0,0,1,1.32-2.58,7.59,7.59,0,0,1,4-1l1.91-.09v-.68a2.71,2.71,0,0,0-.62-2,2.43,2.43,0,0,0-1.74-.59,5.34,5.34,0,0,0-1.66.26,11.87,11.87,0,0,0-1.51.6l-.51-1.29a9.49,9.49,0,0,1,1.72-.67A7.63,7.63,0,0,1,126.83,272.94Zm2.25,5.88-1.69.07a5.71,5.71,0,0,0-2.93.69,2,2,0,0,0-.86,1.71,1.73,1.73,0,0,0,.58,1.43,2.38,2.38,0,0,0,1.53.46,3.56,3.56,0,0,0,2.43-.83,3.13,3.13,0,0,0,.94-2.49Z"/>
    <path d="M139.44,272.92a4.14,4.14,0,0,1,3.31,1.44,6.54,6.54,0,0,1,1.24,4.35,8,8,0,0,1-.57,3.22,4.32,4.32,0,0,1-1.59,2,4.42,4.42,0,0,1-2.43.66,4.56,4.56,0,0,1-1.55-.23,3.65,3.65,0,0,1-1.15-.64,3.8,3.8,0,0,1-.79-.87h-.12c0,.27,0,.59.07,1s0,.7,0,1v4.61h-1.7V273.12h1.39l.23,1.66h.08a4.64,4.64,0,0,1,.79-.94,3.54,3.54,0,0,1,1.14-.67A4.52,4.52,0,0,1,139.44,272.92Zm-.3,1.43a3.41,3.41,0,0,0-1.86.45,2.59,2.59,0,0,0-1,1.35,7.11,7.11,0,0,0-.34,2.25v.33a8,8,0,0,0,.31,2.41,2.79,2.79,0,0,0,1,1.5,3.26,3.26,0,0,0,1.92.51,2.68,2.68,0,0,0,1.73-.56,3.38,3.38,0,0,0,1-1.58,7.46,7.46,0,0,0,.34-2.32,5.7,5.7,0,0,0-.77-3.16A2.59,2.59,0,0,0,139.14,274.35Z"/>
    <path d="M151.08,272.94a4.18,4.18,0,0,1,2.95.9,3.75,3.75,0,0,1,1,2.88v7.64h-1.23l-.32-1.66h-.09a6,6,0,0,1-1,1,3.46,3.46,0,0,1-1.17.62,5.47,5.47,0,0,1-1.63.21,4.28,4.28,0,0,1-1.8-.35,2.85,2.85,0,0,1-1.24-1.09,3.47,3.47,0,0,1-.45-1.85,2.93,2.93,0,0,1,1.32-2.58,7.59,7.59,0,0,1,4-1l1.91-.09v-.68a2.75,2.75,0,0,0-.61-2,2.47,2.47,0,0,0-1.75-.59,5.34,5.34,0,0,0-1.66.26,11.17,11.17,0,0,0-1.5.6l-.52-1.29a9.49,9.49,0,0,1,1.72-.67A7.68,7.68,0,0,1,151.08,272.94Zm2.25,5.88-1.69.07a5.74,5.74,0,0,0-2.93.69,2,2,0,0,0-.85,1.71,1.7,1.7,0,0,0,.58,1.43,2.35,2.35,0,0,0,1.53.46,3.55,3.55,0,0,0,2.42-.83,3.13,3.13,0,0,0,.94-2.49Z"/>
    <path d="M160.16,273.12v4.72h6.2v-4.72H168v11.24h-1.68v-5.08h-6.2v5.08h-1.69V273.12Z"/>
    <path d="M179.19,274.57h-3.66v9.79h-1.67v-9.79h-3.61v-1.45h8.94Z"/>
    <path d="M183,273.12v7.07c0,.13,0,.31,0,.52s0,.45,0,.69,0,.48,0,.7,0,.4,0,.55l6.07-9.53H191v11.24h-1.58v-6.89c0-.22,0-.5,0-.84s0-.68,0-1,0-.59,0-.78l-6.05,9.52h-2.08V273.12Z"/>
    <path d="M198.88,272.92a4.51,4.51,0,0,1,2.43.63,4.08,4.08,0,0,1,1.55,1.78,6.18,6.18,0,0,1,.54,2.67v1.06h-7.68a4.42,4.42,0,0,0,1,3,3.41,3.41,0,0,0,2.65,1,8,8,0,0,0,1.87-.2,10.42,10.42,0,0,0,1.68-.57v1.5a8.5,8.5,0,0,1-1.66.55,9.41,9.41,0,0,1-2,.17,5.64,5.64,0,0,1-2.79-.66,4.51,4.51,0,0,1-1.85-1.94,6.78,6.78,0,0,1-.66-3.14,7.58,7.58,0,0,1,.6-3.14,4.47,4.47,0,0,1,4.3-2.76Zm0,1.39a2.75,2.75,0,0,0-2.15.89,4.21,4.21,0,0,0-1,2.49h5.89a5,5,0,0,0-.31-1.76,2.5,2.5,0,0,0-.91-1.19A2.64,2.64,0,0,0,198.86,274.31Z"/>
    <path d="M207.87,273.12v7.07c0,.13,0,.31,0,.52s0,.45,0,.69,0,.48,0,.7,0,.4,0,.55l6.07-9.53h2.07v11.24h-1.57v-6.89c0-.22,0-.5,0-.84s0-.68,0-1,0-.59,0-.78l-6,9.52h-2.08V273.12Zm7.19-4.62a3.84,3.84,0,0,1-.52,1.73,2.6,2.6,0,0,1-1.23,1,5.16,5.16,0,0,1-2.08.35,5.36,5.36,0,0,1-2.1-.34,2.37,2.37,0,0,1-1.18-1,4.32,4.32,0,0,1-.45-1.75h1.58a2.33,2.33,0,0,0,.6,1.54,2.47,2.47,0,0,0,1.58.41,2.42,2.42,0,0,0,1.53-.44,2,2,0,0,0,.67-1.51Z"/>
    <path d="M234.45,278.72a8.14,8.14,0,0,1-.35,2.47,5.06,5.06,0,0,1-1,1.84,4.34,4.34,0,0,1-1.62,1.14,5.55,5.55,0,0,1-2.14.39,5.24,5.24,0,0,1-2.05-.39,4.52,4.52,0,0,1-1.6-1.14,5.08,5.08,0,0,1-1-1.84,7.54,7.54,0,0,1-.37-2.47,7.12,7.12,0,0,1,.62-3.14,4.39,4.39,0,0,1,1.77-2,5.21,5.21,0,0,1,2.74-.68,5.13,5.13,0,0,1,2.66.68,4.67,4.67,0,0,1,1.78,2A7.1,7.1,0,0,1,234.45,278.72Zm-8.46,0a6.91,6.91,0,0,0,.36,2.35,3.16,3.16,0,0,0,6,0,6.91,6.91,0,0,0,.36-2.35,6.69,6.69,0,0,0-.36-2.32,3.12,3.12,0,0,0-1.09-1.51,3.21,3.21,0,0,0-1.92-.54,2.88,2.88,0,0,0-2.54,1.16A5.52,5.52,0,0,0,226,278.72Z"/>
    <path d="M244.94,274.57h-3.66v9.79h-1.67v-9.79H236v-1.45h8.94Z"/>
    <path d="M261.85,273.12v11.24h-1.7v-9.77h-5.92v9.77h-1.69V273.12Z"/>
    <path d="M270.64,272.92a4.16,4.16,0,0,1,3.32,1.44,6.6,6.6,0,0,1,1.24,4.35,8,8,0,0,1-.57,3.22,4.34,4.34,0,0,1-1.6,2,4.4,4.4,0,0,1-2.43.66,4.6,4.6,0,0,1-1.55-.23,3.65,3.65,0,0,1-1.15-.64,4,4,0,0,1-.79-.87H267c0,.27.05.59.08,1s0,.7,0,1v4.61h-1.69V273.12h1.39l.22,1.66h.08a5,5,0,0,1,.79-.94,3.65,3.65,0,0,1,1.14-.67A4.56,4.56,0,0,1,270.64,272.92Zm-.29,1.43a3.41,3.41,0,0,0-1.86.45,2.54,2.54,0,0,0-1,1.35,7.08,7.08,0,0,0-.35,2.25v.33a8.35,8.35,0,0,0,.31,2.41,2.8,2.8,0,0,0,1,1.5,3.22,3.22,0,0,0,1.92.51,2.65,2.65,0,0,0,1.72-.56,3.31,3.31,0,0,0,1-1.58,7.17,7.17,0,0,0,.34-2.32,5.71,5.71,0,0,0-.76-3.16A2.61,2.61,0,0,0,270.35,274.35Z"/>
    <path d="M287.71,278.72a7.84,7.84,0,0,1-.35,2.47,5.06,5.06,0,0,1-1,1.84,4.3,4.3,0,0,1-1.61,1.14,5.64,5.64,0,0,1-2.15.39,5.22,5.22,0,0,1-2-.39,4.47,4.47,0,0,1-1.61-1.14,5.23,5.23,0,0,1-1-1.84,7.54,7.54,0,0,1-.37-2.47,7.26,7.26,0,0,1,.62-3.14,4.39,4.39,0,0,1,1.77-2,5.23,5.23,0,0,1,2.74-.68,5.11,5.11,0,0,1,2.66.68,4.55,4.55,0,0,1,1.78,2A7.1,7.1,0,0,1,287.71,278.72Zm-8.46,0a6.91,6.91,0,0,0,.36,2.35,3.26,3.26,0,0,0,1.09,1.54,3.17,3.17,0,0,0,1.91.54,2.93,2.93,0,0,0,3-2.08,6.91,6.91,0,0,0,.36-2.35,6.69,6.69,0,0,0-.36-2.32,3.06,3.06,0,0,0-1.09-1.51,3.19,3.19,0,0,0-1.92-.54,2.88,2.88,0,0,0-2.54,1.16A5.52,5.52,0,0,0,279.25,278.72Z"/>
    <path d="M292.23,273.12v7.07c0,.13,0,.31,0,.52s0,.45,0,.69,0,.48,0,.7,0,.4,0,.55l6.06-9.53h2.07v11.24h-1.57v-6.89c0-.22,0-.5,0-.84l0-1q0-.5,0-.78l-6.05,9.52h-2.08V273.12Z"/>
    <path d="M306.69,272.92a6.12,6.12,0,0,1,2.16.34,3,3,0,0,1,1.41,1,2.59,2.59,0,0,1,.5,1.6,2.29,2.29,0,0,1-.55,1.62,3.12,3.12,0,0,1-1.51.87v.08a4.86,4.86,0,0,1,1.23.53,2.53,2.53,0,0,1,.88.9,2.72,2.72,0,0,1,.33,1.39,3,3,0,0,1-.5,1.7,3.3,3.3,0,0,1-1.54,1.18,6.84,6.84,0,0,1-2.62.43,11.6,11.6,0,0,1-1.48-.08,8.4,8.4,0,0,1-1.27-.25,5.11,5.11,0,0,1-1-.39v-1.55a9.06,9.06,0,0,0,1.66.61,7.49,7.49,0,0,0,2.06.27A5.51,5.51,0,0,0,308,283a2.26,2.26,0,0,0,1.08-.65,1.65,1.65,0,0,0,.4-1.17,1.72,1.72,0,0,0-.35-1.1,2.11,2.11,0,0,0-1.06-.65,6.38,6.38,0,0,0-1.78-.21h-1.5V277.8H306a5.31,5.31,0,0,0,2.28-.41,1.44,1.44,0,0,0,.86-1.39,1.37,1.37,0,0,0-.66-1.25,3.53,3.53,0,0,0-1.89-.42,6.41,6.41,0,0,0-1.61.19,12.13,12.13,0,0,0-1.51.54l-.6-1.36a8.8,8.8,0,0,1,1.82-.59A10,10,0,0,1,306.69,272.92Z"/>
    <path d="M322.71,275.94a2.18,2.18,0,0,1-.61,1.65,3.13,3.13,0,0,1-1.57.79v.08a3.64,3.64,0,0,1,1.8.76,2.24,2.24,0,0,1,.75,1.86,3.2,3.2,0,0,1-.45,1.7,3.06,3.06,0,0,1-1.43,1.16,6.5,6.5,0,0,1-2.54.42h-4.79V273.12h4.75a7.58,7.58,0,0,1,2.12.27,2.93,2.93,0,0,1,1.44.89A2.47,2.47,0,0,1,322.71,275.94Zm-1.72.2a1.37,1.37,0,0,0-.57-1.2,3.52,3.52,0,0,0-1.9-.39h-2.95v3.23h2.65a4.3,4.3,0,0,0,2.07-.4A1.33,1.33,0,0,0,321,276.14Zm.34,4.94a1.55,1.55,0,0,0-.75-1.44,4.33,4.33,0,0,0-2.16-.44h-2.85V283h2.89a4.23,4.23,0,0,0,2.13-.44A1.57,1.57,0,0,0,321.33,281.08Z"/>
    <path d="M335.39,278.72a7.83,7.83,0,0,1-.36,2.47,5,5,0,0,1-1,1.84,4.42,4.42,0,0,1-1.62,1.14,5.61,5.61,0,0,1-2.15.39,5.22,5.22,0,0,1-2-.39,4.43,4.43,0,0,1-1.6-1.14,5.25,5.25,0,0,1-1.05-1.84,7.82,7.82,0,0,1-.37-2.47,7.26,7.26,0,0,1,.62-3.14,4.39,4.39,0,0,1,1.77-2,5.24,5.24,0,0,1,2.75-.68,5.13,5.13,0,0,1,2.66.68,4.59,4.59,0,0,1,1.77,2A7,7,0,0,1,335.39,278.72Zm-8.46,0a7.18,7.18,0,0,0,.35,2.35,3.21,3.21,0,0,0,1.1,1.54,3.63,3.63,0,0,0,3.81,0,3.28,3.28,0,0,0,1.1-1.54,7.18,7.18,0,0,0,.35-2.35,7,7,0,0,0-.35-2.32,3.08,3.08,0,0,0-1.1-1.51,3.15,3.15,0,0,0-1.91-.54,2.9,2.9,0,0,0-2.55,1.16A5.6,5.6,0,0,0,326.93,278.72Z"/>
    <path d="M346.44,273.12v9.79H348v5.34H346.4v-3.89h-7.87v3.89h-1.61v-5.34h.87a13.21,13.21,0,0,0,1.58-2.92,18.12,18.12,0,0,0,1-3.34,20.8,20.8,0,0,0,.34-3.53Zm-1.63,1.36h-2.64a19.34,19.34,0,0,1-.43,3,17.43,17.43,0,0,1-.9,3,11.65,11.65,0,0,1-1.29,2.44h5.26Z"/>
    <path d="M351.84,273.12v7.07c0,.13,0,.31,0,.52l0,.69c0,.24,0,.48,0,.7s0,.4,0,.55l6.06-9.53h2.07v11.24h-1.57v-6.89c0-.22,0-.5,0-.84l0-1q0-.5,0-.78l-6,9.52h-2.08V273.12Z"/>
    <path d="M371,274.57h-3.66v9.79H365.7v-9.79h-3.62v-1.45H371Z"/>
    <path d="M377.5,272.92a4.54,4.54,0,0,1,2.44.63,4.21,4.21,0,0,1,1.55,1.78A6.18,6.18,0,0,1,382,278v1.06h-7.68a4.41,4.41,0,0,0,1,3,3.43,3.43,0,0,0,2.66,1,8.12,8.12,0,0,0,1.87-.2,10.42,10.42,0,0,0,1.68-.57v1.5a8.58,8.58,0,0,1-1.67.55,9.3,9.3,0,0,1-1.95.17,5.71,5.71,0,0,1-2.8-.66,4.57,4.57,0,0,1-1.85-1.94,6.78,6.78,0,0,1-.66-3.14,7.42,7.42,0,0,1,.61-3.14,4.45,4.45,0,0,1,4.29-2.76Zm0,1.39a2.77,2.77,0,0,0-2.15.89,4.27,4.27,0,0,0-.95,2.49h5.88a5,5,0,0,0-.31-1.76,2.5,2.5,0,0,0-.91-1.19A2.59,2.59,0,0,0,377.48,274.31Z"/>
    <path d="M393.23,284.36h-1.72v-9.81h-3.38c-.13,1.77-.3,3.28-.51,4.54a15.92,15.92,0,0,1-.77,3.09,4.23,4.23,0,0,1-1.12,1.75,2.26,2.26,0,0,1-1.55.56,4.17,4.17,0,0,1-.52,0,1.62,1.62,0,0,1-.42-.1v-1.29a1.27,1.27,0,0,0,.28.06l.31,0a1.17,1.17,0,0,0,.84-.38,3.68,3.68,0,0,0,.69-1.17,11.48,11.48,0,0,0,.55-2c.16-.8.31-1.74.43-2.82s.24-2.31.33-3.69h6.56Z"/>
    <path d="M397.31,284.36h-2l3.2-4.74a4,4,0,0,1-1.3-.53,2.75,2.75,0,0,1-1-1,3.33,3.33,0,0,1-.37-1.63A3,3,0,0,1,397,274a4.42,4.42,0,0,1,2.83-.85h4.92v11.24H403v-4.51h-2.82Zm.24-7.92a1.69,1.69,0,0,0,.71,1.5,3.6,3.6,0,0,0,2,.48H403v-3.87H400a2.73,2.73,0,0,0-1.87.52A1.8,1.8,0,0,0,397.55,276.44Z"/>
    <circle cx="78.96" cy="277.47" r="2.5"/>
    <rect class="cls-5" x="94.73" y="321.69" width="130.88" height="36.04" rx="12"/>
    <path class="cls-3" d="M125.89,344.65v-9.28h6.91v9.28h-1.06v-8.33H127v8.33Z"/>
    <path class="cls-3"
          d="M141.2,341.16a4.82,4.82,0,0,1-.23,1.53,3.06,3.06,0,0,1-.64,1.13,2.69,2.69,0,0,1-1,.71,3.56,3.56,0,0,1-1.34.24,3.32,3.32,0,0,1-1.28-.24,2.73,2.73,0,0,1-1-.71,3.24,3.24,0,0,1-.66-1.13,4.82,4.82,0,0,1-.23-1.53,4.43,4.43,0,0,1,.39-2,2.83,2.83,0,0,1,1.11-1.23,3.33,3.33,0,0,1,1.71-.42,3.15,3.15,0,0,1,1.67.43,2.77,2.77,0,0,1,1.11,1.23A4.38,4.38,0,0,1,141.2,341.16Zm-5.3,0a4.51,4.51,0,0,0,.22,1.45,2,2,0,0,0,3.76,0,4.25,4.25,0,0,0,.22-1.45,4.11,4.11,0,0,0-.22-1.44,1.9,1.9,0,0,0-.68-.94,2,2,0,0,0-1.2-.33,1.79,1.79,0,0,0-1.59.72A3.39,3.39,0,0,0,135.9,341.16Z"/>
    <path class="cls-3"
          d="M148.12,337.69v6.06h1v3.3h-1v-2.4h-4.93v2.4h-1v-3.3h.55a8.11,8.11,0,0,0,1-1.81,11.41,11.41,0,0,0,.6-2.06,12.31,12.31,0,0,0,.21-2.19Zm-1,.84h-1.65a12.52,12.52,0,0,1-.27,1.88,11.8,11.8,0,0,1-.56,1.83,6.94,6.94,0,0,1-.81,1.51h3.29Z"/>
    <path class="cls-3"
          d="M153.76,337.56a2.58,2.58,0,0,1,2.07.9,4,4,0,0,1,.78,2.69,4.88,4.88,0,0,1-.36,2,2.6,2.6,0,0,1-1,1.22,2.7,2.7,0,0,1-1.52.41,2.87,2.87,0,0,1-1-.14,2.28,2.28,0,0,1-.72-.4,2.5,2.5,0,0,1-.49-.54h-.08c0,.17,0,.37.05.6s0,.44,0,.61v2.86h-1.06V337.69h.87l.14,1h.05a2.7,2.7,0,0,1,.49-.58,2.14,2.14,0,0,1,.72-.42A2.72,2.72,0,0,1,153.76,337.56Zm-.19.89a2.1,2.1,0,0,0-1.16.28,1.62,1.62,0,0,0-.64.84,4.17,4.17,0,0,0-.22,1.39v.2a4.91,4.91,0,0,0,.19,1.49,1.77,1.77,0,0,0,.64.93,2.07,2.07,0,0,0,1.21.32,1.69,1.69,0,0,0,1.08-.35,2.1,2.1,0,0,0,.64-1,4.44,4.44,0,0,0,.21-1.43,3.51,3.51,0,0,0-.48-2A1.63,1.63,0,0,0,153.57,338.45Z"/>
    <path class="cls-3"
          d="M164.44,341.16a4.83,4.83,0,0,1-.22,1.53,3.2,3.2,0,0,1-.64,1.13,2.77,2.77,0,0,1-1,.71,3.61,3.61,0,0,1-1.35.24,3.35,3.35,0,0,1-1.28-.24,2.82,2.82,0,0,1-1-.71,3.22,3.22,0,0,1-.65-1.13,4.56,4.56,0,0,1-.23-1.53,4.43,4.43,0,0,1,.38-2,2.83,2.83,0,0,1,1.11-1.23,3.35,3.35,0,0,1,1.72-.42,3.11,3.11,0,0,1,1.66.43,2.77,2.77,0,0,1,1.11,1.23A4.25,4.25,0,0,1,164.44,341.16Zm-5.29,0a4.25,4.25,0,0,0,.22,1.45,2,2,0,0,0,.69.95,1.91,1.91,0,0,0,1.19.34,1.85,1.85,0,0,0,1.88-1.29,4.25,4.25,0,0,0,.22-1.45,4.11,4.11,0,0,0-.22-1.44,1.92,1.92,0,0,0-.69-.94,2,2,0,0,0-1.2-.33,1.81,1.81,0,0,0-1.59.72A3.46,3.46,0,0,0,159.15,341.16Z"/>
    <path class="cls-3"
          d="M165.9,340.47a9.81,9.81,0,0,1,.29-2.54,3.84,3.84,0,0,1,.88-1.68,3.1,3.1,0,0,1,1.55-.88c.54-.14,1.09-.27,1.65-.38s1.1-.2,1.63-.28l.18.92-.83.13-.88.16-.83.16-.68.18a2.1,2.1,0,0,0-.93.5,2.48,2.48,0,0,0-.62,1,5.65,5.65,0,0,0-.27,1.6h.08a2.93,2.93,0,0,1,1.31-1,2.78,2.78,0,0,1,1-.18,2.7,2.7,0,0,1,1.5.39,2.41,2.41,0,0,1,.91,1.1,4.79,4.79,0,0,1-.09,3.56,2.66,2.66,0,0,1-1.09,1.16,3.37,3.37,0,0,1-1.66.39,3,3,0,0,1-1.32-.28,2.7,2.7,0,0,1-1-.84,4.21,4.21,0,0,1-.62-1.35A7.19,7.19,0,0,1,165.9,340.47Zm3.21,3.43a2,2,0,0,0,1-.26,1.58,1.58,0,0,0,.67-.8,3.58,3.58,0,0,0,.24-1.43,3.07,3.07,0,0,0-.42-1.73,1.5,1.5,0,0,0-1.35-.63,2.32,2.32,0,0,0-1,.25,3.17,3.17,0,0,0-.79.58,3,3,0,0,0-.47.6,7.48,7.48,0,0,0,.1,1.26,3.72,3.72,0,0,0,.33,1.1,1.88,1.88,0,0,0,.65.77A1.81,1.81,0,0,0,169.11,343.9Z"/>
    <path class="cls-3" d="M175.05,337.69v2.92h3.88v-2.92H180v7h-1.06V341.5h-3.88v3.15H174v-7Z"/>
    <path class="cls-3"
          d="M184.9,337.56a2.76,2.76,0,0,1,1.52.4,2.47,2.47,0,0,1,1,1.1,3.71,3.71,0,0,1,.34,1.65v.66h-4.8a2.68,2.68,0,0,0,.61,1.86,2.12,2.12,0,0,0,1.66.64,5.14,5.14,0,0,0,1.17-.12,7.18,7.18,0,0,0,1-.35v.92a5.54,5.54,0,0,1-1,.35,6.37,6.37,0,0,1-1.23.1,3.47,3.47,0,0,1-1.74-.41,2.75,2.75,0,0,1-1.16-1.2,4.09,4.09,0,0,1-.42-1.94,4.68,4.68,0,0,1,.38-2,2.84,2.84,0,0,1,2.69-1.71Zm0,.87a1.73,1.73,0,0,0-1.35.55,2.67,2.67,0,0,0-.6,1.54h3.69a3,3,0,0,0-.2-1.09,1.52,1.52,0,0,0-.57-.74A1.61,1.61,0,0,0,184.89,338.43Z"/>
    <path class="cls-3"
          d="M192.2,337.56a2.76,2.76,0,0,1,1.52.4,2.47,2.47,0,0,1,1,1.1,3.71,3.71,0,0,1,.34,1.65v.66h-4.8a2.73,2.73,0,0,0,.6,1.86,2.16,2.16,0,0,0,1.67.64,5.14,5.14,0,0,0,1.17-.12,7.18,7.18,0,0,0,1.05-.35v.92a5.54,5.54,0,0,1-1,.35,6.37,6.37,0,0,1-1.23.1,3.47,3.47,0,0,1-1.74-.41,2.75,2.75,0,0,1-1.16-1.2,4.09,4.09,0,0,1-.42-1.94,4.68,4.68,0,0,1,.38-2,2.84,2.84,0,0,1,2.69-1.71Zm0,.87a1.73,1.73,0,0,0-1.35.55,2.67,2.67,0,0,0-.6,1.54h3.69a3,3,0,0,0-.2-1.09,1.52,1.52,0,0,0-.57-.74A1.63,1.63,0,0,0,192.19,338.43Z"/>
</svg>