<svg id="Слой_1" data-name="Слой 1" xmlns="http://www.w3.org/2000/svg" viewBox="0 0 600 85"><defs><style>.cls-1{fill:#e6ede5;}.cls-2{fill:#22333b;}.cls-3{fill:#f2f4f3;}.cls-4{fill:#0a0908;}</style></defs><rect class="cls-1" width="600" height="85"/><path class="cls-2" d="M500,66a3,3,0,0,1-1.8-.6,28,28,0,1,1,33.6,0,3,3,0,1,1-3.6-4.8,22,22,0,1,0-26.4,0A3,3,0,0,1,500,66Z"/><path class="cls-2" d="M507.33,56a3,3,0,0,1-1.8-.6,15.78,15.78,0,1,1,18.94,0,3,3,0,0,1-3.6-4.8,9.78,9.78,0,1,0-11.74,0,3,3,0,0,1-1.8,5.4Z"/><circle class="cls-2" cx="515" cy="43" r="5"/><rect class="cls-3" x="20" y="23" width="400" height="40"/><path class="cls-4" d="M37.64,47.82l-1.23-3.17h-4l-1.22,3.17H30l3.91-10H35l3.88,10Zm-1.58-4.2-1.17-3.16c0-.08-.07-.21-.14-.4l-.18-.58L34.41,39l-.15.55q-.07.29-.15.51c0,.16-.09.3-.13.4l-1.19,3.16Z"/><path class="cls-4" d="M43.29,47.82H42.12v-9H39v-1h7.44v1H43.29Z"/><path class="cls-4" d="M56.6,42.81a6.92,6.92,0,0,1-.3,2.1,4.48,4.48,0,0,1-.87,1.63A3.88,3.88,0,0,1,54,47.59,5.07,5.07,0,0,1,52,48a5.25,5.25,0,0,1-2-.37,3.88,3.88,0,0,1-1.43-1.05,4.58,4.58,0,0,1-.86-1.64,7.26,7.26,0,0,1-.28-2.1,6.76,6.76,0,0,1,.5-2.69,3.93,3.93,0,0,1,1.54-1.8A4.75,4.75,0,0,1,52,37.67a4.66,4.66,0,0,1,2.5.63,4.09,4.09,0,0,1,1.54,1.79A6.7,6.7,0,0,1,56.6,42.81Zm-8,0A6.07,6.07,0,0,0,49,45a3.12,3.12,0,0,0,1.11,1.44A3.41,3.41,0,0,0,52,47a3.35,3.35,0,0,0,1.9-.5A3,3,0,0,0,55,45a6.07,6.07,0,0,0,.36-2.2,5,5,0,0,0-.82-3A3,3,0,0,0,52,38.69a3.45,3.45,0,0,0-1.92.5A3,3,0,0,0,49,40.61,5.82,5.82,0,0,0,48.64,42.81Z"/><path class="cls-4" d="M65.93,47.82H64.77v-9H61.53c-.07.51-.13,1-.21,1.6s-.15,1.11-.22,1.66-.16,1.08-.24,1.57-.15.93-.23,1.31a8.91,8.91,0,0,1-.44,1.62,2.34,2.34,0,0,1-.7,1,1.73,1.73,0,0,1-1.14.36,2.61,2.61,0,0,1-.48,0,2.2,2.2,0,0,1-.41-.12v-1a2.42,2.42,0,0,0,.35.11,1.86,1.86,0,0,0,.42,0,.81.81,0,0,0,.68-.35,2.92,2.92,0,0,0,.39-.87c.1-.36.19-.72.26-1.1s.13-.7.2-1.17.16-1,.25-1.62.18-1.25.27-1.94.19-1.39.28-2.12h5.37Z"/><path class="cls-4" d="M81,42.81a6.92,6.92,0,0,1-.3,2.1,4.48,4.48,0,0,1-.87,1.63,3.88,3.88,0,0,1-1.43,1.05,5.07,5.07,0,0,1-2,.37,5.25,5.25,0,0,1-2-.37,3.88,3.88,0,0,1-1.43-1.05,4.58,4.58,0,0,1-.86-1.64,7.26,7.26,0,0,1-.28-2.1,6.76,6.76,0,0,1,.5-2.69,3.93,3.93,0,0,1,1.54-1.8,4.75,4.75,0,0,1,2.58-.64,4.66,4.66,0,0,1,2.5.63,4.09,4.09,0,0,1,1.54,1.79A6.7,6.7,0,0,1,81,42.81Zm-8,0a6.07,6.07,0,0,0,.36,2.2,3.12,3.12,0,0,0,1.11,1.44,3.41,3.41,0,0,0,1.91.5,3.35,3.35,0,0,0,1.9-.5A3,3,0,0,0,79.39,45a6.07,6.07,0,0,0,.36-2.2,5,5,0,0,0-.81-3,3,3,0,0,0-2.53-1.09,3.39,3.39,0,0,0-1.91.5,3,3,0,0,0-1.12,1.42A5.82,5.82,0,0,0,73,42.81Z"/><path class="cls-4" d="M84.16,40.33v3.14h4.18V40.33h1.13v7.49H88.34V44.44H84.16v3.38H83V40.33Z"/><path class="cls-4" d="M97.5,47.82H96.34V41.28H94.07c-.09,1.18-.21,2.19-.35,3a10.39,10.39,0,0,1-.52,2.06,3,3,0,0,1-.75,1.17,1.55,1.55,0,0,1-1,.37l-.35,0a1,1,0,0,1-.28-.07V47L91,47h.21a.78.78,0,0,0,.56-.25A2.32,2.32,0,0,0,92.2,46a7.89,7.89,0,0,0,.37-1.31c.11-.54.21-1.16.29-1.88s.16-1.55.22-2.46H97.5Z"/><path class="cls-4" d="M102.69,40.21a2.84,2.84,0,0,1,2,.6,2.48,2.48,0,0,1,.65,1.92v5.09h-.83l-.21-1.11h-.06a4.35,4.35,0,0,1-.65.69,2.72,2.72,0,0,1-.79.42,3.87,3.87,0,0,1-1.1.14,2.87,2.87,0,0,1-1.21-.24,1.81,1.81,0,0,1-.84-.73,2.29,2.29,0,0,1-.3-1.23,1.94,1.94,0,0,1,.89-1.72,5.18,5.18,0,0,1,2.7-.66l1.29-.05v-.46a1.8,1.8,0,0,0-.41-1.36,1.66,1.66,0,0,0-1.18-.39,3.8,3.8,0,0,0-1.12.17,8.2,8.2,0,0,0-1,.41l-.35-.87a6.53,6.53,0,0,1,1.16-.44A5.22,5.22,0,0,1,102.69,40.21Zm1.52,3.92-1.14,0a3.94,3.94,0,0,0-2,.45,1.32,1.32,0,0,0-.57,1.15,1.14,1.14,0,0,0,.39.95,1.64,1.64,0,0,0,1,.3,2.41,2.41,0,0,0,1.64-.55,2.09,2.09,0,0,0,.63-1.66Z"/><path class="cls-4" d="M108.75,40.33V45c0,.09,0,.21,0,.35s0,.3,0,.46,0,.32,0,.46,0,.27,0,.37l4.09-6.35h1.4v7.49H113.1V42.67c0-.23,0-.46,0-.68s0-.39,0-.51l-4.08,6.34h-1.4V40.33Zm4.85-3.08a2.6,2.6,0,0,1-.35,1.15,1.75,1.75,0,0,1-.83.7,3.49,3.49,0,0,1-1.4.24,3.73,3.73,0,0,1-1.42-.23,1.56,1.56,0,0,1-.79-.7,2.94,2.94,0,0,1-.31-1.16h1.07a1.47,1.47,0,0,0,.4,1,1.7,1.7,0,0,0,1.07.27,1.66,1.66,0,0,0,1-.28,1.39,1.39,0,0,0,.45-1Z"/><path class="cls-4" d="M117.71,40.33v3.14h4.18V40.33H123v7.49h-1.13V44.44h-4.18v3.38h-1.14V40.33Z"/><path class="cls-4" d="M125.26,41.05a.92.92,0,0,1,.23-.7.88.88,0,0,1,.57-.2.92.92,0,0,1,.59.2.88.88,0,0,1,.24.7.84.84,0,0,1-.24.67.87.87,0,0,1-.59.21.84.84,0,0,1-.57-.21A.87.87,0,0,1,125.26,41.05Zm0,6.06a.87.87,0,0,1,.23-.68.83.83,0,0,1,.57-.2.86.86,0,0,1,.59.2.84.84,0,0,1,.24.68.9.9,0,0,1-.24.69.87.87,0,0,1-.59.21.84.84,0,0,1-.57-.21A.94.94,0,0,1,125.26,47.11Z"/><path class="cls-4" d="M137.85,41.29h-2.47v6.53h-1.12V41.29h-2.43v-1h6Z"/><path class="cls-4" d="M142.22,40.19a3,3,0,0,1,1.64.43,2.81,2.81,0,0,1,1,1.18,4.13,4.13,0,0,1,.36,1.78v.71h-5.18a3,3,0,0,0,.66,2,2.31,2.31,0,0,0,1.79.69,6,6,0,0,0,1.26-.13,7.24,7.24,0,0,0,1.13-.39v1a5.65,5.65,0,0,1-1.12.37,6.32,6.32,0,0,1-1.32.12,3.87,3.87,0,0,1-1.88-.44,3.08,3.08,0,0,1-1.25-1.3,4.45,4.45,0,0,1-.44-2.09,5,5,0,0,1,.4-2.1,3,3,0,0,1,2.9-1.84Zm0,.93a1.85,1.85,0,0,0-1.45.6,2.79,2.79,0,0,0-.65,1.66h4a3.5,3.5,0,0,0-.21-1.18,1.7,1.7,0,0,0-.61-.8A1.91,1.91,0,0,0,142.21,41.12Z"/><path class="cls-4" d="M153.47,40.33v7.49h-1.14V41.31h-4v6.51H147.2V40.33Z"/><path class="cls-4" d="M158.76,40.19a3,3,0,0,1,1.64.43,2.68,2.68,0,0,1,1,1.18,4.13,4.13,0,0,1,.36,1.78v.71h-5.17a2.94,2.94,0,0,0,.65,2,2.32,2.32,0,0,0,1.79.69,5.81,5.81,0,0,0,1.26-.13,7.34,7.34,0,0,0,1.14-.39v1a5.73,5.73,0,0,1-1.13.37A6.29,6.29,0,0,1,159,48a3.91,3.91,0,0,1-1.89-.44,3.14,3.14,0,0,1-1.25-1.3,4.58,4.58,0,0,1-.44-2.09,5,5,0,0,1,.41-2.1,3,3,0,0,1,2.89-1.84Zm0,.93a1.85,1.85,0,0,0-1.45.6,2.73,2.73,0,0,0-.64,1.66h4a3.07,3.07,0,0,0-.21-1.18,1.7,1.7,0,0,0-.61-.8A1.86,1.86,0,0,0,158.75,41.12Z"/><path class="cls-4" d="M167.26,40.19a2.78,2.78,0,0,1,2.23,1,4.28,4.28,0,0,1,.84,2.89A5.41,5.41,0,0,1,170,46.2a2.89,2.89,0,0,1-1.08,1.31,2.94,2.94,0,0,1-1.64.45,3.25,3.25,0,0,1-1-.16,2.52,2.52,0,0,1-.78-.42,2.92,2.92,0,0,1-.53-.59h-.08c0,.18,0,.4,0,.65s0,.47,0,.65v3.08h-1.14V40.33h.93l.16,1.11h0a3.17,3.17,0,0,1,.53-.63,2.34,2.34,0,0,1,.77-.45A3.18,3.18,0,0,1,167.26,40.19Zm-.2,1a2.29,2.29,0,0,0-1.25.3,1.73,1.73,0,0,0-.7.9,4.83,4.83,0,0,0-.23,1.5v.22a5.26,5.26,0,0,0,.21,1.6,1.89,1.89,0,0,0,.69,1,2.17,2.17,0,0,0,1.29.34,1.8,1.8,0,0,0,1.17-.37,2.2,2.2,0,0,0,.69-1,4.91,4.91,0,0,0,.23-1.55,3.75,3.75,0,0,0-.52-2.11A1.76,1.76,0,0,0,167.06,41.15Z"/><path class="cls-4" d="M173.45,43.42h2.29a4.51,4.51,0,0,1,1.59.24,1.88,1.88,0,0,1,1,.71,2,2,0,0,1,.32,1.17,2.36,2.36,0,0,1-.31,1.21,2.06,2.06,0,0,1-1,.79,4.18,4.18,0,0,1-1.67.28H172.3V40.33h1.15Zm4,2.17a1,1,0,0,0-.48-1,2.87,2.87,0,0,0-1.37-.27h-2.16V46.9h2.17a2.49,2.49,0,0,0,1.33-.31A1.06,1.06,0,0,0,177.46,45.59Z"/><path class="cls-4" d="M190.66,44.06a5.26,5.26,0,0,1-.24,1.65,3.38,3.38,0,0,1-.69,1.22,3,3,0,0,1-1.09.76,3.71,3.71,0,0,1-1.45.27,3.47,3.47,0,0,1-1.38-.27,3.12,3.12,0,0,1-1.08-.76,3.55,3.55,0,0,1-.7-1.22,5,5,0,0,1-.25-1.65A4.72,4.72,0,0,1,184.2,42a3,3,0,0,1,1.19-1.32,3.53,3.53,0,0,1,1.85-.46,3.38,3.38,0,0,1,1.79.46,3,3,0,0,1,1.2,1.32A4.61,4.61,0,0,1,190.66,44.06Zm-5.7,0a4.67,4.67,0,0,0,.24,1.57,2.1,2.1,0,0,0,.73,1,2.18,2.18,0,0,0,1.29.36,2.13,2.13,0,0,0,1.28-.36,2.06,2.06,0,0,0,.74-1,4.67,4.67,0,0,0,.24-1.57,4.51,4.51,0,0,0-.24-1.55,2.08,2.08,0,0,0-.74-1,2.21,2.21,0,0,0-1.29-.35,2,2,0,0,0-1.71.77A3.7,3.7,0,0,0,185,44.06Z"/><path class="cls-4" d="M197.73,41.29h-2.47v6.53h-1.12V41.29H191.7v-1h6Z"/><path class="cls-4" d="M206.57,47.82h-1.11V40c0-.19,0-.37,0-.53a4,4,0,0,1,0-.49c-.15.14-.28.27-.4.37l-.46.38-1.14.91-.59-.77,2.7-2.08h.95Z"/><path class="cls-4" d="M211.64,47.82l4.1-9h-5.45v-1H217v.87l-4.08,9.12Z"/><path class="cls-4" d="M225,42.81a11.74,11.74,0,0,1-.18,2.17,5,5,0,0,1-.58,1.62,2.69,2.69,0,0,1-1,1,3.09,3.09,0,0,1-1.51.35,2.81,2.81,0,0,1-1.84-.61,3.61,3.61,0,0,1-1.09-1.76,9.43,9.43,0,0,1-.36-2.78,10.05,10.05,0,0,1,.33-2.75,3.53,3.53,0,0,1,1.05-1.77,2.85,2.85,0,0,1,1.91-.62,2.8,2.8,0,0,1,1.86.61A3.66,3.66,0,0,1,224.6,40,9.38,9.38,0,0,1,225,42.81Zm-5.44,0a10.74,10.74,0,0,0,.21,2.32,2.83,2.83,0,0,0,.68,1.4,1.93,1.93,0,0,0,2.5,0,2.72,2.72,0,0,0,.69-1.39,10.77,10.77,0,0,0,.22-2.33,10.54,10.54,0,0,0-.22-2.3,2.87,2.87,0,0,0-.68-1.4,1.7,1.7,0,0,0-1.26-.46,1.73,1.73,0,0,0-1.26.46,2.87,2.87,0,0,0-.68,1.4A11.36,11.36,0,0,0,219.51,42.81Z"/><path class="cls-4" d="M233,42.81a10.88,10.88,0,0,1-.19,2.17,4.75,4.75,0,0,1-.58,1.62,2.6,2.6,0,0,1-1,1,3.09,3.09,0,0,1-1.51.35,2.82,2.82,0,0,1-1.85-.61,3.68,3.68,0,0,1-1.08-1.76,9.43,9.43,0,0,1-.36-2.78,10.49,10.49,0,0,1,.32-2.75,3.53,3.53,0,0,1,1.05-1.77,2.88,2.88,0,0,1,1.92-.62,2.8,2.8,0,0,1,1.86.61A3.65,3.65,0,0,1,232.6,40,9.36,9.36,0,0,1,233,42.81Zm-5.45,0a10.74,10.74,0,0,0,.21,2.32,2.75,2.75,0,0,0,.69,1.4,1.75,1.75,0,0,0,1.25.46,1.72,1.72,0,0,0,1.24-.46,2.8,2.8,0,0,0,.7-1.39,10.84,10.84,0,0,0,.21-2.33,10.61,10.61,0,0,0-.21-2.3,2.87,2.87,0,0,0-.68-1.4,1.73,1.73,0,0,0-1.26-.46,1.7,1.7,0,0,0-1.26.46,2.79,2.79,0,0,0-.68,1.4A10.61,10.61,0,0,0,227.51,42.81Z"/><path class="cls-4" d="M238.39,40.19a2.78,2.78,0,0,1,2.23,1,4.28,4.28,0,0,1,.84,2.89,5.23,5.23,0,0,1-.39,2.15A2.82,2.82,0,0,1,240,47.51a3,3,0,0,1-1.64.45,3.31,3.31,0,0,1-1.05-.16,2.59,2.59,0,0,1-.77-.42,2.92,2.92,0,0,1-.53-.59h-.08c0,.18,0,.4,0,.65s0,.47,0,.65v3.08h-1.14V40.33h.93l.15,1.11H236a2.86,2.86,0,0,1,.53-.63,2.34,2.34,0,0,1,.77-.45A3.14,3.14,0,0,1,238.39,40.19Zm-.2,1a2.35,2.35,0,0,0-1.26.3,1.77,1.77,0,0,0-.69.9,4.55,4.55,0,0,0-.23,1.5v.22a5.26,5.26,0,0,0,.21,1.6,1.89,1.89,0,0,0,.69,1,2.17,2.17,0,0,0,1.29.34,1.77,1.77,0,0,0,1.16-.37,2.22,2.22,0,0,0,.7-1,4.91,4.91,0,0,0,.23-1.55,3.75,3.75,0,0,0-.52-2.11A1.76,1.76,0,0,0,238.19,41.15Z"/><path class="cls-4" d="M243.26,47.11a.87.87,0,0,1,.23-.68.83.83,0,0,1,.57-.2.86.86,0,0,1,.59.2.84.84,0,0,1,.24.68.9.9,0,0,1-.24.69.87.87,0,0,1-.59.21.84.84,0,0,1-.57-.21A.94.94,0,0,1,243.26,47.11Z"/><path class="cls-4" d="M256.7,42.21a1.44,1.44,0,0,1-.41,1.09,2.05,2.05,0,0,1-1.06.53v.06a2.39,2.39,0,0,1,1.21.5,1.5,1.5,0,0,1,.51,1.24,2.16,2.16,0,0,1-.3,1.14,2.06,2.06,0,0,1-1,.77,4.36,4.36,0,0,1-1.71.28h-3.22V40.33H254a5.1,5.1,0,0,1,1.42.18,2,2,0,0,1,1,.59A1.61,1.61,0,0,1,256.7,42.21Zm-1.16.13a.89.89,0,0,0-.38-.8,2.43,2.43,0,0,0-1.28-.26h-2v2.15h1.79a3,3,0,0,0,1.39-.26A.88.88,0,0,0,255.54,42.34Zm.23,3.29a1,1,0,0,0-.5-1,2.89,2.89,0,0,0-1.46-.3h-1.92V46.9h2a2.91,2.91,0,0,0,1.43-.29A1,1,0,0,0,255.77,45.63Z"/><path class="cls-4" d="M270.33,40.33v7.49h-1V42.94c0-.2,0-.4,0-.61s0-.42.05-.63h0l-2.49,6.12h-1l-2.42-6.12h0l0,.63c0,.21,0,.42,0,.65v4.84h-1V40.33h1.52l2.42,6.12,2.45-6.12Z"/><path class="cls-4" d="M275.57,40.19a3,3,0,0,1,1.64.43,2.68,2.68,0,0,1,1.05,1.18,4.13,4.13,0,0,1,.36,1.78v.71h-5.17a2.94,2.94,0,0,0,.65,2,2.34,2.34,0,0,0,1.8.69,5.78,5.78,0,0,0,1.25-.13,7,7,0,0,0,1.14-.39v1a5.52,5.52,0,0,1-1.13.37,6.29,6.29,0,0,1-1.31.12,3.94,3.94,0,0,1-1.89-.44,3.06,3.06,0,0,1-1.24-1.3,4.45,4.45,0,0,1-.45-2.09,5,5,0,0,1,.41-2.1,3,3,0,0,1,2.89-1.84Zm0,.93a1.85,1.85,0,0,0-1.45.6,2.79,2.79,0,0,0-.64,1.66h4a3.28,3.28,0,0,0-.2-1.18,1.72,1.72,0,0,0-.62-.8A1.86,1.86,0,0,0,275.56,41.12Z"/><path class="cls-4" d="M283.55,48a3.66,3.66,0,0,1-1.78-.42,2.87,2.87,0,0,1-1.21-1.27,5.61,5.61,0,0,1,0-4.38,2.92,2.92,0,0,1,1.25-1.28,3.88,3.88,0,0,1,1.82-.42,5.42,5.42,0,0,1,1.08.11,3.44,3.44,0,0,1,.86.29l-.34.95a5.69,5.69,0,0,0-.79-.25,3.73,3.73,0,0,0-.84-.11,2.25,2.25,0,0,0-1.29.34,2,2,0,0,0-.77,1,4.43,4.43,0,0,0-.26,1.6,4.2,4.2,0,0,0,.25,1.55,2,2,0,0,0,.74,1,2.13,2.13,0,0,0,1.24.34,4.46,4.46,0,0,0,1.08-.12,7.33,7.33,0,0,0,.87-.3v1a3.08,3.08,0,0,1-.84.29A5,5,0,0,1,283.55,48Z"/><path class="cls-4" d="M287.62,47.82h-1.33l2.16-3.16a2.74,2.74,0,0,1-.87-.35,1.8,1.8,0,0,1-.65-.69,2.11,2.11,0,0,1-.25-1.08,2,2,0,0,1,.72-1.65,3,3,0,0,1,1.9-.56h3.32v7.49h-1.14v-3h-1.9Zm.16-5.28a1.14,1.14,0,0,0,.47,1,2.5,2.5,0,0,0,1.37.32h1.86V41.28h-2.06a1.88,1.88,0,0,0-1.26.35A1.21,1.21,0,0,0,287.78,42.54Z"/><path class="cls-4" d="M302.3,50.41h-1.1V47.82H295V40.33h1.14v6.53h4V40.33h1.14v6.54h1Z"/></svg>