<svg id="Слой_1" data-name="Слой 1" xmlns="http://www.w3.org/2000/svg" viewBox="0 0 1440 480"><defs><style>.cls-1{fill:#f2f4f3;}.cls-2{fill:#ff5714;}</style></defs><circle class="cls-1" cx="571.93" cy="240" r="32.99"/><path class="cls-2" d="M571.93,365a125,125,0,1,1,79.75-221.26,24.31,24.31,0,1,1-31,37.42,76.39,76.39,0,1,0,0,117.68,24.31,24.31,0,1,1,31,37.42A124.55,124.55,0,0,1,571.93,365Z"/><path class="cls-2" d="M363,305a65,65,0,1,1,41.47-115,12.64,12.64,0,0,1-16.14,19.45,39.72,39.72,0,1,0,0,61.2,12.64,12.64,0,1,1,16.14,19.45A64.85,64.85,0,0,1,363,305Z"/><path class="cls-2" d="M161.55,305a12.64,12.64,0,0,1-11.68-17.44l43-104.72a12.64,12.64,0,1,1,23.38,9.6l-43,104.72A12.65,12.65,0,0,1,161.55,305Z"/><path class="cls-2" d="M247.5,305a12.64,12.64,0,0,1-11.69-7.84l-43-104.72a12.64,12.64,0,1,1,23.38-9.6l43,104.72A12.64,12.64,0,0,1,247.5,305Z"/><path class="cls-2" d="M237.21,281.35h-65.9a12.64,12.64,0,0,1,0-25.28h65.9a12.64,12.64,0,1,1,0,25.28Z"/><path class="cls-2" d="M12,304.82a12.6,12.6,0,0,1-12.6-12.6V187.78a12.6,12.6,0,0,1,25.2,0V292.22A12.6,12.6,0,0,1,12,304.82Z"/><path class="cls-2" d="M12,260.71a12.61,12.61,0,0,1-7.24-22.93l86.43-60.5a12.6,12.6,0,1,1,14.45,20.65l-86.42,60.5A12.55,12.55,0,0,1,12,260.71Z"/><path class="cls-2" d="M98.43,305a12.55,12.55,0,0,1-7.22-2.28L4.78,242.22a12.6,12.6,0,0,1,14.46-20.65l86.42,60.5A12.6,12.6,0,0,1,98.43,305Z"/><path class="cls-1" d="M711,305a12.64,12.64,0,0,1-12.64-12.64V187.64a12.64,12.64,0,1,1,25.28,0V292.36A12.64,12.64,0,0,1,711,305Z"/><path class="cls-1" d="M796.94,305a12.64,12.64,0,0,1-12.64-12.64V187.64a12.64,12.64,0,1,1,25.27,0V292.36A12.63,12.63,0,0,1,796.94,305Z"/><path class="cls-1" d="M796.94,305H711a12.64,12.64,0,0,1,0-25.28h86a12.64,12.64,0,0,1,0,25.28Z"/><path class="cls-1" d="M828.33,305H796.92a12.64,12.64,0,0,1,0-25.27h31.41a12.64,12.64,0,0,1,0,25.27Z"/><path class="cls-1" d="M828.33,336.4a12.64,12.64,0,0,1-12.64-12.64v-31.4a12.64,12.64,0,1,1,25.27,0v31.4A12.63,12.63,0,0,1,828.33,336.4Z"/><path class="cls-1" d="M977.52,200.26h-86a12.67,12.67,0,1,1,0-25.34h86a12.67,12.67,0,1,1,0,25.34Z"/><path class="cls-1" d="M977.52,252.59h-86a12.68,12.68,0,0,1,0-25.35h86a12.68,12.68,0,0,1,0,25.35Z"/><path class="cls-1" d="M977.52,304.92h-86a12.68,12.68,0,0,1,0-25.35h86a12.68,12.68,0,0,1,0,25.35Z"/><path class="cls-1" d="M891.51,304.92a12.68,12.68,0,0,1-12.67-12.68V187.59a12.68,12.68,0,0,1,25.35,0V292.24A12.68,12.68,0,0,1,891.51,304.92Z"/><path class="cls-1" d="M1040.7,305.14a12.63,12.63,0,0,1-12.63-12.64V187.77a12.64,12.64,0,0,1,25.27,0V292.5A12.64,12.64,0,0,1,1040.7,305.14Z"/><path class="cls-1" d="M1126.65,305.14A12.64,12.64,0,0,1,1114,292.5V187.77a12.64,12.64,0,0,1,25.28,0V292.5A12.64,12.64,0,0,1,1126.65,305.14Z"/><path class="cls-1" d="M1126.65,252.77h-86a12.64,12.64,0,0,1,0-25.27h86a12.64,12.64,0,1,1,0,25.27Z"/><path class="cls-1" d="M1275.57,200.28H1189.8a12.64,12.64,0,1,1,0-25.28h85.77a12.64,12.64,0,0,1,0,25.28Z"/><path class="cls-1" d="M1232.59,305A12.64,12.64,0,0,1,1220,292.36V187.64a12.64,12.64,0,0,1,25.28,0V292.36A12.64,12.64,0,0,1,1232.59,305Z"/><path class="cls-1" d="M1339,306.5a12.93,12.93,0,0,1-12.93-12.93V186.43a12.93,12.93,0,1,1,25.86,0V293.57A12.93,12.93,0,0,1,1339,306.5Z"/><path class="cls-1" d="M1400.34,252.93H1339a12.93,12.93,0,0,1,0-25.86h61.33a13.86,13.86,0,0,0,0-27.71H1339a12.93,12.93,0,0,1,0-25.86h61.33a39.72,39.72,0,0,1,0,79.43Z"/></svg>